G04 #@! TF.GenerationSoftware,KiCad,Pcbnew,(5.1.6)-1*
G04 #@! TF.CreationDate,2022-07-30T11:43:32-05:00*
G04 #@! TF.ProjectId,pinstripe_bottom,70696e73-7472-4697-9065-5f626f74746f,rev?*
G04 #@! TF.SameCoordinates,Original*
G04 #@! TF.FileFunction,Soldermask,Top*
G04 #@! TF.FilePolarity,Negative*
%FSLAX46Y46*%
G04 Gerber Fmt 4.6, Leading zero omitted, Abs format (unit mm)*
G04 Created by KiCad (PCBNEW (5.1.6)-1) date 2022-07-30 11:43:32*
%MOMM*%
%LPD*%
G01*
G04 APERTURE LIST*
%ADD10C,0.100000*%
G04 APERTURE END LIST*
D10*
G36*
X195538380Y-232709776D02*
G01*
X195919093Y-232785504D01*
X196328749Y-232955189D01*
X196697429Y-233201534D01*
X197010966Y-233515071D01*
X197257311Y-233883751D01*
X197426996Y-234293407D01*
X197513500Y-234728296D01*
X197513500Y-235171704D01*
X197426996Y-235606593D01*
X197257311Y-236016249D01*
X197010966Y-236384929D01*
X196697429Y-236698466D01*
X196328749Y-236944811D01*
X195919093Y-237114496D01*
X195538380Y-237190224D01*
X195484205Y-237201000D01*
X195040795Y-237201000D01*
X194986620Y-237190224D01*
X194605907Y-237114496D01*
X194196251Y-236944811D01*
X193827571Y-236698466D01*
X193514034Y-236384929D01*
X193267689Y-236016249D01*
X193098004Y-235606593D01*
X193011500Y-235171704D01*
X193011500Y-234728296D01*
X193098004Y-234293407D01*
X193267689Y-233883751D01*
X193514034Y-233515071D01*
X193827571Y-233201534D01*
X194196251Y-232955189D01*
X194605907Y-232785504D01*
X194986620Y-232709776D01*
X195040795Y-232699000D01*
X195484205Y-232699000D01*
X195538380Y-232709776D01*
G37*
G36*
X320950880Y-225566026D02*
G01*
X321331593Y-225641754D01*
X321741249Y-225811439D01*
X322109929Y-226057784D01*
X322423466Y-226371321D01*
X322669811Y-226740001D01*
X322839496Y-227149657D01*
X322926000Y-227584546D01*
X322926000Y-228027954D01*
X322839496Y-228462843D01*
X322669811Y-228872499D01*
X322423466Y-229241179D01*
X322109929Y-229554716D01*
X321741249Y-229801061D01*
X321331593Y-229970746D01*
X320950880Y-230046474D01*
X320896705Y-230057250D01*
X320453295Y-230057250D01*
X320399120Y-230046474D01*
X320018407Y-229970746D01*
X319608751Y-229801061D01*
X319240071Y-229554716D01*
X318926534Y-229241179D01*
X318680189Y-228872499D01*
X318510504Y-228462843D01*
X318424000Y-228027954D01*
X318424000Y-227584546D01*
X318510504Y-227149657D01*
X318680189Y-226740001D01*
X318926534Y-226371321D01*
X319240071Y-226057784D01*
X319608751Y-225811439D01*
X320018407Y-225641754D01*
X320399120Y-225566026D01*
X320453295Y-225555250D01*
X320896705Y-225555250D01*
X320950880Y-225566026D01*
G37*
G36*
X76475880Y-222391026D02*
G01*
X76856593Y-222466754D01*
X77266249Y-222636439D01*
X77634929Y-222882784D01*
X77948466Y-223196321D01*
X78194811Y-223565001D01*
X78364496Y-223974657D01*
X78451000Y-224409546D01*
X78451000Y-224852954D01*
X78364496Y-225287843D01*
X78194811Y-225697499D01*
X77948466Y-226066179D01*
X77634929Y-226379716D01*
X77266249Y-226626061D01*
X76856593Y-226795746D01*
X76475880Y-226871474D01*
X76421705Y-226882250D01*
X75978295Y-226882250D01*
X75924120Y-226871474D01*
X75543407Y-226795746D01*
X75133751Y-226626061D01*
X74765071Y-226379716D01*
X74451534Y-226066179D01*
X74205189Y-225697499D01*
X74035504Y-225287843D01*
X73949000Y-224852954D01*
X73949000Y-224409546D01*
X74035504Y-223974657D01*
X74205189Y-223565001D01*
X74451534Y-223196321D01*
X74765071Y-222882784D01*
X75133751Y-222636439D01*
X75543407Y-222466754D01*
X75924120Y-222391026D01*
X75978295Y-222380250D01*
X76421705Y-222380250D01*
X76475880Y-222391026D01*
G37*
G36*
X294757130Y-177941026D02*
G01*
X295137843Y-178016754D01*
X295547499Y-178186439D01*
X295916179Y-178432784D01*
X296229716Y-178746321D01*
X296476061Y-179115001D01*
X296645746Y-179524657D01*
X296732250Y-179959546D01*
X296732250Y-180402954D01*
X296645746Y-180837843D01*
X296476061Y-181247499D01*
X296229716Y-181616179D01*
X295916179Y-181929716D01*
X295547499Y-182176061D01*
X295137843Y-182345746D01*
X294757130Y-182421474D01*
X294702955Y-182432250D01*
X294259545Y-182432250D01*
X294205370Y-182421474D01*
X293824657Y-182345746D01*
X293415001Y-182176061D01*
X293046321Y-181929716D01*
X292732784Y-181616179D01*
X292486439Y-181247499D01*
X292316754Y-180837843D01*
X292230250Y-180402954D01*
X292230250Y-179959546D01*
X292316754Y-179524657D01*
X292486439Y-179115001D01*
X292732784Y-178746321D01*
X293046321Y-178432784D01*
X293415001Y-178186439D01*
X293824657Y-178016754D01*
X294205370Y-177941026D01*
X294259545Y-177930250D01*
X294702955Y-177930250D01*
X294757130Y-177941026D01*
G37*
G36*
X61394630Y-177941026D02*
G01*
X61775343Y-178016754D01*
X62184999Y-178186439D01*
X62553679Y-178432784D01*
X62867216Y-178746321D01*
X63113561Y-179115001D01*
X63283246Y-179524657D01*
X63369750Y-179959546D01*
X63369750Y-180402954D01*
X63283246Y-180837843D01*
X63113561Y-181247499D01*
X62867216Y-181616179D01*
X62553679Y-181929716D01*
X62184999Y-182176061D01*
X61775343Y-182345746D01*
X61394630Y-182421474D01*
X61340455Y-182432250D01*
X60897045Y-182432250D01*
X60842870Y-182421474D01*
X60462157Y-182345746D01*
X60052501Y-182176061D01*
X59683821Y-181929716D01*
X59370284Y-181616179D01*
X59123939Y-181247499D01*
X58954254Y-180837843D01*
X58867750Y-180402954D01*
X58867750Y-179959546D01*
X58954254Y-179524657D01*
X59123939Y-179115001D01*
X59370284Y-178746321D01*
X59683821Y-178432784D01*
X60052501Y-178186439D01*
X60462157Y-178016754D01*
X60842870Y-177941026D01*
X60897045Y-177930250D01*
X61340455Y-177930250D01*
X61394630Y-177941026D01*
G37*
G36*
X178075880Y-169209776D02*
G01*
X178456593Y-169285504D01*
X178866249Y-169455189D01*
X179234929Y-169701534D01*
X179548466Y-170015071D01*
X179794811Y-170383751D01*
X179964496Y-170793407D01*
X180051000Y-171228296D01*
X180051000Y-171671704D01*
X179964496Y-172106593D01*
X179794811Y-172516249D01*
X179548466Y-172884929D01*
X179234929Y-173198466D01*
X178866249Y-173444811D01*
X178456593Y-173614496D01*
X178075880Y-173690224D01*
X178021705Y-173701000D01*
X177578295Y-173701000D01*
X177524120Y-173690224D01*
X177143407Y-173614496D01*
X176733751Y-173444811D01*
X176365071Y-173198466D01*
X176051534Y-172884929D01*
X175805189Y-172516249D01*
X175635504Y-172106593D01*
X175549000Y-171671704D01*
X175549000Y-171228296D01*
X175635504Y-170793407D01*
X175805189Y-170383751D01*
X176051534Y-170015071D01*
X176365071Y-169701534D01*
X176733751Y-169455189D01*
X177143407Y-169285504D01*
X177524120Y-169209776D01*
X177578295Y-169199000D01*
X178021705Y-169199000D01*
X178075880Y-169209776D01*
G37*
G36*
X71985656Y-158391544D02*
G01*
X72706640Y-158534956D01*
X73498472Y-158862943D01*
X74211101Y-159339107D01*
X74817143Y-159945149D01*
X75293307Y-160657778D01*
X75621294Y-161449610D01*
X75788500Y-162290214D01*
X75788500Y-163147286D01*
X75621294Y-163987890D01*
X75293307Y-164779722D01*
X74817143Y-165492351D01*
X74211101Y-166098393D01*
X73498472Y-166574557D01*
X72706640Y-166902544D01*
X71985656Y-167045956D01*
X71866037Y-167069750D01*
X71008963Y-167069750D01*
X70889344Y-167045956D01*
X70168360Y-166902544D01*
X69376528Y-166574557D01*
X68663899Y-166098393D01*
X68057857Y-165492351D01*
X67581693Y-164779722D01*
X67253706Y-163987890D01*
X67086500Y-163147286D01*
X67086500Y-162290214D01*
X67253706Y-161449610D01*
X67581693Y-160657778D01*
X68057857Y-159945149D01*
X68663899Y-159339107D01*
X69376528Y-158862943D01*
X70168360Y-158534956D01*
X70889344Y-158391544D01*
X71008963Y-158367750D01*
X71866037Y-158367750D01*
X71985656Y-158391544D01*
G37*
G36*
X322810656Y-158391544D02*
G01*
X323531640Y-158534956D01*
X324323472Y-158862943D01*
X325036101Y-159339107D01*
X325642143Y-159945149D01*
X326118307Y-160657778D01*
X326446294Y-161449610D01*
X326613500Y-162290214D01*
X326613500Y-163147286D01*
X326446294Y-163987890D01*
X326118307Y-164779722D01*
X325642143Y-165492351D01*
X325036101Y-166098393D01*
X324323472Y-166574557D01*
X323531640Y-166902544D01*
X322810656Y-167045956D01*
X322691037Y-167069750D01*
X321833963Y-167069750D01*
X321714344Y-167045956D01*
X320993360Y-166902544D01*
X320201528Y-166574557D01*
X319488899Y-166098393D01*
X318882857Y-165492351D01*
X318406693Y-164779722D01*
X318078706Y-163987890D01*
X317911500Y-163147286D01*
X317911500Y-162290214D01*
X318078706Y-161449610D01*
X318406693Y-160657778D01*
X318882857Y-159945149D01*
X319488899Y-159339107D01*
X320201528Y-158862943D01*
X320993360Y-158534956D01*
X321714344Y-158391544D01*
X321833963Y-158367750D01*
X322691037Y-158367750D01*
X322810656Y-158391544D01*
G37*
G36*
X354288380Y-143809776D02*
G01*
X354669093Y-143885504D01*
X355078749Y-144055189D01*
X355447429Y-144301534D01*
X355760966Y-144615071D01*
X356007311Y-144983751D01*
X356176996Y-145393407D01*
X356263500Y-145828296D01*
X356263500Y-146271704D01*
X356176996Y-146706593D01*
X356007311Y-147116249D01*
X355760966Y-147484929D01*
X355447429Y-147798466D01*
X355078749Y-148044811D01*
X354669093Y-148214496D01*
X354288380Y-148290224D01*
X354234205Y-148301000D01*
X353790795Y-148301000D01*
X353736620Y-148290224D01*
X353355907Y-148214496D01*
X352946251Y-148044811D01*
X352577571Y-147798466D01*
X352264034Y-147484929D01*
X352017689Y-147116249D01*
X351848004Y-146706593D01*
X351761500Y-146271704D01*
X351761500Y-145828296D01*
X351848004Y-145393407D01*
X352017689Y-144983751D01*
X352264034Y-144615071D01*
X352577571Y-144301534D01*
X352946251Y-144055189D01*
X353355907Y-143885504D01*
X353736620Y-143809776D01*
X353790795Y-143799000D01*
X354234205Y-143799000D01*
X354288380Y-143809776D01*
G37*
G36*
X39963380Y-143809776D02*
G01*
X40344093Y-143885504D01*
X40753749Y-144055189D01*
X41122429Y-144301534D01*
X41435966Y-144615071D01*
X41682311Y-144983751D01*
X41851996Y-145393407D01*
X41938500Y-145828296D01*
X41938500Y-146271704D01*
X41851996Y-146706593D01*
X41682311Y-147116249D01*
X41435966Y-147484929D01*
X41122429Y-147798466D01*
X40753749Y-148044811D01*
X40344093Y-148214496D01*
X39963380Y-148290224D01*
X39909205Y-148301000D01*
X39465795Y-148301000D01*
X39411620Y-148290224D01*
X39030907Y-148214496D01*
X38621251Y-148044811D01*
X38252571Y-147798466D01*
X37939034Y-147484929D01*
X37692689Y-147116249D01*
X37523004Y-146706593D01*
X37436500Y-146271704D01*
X37436500Y-145828296D01*
X37523004Y-145393407D01*
X37692689Y-144983751D01*
X37939034Y-144615071D01*
X38252571Y-144301534D01*
X38621251Y-144055189D01*
X39030907Y-143885504D01*
X39411620Y-143809776D01*
X39465795Y-143799000D01*
X39909205Y-143799000D01*
X39963380Y-143809776D01*
G37*
G36*
X197125880Y-126347276D02*
G01*
X197506593Y-126423004D01*
X197916249Y-126592689D01*
X198284929Y-126839034D01*
X198598466Y-127152571D01*
X198844811Y-127521251D01*
X199014496Y-127930907D01*
X199101000Y-128365796D01*
X199101000Y-128809204D01*
X199014496Y-129244093D01*
X198844811Y-129653749D01*
X198598466Y-130022429D01*
X198284929Y-130335966D01*
X197916249Y-130582311D01*
X197506593Y-130751996D01*
X197125880Y-130827724D01*
X197071705Y-130838500D01*
X196628295Y-130838500D01*
X196574120Y-130827724D01*
X196193407Y-130751996D01*
X195783751Y-130582311D01*
X195415071Y-130335966D01*
X195101534Y-130022429D01*
X194855189Y-129653749D01*
X194685504Y-129244093D01*
X194599000Y-128809204D01*
X194599000Y-128365796D01*
X194685504Y-127930907D01*
X194855189Y-127521251D01*
X195101534Y-127152571D01*
X195415071Y-126839034D01*
X195783751Y-126592689D01*
X196193407Y-126423004D01*
X196574120Y-126347276D01*
X196628295Y-126336500D01*
X197071705Y-126336500D01*
X197125880Y-126347276D01*
G37*
G36*
X39963380Y-126347276D02*
G01*
X40344093Y-126423004D01*
X40753749Y-126592689D01*
X41122429Y-126839034D01*
X41435966Y-127152571D01*
X41682311Y-127521251D01*
X41851996Y-127930907D01*
X41938500Y-128365796D01*
X41938500Y-128809204D01*
X41851996Y-129244093D01*
X41682311Y-129653749D01*
X41435966Y-130022429D01*
X41122429Y-130335966D01*
X40753749Y-130582311D01*
X40344093Y-130751996D01*
X39963380Y-130827724D01*
X39909205Y-130838500D01*
X39465795Y-130838500D01*
X39411620Y-130827724D01*
X39030907Y-130751996D01*
X38621251Y-130582311D01*
X38252571Y-130335966D01*
X37939034Y-130022429D01*
X37692689Y-129653749D01*
X37523004Y-129244093D01*
X37436500Y-128809204D01*
X37436500Y-128365796D01*
X37523004Y-127930907D01*
X37692689Y-127521251D01*
X37939034Y-127152571D01*
X38252571Y-126839034D01*
X38621251Y-126592689D01*
X39030907Y-126423004D01*
X39411620Y-126347276D01*
X39465795Y-126336500D01*
X39909205Y-126336500D01*
X39963380Y-126347276D01*
G37*
G36*
X354288380Y-126347276D02*
G01*
X354669093Y-126423004D01*
X355078749Y-126592689D01*
X355447429Y-126839034D01*
X355760966Y-127152571D01*
X356007311Y-127521251D01*
X356176996Y-127930907D01*
X356263500Y-128365796D01*
X356263500Y-128809204D01*
X356176996Y-129244093D01*
X356007311Y-129653749D01*
X355760966Y-130022429D01*
X355447429Y-130335966D01*
X355078749Y-130582311D01*
X354669093Y-130751996D01*
X354288380Y-130827724D01*
X354234205Y-130838500D01*
X353790795Y-130838500D01*
X353736620Y-130827724D01*
X353355907Y-130751996D01*
X352946251Y-130582311D01*
X352577571Y-130335966D01*
X352264034Y-130022429D01*
X352017689Y-129653749D01*
X351848004Y-129244093D01*
X351761500Y-128809204D01*
X351761500Y-128365796D01*
X351848004Y-127930907D01*
X352017689Y-127521251D01*
X352264034Y-127152571D01*
X352577571Y-126839034D01*
X352946251Y-126592689D01*
X353355907Y-126423004D01*
X353736620Y-126347276D01*
X353790795Y-126336500D01*
X354234205Y-126336500D01*
X354288380Y-126347276D01*
G37*
M02*
