G04 #@! TF.GenerationSoftware,KiCad,Pcbnew,(5.1.6)-1*
G04 #@! TF.CreationDate,2022-07-30T11:43:32-05:00*
G04 #@! TF.ProjectId,pinstripe_bottom,70696e73-7472-4697-9065-5f626f74746f,rev?*
G04 #@! TF.SameCoordinates,Original*
G04 #@! TF.FileFunction,Soldermask,Bot*
G04 #@! TF.FilePolarity,Negative*
%FSLAX46Y46*%
G04 Gerber Fmt 4.6, Leading zero omitted, Abs format (unit mm)*
G04 Created by KiCad (PCBNEW (5.1.6)-1) date 2022-07-30 11:43:32*
%MOMM*%
%LPD*%
G01*
G04 APERTURE LIST*
%ADD10C,0.100000*%
%ADD11C,0.010000*%
G04 APERTURE END LIST*
D10*
G36*
X78263750Y-246062500D02*
G01*
X75723750Y-246062500D01*
X35718750Y-205978125D01*
X35718750Y-203596875D01*
X78263750Y-246062500D01*
G37*
X78263750Y-246062500D02*
X75723750Y-246062500D01*
X35718750Y-205978125D01*
X35718750Y-203596875D01*
X78263750Y-246062500D01*
G36*
X115570000Y-246062500D02*
G01*
X113030000Y-246062500D01*
X35718750Y-168671875D01*
X35718750Y-166290625D01*
X115570000Y-246062500D01*
G37*
X115570000Y-246062500D02*
X113030000Y-246062500D01*
X35718750Y-168671875D01*
X35718750Y-166290625D01*
X115570000Y-246062500D01*
G36*
X152876250Y-246062500D02*
G01*
X150336250Y-246062500D01*
X35718750Y-131365625D01*
X35718750Y-128984375D01*
X152876250Y-246062500D01*
G37*
X152876250Y-246062500D02*
X150336250Y-246062500D01*
X35718750Y-131365625D01*
X35718750Y-128984375D01*
X152876250Y-246062500D01*
G36*
X190182500Y-246062500D02*
G01*
X187642500Y-246062500D01*
X66198750Y-124618750D01*
X68738750Y-124618750D01*
X190182500Y-246062500D01*
G37*
X190182500Y-246062500D02*
X187642500Y-246062500D01*
X66198750Y-124618750D01*
X68738750Y-124618750D01*
X190182500Y-246062500D01*
D11*
G36*
X263380277Y-186761317D02*
G01*
X263130828Y-186784715D01*
X262928806Y-186825390D01*
X262648543Y-186929924D01*
X262393741Y-187082555D01*
X262168218Y-187279249D01*
X261975792Y-187515972D01*
X261820279Y-187788691D01*
X261705498Y-188093373D01*
X261695624Y-188128297D01*
X261659143Y-188313427D01*
X261637857Y-188534617D01*
X261631735Y-188773578D01*
X261640745Y-189012018D01*
X261664855Y-189231647D01*
X261697842Y-189392277D01*
X261811761Y-189726837D01*
X261960668Y-190017840D01*
X262144146Y-190264829D01*
X262361781Y-190467348D01*
X262613155Y-190624939D01*
X262897853Y-190737144D01*
X262930342Y-190746463D01*
X263057304Y-190771576D01*
X263224178Y-190790318D01*
X263414745Y-190802252D01*
X263612783Y-190806941D01*
X263802074Y-190803949D01*
X263966399Y-190792837D01*
X264071806Y-190777221D01*
X264272337Y-190725988D01*
X264446561Y-190658789D01*
X264620564Y-190564692D01*
X264701977Y-190513131D01*
X264888857Y-190367249D01*
X265044415Y-190191591D01*
X265178157Y-189974839D01*
X265213450Y-189904287D01*
X265346072Y-189562878D01*
X265429138Y-189197021D01*
X265462036Y-188810376D01*
X265450929Y-188477740D01*
X265399161Y-188140941D01*
X265304588Y-187833118D01*
X265169480Y-187557588D01*
X264996105Y-187317669D01*
X264786731Y-187116679D01*
X264543629Y-186957936D01*
X264354028Y-186873517D01*
X264148059Y-186815742D01*
X263905824Y-186777403D01*
X263644252Y-186759070D01*
X263380277Y-186761317D01*
G37*
X263380277Y-186761317D02*
X263130828Y-186784715D01*
X262928806Y-186825390D01*
X262648543Y-186929924D01*
X262393741Y-187082555D01*
X262168218Y-187279249D01*
X261975792Y-187515972D01*
X261820279Y-187788691D01*
X261705498Y-188093373D01*
X261695624Y-188128297D01*
X261659143Y-188313427D01*
X261637857Y-188534617D01*
X261631735Y-188773578D01*
X261640745Y-189012018D01*
X261664855Y-189231647D01*
X261697842Y-189392277D01*
X261811761Y-189726837D01*
X261960668Y-190017840D01*
X262144146Y-190264829D01*
X262361781Y-190467348D01*
X262613155Y-190624939D01*
X262897853Y-190737144D01*
X262930342Y-190746463D01*
X263057304Y-190771576D01*
X263224178Y-190790318D01*
X263414745Y-190802252D01*
X263612783Y-190806941D01*
X263802074Y-190803949D01*
X263966399Y-190792837D01*
X264071806Y-190777221D01*
X264272337Y-190725988D01*
X264446561Y-190658789D01*
X264620564Y-190564692D01*
X264701977Y-190513131D01*
X264888857Y-190367249D01*
X265044415Y-190191591D01*
X265178157Y-189974839D01*
X265213450Y-189904287D01*
X265346072Y-189562878D01*
X265429138Y-189197021D01*
X265462036Y-188810376D01*
X265450929Y-188477740D01*
X265399161Y-188140941D01*
X265304588Y-187833118D01*
X265169480Y-187557588D01*
X264996105Y-187317669D01*
X264786731Y-187116679D01*
X264543629Y-186957936D01*
X264354028Y-186873517D01*
X264148059Y-186815742D01*
X263905824Y-186777403D01*
X263644252Y-186759070D01*
X263380277Y-186761317D01*
G36*
X321476695Y-186762366D02*
G01*
X321174573Y-186788312D01*
X320915757Y-186838107D01*
X320690857Y-186915380D01*
X320490483Y-187023759D01*
X320305242Y-187166874D01*
X320219917Y-187247993D01*
X320009331Y-187494462D01*
X319847781Y-187761976D01*
X319734155Y-188053734D01*
X319667339Y-188372935D01*
X319646223Y-188722777D01*
X319650962Y-188884277D01*
X319670416Y-189123836D01*
X319703883Y-189328460D01*
X319756675Y-189518984D01*
X319834104Y-189716242D01*
X319898129Y-189853770D01*
X320054873Y-190124490D01*
X320239718Y-190347353D01*
X320456122Y-190525284D01*
X320707540Y-190661204D01*
X320953694Y-190746532D01*
X321089015Y-190773169D01*
X321263742Y-190792455D01*
X321461267Y-190803997D01*
X321664982Y-190807400D01*
X321858280Y-190802270D01*
X322024553Y-190788213D01*
X322110806Y-190773987D01*
X322327188Y-190710001D01*
X322544358Y-190614946D01*
X322743829Y-190498344D01*
X322907111Y-190369716D01*
X322919984Y-190357300D01*
X323060713Y-190189190D01*
X323190259Y-189977343D01*
X323302794Y-189734211D01*
X323392492Y-189472245D01*
X323449922Y-189224816D01*
X323468751Y-189065621D01*
X323477616Y-188871440D01*
X323476743Y-188662805D01*
X323466359Y-188460248D01*
X323446693Y-188284300D01*
X323439034Y-188239866D01*
X323353412Y-187916832D01*
X323227747Y-187628656D01*
X323063930Y-187378040D01*
X322863854Y-187167680D01*
X322629408Y-187000277D01*
X322535028Y-186950104D01*
X322311430Y-186856703D01*
X322083853Y-186795479D01*
X321837856Y-186763870D01*
X321558997Y-186759314D01*
X321476695Y-186762366D01*
G37*
X321476695Y-186762366D02*
X321174573Y-186788312D01*
X320915757Y-186838107D01*
X320690857Y-186915380D01*
X320490483Y-187023759D01*
X320305242Y-187166874D01*
X320219917Y-187247993D01*
X320009331Y-187494462D01*
X319847781Y-187761976D01*
X319734155Y-188053734D01*
X319667339Y-188372935D01*
X319646223Y-188722777D01*
X319650962Y-188884277D01*
X319670416Y-189123836D01*
X319703883Y-189328460D01*
X319756675Y-189518984D01*
X319834104Y-189716242D01*
X319898129Y-189853770D01*
X320054873Y-190124490D01*
X320239718Y-190347353D01*
X320456122Y-190525284D01*
X320707540Y-190661204D01*
X320953694Y-190746532D01*
X321089015Y-190773169D01*
X321263742Y-190792455D01*
X321461267Y-190803997D01*
X321664982Y-190807400D01*
X321858280Y-190802270D01*
X322024553Y-190788213D01*
X322110806Y-190773987D01*
X322327188Y-190710001D01*
X322544358Y-190614946D01*
X322743829Y-190498344D01*
X322907111Y-190369716D01*
X322919984Y-190357300D01*
X323060713Y-190189190D01*
X323190259Y-189977343D01*
X323302794Y-189734211D01*
X323392492Y-189472245D01*
X323449922Y-189224816D01*
X323468751Y-189065621D01*
X323477616Y-188871440D01*
X323476743Y-188662805D01*
X323466359Y-188460248D01*
X323446693Y-188284300D01*
X323439034Y-188239866D01*
X323353412Y-187916832D01*
X323227747Y-187628656D01*
X323063930Y-187378040D01*
X322863854Y-187167680D01*
X322629408Y-187000277D01*
X322535028Y-186950104D01*
X322311430Y-186856703D01*
X322083853Y-186795479D01*
X321837856Y-186763870D01*
X321558997Y-186759314D01*
X321476695Y-186762366D01*
G36*
X261870472Y-216527944D02*
G01*
X265172472Y-216527944D01*
X265172472Y-193950166D01*
X261870472Y-193950166D01*
X261870472Y-216527944D01*
G37*
X261870472Y-216527944D02*
X265172472Y-216527944D01*
X265172472Y-193950166D01*
X261870472Y-193950166D01*
X261870472Y-216527944D01*
G36*
X269809028Y-193684596D02*
G01*
X269636846Y-193687040D01*
X269499199Y-193692036D01*
X269385136Y-193700341D01*
X269283707Y-193712708D01*
X269183963Y-193729894D01*
X269095361Y-193748195D01*
X268690909Y-193851629D01*
X268326721Y-193980009D01*
X267989863Y-194139406D01*
X267667405Y-194335892D01*
X267364799Y-194560690D01*
X267289941Y-194620881D01*
X267744116Y-196056468D01*
X267830617Y-196329564D01*
X267912156Y-196586374D01*
X267987124Y-196821874D01*
X268053913Y-197031039D01*
X268110913Y-197208847D01*
X268156517Y-197350272D01*
X268189116Y-197450292D01*
X268207101Y-197503883D01*
X268210054Y-197511614D01*
X268238104Y-197506971D01*
X268306582Y-197480454D01*
X268405819Y-197436197D01*
X268526148Y-197378336D01*
X268552755Y-197365062D01*
X268996510Y-197169167D01*
X269435305Y-197029472D01*
X269869257Y-196945964D01*
X270298484Y-196918628D01*
X270723103Y-196947451D01*
X271143234Y-197032416D01*
X271180750Y-197042794D01*
X271404085Y-197119310D01*
X271648778Y-197225776D01*
X271895885Y-197352622D01*
X272126464Y-197490279D01*
X272284472Y-197600375D01*
X272466249Y-197750086D01*
X272663965Y-197933537D01*
X272863752Y-198136535D01*
X273051740Y-198344888D01*
X273214063Y-198544404D01*
X273237659Y-198575817D01*
X273413361Y-198812912D01*
X273413361Y-216527944D01*
X276715361Y-216527944D01*
X276715361Y-193950166D01*
X274462283Y-193950166D01*
X274160073Y-194860333D01*
X274088073Y-195076226D01*
X274021184Y-195274975D01*
X273961585Y-195450242D01*
X273911458Y-195595690D01*
X273872982Y-195704981D01*
X273848337Y-195771777D01*
X273840224Y-195790193D01*
X273817919Y-195776404D01*
X273769623Y-195724605D01*
X273702145Y-195642721D01*
X273622295Y-195538676D01*
X273610917Y-195523335D01*
X273279034Y-195117419D01*
X272918353Y-194758616D01*
X272530326Y-194447897D01*
X272116403Y-194186229D01*
X271678036Y-193974583D01*
X271216678Y-193813926D01*
X270949234Y-193746683D01*
X270845008Y-193725417D01*
X270746738Y-193709482D01*
X270643586Y-193698141D01*
X270524714Y-193690658D01*
X270379284Y-193686295D01*
X270196456Y-193684314D01*
X270026694Y-193683950D01*
X269809028Y-193684596D01*
G37*
X269809028Y-193684596D02*
X269636846Y-193687040D01*
X269499199Y-193692036D01*
X269385136Y-193700341D01*
X269283707Y-193712708D01*
X269183963Y-193729894D01*
X269095361Y-193748195D01*
X268690909Y-193851629D01*
X268326721Y-193980009D01*
X267989863Y-194139406D01*
X267667405Y-194335892D01*
X267364799Y-194560690D01*
X267289941Y-194620881D01*
X267744116Y-196056468D01*
X267830617Y-196329564D01*
X267912156Y-196586374D01*
X267987124Y-196821874D01*
X268053913Y-197031039D01*
X268110913Y-197208847D01*
X268156517Y-197350272D01*
X268189116Y-197450292D01*
X268207101Y-197503883D01*
X268210054Y-197511614D01*
X268238104Y-197506971D01*
X268306582Y-197480454D01*
X268405819Y-197436197D01*
X268526148Y-197378336D01*
X268552755Y-197365062D01*
X268996510Y-197169167D01*
X269435305Y-197029472D01*
X269869257Y-196945964D01*
X270298484Y-196918628D01*
X270723103Y-196947451D01*
X271143234Y-197032416D01*
X271180750Y-197042794D01*
X271404085Y-197119310D01*
X271648778Y-197225776D01*
X271895885Y-197352622D01*
X272126464Y-197490279D01*
X272284472Y-197600375D01*
X272466249Y-197750086D01*
X272663965Y-197933537D01*
X272863752Y-198136535D01*
X273051740Y-198344888D01*
X273214063Y-198544404D01*
X273237659Y-198575817D01*
X273413361Y-198812912D01*
X273413361Y-216527944D01*
X276715361Y-216527944D01*
X276715361Y-193950166D01*
X274462283Y-193950166D01*
X274160073Y-194860333D01*
X274088073Y-195076226D01*
X274021184Y-195274975D01*
X273961585Y-195450242D01*
X273911458Y-195595690D01*
X273872982Y-195704981D01*
X273848337Y-195771777D01*
X273840224Y-195790193D01*
X273817919Y-195776404D01*
X273769623Y-195724605D01*
X273702145Y-195642721D01*
X273622295Y-195538676D01*
X273610917Y-195523335D01*
X273279034Y-195117419D01*
X272918353Y-194758616D01*
X272530326Y-194447897D01*
X272116403Y-194186229D01*
X271678036Y-193974583D01*
X271216678Y-193813926D01*
X270949234Y-193746683D01*
X270845008Y-193725417D01*
X270746738Y-193709482D01*
X270643586Y-193698141D01*
X270524714Y-193690658D01*
X270379284Y-193686295D01*
X270196456Y-193684314D01*
X270026694Y-193683950D01*
X269809028Y-193684596D01*
G36*
X309199721Y-193680119D02*
G01*
X309038625Y-193694255D01*
X308528191Y-193782036D01*
X308042139Y-193918820D01*
X307573721Y-194106529D01*
X307548139Y-194118461D01*
X307219212Y-194289738D01*
X306921882Y-194482078D01*
X306643192Y-194705282D01*
X306370185Y-194969155D01*
X306245341Y-195104217D01*
X305958673Y-195453132D01*
X305710595Y-195819402D01*
X305498573Y-196208830D01*
X305320075Y-196627223D01*
X305172567Y-197080387D01*
X305053516Y-197574126D01*
X304975027Y-198015462D01*
X304970382Y-198048194D01*
X304966030Y-198085024D01*
X304961959Y-198127824D01*
X304958158Y-198178465D01*
X304954614Y-198238821D01*
X304951317Y-198310764D01*
X304948254Y-198396165D01*
X304945415Y-198496898D01*
X304942787Y-198614834D01*
X304940359Y-198751846D01*
X304938120Y-198909806D01*
X304936058Y-199090586D01*
X304934162Y-199296059D01*
X304932420Y-199528096D01*
X304930819Y-199788571D01*
X304929350Y-200079355D01*
X304928000Y-200402322D01*
X304926758Y-200759342D01*
X304925612Y-201152288D01*
X304924550Y-201583033D01*
X304923562Y-202053449D01*
X304922635Y-202565408D01*
X304921759Y-203120782D01*
X304920920Y-203721445D01*
X304920109Y-204369267D01*
X304919313Y-205066121D01*
X304918521Y-205813880D01*
X304917721Y-206614416D01*
X304916936Y-207433333D01*
X304908350Y-216527944D01*
X308211361Y-216527944D01*
X308211593Y-207983666D01*
X308211715Y-207044960D01*
X308212030Y-206157427D01*
X308212537Y-205321390D01*
X308213233Y-204537167D01*
X308214119Y-203805081D01*
X308215193Y-203125451D01*
X308216454Y-202498598D01*
X308217902Y-201924843D01*
X308219534Y-201404507D01*
X308221350Y-200937909D01*
X308223349Y-200525371D01*
X308225530Y-200167213D01*
X308227891Y-199863756D01*
X308230433Y-199615321D01*
X308233153Y-199422227D01*
X308236050Y-199284796D01*
X308239124Y-199203348D01*
X308240526Y-199185388D01*
X308300619Y-198809375D01*
X308391860Y-198458160D01*
X308511763Y-198137081D01*
X308657838Y-197851477D01*
X308827598Y-197606687D01*
X309018554Y-197408049D01*
X309098760Y-197343856D01*
X309272175Y-197225731D01*
X309438554Y-197135932D01*
X309619642Y-197064225D01*
X309817517Y-197005542D01*
X309932559Y-196976980D01*
X310036077Y-196956951D01*
X310142882Y-196943955D01*
X310267782Y-196936489D01*
X310425586Y-196933052D01*
X310539694Y-196932306D01*
X310731618Y-196933157D01*
X310881441Y-196937958D01*
X311003439Y-196947913D01*
X311111889Y-196964226D01*
X311221067Y-196988101D01*
X311231139Y-196990592D01*
X311647994Y-197116968D01*
X312041222Y-197283943D01*
X312418771Y-197495783D01*
X312788590Y-197756753D01*
X313029949Y-197955933D01*
X313177760Y-198084722D01*
X313178472Y-216527944D01*
X316480472Y-216527944D01*
X316480472Y-193949526D01*
X315348475Y-193956902D01*
X314216478Y-193964277D01*
X313705328Y-195245859D01*
X313547734Y-195111301D01*
X313091989Y-194759096D01*
X312603673Y-194452255D01*
X312085413Y-194192013D01*
X311539835Y-193979606D01*
X310969564Y-193816271D01*
X310654442Y-193749315D01*
X310454731Y-193719589D01*
X310216380Y-193696406D01*
X309955545Y-193680317D01*
X309688386Y-193671872D01*
X309431059Y-193671623D01*
X309199721Y-193680119D01*
G37*
X309199721Y-193680119D02*
X309038625Y-193694255D01*
X308528191Y-193782036D01*
X308042139Y-193918820D01*
X307573721Y-194106529D01*
X307548139Y-194118461D01*
X307219212Y-194289738D01*
X306921882Y-194482078D01*
X306643192Y-194705282D01*
X306370185Y-194969155D01*
X306245341Y-195104217D01*
X305958673Y-195453132D01*
X305710595Y-195819402D01*
X305498573Y-196208830D01*
X305320075Y-196627223D01*
X305172567Y-197080387D01*
X305053516Y-197574126D01*
X304975027Y-198015462D01*
X304970382Y-198048194D01*
X304966030Y-198085024D01*
X304961959Y-198127824D01*
X304958158Y-198178465D01*
X304954614Y-198238821D01*
X304951317Y-198310764D01*
X304948254Y-198396165D01*
X304945415Y-198496898D01*
X304942787Y-198614834D01*
X304940359Y-198751846D01*
X304938120Y-198909806D01*
X304936058Y-199090586D01*
X304934162Y-199296059D01*
X304932420Y-199528096D01*
X304930819Y-199788571D01*
X304929350Y-200079355D01*
X304928000Y-200402322D01*
X304926758Y-200759342D01*
X304925612Y-201152288D01*
X304924550Y-201583033D01*
X304923562Y-202053449D01*
X304922635Y-202565408D01*
X304921759Y-203120782D01*
X304920920Y-203721445D01*
X304920109Y-204369267D01*
X304919313Y-205066121D01*
X304918521Y-205813880D01*
X304917721Y-206614416D01*
X304916936Y-207433333D01*
X304908350Y-216527944D01*
X308211361Y-216527944D01*
X308211593Y-207983666D01*
X308211715Y-207044960D01*
X308212030Y-206157427D01*
X308212537Y-205321390D01*
X308213233Y-204537167D01*
X308214119Y-203805081D01*
X308215193Y-203125451D01*
X308216454Y-202498598D01*
X308217902Y-201924843D01*
X308219534Y-201404507D01*
X308221350Y-200937909D01*
X308223349Y-200525371D01*
X308225530Y-200167213D01*
X308227891Y-199863756D01*
X308230433Y-199615321D01*
X308233153Y-199422227D01*
X308236050Y-199284796D01*
X308239124Y-199203348D01*
X308240526Y-199185388D01*
X308300619Y-198809375D01*
X308391860Y-198458160D01*
X308511763Y-198137081D01*
X308657838Y-197851477D01*
X308827598Y-197606687D01*
X309018554Y-197408049D01*
X309098760Y-197343856D01*
X309272175Y-197225731D01*
X309438554Y-197135932D01*
X309619642Y-197064225D01*
X309817517Y-197005542D01*
X309932559Y-196976980D01*
X310036077Y-196956951D01*
X310142882Y-196943955D01*
X310267782Y-196936489D01*
X310425586Y-196933052D01*
X310539694Y-196932306D01*
X310731618Y-196933157D01*
X310881441Y-196937958D01*
X311003439Y-196947913D01*
X311111889Y-196964226D01*
X311221067Y-196988101D01*
X311231139Y-196990592D01*
X311647994Y-197116968D01*
X312041222Y-197283943D01*
X312418771Y-197495783D01*
X312788590Y-197756753D01*
X313029949Y-197955933D01*
X313177760Y-198084722D01*
X313178472Y-216527944D01*
X316480472Y-216527944D01*
X316480472Y-193949526D01*
X315348475Y-193956902D01*
X314216478Y-193964277D01*
X313705328Y-195245859D01*
X313547734Y-195111301D01*
X313091989Y-194759096D01*
X312603673Y-194452255D01*
X312085413Y-194192013D01*
X311539835Y-193979606D01*
X310969564Y-193816271D01*
X310654442Y-193749315D01*
X310454731Y-193719589D01*
X310216380Y-193696406D01*
X309955545Y-193680317D01*
X309688386Y-193671872D01*
X309431059Y-193671623D01*
X309199721Y-193680119D01*
G36*
X319895361Y-216527944D02*
G01*
X323197361Y-216527944D01*
X323197361Y-193950166D01*
X319895361Y-193950166D01*
X319895361Y-216527944D01*
G37*
X319895361Y-216527944D02*
X323197361Y-216527944D01*
X323197361Y-193950166D01*
X319895361Y-193950166D01*
X319895361Y-216527944D01*
G36*
X334394528Y-187607725D02*
G01*
X333880374Y-187609229D01*
X333419195Y-187610628D01*
X333007525Y-187612048D01*
X332641895Y-187613611D01*
X332318837Y-187615441D01*
X332034884Y-187617662D01*
X331786567Y-187620398D01*
X331570418Y-187623772D01*
X331382969Y-187627908D01*
X331220754Y-187632930D01*
X331080302Y-187638962D01*
X330958148Y-187646127D01*
X330850822Y-187654549D01*
X330754856Y-187664352D01*
X330666784Y-187675660D01*
X330583136Y-187688595D01*
X330500446Y-187703283D01*
X330415244Y-187719847D01*
X330324063Y-187738410D01*
X330238510Y-187756008D01*
X329895661Y-187842945D01*
X329533457Y-187964654D01*
X329167912Y-188114164D01*
X328815034Y-188284505D01*
X328490837Y-188468706D01*
X328280860Y-188608364D01*
X327900655Y-188908896D01*
X327558440Y-189238468D01*
X327253053Y-189599387D01*
X326983330Y-189993958D01*
X326748109Y-190424488D01*
X326546226Y-190893282D01*
X326376519Y-191402646D01*
X326237825Y-191954887D01*
X326128980Y-192552310D01*
X326070842Y-192990611D01*
X326064488Y-193075784D01*
X326058678Y-193212381D01*
X326053415Y-193395712D01*
X326048699Y-193621088D01*
X326044529Y-193883818D01*
X326040907Y-194179213D01*
X326037833Y-194502583D01*
X326035308Y-194849239D01*
X326033332Y-195214490D01*
X326031906Y-195593647D01*
X326031031Y-195982021D01*
X326030706Y-196374920D01*
X326030934Y-196767657D01*
X326031713Y-197155540D01*
X326033046Y-197533880D01*
X326034931Y-197897988D01*
X326037371Y-198243173D01*
X326040365Y-198564747D01*
X326043915Y-198858018D01*
X326048020Y-199118298D01*
X326052681Y-199340896D01*
X326057899Y-199521124D01*
X326063675Y-199654290D01*
X326070008Y-199735706D01*
X326070010Y-199735722D01*
X326145444Y-200270342D01*
X326235434Y-200756637D01*
X326341766Y-201201260D01*
X326466225Y-201610867D01*
X326610599Y-201992111D01*
X326766865Y-202332166D01*
X327027316Y-202791298D01*
X327328948Y-203212401D01*
X327670265Y-203594388D01*
X328049775Y-203936174D01*
X328465982Y-204236673D01*
X328917393Y-204494801D01*
X329402514Y-204709470D01*
X329919850Y-204879596D01*
X330436361Y-204998334D01*
X330595026Y-205025848D01*
X330754787Y-205049303D01*
X330921463Y-205068992D01*
X331100871Y-205085206D01*
X331298832Y-205098238D01*
X331521163Y-205108378D01*
X331773684Y-205115918D01*
X332062213Y-205121151D01*
X332392569Y-205124367D01*
X332770570Y-205125860D01*
X332983417Y-205126051D01*
X334373361Y-205126166D01*
X334373361Y-216527944D01*
X337760028Y-216527944D01*
X337760028Y-201828274D01*
X334373361Y-201828274D01*
X332941083Y-201816495D01*
X332610240Y-201813562D01*
X332330635Y-201810526D01*
X332097063Y-201807193D01*
X331904317Y-201803373D01*
X331747193Y-201798872D01*
X331620485Y-201793499D01*
X331518986Y-201787059D01*
X331437490Y-201779362D01*
X331370793Y-201770215D01*
X331313688Y-201759424D01*
X331297139Y-201755720D01*
X330937546Y-201646531D01*
X330613839Y-201494272D01*
X330327201Y-201300008D01*
X330078816Y-201064806D01*
X329869867Y-200789731D01*
X329701538Y-200475848D01*
X329609229Y-200235797D01*
X329573414Y-200125157D01*
X329541397Y-200019957D01*
X329512981Y-199916565D01*
X329487971Y-199811347D01*
X329466170Y-199700668D01*
X329447381Y-199580896D01*
X329431409Y-199448397D01*
X329418056Y-199299536D01*
X329407128Y-199130681D01*
X329398427Y-198938198D01*
X329391757Y-198718452D01*
X329386922Y-198467812D01*
X329383725Y-198182642D01*
X329381971Y-197859309D01*
X329381462Y-197494180D01*
X329382003Y-197083621D01*
X329383397Y-196623999D01*
X329385448Y-196111679D01*
X329385519Y-196095055D01*
X329387507Y-195641012D01*
X329389387Y-195239701D01*
X329391246Y-194887410D01*
X329393172Y-194580426D01*
X329395250Y-194315038D01*
X329397568Y-194087532D01*
X329400212Y-193894197D01*
X329403270Y-193731321D01*
X329406828Y-193595190D01*
X329410973Y-193482094D01*
X329415792Y-193388320D01*
X329421371Y-193310156D01*
X329427798Y-193243889D01*
X329435159Y-193185807D01*
X329443542Y-193132198D01*
X329453032Y-193079349D01*
X329456474Y-193061166D01*
X329547723Y-192679382D01*
X329668647Y-192329717D01*
X329816556Y-192018709D01*
X329988754Y-191752898D01*
X330002764Y-191734722D01*
X330202141Y-191521290D01*
X330446303Y-191330430D01*
X330726199Y-191167762D01*
X331032773Y-191038908D01*
X331212472Y-190983685D01*
X331267631Y-190969364D01*
X331320738Y-190957293D01*
X331377102Y-190947239D01*
X331442034Y-190938969D01*
X331520843Y-190932248D01*
X331618839Y-190926845D01*
X331741333Y-190922525D01*
X331893634Y-190919056D01*
X332081053Y-190916203D01*
X332308898Y-190913734D01*
X332582481Y-190911415D01*
X332907110Y-190909014D01*
X332912861Y-190908973D01*
X334373361Y-190898517D01*
X334373361Y-201828274D01*
X337760028Y-201828274D01*
X337760028Y-187597805D01*
X334394528Y-187607725D01*
G37*
X334394528Y-187607725D02*
X333880374Y-187609229D01*
X333419195Y-187610628D01*
X333007525Y-187612048D01*
X332641895Y-187613611D01*
X332318837Y-187615441D01*
X332034884Y-187617662D01*
X331786567Y-187620398D01*
X331570418Y-187623772D01*
X331382969Y-187627908D01*
X331220754Y-187632930D01*
X331080302Y-187638962D01*
X330958148Y-187646127D01*
X330850822Y-187654549D01*
X330754856Y-187664352D01*
X330666784Y-187675660D01*
X330583136Y-187688595D01*
X330500446Y-187703283D01*
X330415244Y-187719847D01*
X330324063Y-187738410D01*
X330238510Y-187756008D01*
X329895661Y-187842945D01*
X329533457Y-187964654D01*
X329167912Y-188114164D01*
X328815034Y-188284505D01*
X328490837Y-188468706D01*
X328280860Y-188608364D01*
X327900655Y-188908896D01*
X327558440Y-189238468D01*
X327253053Y-189599387D01*
X326983330Y-189993958D01*
X326748109Y-190424488D01*
X326546226Y-190893282D01*
X326376519Y-191402646D01*
X326237825Y-191954887D01*
X326128980Y-192552310D01*
X326070842Y-192990611D01*
X326064488Y-193075784D01*
X326058678Y-193212381D01*
X326053415Y-193395712D01*
X326048699Y-193621088D01*
X326044529Y-193883818D01*
X326040907Y-194179213D01*
X326037833Y-194502583D01*
X326035308Y-194849239D01*
X326033332Y-195214490D01*
X326031906Y-195593647D01*
X326031031Y-195982021D01*
X326030706Y-196374920D01*
X326030934Y-196767657D01*
X326031713Y-197155540D01*
X326033046Y-197533880D01*
X326034931Y-197897988D01*
X326037371Y-198243173D01*
X326040365Y-198564747D01*
X326043915Y-198858018D01*
X326048020Y-199118298D01*
X326052681Y-199340896D01*
X326057899Y-199521124D01*
X326063675Y-199654290D01*
X326070008Y-199735706D01*
X326070010Y-199735722D01*
X326145444Y-200270342D01*
X326235434Y-200756637D01*
X326341766Y-201201260D01*
X326466225Y-201610867D01*
X326610599Y-201992111D01*
X326766865Y-202332166D01*
X327027316Y-202791298D01*
X327328948Y-203212401D01*
X327670265Y-203594388D01*
X328049775Y-203936174D01*
X328465982Y-204236673D01*
X328917393Y-204494801D01*
X329402514Y-204709470D01*
X329919850Y-204879596D01*
X330436361Y-204998334D01*
X330595026Y-205025848D01*
X330754787Y-205049303D01*
X330921463Y-205068992D01*
X331100871Y-205085206D01*
X331298832Y-205098238D01*
X331521163Y-205108378D01*
X331773684Y-205115918D01*
X332062213Y-205121151D01*
X332392569Y-205124367D01*
X332770570Y-205125860D01*
X332983417Y-205126051D01*
X334373361Y-205126166D01*
X334373361Y-216527944D01*
X337760028Y-216527944D01*
X337760028Y-201828274D01*
X334373361Y-201828274D01*
X332941083Y-201816495D01*
X332610240Y-201813562D01*
X332330635Y-201810526D01*
X332097063Y-201807193D01*
X331904317Y-201803373D01*
X331747193Y-201798872D01*
X331620485Y-201793499D01*
X331518986Y-201787059D01*
X331437490Y-201779362D01*
X331370793Y-201770215D01*
X331313688Y-201759424D01*
X331297139Y-201755720D01*
X330937546Y-201646531D01*
X330613839Y-201494272D01*
X330327201Y-201300008D01*
X330078816Y-201064806D01*
X329869867Y-200789731D01*
X329701538Y-200475848D01*
X329609229Y-200235797D01*
X329573414Y-200125157D01*
X329541397Y-200019957D01*
X329512981Y-199916565D01*
X329487971Y-199811347D01*
X329466170Y-199700668D01*
X329447381Y-199580896D01*
X329431409Y-199448397D01*
X329418056Y-199299536D01*
X329407128Y-199130681D01*
X329398427Y-198938198D01*
X329391757Y-198718452D01*
X329386922Y-198467812D01*
X329383725Y-198182642D01*
X329381971Y-197859309D01*
X329381462Y-197494180D01*
X329382003Y-197083621D01*
X329383397Y-196623999D01*
X329385448Y-196111679D01*
X329385519Y-196095055D01*
X329387507Y-195641012D01*
X329389387Y-195239701D01*
X329391246Y-194887410D01*
X329393172Y-194580426D01*
X329395250Y-194315038D01*
X329397568Y-194087532D01*
X329400212Y-193894197D01*
X329403270Y-193731321D01*
X329406828Y-193595190D01*
X329410973Y-193482094D01*
X329415792Y-193388320D01*
X329421371Y-193310156D01*
X329427798Y-193243889D01*
X329435159Y-193185807D01*
X329443542Y-193132198D01*
X329453032Y-193079349D01*
X329456474Y-193061166D01*
X329547723Y-192679382D01*
X329668647Y-192329717D01*
X329816556Y-192018709D01*
X329988754Y-191752898D01*
X330002764Y-191734722D01*
X330202141Y-191521290D01*
X330446303Y-191330430D01*
X330726199Y-191167762D01*
X331032773Y-191038908D01*
X331212472Y-190983685D01*
X331267631Y-190969364D01*
X331320738Y-190957293D01*
X331377102Y-190947239D01*
X331442034Y-190938969D01*
X331520843Y-190932248D01*
X331618839Y-190926845D01*
X331741333Y-190922525D01*
X331893634Y-190919056D01*
X332081053Y-190916203D01*
X332308898Y-190913734D01*
X332582481Y-190911415D01*
X332907110Y-190909014D01*
X332912861Y-190908973D01*
X334373361Y-190898517D01*
X334373361Y-201828274D01*
X337760028Y-201828274D01*
X337760028Y-187597805D01*
X334394528Y-187607725D01*
G36*
X238181603Y-193675553D02*
G01*
X237580183Y-193714562D01*
X237012564Y-193798750D01*
X236478681Y-193928142D01*
X235978471Y-194102760D01*
X235511869Y-194322629D01*
X235078811Y-194587773D01*
X234679232Y-194898214D01*
X234572073Y-194994432D01*
X234275966Y-195301282D01*
X233995632Y-195656701D01*
X233735291Y-196054006D01*
X233499165Y-196486515D01*
X233291476Y-196947547D01*
X233217001Y-197139277D01*
X233076452Y-197583374D01*
X232968273Y-198065344D01*
X232892446Y-198576830D01*
X232848957Y-199109473D01*
X232837789Y-199654916D01*
X232858926Y-200204802D01*
X232912354Y-200750773D01*
X232998057Y-201284473D01*
X233116018Y-201797542D01*
X233226438Y-202166150D01*
X233399309Y-202629296D01*
X233606787Y-203081866D01*
X233851175Y-203526856D01*
X234134779Y-203967261D01*
X234459903Y-204406077D01*
X234828850Y-204846300D01*
X235243925Y-205290925D01*
X235707433Y-205742947D01*
X236221677Y-206205364D01*
X236544550Y-206479889D01*
X236971039Y-206829815D01*
X237399995Y-207169447D01*
X237838649Y-207504035D01*
X238294234Y-207838829D01*
X238773980Y-208179077D01*
X239285119Y-208530029D01*
X239834882Y-208896934D01*
X240231083Y-209156020D01*
X240675583Y-209444569D01*
X240675583Y-210425830D01*
X240674718Y-210747438D01*
X240671801Y-211019554D01*
X240666355Y-211249105D01*
X240657902Y-211443023D01*
X240645963Y-211608236D01*
X240630060Y-211751675D01*
X240609714Y-211880269D01*
X240584446Y-212000947D01*
X240560204Y-212097055D01*
X240446293Y-212419973D01*
X240288480Y-212708571D01*
X240088779Y-212961360D01*
X239849203Y-213176851D01*
X239571763Y-213353557D01*
X239258472Y-213489988D01*
X238911344Y-213584656D01*
X238532390Y-213636072D01*
X238474250Y-213639887D01*
X238083573Y-213639798D01*
X237715596Y-213595013D01*
X237373539Y-213507317D01*
X237060622Y-213378493D01*
X236780064Y-213210324D01*
X236535085Y-213004594D01*
X236328905Y-212763087D01*
X236164742Y-212487585D01*
X236092987Y-212320776D01*
X236050313Y-212202449D01*
X236015298Y-212091111D01*
X235987059Y-211979229D01*
X235964712Y-211859270D01*
X235947375Y-211723701D01*
X235934164Y-211564990D01*
X235924196Y-211375603D01*
X235916587Y-211148008D01*
X235910453Y-210874671D01*
X235908101Y-210744175D01*
X235891917Y-209800517D01*
X234932361Y-209551707D01*
X234678457Y-209485866D01*
X234415578Y-209417690D01*
X234155398Y-209350207D01*
X233909594Y-209286445D01*
X233689841Y-209229433D01*
X233507813Y-209182200D01*
X233441522Y-209164995D01*
X232910239Y-209027092D01*
X232921344Y-210555018D01*
X232923889Y-210890731D01*
X232926394Y-211175541D01*
X232929080Y-211414991D01*
X232932172Y-211614622D01*
X232935890Y-211779976D01*
X232940457Y-211916594D01*
X232946096Y-212030018D01*
X232953029Y-212125790D01*
X232961477Y-212209452D01*
X232971663Y-212286544D01*
X232983810Y-212362609D01*
X232996775Y-212435722D01*
X233124600Y-212990230D01*
X233299373Y-213514545D01*
X233519313Y-214006959D01*
X233782641Y-214465766D01*
X234087576Y-214889259D01*
X234432337Y-215275732D01*
X234815145Y-215623478D01*
X235234219Y-215930791D01*
X235687779Y-216195964D01*
X236174045Y-216417291D01*
X236691236Y-216593066D01*
X237237573Y-216721581D01*
X237514985Y-216766729D01*
X237739780Y-216791886D01*
X237997458Y-216810438D01*
X238270217Y-216821877D01*
X238540250Y-216825698D01*
X238789755Y-216821394D01*
X238996361Y-216808882D01*
X239565478Y-216730869D01*
X240107427Y-216604263D01*
X240620874Y-216429948D01*
X241104484Y-216208805D01*
X241556924Y-215941718D01*
X241976858Y-215629571D01*
X242362952Y-215273246D01*
X242713871Y-214873628D01*
X243028281Y-214431598D01*
X243297548Y-213962300D01*
X243459187Y-213604968D01*
X243596509Y-213208446D01*
X243710796Y-212768403D01*
X243803330Y-212280509D01*
X243812187Y-212224055D01*
X243816062Y-212170797D01*
X243819823Y-212064178D01*
X243823463Y-211907280D01*
X243826976Y-211703186D01*
X243830357Y-211454980D01*
X243833600Y-211165743D01*
X243836699Y-210838558D01*
X243839648Y-210476509D01*
X243842441Y-210082678D01*
X243845074Y-209660148D01*
X243847539Y-209212002D01*
X243849831Y-208741323D01*
X243851944Y-208251193D01*
X243853872Y-207744696D01*
X243855611Y-207224914D01*
X243857153Y-206694930D01*
X243858493Y-206157826D01*
X243859625Y-205616686D01*
X243860543Y-205074593D01*
X243861243Y-204534629D01*
X243861717Y-203999877D01*
X243861959Y-203473420D01*
X243861966Y-202958340D01*
X243861837Y-202684699D01*
X240675583Y-202684699D01*
X240675583Y-206256790D01*
X240513306Y-206153624D01*
X240434742Y-206102319D01*
X240321710Y-206026702D01*
X240186026Y-205934766D01*
X240039509Y-205834503D01*
X239941806Y-205767091D01*
X239439883Y-205410702D01*
X238990276Y-205072848D01*
X238629472Y-204783944D01*
X238487853Y-204661523D01*
X238322119Y-204509942D01*
X238141001Y-204337932D01*
X237953231Y-204154225D01*
X237767541Y-203967554D01*
X237592662Y-203786650D01*
X237437327Y-203620245D01*
X237310266Y-203477070D01*
X237250166Y-203404611D01*
X236934236Y-202976696D01*
X236670545Y-202547833D01*
X236455991Y-202110215D01*
X236287474Y-201656035D01*
X236161892Y-201177488D01*
X236076144Y-200666766D01*
X236044957Y-200370722D01*
X236022086Y-199926996D01*
X236029075Y-199493554D01*
X236064887Y-199078055D01*
X236128488Y-198688164D01*
X236218841Y-198331542D01*
X236334910Y-198015851D01*
X236374968Y-197929500D01*
X236440422Y-197802725D01*
X236503819Y-197699321D01*
X236577104Y-197603197D01*
X236672218Y-197498263D01*
X236764641Y-197404522D01*
X237030336Y-197168793D01*
X237303949Y-196985089D01*
X237594377Y-196849002D01*
X237910514Y-196756120D01*
X238158137Y-196713638D01*
X238435831Y-196697861D01*
X238729495Y-196716308D01*
X239021494Y-196766142D01*
X239294193Y-196844529D01*
X239490666Y-196927935D01*
X239747015Y-197088094D01*
X239980854Y-197294898D01*
X240186770Y-197541200D01*
X240359353Y-197819854D01*
X240493194Y-198123713D01*
X240558721Y-198338722D01*
X240575220Y-198406286D01*
X240590092Y-198473338D01*
X240603422Y-198543005D01*
X240615294Y-198618416D01*
X240625792Y-198702698D01*
X240635000Y-198798979D01*
X240643002Y-198910388D01*
X240649882Y-199040053D01*
X240655724Y-199191101D01*
X240660613Y-199366661D01*
X240664633Y-199569860D01*
X240667867Y-199803828D01*
X240670400Y-200071691D01*
X240672315Y-200376579D01*
X240673698Y-200721618D01*
X240674632Y-201109938D01*
X240675201Y-201544666D01*
X240675489Y-202028930D01*
X240675581Y-202565858D01*
X240675583Y-202684699D01*
X243861837Y-202684699D01*
X243861729Y-202457722D01*
X243861244Y-201974646D01*
X243860505Y-201512197D01*
X243859505Y-201073457D01*
X243858240Y-200661508D01*
X243856703Y-200279435D01*
X243854889Y-199930318D01*
X243852791Y-199617242D01*
X243850405Y-199343289D01*
X243847723Y-199111543D01*
X243844741Y-198925084D01*
X243841452Y-198786998D01*
X243837851Y-198700366D01*
X243837657Y-198697349D01*
X243795270Y-198241782D01*
X243729494Y-197826307D01*
X243637157Y-197438317D01*
X243515088Y-197065206D01*
X243360118Y-196694367D01*
X243304272Y-196576605D01*
X243047639Y-196112037D01*
X242747069Y-195679534D01*
X242406000Y-195282134D01*
X242027868Y-194922877D01*
X241616109Y-194604802D01*
X241174159Y-194330948D01*
X240705456Y-194104354D01*
X240363106Y-193975426D01*
X239967814Y-193856640D01*
X239579866Y-193768865D01*
X239185546Y-193710216D01*
X238771137Y-193678808D01*
X238322923Y-193672755D01*
X238181603Y-193675553D01*
G37*
X238181603Y-193675553D02*
X237580183Y-193714562D01*
X237012564Y-193798750D01*
X236478681Y-193928142D01*
X235978471Y-194102760D01*
X235511869Y-194322629D01*
X235078811Y-194587773D01*
X234679232Y-194898214D01*
X234572073Y-194994432D01*
X234275966Y-195301282D01*
X233995632Y-195656701D01*
X233735291Y-196054006D01*
X233499165Y-196486515D01*
X233291476Y-196947547D01*
X233217001Y-197139277D01*
X233076452Y-197583374D01*
X232968273Y-198065344D01*
X232892446Y-198576830D01*
X232848957Y-199109473D01*
X232837789Y-199654916D01*
X232858926Y-200204802D01*
X232912354Y-200750773D01*
X232998057Y-201284473D01*
X233116018Y-201797542D01*
X233226438Y-202166150D01*
X233399309Y-202629296D01*
X233606787Y-203081866D01*
X233851175Y-203526856D01*
X234134779Y-203967261D01*
X234459903Y-204406077D01*
X234828850Y-204846300D01*
X235243925Y-205290925D01*
X235707433Y-205742947D01*
X236221677Y-206205364D01*
X236544550Y-206479889D01*
X236971039Y-206829815D01*
X237399995Y-207169447D01*
X237838649Y-207504035D01*
X238294234Y-207838829D01*
X238773980Y-208179077D01*
X239285119Y-208530029D01*
X239834882Y-208896934D01*
X240231083Y-209156020D01*
X240675583Y-209444569D01*
X240675583Y-210425830D01*
X240674718Y-210747438D01*
X240671801Y-211019554D01*
X240666355Y-211249105D01*
X240657902Y-211443023D01*
X240645963Y-211608236D01*
X240630060Y-211751675D01*
X240609714Y-211880269D01*
X240584446Y-212000947D01*
X240560204Y-212097055D01*
X240446293Y-212419973D01*
X240288480Y-212708571D01*
X240088779Y-212961360D01*
X239849203Y-213176851D01*
X239571763Y-213353557D01*
X239258472Y-213489988D01*
X238911344Y-213584656D01*
X238532390Y-213636072D01*
X238474250Y-213639887D01*
X238083573Y-213639798D01*
X237715596Y-213595013D01*
X237373539Y-213507317D01*
X237060622Y-213378493D01*
X236780064Y-213210324D01*
X236535085Y-213004594D01*
X236328905Y-212763087D01*
X236164742Y-212487585D01*
X236092987Y-212320776D01*
X236050313Y-212202449D01*
X236015298Y-212091111D01*
X235987059Y-211979229D01*
X235964712Y-211859270D01*
X235947375Y-211723701D01*
X235934164Y-211564990D01*
X235924196Y-211375603D01*
X235916587Y-211148008D01*
X235910453Y-210874671D01*
X235908101Y-210744175D01*
X235891917Y-209800517D01*
X234932361Y-209551707D01*
X234678457Y-209485866D01*
X234415578Y-209417690D01*
X234155398Y-209350207D01*
X233909594Y-209286445D01*
X233689841Y-209229433D01*
X233507813Y-209182200D01*
X233441522Y-209164995D01*
X232910239Y-209027092D01*
X232921344Y-210555018D01*
X232923889Y-210890731D01*
X232926394Y-211175541D01*
X232929080Y-211414991D01*
X232932172Y-211614622D01*
X232935890Y-211779976D01*
X232940457Y-211916594D01*
X232946096Y-212030018D01*
X232953029Y-212125790D01*
X232961477Y-212209452D01*
X232971663Y-212286544D01*
X232983810Y-212362609D01*
X232996775Y-212435722D01*
X233124600Y-212990230D01*
X233299373Y-213514545D01*
X233519313Y-214006959D01*
X233782641Y-214465766D01*
X234087576Y-214889259D01*
X234432337Y-215275732D01*
X234815145Y-215623478D01*
X235234219Y-215930791D01*
X235687779Y-216195964D01*
X236174045Y-216417291D01*
X236691236Y-216593066D01*
X237237573Y-216721581D01*
X237514985Y-216766729D01*
X237739780Y-216791886D01*
X237997458Y-216810438D01*
X238270217Y-216821877D01*
X238540250Y-216825698D01*
X238789755Y-216821394D01*
X238996361Y-216808882D01*
X239565478Y-216730869D01*
X240107427Y-216604263D01*
X240620874Y-216429948D01*
X241104484Y-216208805D01*
X241556924Y-215941718D01*
X241976858Y-215629571D01*
X242362952Y-215273246D01*
X242713871Y-214873628D01*
X243028281Y-214431598D01*
X243297548Y-213962300D01*
X243459187Y-213604968D01*
X243596509Y-213208446D01*
X243710796Y-212768403D01*
X243803330Y-212280509D01*
X243812187Y-212224055D01*
X243816062Y-212170797D01*
X243819823Y-212064178D01*
X243823463Y-211907280D01*
X243826976Y-211703186D01*
X243830357Y-211454980D01*
X243833600Y-211165743D01*
X243836699Y-210838558D01*
X243839648Y-210476509D01*
X243842441Y-210082678D01*
X243845074Y-209660148D01*
X243847539Y-209212002D01*
X243849831Y-208741323D01*
X243851944Y-208251193D01*
X243853872Y-207744696D01*
X243855611Y-207224914D01*
X243857153Y-206694930D01*
X243858493Y-206157826D01*
X243859625Y-205616686D01*
X243860543Y-205074593D01*
X243861243Y-204534629D01*
X243861717Y-203999877D01*
X243861959Y-203473420D01*
X243861966Y-202958340D01*
X243861837Y-202684699D01*
X240675583Y-202684699D01*
X240675583Y-206256790D01*
X240513306Y-206153624D01*
X240434742Y-206102319D01*
X240321710Y-206026702D01*
X240186026Y-205934766D01*
X240039509Y-205834503D01*
X239941806Y-205767091D01*
X239439883Y-205410702D01*
X238990276Y-205072848D01*
X238629472Y-204783944D01*
X238487853Y-204661523D01*
X238322119Y-204509942D01*
X238141001Y-204337932D01*
X237953231Y-204154225D01*
X237767541Y-203967554D01*
X237592662Y-203786650D01*
X237437327Y-203620245D01*
X237310266Y-203477070D01*
X237250166Y-203404611D01*
X236934236Y-202976696D01*
X236670545Y-202547833D01*
X236455991Y-202110215D01*
X236287474Y-201656035D01*
X236161892Y-201177488D01*
X236076144Y-200666766D01*
X236044957Y-200370722D01*
X236022086Y-199926996D01*
X236029075Y-199493554D01*
X236064887Y-199078055D01*
X236128488Y-198688164D01*
X236218841Y-198331542D01*
X236334910Y-198015851D01*
X236374968Y-197929500D01*
X236440422Y-197802725D01*
X236503819Y-197699321D01*
X236577104Y-197603197D01*
X236672218Y-197498263D01*
X236764641Y-197404522D01*
X237030336Y-197168793D01*
X237303949Y-196985089D01*
X237594377Y-196849002D01*
X237910514Y-196756120D01*
X238158137Y-196713638D01*
X238435831Y-196697861D01*
X238729495Y-196716308D01*
X239021494Y-196766142D01*
X239294193Y-196844529D01*
X239490666Y-196927935D01*
X239747015Y-197088094D01*
X239980854Y-197294898D01*
X240186770Y-197541200D01*
X240359353Y-197819854D01*
X240493194Y-198123713D01*
X240558721Y-198338722D01*
X240575220Y-198406286D01*
X240590092Y-198473338D01*
X240603422Y-198543005D01*
X240615294Y-198618416D01*
X240625792Y-198702698D01*
X240635000Y-198798979D01*
X240643002Y-198910388D01*
X240649882Y-199040053D01*
X240655724Y-199191101D01*
X240660613Y-199366661D01*
X240664633Y-199569860D01*
X240667867Y-199803828D01*
X240670400Y-200071691D01*
X240672315Y-200376579D01*
X240673698Y-200721618D01*
X240674632Y-201109938D01*
X240675201Y-201544666D01*
X240675489Y-202028930D01*
X240675581Y-202565858D01*
X240675583Y-202684699D01*
X243861837Y-202684699D01*
X243861729Y-202457722D01*
X243861244Y-201974646D01*
X243860505Y-201512197D01*
X243859505Y-201073457D01*
X243858240Y-200661508D01*
X243856703Y-200279435D01*
X243854889Y-199930318D01*
X243852791Y-199617242D01*
X243850405Y-199343289D01*
X243847723Y-199111543D01*
X243844741Y-198925084D01*
X243841452Y-198786998D01*
X243837851Y-198700366D01*
X243837657Y-198697349D01*
X243795270Y-198241782D01*
X243729494Y-197826307D01*
X243637157Y-197438317D01*
X243515088Y-197065206D01*
X243360118Y-196694367D01*
X243304272Y-196576605D01*
X243047639Y-196112037D01*
X242747069Y-195679534D01*
X242406000Y-195282134D01*
X242027868Y-194922877D01*
X241616109Y-194604802D01*
X241174159Y-194330948D01*
X240705456Y-194104354D01*
X240363106Y-193975426D01*
X239967814Y-193856640D01*
X239579866Y-193768865D01*
X239185546Y-193710216D01*
X238771137Y-193678808D01*
X238322923Y-193672755D01*
X238181603Y-193675553D01*
G36*
X283751322Y-188700182D02*
G01*
X283749930Y-188780289D01*
X283748617Y-188909027D01*
X283747396Y-189082486D01*
X283746283Y-189296759D01*
X283745292Y-189547939D01*
X283744439Y-189832118D01*
X283743739Y-190145388D01*
X283743205Y-190483843D01*
X283742854Y-190843575D01*
X283742700Y-191220675D01*
X283742694Y-191311388D01*
X283742694Y-193950166D01*
X279989139Y-193950166D01*
X279989139Y-196744166D01*
X283742694Y-196744166D01*
X283742694Y-204078247D01*
X283742708Y-204848512D01*
X283742726Y-205564437D01*
X283742712Y-206228127D01*
X283742634Y-206841687D01*
X283742456Y-207407221D01*
X283742142Y-207926835D01*
X283741660Y-208402632D01*
X283740974Y-208836719D01*
X283740049Y-209231198D01*
X283738850Y-209588176D01*
X283737344Y-209909757D01*
X283735495Y-210198046D01*
X283733269Y-210455147D01*
X283730630Y-210683165D01*
X283727545Y-210884204D01*
X283723979Y-211060371D01*
X283719897Y-211213768D01*
X283715264Y-211346502D01*
X283710047Y-211460677D01*
X283704209Y-211558397D01*
X283697716Y-211641767D01*
X283690534Y-211712893D01*
X283682629Y-211773878D01*
X283673964Y-211826827D01*
X283664507Y-211873846D01*
X283654221Y-211917039D01*
X283643073Y-211958510D01*
X283631028Y-212000365D01*
X283618051Y-212044707D01*
X283611099Y-212068833D01*
X283486236Y-212410556D01*
X283318002Y-212718492D01*
X283109736Y-212989910D01*
X282864780Y-213222081D01*
X282586474Y-213412273D01*
X282278159Y-213557759D01*
X281943175Y-213655807D01*
X281612726Y-213701879D01*
X281332187Y-213708725D01*
X281052910Y-213691780D01*
X280796918Y-213652701D01*
X280718892Y-213634614D01*
X280574450Y-213588487D01*
X280400465Y-213518939D01*
X280214310Y-213433937D01*
X280033354Y-213341446D01*
X279874970Y-213249433D01*
X279864616Y-213242857D01*
X279782050Y-213191921D01*
X279720407Y-213157430D01*
X279692495Y-213146528D01*
X279692232Y-213146712D01*
X279682334Y-213174500D01*
X279657082Y-213251073D01*
X279618093Y-213371383D01*
X279566983Y-213530383D01*
X279505369Y-213723025D01*
X279434869Y-213944261D01*
X279357098Y-214189043D01*
X279273673Y-214452324D01*
X279242746Y-214550097D01*
X279140240Y-214875481D01*
X279054396Y-215150743D01*
X278984219Y-215379371D01*
X278928713Y-215564856D01*
X278886883Y-215710686D01*
X278857734Y-215820350D01*
X278840271Y-215897338D01*
X278833498Y-215945138D01*
X278836421Y-215967241D01*
X278838071Y-215968878D01*
X279274461Y-216225045D01*
X279743548Y-216437491D01*
X280241196Y-216605266D01*
X280763270Y-216727421D01*
X281305635Y-216803008D01*
X281864158Y-216831077D01*
X282434702Y-216810679D01*
X282486806Y-216806407D01*
X282834072Y-216764256D01*
X283187248Y-216698545D01*
X283532239Y-216612947D01*
X283854955Y-216511133D01*
X284141304Y-216396775D01*
X284240006Y-216349605D01*
X284374412Y-216276075D01*
X284536107Y-216179055D01*
X284707798Y-216069677D01*
X284872192Y-215959070D01*
X285011997Y-215858363D01*
X285055028Y-215825046D01*
X285119214Y-215770040D01*
X285211034Y-215686285D01*
X285318340Y-215585071D01*
X285428981Y-215477688D01*
X285431301Y-215475400D01*
X285709965Y-215164334D01*
X285965348Y-214805354D01*
X286195292Y-214402888D01*
X286397641Y-213961365D01*
X286570239Y-213485212D01*
X286710929Y-212978858D01*
X286763885Y-212739235D01*
X286779247Y-212665331D01*
X286793538Y-212598354D01*
X286806799Y-212536170D01*
X286819069Y-212476648D01*
X286830390Y-212417654D01*
X286840803Y-212357056D01*
X286850347Y-212292722D01*
X286859064Y-212222518D01*
X286866994Y-212144312D01*
X286874178Y-212055972D01*
X286880656Y-211955364D01*
X286886469Y-211840357D01*
X286891657Y-211708817D01*
X286896262Y-211558611D01*
X286900323Y-211387608D01*
X286903881Y-211193674D01*
X286906978Y-210974677D01*
X286909653Y-210728484D01*
X286911947Y-210452963D01*
X286913902Y-210145981D01*
X286915556Y-209805405D01*
X286916951Y-209429102D01*
X286918129Y-209014940D01*
X286919128Y-208560787D01*
X286919990Y-208064509D01*
X286920755Y-207523974D01*
X286921465Y-206937050D01*
X286922159Y-206301603D01*
X286922878Y-205615501D01*
X286923664Y-204876612D01*
X286924288Y-204315077D01*
X286932913Y-196744765D01*
X288152971Y-196737410D01*
X289373028Y-196730055D01*
X289380349Y-195340111D01*
X289387671Y-193950166D01*
X286932187Y-193950166D01*
X286924941Y-191971720D01*
X286917694Y-189993274D01*
X285340276Y-189332942D01*
X285058704Y-189215140D01*
X284792897Y-189104064D01*
X284547370Y-189001594D01*
X284326638Y-188909606D01*
X284135213Y-188829978D01*
X283977612Y-188764589D01*
X283858347Y-188715315D01*
X283781934Y-188684035D01*
X283752887Y-188672627D01*
X283752776Y-188672611D01*
X283751322Y-188700182D01*
G37*
X283751322Y-188700182D02*
X283749930Y-188780289D01*
X283748617Y-188909027D01*
X283747396Y-189082486D01*
X283746283Y-189296759D01*
X283745292Y-189547939D01*
X283744439Y-189832118D01*
X283743739Y-190145388D01*
X283743205Y-190483843D01*
X283742854Y-190843575D01*
X283742700Y-191220675D01*
X283742694Y-191311388D01*
X283742694Y-193950166D01*
X279989139Y-193950166D01*
X279989139Y-196744166D01*
X283742694Y-196744166D01*
X283742694Y-204078247D01*
X283742708Y-204848512D01*
X283742726Y-205564437D01*
X283742712Y-206228127D01*
X283742634Y-206841687D01*
X283742456Y-207407221D01*
X283742142Y-207926835D01*
X283741660Y-208402632D01*
X283740974Y-208836719D01*
X283740049Y-209231198D01*
X283738850Y-209588176D01*
X283737344Y-209909757D01*
X283735495Y-210198046D01*
X283733269Y-210455147D01*
X283730630Y-210683165D01*
X283727545Y-210884204D01*
X283723979Y-211060371D01*
X283719897Y-211213768D01*
X283715264Y-211346502D01*
X283710047Y-211460677D01*
X283704209Y-211558397D01*
X283697716Y-211641767D01*
X283690534Y-211712893D01*
X283682629Y-211773878D01*
X283673964Y-211826827D01*
X283664507Y-211873846D01*
X283654221Y-211917039D01*
X283643073Y-211958510D01*
X283631028Y-212000365D01*
X283618051Y-212044707D01*
X283611099Y-212068833D01*
X283486236Y-212410556D01*
X283318002Y-212718492D01*
X283109736Y-212989910D01*
X282864780Y-213222081D01*
X282586474Y-213412273D01*
X282278159Y-213557759D01*
X281943175Y-213655807D01*
X281612726Y-213701879D01*
X281332187Y-213708725D01*
X281052910Y-213691780D01*
X280796918Y-213652701D01*
X280718892Y-213634614D01*
X280574450Y-213588487D01*
X280400465Y-213518939D01*
X280214310Y-213433937D01*
X280033354Y-213341446D01*
X279874970Y-213249433D01*
X279864616Y-213242857D01*
X279782050Y-213191921D01*
X279720407Y-213157430D01*
X279692495Y-213146528D01*
X279692232Y-213146712D01*
X279682334Y-213174500D01*
X279657082Y-213251073D01*
X279618093Y-213371383D01*
X279566983Y-213530383D01*
X279505369Y-213723025D01*
X279434869Y-213944261D01*
X279357098Y-214189043D01*
X279273673Y-214452324D01*
X279242746Y-214550097D01*
X279140240Y-214875481D01*
X279054396Y-215150743D01*
X278984219Y-215379371D01*
X278928713Y-215564856D01*
X278886883Y-215710686D01*
X278857734Y-215820350D01*
X278840271Y-215897338D01*
X278833498Y-215945138D01*
X278836421Y-215967241D01*
X278838071Y-215968878D01*
X279274461Y-216225045D01*
X279743548Y-216437491D01*
X280241196Y-216605266D01*
X280763270Y-216727421D01*
X281305635Y-216803008D01*
X281864158Y-216831077D01*
X282434702Y-216810679D01*
X282486806Y-216806407D01*
X282834072Y-216764256D01*
X283187248Y-216698545D01*
X283532239Y-216612947D01*
X283854955Y-216511133D01*
X284141304Y-216396775D01*
X284240006Y-216349605D01*
X284374412Y-216276075D01*
X284536107Y-216179055D01*
X284707798Y-216069677D01*
X284872192Y-215959070D01*
X285011997Y-215858363D01*
X285055028Y-215825046D01*
X285119214Y-215770040D01*
X285211034Y-215686285D01*
X285318340Y-215585071D01*
X285428981Y-215477688D01*
X285431301Y-215475400D01*
X285709965Y-215164334D01*
X285965348Y-214805354D01*
X286195292Y-214402888D01*
X286397641Y-213961365D01*
X286570239Y-213485212D01*
X286710929Y-212978858D01*
X286763885Y-212739235D01*
X286779247Y-212665331D01*
X286793538Y-212598354D01*
X286806799Y-212536170D01*
X286819069Y-212476648D01*
X286830390Y-212417654D01*
X286840803Y-212357056D01*
X286850347Y-212292722D01*
X286859064Y-212222518D01*
X286866994Y-212144312D01*
X286874178Y-212055972D01*
X286880656Y-211955364D01*
X286886469Y-211840357D01*
X286891657Y-211708817D01*
X286896262Y-211558611D01*
X286900323Y-211387608D01*
X286903881Y-211193674D01*
X286906978Y-210974677D01*
X286909653Y-210728484D01*
X286911947Y-210452963D01*
X286913902Y-210145981D01*
X286915556Y-209805405D01*
X286916951Y-209429102D01*
X286918129Y-209014940D01*
X286919128Y-208560787D01*
X286919990Y-208064509D01*
X286920755Y-207523974D01*
X286921465Y-206937050D01*
X286922159Y-206301603D01*
X286922878Y-205615501D01*
X286923664Y-204876612D01*
X286924288Y-204315077D01*
X286932913Y-196744765D01*
X288152971Y-196737410D01*
X289373028Y-196730055D01*
X289380349Y-195340111D01*
X289387671Y-193950166D01*
X286932187Y-193950166D01*
X286924941Y-191971720D01*
X286917694Y-189993274D01*
X285340276Y-189332942D01*
X285058704Y-189215140D01*
X284792897Y-189104064D01*
X284547370Y-189001594D01*
X284326638Y-188909606D01*
X284135213Y-188829978D01*
X283977612Y-188764589D01*
X283858347Y-188715315D01*
X283781934Y-188684035D01*
X283752887Y-188672627D01*
X283752776Y-188672611D01*
X283751322Y-188700182D01*
G36*
X295902413Y-193679291D02*
G01*
X295442887Y-193714710D01*
X295012188Y-193776268D01*
X294598740Y-193866033D01*
X294190968Y-193986071D01*
X293784919Y-194135387D01*
X293319984Y-194346531D01*
X292901414Y-194589001D01*
X292527377Y-194864750D01*
X292196038Y-195175730D01*
X291905566Y-195523891D01*
X291654127Y-195911186D01*
X291439887Y-196339567D01*
X291261016Y-196810984D01*
X291255196Y-196828833D01*
X291185077Y-197055217D01*
X291126849Y-197268745D01*
X291079507Y-197477766D01*
X291042045Y-197690630D01*
X291013457Y-197915687D01*
X290992738Y-198161289D01*
X290978881Y-198435784D01*
X290970882Y-198747523D01*
X290967733Y-199104856D01*
X290967583Y-199216601D01*
X290967583Y-200102611D01*
X293951601Y-200102611D01*
X293967317Y-199361777D01*
X293975388Y-199067064D01*
X293986886Y-198820281D01*
X294003197Y-198612954D01*
X294025710Y-198436605D01*
X294055812Y-198282757D01*
X294094891Y-198142935D01*
X294144334Y-198008662D01*
X294205530Y-197871461D01*
X294214262Y-197853296D01*
X294368152Y-197597568D01*
X294565531Y-197370143D01*
X294797556Y-197179890D01*
X295007062Y-197058039D01*
X295322318Y-196930657D01*
X295664322Y-196841796D01*
X296038088Y-196790595D01*
X296448628Y-196776196D01*
X296625598Y-196780603D01*
X297009400Y-196809665D01*
X297348439Y-196864861D01*
X297648780Y-196947777D01*
X297916488Y-197060001D01*
X298104525Y-197167591D01*
X298340699Y-197352907D01*
X298539516Y-197576750D01*
X298700008Y-197834504D01*
X298821211Y-198121551D01*
X298902158Y-198433273D01*
X298941884Y-198765052D01*
X298939421Y-199112271D01*
X298893805Y-199470311D01*
X298804070Y-199834555D01*
X298715454Y-200088285D01*
X298590659Y-200360726D01*
X298425105Y-200644038D01*
X298215699Y-200942988D01*
X297959345Y-201262340D01*
X297934489Y-201291517D01*
X297830754Y-201408225D01*
X297692818Y-201556614D01*
X297527615Y-201729710D01*
X297342075Y-201920542D01*
X297143133Y-202122136D01*
X296937719Y-202327521D01*
X296732767Y-202529723D01*
X296535209Y-202721770D01*
X296351978Y-202896690D01*
X296190005Y-203047509D01*
X296174583Y-203061600D01*
X296008067Y-203213815D01*
X295824729Y-203382066D01*
X295639727Y-203552401D01*
X295468216Y-203710869D01*
X295342028Y-203827984D01*
X295182208Y-203975646D01*
X294999934Y-204142254D01*
X294813803Y-204310917D01*
X294642411Y-204464740D01*
X294580028Y-204520208D01*
X294215571Y-204850964D01*
X293856406Y-205192086D01*
X293508329Y-205537421D01*
X293177135Y-205880819D01*
X292868621Y-206216129D01*
X292588582Y-206537199D01*
X292342813Y-206837878D01*
X292137111Y-207112015D01*
X292134404Y-207115833D01*
X291828228Y-207581056D01*
X291572198Y-208044172D01*
X291361423Y-208515616D01*
X291191015Y-209005822D01*
X291107553Y-209307575D01*
X290980782Y-209902247D01*
X290899269Y-210498201D01*
X290862503Y-211090690D01*
X290869974Y-211674965D01*
X290921170Y-212246281D01*
X291015582Y-212799888D01*
X291152698Y-213331042D01*
X291332007Y-213834993D01*
X291552999Y-214306996D01*
X291667304Y-214510055D01*
X291943406Y-214926533D01*
X292250354Y-215299306D01*
X292589670Y-215629283D01*
X292962877Y-215917370D01*
X293371495Y-216164477D01*
X293817047Y-216371509D01*
X294301053Y-216539375D01*
X294825037Y-216668983D01*
X295390518Y-216761239D01*
X295454917Y-216769098D01*
X295599145Y-216782992D01*
X295781116Y-216795738D01*
X295988535Y-216806933D01*
X296209109Y-216816170D01*
X296430545Y-216823045D01*
X296640549Y-216827154D01*
X296826827Y-216828090D01*
X296977086Y-216825449D01*
X297049472Y-216821633D01*
X297558080Y-216773384D01*
X298016669Y-216710235D01*
X298429879Y-216631373D01*
X298802351Y-216535984D01*
X298961816Y-216486154D01*
X299448973Y-216303349D01*
X299890646Y-216092469D01*
X300291986Y-215850375D01*
X300658148Y-215573927D01*
X300994284Y-215259986D01*
X301022269Y-215230806D01*
X301341019Y-214854839D01*
X301615271Y-214444429D01*
X301844762Y-214000187D01*
X302029233Y-213522727D01*
X302168424Y-213012661D01*
X302262073Y-212470602D01*
X302285121Y-212262129D01*
X302292160Y-212154226D01*
X302298023Y-211994628D01*
X302302649Y-211788075D01*
X302305981Y-211539304D01*
X302307960Y-211253055D01*
X302308527Y-210934066D01*
X302307623Y-210587077D01*
X302307104Y-210486390D01*
X302298806Y-209030947D01*
X300817139Y-209415369D01*
X299335472Y-209799790D01*
X299319823Y-210772034D01*
X299314958Y-211047167D01*
X299309845Y-211272543D01*
X299304104Y-211454845D01*
X299297360Y-211600761D01*
X299289235Y-211716976D01*
X299279352Y-211810176D01*
X299267333Y-211887046D01*
X299253247Y-211952465D01*
X299143395Y-212302810D01*
X298995171Y-212611857D01*
X298808216Y-212880032D01*
X298582173Y-213107761D01*
X298316681Y-213295471D01*
X298011384Y-213443588D01*
X297993425Y-213450597D01*
X297796693Y-213520325D01*
X297605301Y-213573869D01*
X297407533Y-213612985D01*
X297191671Y-213639427D01*
X296945996Y-213654950D01*
X296658791Y-213661307D01*
X296583806Y-213661661D01*
X296359941Y-213661101D01*
X296182045Y-213657983D01*
X296039675Y-213651681D01*
X295922388Y-213641568D01*
X295819741Y-213627018D01*
X295737139Y-213610898D01*
X295373068Y-213509362D01*
X295051551Y-213371395D01*
X294771901Y-213196212D01*
X294533429Y-212983031D01*
X294335447Y-212731070D01*
X294177267Y-212439546D01*
X294058201Y-212107674D01*
X293977560Y-211734673D01*
X293957314Y-211586000D01*
X293932305Y-211138803D01*
X293962682Y-210702017D01*
X294048369Y-210276158D01*
X294189289Y-209861738D01*
X294229277Y-209768607D01*
X294336637Y-209546859D01*
X294463630Y-209320342D01*
X294612524Y-209086466D01*
X294785585Y-208842644D01*
X294985081Y-208586286D01*
X295213281Y-208314806D01*
X295472452Y-208025613D01*
X295764862Y-207716120D01*
X296092778Y-207383739D01*
X296458468Y-207025880D01*
X296864201Y-206639956D01*
X297312243Y-206223379D01*
X297430472Y-206114744D01*
X297746664Y-205823696D01*
X298060960Y-205532210D01*
X298368746Y-205244675D01*
X298665413Y-204965477D01*
X298946347Y-204699004D01*
X299206937Y-204449643D01*
X299442571Y-204221780D01*
X299648638Y-204019805D01*
X299820525Y-203848102D01*
X299917452Y-203748882D01*
X300352016Y-203271371D01*
X300739574Y-202790453D01*
X301078556Y-202308617D01*
X301367391Y-201828355D01*
X301604510Y-201352156D01*
X301788343Y-200882510D01*
X301850538Y-200683470D01*
X301986364Y-200128111D01*
X302077078Y-199565828D01*
X302122687Y-199003381D01*
X302123200Y-198447529D01*
X302078626Y-197905033D01*
X301988971Y-197382651D01*
X301854245Y-196887145D01*
X301845921Y-196861983D01*
X301667946Y-196416334D01*
X301441807Y-195997951D01*
X301169668Y-195608538D01*
X300853688Y-195249797D01*
X300496030Y-194923433D01*
X300098855Y-194631149D01*
X299664325Y-194374649D01*
X299194601Y-194155636D01*
X298691844Y-193975814D01*
X298158217Y-193836886D01*
X297956791Y-193796812D01*
X297670984Y-193748737D01*
X297401203Y-193713228D01*
X297130835Y-193688909D01*
X296843266Y-193674403D01*
X296521883Y-193668331D01*
X296402342Y-193667944D01*
X295902413Y-193679291D01*
G37*
X295902413Y-193679291D02*
X295442887Y-193714710D01*
X295012188Y-193776268D01*
X294598740Y-193866033D01*
X294190968Y-193986071D01*
X293784919Y-194135387D01*
X293319984Y-194346531D01*
X292901414Y-194589001D01*
X292527377Y-194864750D01*
X292196038Y-195175730D01*
X291905566Y-195523891D01*
X291654127Y-195911186D01*
X291439887Y-196339567D01*
X291261016Y-196810984D01*
X291255196Y-196828833D01*
X291185077Y-197055217D01*
X291126849Y-197268745D01*
X291079507Y-197477766D01*
X291042045Y-197690630D01*
X291013457Y-197915687D01*
X290992738Y-198161289D01*
X290978881Y-198435784D01*
X290970882Y-198747523D01*
X290967733Y-199104856D01*
X290967583Y-199216601D01*
X290967583Y-200102611D01*
X293951601Y-200102611D01*
X293967317Y-199361777D01*
X293975388Y-199067064D01*
X293986886Y-198820281D01*
X294003197Y-198612954D01*
X294025710Y-198436605D01*
X294055812Y-198282757D01*
X294094891Y-198142935D01*
X294144334Y-198008662D01*
X294205530Y-197871461D01*
X294214262Y-197853296D01*
X294368152Y-197597568D01*
X294565531Y-197370143D01*
X294797556Y-197179890D01*
X295007062Y-197058039D01*
X295322318Y-196930657D01*
X295664322Y-196841796D01*
X296038088Y-196790595D01*
X296448628Y-196776196D01*
X296625598Y-196780603D01*
X297009400Y-196809665D01*
X297348439Y-196864861D01*
X297648780Y-196947777D01*
X297916488Y-197060001D01*
X298104525Y-197167591D01*
X298340699Y-197352907D01*
X298539516Y-197576750D01*
X298700008Y-197834504D01*
X298821211Y-198121551D01*
X298902158Y-198433273D01*
X298941884Y-198765052D01*
X298939421Y-199112271D01*
X298893805Y-199470311D01*
X298804070Y-199834555D01*
X298715454Y-200088285D01*
X298590659Y-200360726D01*
X298425105Y-200644038D01*
X298215699Y-200942988D01*
X297959345Y-201262340D01*
X297934489Y-201291517D01*
X297830754Y-201408225D01*
X297692818Y-201556614D01*
X297527615Y-201729710D01*
X297342075Y-201920542D01*
X297143133Y-202122136D01*
X296937719Y-202327521D01*
X296732767Y-202529723D01*
X296535209Y-202721770D01*
X296351978Y-202896690D01*
X296190005Y-203047509D01*
X296174583Y-203061600D01*
X296008067Y-203213815D01*
X295824729Y-203382066D01*
X295639727Y-203552401D01*
X295468216Y-203710869D01*
X295342028Y-203827984D01*
X295182208Y-203975646D01*
X294999934Y-204142254D01*
X294813803Y-204310917D01*
X294642411Y-204464740D01*
X294580028Y-204520208D01*
X294215571Y-204850964D01*
X293856406Y-205192086D01*
X293508329Y-205537421D01*
X293177135Y-205880819D01*
X292868621Y-206216129D01*
X292588582Y-206537199D01*
X292342813Y-206837878D01*
X292137111Y-207112015D01*
X292134404Y-207115833D01*
X291828228Y-207581056D01*
X291572198Y-208044172D01*
X291361423Y-208515616D01*
X291191015Y-209005822D01*
X291107553Y-209307575D01*
X290980782Y-209902247D01*
X290899269Y-210498201D01*
X290862503Y-211090690D01*
X290869974Y-211674965D01*
X290921170Y-212246281D01*
X291015582Y-212799888D01*
X291152698Y-213331042D01*
X291332007Y-213834993D01*
X291552999Y-214306996D01*
X291667304Y-214510055D01*
X291943406Y-214926533D01*
X292250354Y-215299306D01*
X292589670Y-215629283D01*
X292962877Y-215917370D01*
X293371495Y-216164477D01*
X293817047Y-216371509D01*
X294301053Y-216539375D01*
X294825037Y-216668983D01*
X295390518Y-216761239D01*
X295454917Y-216769098D01*
X295599145Y-216782992D01*
X295781116Y-216795738D01*
X295988535Y-216806933D01*
X296209109Y-216816170D01*
X296430545Y-216823045D01*
X296640549Y-216827154D01*
X296826827Y-216828090D01*
X296977086Y-216825449D01*
X297049472Y-216821633D01*
X297558080Y-216773384D01*
X298016669Y-216710235D01*
X298429879Y-216631373D01*
X298802351Y-216535984D01*
X298961816Y-216486154D01*
X299448973Y-216303349D01*
X299890646Y-216092469D01*
X300291986Y-215850375D01*
X300658148Y-215573927D01*
X300994284Y-215259986D01*
X301022269Y-215230806D01*
X301341019Y-214854839D01*
X301615271Y-214444429D01*
X301844762Y-214000187D01*
X302029233Y-213522727D01*
X302168424Y-213012661D01*
X302262073Y-212470602D01*
X302285121Y-212262129D01*
X302292160Y-212154226D01*
X302298023Y-211994628D01*
X302302649Y-211788075D01*
X302305981Y-211539304D01*
X302307960Y-211253055D01*
X302308527Y-210934066D01*
X302307623Y-210587077D01*
X302307104Y-210486390D01*
X302298806Y-209030947D01*
X300817139Y-209415369D01*
X299335472Y-209799790D01*
X299319823Y-210772034D01*
X299314958Y-211047167D01*
X299309845Y-211272543D01*
X299304104Y-211454845D01*
X299297360Y-211600761D01*
X299289235Y-211716976D01*
X299279352Y-211810176D01*
X299267333Y-211887046D01*
X299253247Y-211952465D01*
X299143395Y-212302810D01*
X298995171Y-212611857D01*
X298808216Y-212880032D01*
X298582173Y-213107761D01*
X298316681Y-213295471D01*
X298011384Y-213443588D01*
X297993425Y-213450597D01*
X297796693Y-213520325D01*
X297605301Y-213573869D01*
X297407533Y-213612985D01*
X297191671Y-213639427D01*
X296945996Y-213654950D01*
X296658791Y-213661307D01*
X296583806Y-213661661D01*
X296359941Y-213661101D01*
X296182045Y-213657983D01*
X296039675Y-213651681D01*
X295922388Y-213641568D01*
X295819741Y-213627018D01*
X295737139Y-213610898D01*
X295373068Y-213509362D01*
X295051551Y-213371395D01*
X294771901Y-213196212D01*
X294533429Y-212983031D01*
X294335447Y-212731070D01*
X294177267Y-212439546D01*
X294058201Y-212107674D01*
X293977560Y-211734673D01*
X293957314Y-211586000D01*
X293932305Y-211138803D01*
X293962682Y-210702017D01*
X294048369Y-210276158D01*
X294189289Y-209861738D01*
X294229277Y-209768607D01*
X294336637Y-209546859D01*
X294463630Y-209320342D01*
X294612524Y-209086466D01*
X294785585Y-208842644D01*
X294985081Y-208586286D01*
X295213281Y-208314806D01*
X295472452Y-208025613D01*
X295764862Y-207716120D01*
X296092778Y-207383739D01*
X296458468Y-207025880D01*
X296864201Y-206639956D01*
X297312243Y-206223379D01*
X297430472Y-206114744D01*
X297746664Y-205823696D01*
X298060960Y-205532210D01*
X298368746Y-205244675D01*
X298665413Y-204965477D01*
X298946347Y-204699004D01*
X299206937Y-204449643D01*
X299442571Y-204221780D01*
X299648638Y-204019805D01*
X299820525Y-203848102D01*
X299917452Y-203748882D01*
X300352016Y-203271371D01*
X300739574Y-202790453D01*
X301078556Y-202308617D01*
X301367391Y-201828355D01*
X301604510Y-201352156D01*
X301788343Y-200882510D01*
X301850538Y-200683470D01*
X301986364Y-200128111D01*
X302077078Y-199565828D01*
X302122687Y-199003381D01*
X302123200Y-198447529D01*
X302078626Y-197905033D01*
X301988971Y-197382651D01*
X301854245Y-196887145D01*
X301845921Y-196861983D01*
X301667946Y-196416334D01*
X301441807Y-195997951D01*
X301169668Y-195608538D01*
X300853688Y-195249797D01*
X300496030Y-194923433D01*
X300098855Y-194631149D01*
X299664325Y-194374649D01*
X299194601Y-194155636D01*
X298691844Y-193975814D01*
X298158217Y-193836886D01*
X297956791Y-193796812D01*
X297670984Y-193748737D01*
X297401203Y-193713228D01*
X297130835Y-193688909D01*
X296843266Y-193674403D01*
X296521883Y-193668331D01*
X296402342Y-193667944D01*
X295902413Y-193679291D01*
G36*
X236696250Y-221890166D02*
G01*
X251569361Y-221890166D01*
X251569361Y-219237277D01*
X232067806Y-219237277D01*
X234607806Y-221890166D01*
X236696250Y-221890166D01*
G37*
X236696250Y-221890166D02*
X251569361Y-221890166D01*
X251569361Y-219237277D01*
X232067806Y-219237277D01*
X234607806Y-221890166D01*
X236696250Y-221890166D01*
G36*
X261898694Y-221890166D02*
G01*
X337844694Y-221890166D01*
X337844694Y-219237277D01*
X261898694Y-219237277D01*
X261898694Y-221890166D01*
G37*
X261898694Y-221890166D02*
X337844694Y-221890166D01*
X337844694Y-219237277D01*
X261898694Y-219237277D01*
X261898694Y-221890166D01*
G36*
X251527280Y-193672751D02*
G01*
X251277551Y-193680762D01*
X251036366Y-193695385D01*
X250818641Y-193716101D01*
X250639291Y-193742392D01*
X250609806Y-193748176D01*
X250131543Y-193869970D01*
X249692239Y-194030233D01*
X249287541Y-194231239D01*
X248913098Y-194475260D01*
X248564558Y-194764568D01*
X248447324Y-194877504D01*
X248193180Y-195148853D01*
X247971367Y-195425222D01*
X247775243Y-195717291D01*
X247598165Y-196035738D01*
X247433491Y-196391242D01*
X247303790Y-196715944D01*
X247151321Y-197173273D01*
X247036072Y-197640688D01*
X246955128Y-198131873D01*
X246913170Y-198550388D01*
X246909985Y-198621794D01*
X246906984Y-198746463D01*
X246904168Y-198921217D01*
X246901535Y-199142874D01*
X246899087Y-199408254D01*
X246896823Y-199714178D01*
X246894743Y-200057465D01*
X246892848Y-200434934D01*
X246891137Y-200843407D01*
X246889610Y-201279702D01*
X246888267Y-201740640D01*
X246887109Y-202223039D01*
X246886136Y-202723721D01*
X246885346Y-203239505D01*
X246884742Y-203767210D01*
X246884322Y-204303658D01*
X246884086Y-204845666D01*
X246884035Y-205390056D01*
X246884169Y-205933647D01*
X246884487Y-206473258D01*
X246884990Y-207005711D01*
X246885678Y-207527823D01*
X246886550Y-208036417D01*
X246887608Y-208528310D01*
X246888850Y-209000324D01*
X246890277Y-209449277D01*
X246891888Y-209871990D01*
X246893685Y-210265282D01*
X246895667Y-210625974D01*
X246897833Y-210950885D01*
X246900185Y-211236835D01*
X246902722Y-211480644D01*
X246905443Y-211679131D01*
X246908350Y-211829117D01*
X246911442Y-211927421D01*
X246913038Y-211955944D01*
X246982886Y-212565816D01*
X247099019Y-213145972D01*
X247261090Y-213695447D01*
X247468754Y-214213280D01*
X247721668Y-214698505D01*
X248019485Y-215150160D01*
X248091011Y-215244941D01*
X248388288Y-215584624D01*
X248721485Y-215884030D01*
X249086696Y-216142886D01*
X249480017Y-216360917D01*
X249897544Y-216537848D01*
X250335373Y-216673405D01*
X250789601Y-216767313D01*
X251256321Y-216819297D01*
X251731632Y-216829084D01*
X252211628Y-216796398D01*
X252692405Y-216720964D01*
X253170059Y-216602510D01*
X253640687Y-216440759D01*
X254100383Y-216235437D01*
X254545244Y-215986271D01*
X254927806Y-215725722D01*
X255139472Y-215568263D01*
X255146634Y-219208993D01*
X255153796Y-222849722D01*
X258455583Y-222849722D01*
X258455583Y-198196097D01*
X255153583Y-198196097D01*
X255153583Y-212320049D01*
X254878417Y-212563595D01*
X254525546Y-212851625D01*
X254174957Y-213087418D01*
X253819930Y-213274456D01*
X253453748Y-213416224D01*
X253069692Y-213516205D01*
X253024228Y-213525152D01*
X252887380Y-213542649D01*
X252712170Y-213552463D01*
X252513777Y-213554977D01*
X252307380Y-213550570D01*
X252108161Y-213539623D01*
X251931298Y-213522518D01*
X251791970Y-213499634D01*
X251766917Y-213493616D01*
X251460750Y-213389022D01*
X251189025Y-213243380D01*
X250950946Y-213055625D01*
X250745717Y-212824691D01*
X250572540Y-212549514D01*
X250430620Y-212229028D01*
X250319161Y-211862168D01*
X250237376Y-211447944D01*
X250233001Y-211409424D01*
X250228965Y-211351826D01*
X250225255Y-211273117D01*
X250221861Y-211171262D01*
X250218770Y-211044228D01*
X250215969Y-210889980D01*
X250213448Y-210706486D01*
X250211194Y-210491711D01*
X250209195Y-210243620D01*
X250207439Y-209960182D01*
X250205914Y-209639360D01*
X250204608Y-209279123D01*
X250203509Y-208877435D01*
X250202605Y-208432263D01*
X250201884Y-207941573D01*
X250201334Y-207403331D01*
X250200944Y-206815504D01*
X250200700Y-206176057D01*
X250200592Y-205482957D01*
X250200583Y-205210833D01*
X250200603Y-204523588D01*
X250200673Y-203890457D01*
X250200812Y-203309109D01*
X250201040Y-202777213D01*
X250201376Y-202292438D01*
X250201837Y-201852454D01*
X250202443Y-201454930D01*
X250203212Y-201097535D01*
X250204164Y-200777939D01*
X250205316Y-200493810D01*
X250206689Y-200242818D01*
X250208300Y-200022632D01*
X250210168Y-199830922D01*
X250212313Y-199665356D01*
X250214752Y-199523604D01*
X250217505Y-199403336D01*
X250220590Y-199302219D01*
X250224027Y-199217924D01*
X250227833Y-199148120D01*
X250232029Y-199090476D01*
X250236631Y-199042662D01*
X250241660Y-199002346D01*
X250247134Y-198967198D01*
X250251037Y-198945500D01*
X250345314Y-198541553D01*
X250467631Y-198185796D01*
X250619145Y-197876787D01*
X250801008Y-197613088D01*
X251014375Y-197393257D01*
X251260399Y-197215854D01*
X251540236Y-197079440D01*
X251816766Y-196991811D01*
X251994284Y-196959377D01*
X252209293Y-196938491D01*
X252443998Y-196929323D01*
X252680603Y-196932045D01*
X252901313Y-196946829D01*
X253088334Y-196973847D01*
X253113831Y-196979292D01*
X253539907Y-197104030D01*
X253952388Y-197281673D01*
X254346033Y-197509304D01*
X254715599Y-197784005D01*
X254963083Y-198008558D01*
X255153583Y-198196097D01*
X258455583Y-198196097D01*
X258455583Y-193950166D01*
X256204402Y-193950166D01*
X255649546Y-195355120D01*
X255479176Y-195200250D01*
X255033997Y-194833178D01*
X254558400Y-194512577D01*
X254055982Y-194240089D01*
X253530336Y-194017355D01*
X252985060Y-193846016D01*
X252423748Y-193727714D01*
X252178564Y-193693584D01*
X251992702Y-193678643D01*
X251770635Y-193671872D01*
X251527280Y-193672751D01*
G37*
X251527280Y-193672751D02*
X251277551Y-193680762D01*
X251036366Y-193695385D01*
X250818641Y-193716101D01*
X250639291Y-193742392D01*
X250609806Y-193748176D01*
X250131543Y-193869970D01*
X249692239Y-194030233D01*
X249287541Y-194231239D01*
X248913098Y-194475260D01*
X248564558Y-194764568D01*
X248447324Y-194877504D01*
X248193180Y-195148853D01*
X247971367Y-195425222D01*
X247775243Y-195717291D01*
X247598165Y-196035738D01*
X247433491Y-196391242D01*
X247303790Y-196715944D01*
X247151321Y-197173273D01*
X247036072Y-197640688D01*
X246955128Y-198131873D01*
X246913170Y-198550388D01*
X246909985Y-198621794D01*
X246906984Y-198746463D01*
X246904168Y-198921217D01*
X246901535Y-199142874D01*
X246899087Y-199408254D01*
X246896823Y-199714178D01*
X246894743Y-200057465D01*
X246892848Y-200434934D01*
X246891137Y-200843407D01*
X246889610Y-201279702D01*
X246888267Y-201740640D01*
X246887109Y-202223039D01*
X246886136Y-202723721D01*
X246885346Y-203239505D01*
X246884742Y-203767210D01*
X246884322Y-204303658D01*
X246884086Y-204845666D01*
X246884035Y-205390056D01*
X246884169Y-205933647D01*
X246884487Y-206473258D01*
X246884990Y-207005711D01*
X246885678Y-207527823D01*
X246886550Y-208036417D01*
X246887608Y-208528310D01*
X246888850Y-209000324D01*
X246890277Y-209449277D01*
X246891888Y-209871990D01*
X246893685Y-210265282D01*
X246895667Y-210625974D01*
X246897833Y-210950885D01*
X246900185Y-211236835D01*
X246902722Y-211480644D01*
X246905443Y-211679131D01*
X246908350Y-211829117D01*
X246911442Y-211927421D01*
X246913038Y-211955944D01*
X246982886Y-212565816D01*
X247099019Y-213145972D01*
X247261090Y-213695447D01*
X247468754Y-214213280D01*
X247721668Y-214698505D01*
X248019485Y-215150160D01*
X248091011Y-215244941D01*
X248388288Y-215584624D01*
X248721485Y-215884030D01*
X249086696Y-216142886D01*
X249480017Y-216360917D01*
X249897544Y-216537848D01*
X250335373Y-216673405D01*
X250789601Y-216767313D01*
X251256321Y-216819297D01*
X251731632Y-216829084D01*
X252211628Y-216796398D01*
X252692405Y-216720964D01*
X253170059Y-216602510D01*
X253640687Y-216440759D01*
X254100383Y-216235437D01*
X254545244Y-215986271D01*
X254927806Y-215725722D01*
X255139472Y-215568263D01*
X255146634Y-219208993D01*
X255153796Y-222849722D01*
X258455583Y-222849722D01*
X258455583Y-198196097D01*
X255153583Y-198196097D01*
X255153583Y-212320049D01*
X254878417Y-212563595D01*
X254525546Y-212851625D01*
X254174957Y-213087418D01*
X253819930Y-213274456D01*
X253453748Y-213416224D01*
X253069692Y-213516205D01*
X253024228Y-213525152D01*
X252887380Y-213542649D01*
X252712170Y-213552463D01*
X252513777Y-213554977D01*
X252307380Y-213550570D01*
X252108161Y-213539623D01*
X251931298Y-213522518D01*
X251791970Y-213499634D01*
X251766917Y-213493616D01*
X251460750Y-213389022D01*
X251189025Y-213243380D01*
X250950946Y-213055625D01*
X250745717Y-212824691D01*
X250572540Y-212549514D01*
X250430620Y-212229028D01*
X250319161Y-211862168D01*
X250237376Y-211447944D01*
X250233001Y-211409424D01*
X250228965Y-211351826D01*
X250225255Y-211273117D01*
X250221861Y-211171262D01*
X250218770Y-211044228D01*
X250215969Y-210889980D01*
X250213448Y-210706486D01*
X250211194Y-210491711D01*
X250209195Y-210243620D01*
X250207439Y-209960182D01*
X250205914Y-209639360D01*
X250204608Y-209279123D01*
X250203509Y-208877435D01*
X250202605Y-208432263D01*
X250201884Y-207941573D01*
X250201334Y-207403331D01*
X250200944Y-206815504D01*
X250200700Y-206176057D01*
X250200592Y-205482957D01*
X250200583Y-205210833D01*
X250200603Y-204523588D01*
X250200673Y-203890457D01*
X250200812Y-203309109D01*
X250201040Y-202777213D01*
X250201376Y-202292438D01*
X250201837Y-201852454D01*
X250202443Y-201454930D01*
X250203212Y-201097535D01*
X250204164Y-200777939D01*
X250205316Y-200493810D01*
X250206689Y-200242818D01*
X250208300Y-200022632D01*
X250210168Y-199830922D01*
X250212313Y-199665356D01*
X250214752Y-199523604D01*
X250217505Y-199403336D01*
X250220590Y-199302219D01*
X250224027Y-199217924D01*
X250227833Y-199148120D01*
X250232029Y-199090476D01*
X250236631Y-199042662D01*
X250241660Y-199002346D01*
X250247134Y-198967198D01*
X250251037Y-198945500D01*
X250345314Y-198541553D01*
X250467631Y-198185796D01*
X250619145Y-197876787D01*
X250801008Y-197613088D01*
X251014375Y-197393257D01*
X251260399Y-197215854D01*
X251540236Y-197079440D01*
X251816766Y-196991811D01*
X251994284Y-196959377D01*
X252209293Y-196938491D01*
X252443998Y-196929323D01*
X252680603Y-196932045D01*
X252901313Y-196946829D01*
X253088334Y-196973847D01*
X253113831Y-196979292D01*
X253539907Y-197104030D01*
X253952388Y-197281673D01*
X254346033Y-197509304D01*
X254715599Y-197784005D01*
X254963083Y-198008558D01*
X255153583Y-198196097D01*
X258455583Y-198196097D01*
X258455583Y-193950166D01*
X256204402Y-193950166D01*
X255649546Y-195355120D01*
X255479176Y-195200250D01*
X255033997Y-194833178D01*
X254558400Y-194512577D01*
X254055982Y-194240089D01*
X253530336Y-194017355D01*
X252985060Y-193846016D01*
X252423748Y-193727714D01*
X252178564Y-193693584D01*
X251992702Y-193678643D01*
X251770635Y-193671872D01*
X251527280Y-193672751D01*
D10*
G36*
X195538380Y-232709776D02*
G01*
X195919093Y-232785504D01*
X196328749Y-232955189D01*
X196697429Y-233201534D01*
X197010966Y-233515071D01*
X197257311Y-233883751D01*
X197426996Y-234293407D01*
X197513500Y-234728296D01*
X197513500Y-235171704D01*
X197426996Y-235606593D01*
X197257311Y-236016249D01*
X197010966Y-236384929D01*
X196697429Y-236698466D01*
X196328749Y-236944811D01*
X195919093Y-237114496D01*
X195538380Y-237190224D01*
X195484205Y-237201000D01*
X195040795Y-237201000D01*
X194986620Y-237190224D01*
X194605907Y-237114496D01*
X194196251Y-236944811D01*
X193827571Y-236698466D01*
X193514034Y-236384929D01*
X193267689Y-236016249D01*
X193098004Y-235606593D01*
X193011500Y-235171704D01*
X193011500Y-234728296D01*
X193098004Y-234293407D01*
X193267689Y-233883751D01*
X193514034Y-233515071D01*
X193827571Y-233201534D01*
X194196251Y-232955189D01*
X194605907Y-232785504D01*
X194986620Y-232709776D01*
X195040795Y-232699000D01*
X195484205Y-232699000D01*
X195538380Y-232709776D01*
G37*
G36*
X320950880Y-225566026D02*
G01*
X321331593Y-225641754D01*
X321741249Y-225811439D01*
X322109929Y-226057784D01*
X322423466Y-226371321D01*
X322669811Y-226740001D01*
X322839496Y-227149657D01*
X322926000Y-227584546D01*
X322926000Y-228027954D01*
X322839496Y-228462843D01*
X322669811Y-228872499D01*
X322423466Y-229241179D01*
X322109929Y-229554716D01*
X321741249Y-229801061D01*
X321331593Y-229970746D01*
X320950880Y-230046474D01*
X320896705Y-230057250D01*
X320453295Y-230057250D01*
X320399120Y-230046474D01*
X320018407Y-229970746D01*
X319608751Y-229801061D01*
X319240071Y-229554716D01*
X318926534Y-229241179D01*
X318680189Y-228872499D01*
X318510504Y-228462843D01*
X318424000Y-228027954D01*
X318424000Y-227584546D01*
X318510504Y-227149657D01*
X318680189Y-226740001D01*
X318926534Y-226371321D01*
X319240071Y-226057784D01*
X319608751Y-225811439D01*
X320018407Y-225641754D01*
X320399120Y-225566026D01*
X320453295Y-225555250D01*
X320896705Y-225555250D01*
X320950880Y-225566026D01*
G37*
G36*
X76475880Y-222391026D02*
G01*
X76856593Y-222466754D01*
X77266249Y-222636439D01*
X77634929Y-222882784D01*
X77948466Y-223196321D01*
X78194811Y-223565001D01*
X78364496Y-223974657D01*
X78451000Y-224409546D01*
X78451000Y-224852954D01*
X78364496Y-225287843D01*
X78194811Y-225697499D01*
X77948466Y-226066179D01*
X77634929Y-226379716D01*
X77266249Y-226626061D01*
X76856593Y-226795746D01*
X76475880Y-226871474D01*
X76421705Y-226882250D01*
X75978295Y-226882250D01*
X75924120Y-226871474D01*
X75543407Y-226795746D01*
X75133751Y-226626061D01*
X74765071Y-226379716D01*
X74451534Y-226066179D01*
X74205189Y-225697499D01*
X74035504Y-225287843D01*
X73949000Y-224852954D01*
X73949000Y-224409546D01*
X74035504Y-223974657D01*
X74205189Y-223565001D01*
X74451534Y-223196321D01*
X74765071Y-222882784D01*
X75133751Y-222636439D01*
X75543407Y-222466754D01*
X75924120Y-222391026D01*
X75978295Y-222380250D01*
X76421705Y-222380250D01*
X76475880Y-222391026D01*
G37*
G36*
X294757130Y-177941026D02*
G01*
X295137843Y-178016754D01*
X295547499Y-178186439D01*
X295916179Y-178432784D01*
X296229716Y-178746321D01*
X296476061Y-179115001D01*
X296645746Y-179524657D01*
X296732250Y-179959546D01*
X296732250Y-180402954D01*
X296645746Y-180837843D01*
X296476061Y-181247499D01*
X296229716Y-181616179D01*
X295916179Y-181929716D01*
X295547499Y-182176061D01*
X295137843Y-182345746D01*
X294757130Y-182421474D01*
X294702955Y-182432250D01*
X294259545Y-182432250D01*
X294205370Y-182421474D01*
X293824657Y-182345746D01*
X293415001Y-182176061D01*
X293046321Y-181929716D01*
X292732784Y-181616179D01*
X292486439Y-181247499D01*
X292316754Y-180837843D01*
X292230250Y-180402954D01*
X292230250Y-179959546D01*
X292316754Y-179524657D01*
X292486439Y-179115001D01*
X292732784Y-178746321D01*
X293046321Y-178432784D01*
X293415001Y-178186439D01*
X293824657Y-178016754D01*
X294205370Y-177941026D01*
X294259545Y-177930250D01*
X294702955Y-177930250D01*
X294757130Y-177941026D01*
G37*
G36*
X61394630Y-177941026D02*
G01*
X61775343Y-178016754D01*
X62184999Y-178186439D01*
X62553679Y-178432784D01*
X62867216Y-178746321D01*
X63113561Y-179115001D01*
X63283246Y-179524657D01*
X63369750Y-179959546D01*
X63369750Y-180402954D01*
X63283246Y-180837843D01*
X63113561Y-181247499D01*
X62867216Y-181616179D01*
X62553679Y-181929716D01*
X62184999Y-182176061D01*
X61775343Y-182345746D01*
X61394630Y-182421474D01*
X61340455Y-182432250D01*
X60897045Y-182432250D01*
X60842870Y-182421474D01*
X60462157Y-182345746D01*
X60052501Y-182176061D01*
X59683821Y-181929716D01*
X59370284Y-181616179D01*
X59123939Y-181247499D01*
X58954254Y-180837843D01*
X58867750Y-180402954D01*
X58867750Y-179959546D01*
X58954254Y-179524657D01*
X59123939Y-179115001D01*
X59370284Y-178746321D01*
X59683821Y-178432784D01*
X60052501Y-178186439D01*
X60462157Y-178016754D01*
X60842870Y-177941026D01*
X60897045Y-177930250D01*
X61340455Y-177930250D01*
X61394630Y-177941026D01*
G37*
G36*
X178075880Y-169209776D02*
G01*
X178456593Y-169285504D01*
X178866249Y-169455189D01*
X179234929Y-169701534D01*
X179548466Y-170015071D01*
X179794811Y-170383751D01*
X179964496Y-170793407D01*
X180051000Y-171228296D01*
X180051000Y-171671704D01*
X179964496Y-172106593D01*
X179794811Y-172516249D01*
X179548466Y-172884929D01*
X179234929Y-173198466D01*
X178866249Y-173444811D01*
X178456593Y-173614496D01*
X178075880Y-173690224D01*
X178021705Y-173701000D01*
X177578295Y-173701000D01*
X177524120Y-173690224D01*
X177143407Y-173614496D01*
X176733751Y-173444811D01*
X176365071Y-173198466D01*
X176051534Y-172884929D01*
X175805189Y-172516249D01*
X175635504Y-172106593D01*
X175549000Y-171671704D01*
X175549000Y-171228296D01*
X175635504Y-170793407D01*
X175805189Y-170383751D01*
X176051534Y-170015071D01*
X176365071Y-169701534D01*
X176733751Y-169455189D01*
X177143407Y-169285504D01*
X177524120Y-169209776D01*
X177578295Y-169199000D01*
X178021705Y-169199000D01*
X178075880Y-169209776D01*
G37*
G36*
X71985656Y-158391544D02*
G01*
X72706640Y-158534956D01*
X73498472Y-158862943D01*
X74211101Y-159339107D01*
X74817143Y-159945149D01*
X75293307Y-160657778D01*
X75621294Y-161449610D01*
X75788500Y-162290214D01*
X75788500Y-163147286D01*
X75621294Y-163987890D01*
X75293307Y-164779722D01*
X74817143Y-165492351D01*
X74211101Y-166098393D01*
X73498472Y-166574557D01*
X72706640Y-166902544D01*
X71985656Y-167045956D01*
X71866037Y-167069750D01*
X71008963Y-167069750D01*
X70889344Y-167045956D01*
X70168360Y-166902544D01*
X69376528Y-166574557D01*
X68663899Y-166098393D01*
X68057857Y-165492351D01*
X67581693Y-164779722D01*
X67253706Y-163987890D01*
X67086500Y-163147286D01*
X67086500Y-162290214D01*
X67253706Y-161449610D01*
X67581693Y-160657778D01*
X68057857Y-159945149D01*
X68663899Y-159339107D01*
X69376528Y-158862943D01*
X70168360Y-158534956D01*
X70889344Y-158391544D01*
X71008963Y-158367750D01*
X71866037Y-158367750D01*
X71985656Y-158391544D01*
G37*
G36*
X322810656Y-158391544D02*
G01*
X323531640Y-158534956D01*
X324323472Y-158862943D01*
X325036101Y-159339107D01*
X325642143Y-159945149D01*
X326118307Y-160657778D01*
X326446294Y-161449610D01*
X326613500Y-162290214D01*
X326613500Y-163147286D01*
X326446294Y-163987890D01*
X326118307Y-164779722D01*
X325642143Y-165492351D01*
X325036101Y-166098393D01*
X324323472Y-166574557D01*
X323531640Y-166902544D01*
X322810656Y-167045956D01*
X322691037Y-167069750D01*
X321833963Y-167069750D01*
X321714344Y-167045956D01*
X320993360Y-166902544D01*
X320201528Y-166574557D01*
X319488899Y-166098393D01*
X318882857Y-165492351D01*
X318406693Y-164779722D01*
X318078706Y-163987890D01*
X317911500Y-163147286D01*
X317911500Y-162290214D01*
X318078706Y-161449610D01*
X318406693Y-160657778D01*
X318882857Y-159945149D01*
X319488899Y-159339107D01*
X320201528Y-158862943D01*
X320993360Y-158534956D01*
X321714344Y-158391544D01*
X321833963Y-158367750D01*
X322691037Y-158367750D01*
X322810656Y-158391544D01*
G37*
G36*
X354288380Y-143809776D02*
G01*
X354669093Y-143885504D01*
X355078749Y-144055189D01*
X355447429Y-144301534D01*
X355760966Y-144615071D01*
X356007311Y-144983751D01*
X356176996Y-145393407D01*
X356263500Y-145828296D01*
X356263500Y-146271704D01*
X356176996Y-146706593D01*
X356007311Y-147116249D01*
X355760966Y-147484929D01*
X355447429Y-147798466D01*
X355078749Y-148044811D01*
X354669093Y-148214496D01*
X354288380Y-148290224D01*
X354234205Y-148301000D01*
X353790795Y-148301000D01*
X353736620Y-148290224D01*
X353355907Y-148214496D01*
X352946251Y-148044811D01*
X352577571Y-147798466D01*
X352264034Y-147484929D01*
X352017689Y-147116249D01*
X351848004Y-146706593D01*
X351761500Y-146271704D01*
X351761500Y-145828296D01*
X351848004Y-145393407D01*
X352017689Y-144983751D01*
X352264034Y-144615071D01*
X352577571Y-144301534D01*
X352946251Y-144055189D01*
X353355907Y-143885504D01*
X353736620Y-143809776D01*
X353790795Y-143799000D01*
X354234205Y-143799000D01*
X354288380Y-143809776D01*
G37*
G36*
X39963380Y-143809776D02*
G01*
X40344093Y-143885504D01*
X40753749Y-144055189D01*
X41122429Y-144301534D01*
X41435966Y-144615071D01*
X41682311Y-144983751D01*
X41851996Y-145393407D01*
X41938500Y-145828296D01*
X41938500Y-146271704D01*
X41851996Y-146706593D01*
X41682311Y-147116249D01*
X41435966Y-147484929D01*
X41122429Y-147798466D01*
X40753749Y-148044811D01*
X40344093Y-148214496D01*
X39963380Y-148290224D01*
X39909205Y-148301000D01*
X39465795Y-148301000D01*
X39411620Y-148290224D01*
X39030907Y-148214496D01*
X38621251Y-148044811D01*
X38252571Y-147798466D01*
X37939034Y-147484929D01*
X37692689Y-147116249D01*
X37523004Y-146706593D01*
X37436500Y-146271704D01*
X37436500Y-145828296D01*
X37523004Y-145393407D01*
X37692689Y-144983751D01*
X37939034Y-144615071D01*
X38252571Y-144301534D01*
X38621251Y-144055189D01*
X39030907Y-143885504D01*
X39411620Y-143809776D01*
X39465795Y-143799000D01*
X39909205Y-143799000D01*
X39963380Y-143809776D01*
G37*
G36*
X197125880Y-126347276D02*
G01*
X197506593Y-126423004D01*
X197916249Y-126592689D01*
X198284929Y-126839034D01*
X198598466Y-127152571D01*
X198844811Y-127521251D01*
X199014496Y-127930907D01*
X199101000Y-128365796D01*
X199101000Y-128809204D01*
X199014496Y-129244093D01*
X198844811Y-129653749D01*
X198598466Y-130022429D01*
X198284929Y-130335966D01*
X197916249Y-130582311D01*
X197506593Y-130751996D01*
X197125880Y-130827724D01*
X197071705Y-130838500D01*
X196628295Y-130838500D01*
X196574120Y-130827724D01*
X196193407Y-130751996D01*
X195783751Y-130582311D01*
X195415071Y-130335966D01*
X195101534Y-130022429D01*
X194855189Y-129653749D01*
X194685504Y-129244093D01*
X194599000Y-128809204D01*
X194599000Y-128365796D01*
X194685504Y-127930907D01*
X194855189Y-127521251D01*
X195101534Y-127152571D01*
X195415071Y-126839034D01*
X195783751Y-126592689D01*
X196193407Y-126423004D01*
X196574120Y-126347276D01*
X196628295Y-126336500D01*
X197071705Y-126336500D01*
X197125880Y-126347276D01*
G37*
G36*
X39963380Y-126347276D02*
G01*
X40344093Y-126423004D01*
X40753749Y-126592689D01*
X41122429Y-126839034D01*
X41435966Y-127152571D01*
X41682311Y-127521251D01*
X41851996Y-127930907D01*
X41938500Y-128365796D01*
X41938500Y-128809204D01*
X41851996Y-129244093D01*
X41682311Y-129653749D01*
X41435966Y-130022429D01*
X41122429Y-130335966D01*
X40753749Y-130582311D01*
X40344093Y-130751996D01*
X39963380Y-130827724D01*
X39909205Y-130838500D01*
X39465795Y-130838500D01*
X39411620Y-130827724D01*
X39030907Y-130751996D01*
X38621251Y-130582311D01*
X38252571Y-130335966D01*
X37939034Y-130022429D01*
X37692689Y-129653749D01*
X37523004Y-129244093D01*
X37436500Y-128809204D01*
X37436500Y-128365796D01*
X37523004Y-127930907D01*
X37692689Y-127521251D01*
X37939034Y-127152571D01*
X38252571Y-126839034D01*
X38621251Y-126592689D01*
X39030907Y-126423004D01*
X39411620Y-126347276D01*
X39465795Y-126336500D01*
X39909205Y-126336500D01*
X39963380Y-126347276D01*
G37*
G36*
X354288380Y-126347276D02*
G01*
X354669093Y-126423004D01*
X355078749Y-126592689D01*
X355447429Y-126839034D01*
X355760966Y-127152571D01*
X356007311Y-127521251D01*
X356176996Y-127930907D01*
X356263500Y-128365796D01*
X356263500Y-128809204D01*
X356176996Y-129244093D01*
X356007311Y-129653749D01*
X355760966Y-130022429D01*
X355447429Y-130335966D01*
X355078749Y-130582311D01*
X354669093Y-130751996D01*
X354288380Y-130827724D01*
X354234205Y-130838500D01*
X353790795Y-130838500D01*
X353736620Y-130827724D01*
X353355907Y-130751996D01*
X352946251Y-130582311D01*
X352577571Y-130335966D01*
X352264034Y-130022429D01*
X352017689Y-129653749D01*
X351848004Y-129244093D01*
X351761500Y-128809204D01*
X351761500Y-128365796D01*
X351848004Y-127930907D01*
X352017689Y-127521251D01*
X352264034Y-127152571D01*
X352577571Y-126839034D01*
X352946251Y-126592689D01*
X353355907Y-126423004D01*
X353736620Y-126347276D01*
X353790795Y-126336500D01*
X354234205Y-126336500D01*
X354288380Y-126347276D01*
G37*
M02*
