%TF.GenerationSoftware,KiCad,Pcbnew,(5.1.6)-1*%
%TF.CreationDate,2022-08-08T21:24:52-05:00*%
%TF.ProjectId,pinstripe_plate,70696e73-7472-4697-9065-5f706c617465,rev?*%
%TF.SameCoordinates,Original*%
%TF.FileFunction,Profile,NP*%
%FSLAX46Y46*%
G04 Gerber Fmt 4.6, Leading zero omitted, Abs format (unit mm)*
G04 Created by KiCad (PCBNEW (5.1.6)-1) date 2022-08-08 21:24:52*
%MOMM*%
%LPD*%
G01*
G04 APERTURE LIST*
%TA.AperFunction,Profile*%
%ADD10C,0.200000*%
%TD*%
G04 APERTURE END LIST*
D10*
X345631250Y-78437500D02*
X345631250Y-90725000D01*
X363093750Y-78437500D02*
X363093750Y-90725000D01*
X363093750Y-90725000D02*
G75*
G02*
X362093750Y-91725000I-1000000J0D01*
G01*
X346631250Y-91725000D02*
G75*
G02*
X345631250Y-90725000I0J1000000D01*
G01*
X362093750Y-77437500D02*
G75*
G02*
X363093750Y-78437500I0J-1000000D01*
G01*
X345631250Y-78437500D02*
G75*
G02*
X346631250Y-77437500I1000000J0D01*
G01*
X346631250Y-91725000D02*
X362093750Y-91725000D01*
X346631250Y-77437500D02*
X362093750Y-77437500D01*
X340456055Y-98028599D02*
G75*
G02*
X341281500Y-97201750I793695J33099D01*
G01*
X368332500Y-97201750D02*
G75*
G02*
X369094500Y-97963750I0J-762000D01*
G01*
X369094500Y-97963750D02*
X369094500Y-125427750D01*
X340456055Y-125443500D02*
G75*
G03*
X341218055Y-126205500I762000J0D01*
G01*
X368332500Y-126189750D02*
X341218055Y-126205500D01*
X368332500Y-126189750D02*
G75*
G03*
X369094500Y-125427750I0J762000D01*
G01*
X340456055Y-98028599D02*
X340456055Y-125443500D01*
X341281500Y-97201750D02*
X368332500Y-97201750D01*
X194737500Y-93312500D02*
G75*
G03*
X194737500Y-93312500I-2300000J0D01*
G01*
X93137500Y-146493750D02*
G75*
G03*
X93137500Y-146493750I-2300000J0D01*
G01*
X212200000Y-156812500D02*
G75*
G03*
X212200000Y-156812500I-2300000J0D01*
G01*
X337612500Y-149668750D02*
G75*
G03*
X337612500Y-149668750I-2300000J0D01*
G01*
X311418750Y-102043750D02*
G75*
G03*
X311418750Y-102043750I-2300000J0D01*
G01*
X78056250Y-102043750D02*
G75*
G03*
X78056250Y-102043750I-2300000J0D01*
G01*
X373412500Y-165543750D02*
G75*
G02*
X370237500Y-168718750I-3175000J0D01*
G01*
X370237500Y-73468750D02*
G75*
G02*
X373412500Y-76643750I0J-3175000D01*
G01*
X49562500Y-76643750D02*
G75*
G02*
X52737500Y-73468750I3175000J0D01*
G01*
X52737500Y-168718750D02*
G75*
G02*
X49562500Y-165543750I0J3175000D01*
G01*
X234031250Y-164193750D02*
X234031250Y-151193750D01*
X233031250Y-150193750D02*
X228037500Y-150193750D01*
X233031250Y-150193750D02*
G75*
G02*
X234031250Y-151193750I0J-1000000D01*
G01*
X63555750Y-147143750D02*
X78431750Y-147143750D01*
X78431750Y-147143750D02*
G75*
G02*
X79431750Y-148143750I0J-1000000D01*
G01*
X80431750Y-149143750D02*
G75*
G02*
X79431750Y-148143750I0J1000000D01*
G01*
X85431750Y-134143750D02*
G75*
G02*
X86431750Y-135143750I0J-1000000D01*
G01*
X64127725Y-133643750D02*
G75*
G02*
X64993750Y-133143750I866025J-500000D01*
G01*
X62555750Y-148143750D02*
G75*
G02*
X63555750Y-147143750I1000000J0D01*
G01*
X62555750Y-148143750D02*
G75*
G02*
X61555750Y-149143750I-1000000J0D01*
G01*
X78725800Y-134143750D02*
X85431750Y-134143750D01*
X64127725Y-133643750D02*
G75*
G02*
X63261700Y-134143750I-866025J500000D01*
G01*
X86431750Y-135143750D02*
X86431750Y-148143750D01*
X86431750Y-148143750D02*
G75*
G02*
X85431750Y-149143750I-1000000J0D01*
G01*
X80431750Y-149143750D02*
X85431750Y-149143750D01*
X77859775Y-133643750D02*
G75*
G03*
X78725800Y-134143750I866025J500000D01*
G01*
X77859775Y-133643750D02*
G75*
G03*
X76993750Y-133143750I-866025J-500000D01*
G01*
X320747275Y-114593750D02*
G75*
G03*
X321613300Y-115093750I866025J500000D01*
G01*
X320747275Y-114593750D02*
G75*
G03*
X319881250Y-114093750I-866025J-500000D01*
G01*
X324556750Y-148143750D02*
G75*
G02*
X325556750Y-147143750I1000000J0D01*
G01*
X331787500Y-147143750D02*
X325556750Y-147143750D01*
X293593750Y-133143750D02*
X315118749Y-133143750D01*
X301680750Y-147143750D02*
X316556750Y-147143750D01*
X300680750Y-148143750D02*
G75*
G02*
X301680750Y-147143750I1000000J0D01*
G01*
X291212500Y-166193750D02*
X305593750Y-166193750D01*
X291212500Y-152193750D02*
X305593750Y-152193750D01*
X265018750Y-166193750D02*
X281781250Y-166193750D01*
X265018750Y-152193750D02*
X281781250Y-152193750D01*
X254087500Y-152193750D02*
X257968750Y-152193750D01*
X254087500Y-152193750D02*
G75*
G02*
X253087500Y-151193750I0J1000000D01*
G01*
X198437500Y-166193750D02*
X167387500Y-166193750D01*
X198437500Y-152193750D02*
X167387500Y-152193750D01*
X137787500Y-165193750D02*
X128031250Y-165193750D01*
X137787500Y-150193750D02*
X128031250Y-150193750D01*
X119737500Y-151193750D02*
X119745000Y-165193750D01*
X119745000Y-165193750D02*
G75*
G02*
X118745000Y-166193750I-1000000J0D01*
G01*
X103093750Y-152193750D02*
X111737500Y-152193750D01*
X118745000Y-166193750D02*
X103093750Y-166193750D01*
X112737500Y-151193750D02*
G75*
G02*
X111737500Y-152193750I-1000000J0D01*
G01*
X79281250Y-166193750D02*
X98425000Y-166193750D01*
X79281250Y-152193750D02*
X98425000Y-152193750D01*
X55468750Y-166193750D02*
X69850000Y-166193750D01*
X55468750Y-152193750D02*
X69850000Y-152193750D01*
X332787500Y-76993750D02*
X332789000Y-90993750D01*
X331789000Y-91993750D02*
G75*
G03*
X332789000Y-90993750I0J1000000D01*
G01*
X323700500Y-89993750D02*
G75*
G02*
X324700500Y-90993750I0J-1000000D01*
G01*
X308824500Y-89993750D02*
X323700500Y-89993750D01*
X307824500Y-90993750D02*
G75*
G02*
X308824500Y-89993750I1000000J0D01*
G01*
X300737500Y-75993750D02*
X331787500Y-75993750D01*
X55468750Y-128093750D02*
X72231250Y-128093750D01*
X55468750Y-114093750D02*
X72231250Y-114093750D01*
X245968750Y-166193750D02*
X257968750Y-166193750D01*
X167387500Y-89993749D02*
X179387499Y-89993749D01*
X161337499Y-88993750D02*
G75*
G02*
X160337500Y-89993749I-999999J0D01*
G01*
X198437500Y-75993750D02*
G75*
G02*
X199437500Y-76993750I0J-1000000D01*
G01*
X204487500Y-76993750D02*
G75*
G02*
X205487500Y-75993750I1000000J0D01*
G01*
X218487500Y-76993750D02*
X218487500Y-88993750D01*
X204487500Y-76993750D02*
X204487500Y-88993750D01*
X205487500Y-89993749D02*
X217487500Y-89993749D01*
X205487500Y-75993750D02*
X217487500Y-75993750D01*
X199437499Y-88993750D02*
G75*
G02*
X198437500Y-89993749I-999999J0D01*
G01*
X186437500Y-89993750D02*
G75*
G02*
X185437500Y-88993750I0J1000000D01*
G01*
X185437500Y-76993750D02*
X185437500Y-88993750D01*
X186437500Y-75993750D02*
X198437500Y-75993750D01*
X185437500Y-76993750D02*
G75*
G02*
X186437500Y-75993750I1000000J0D01*
G01*
X179387499Y-75993750D02*
G75*
G02*
X180387499Y-76993750I0J-1000000D01*
G01*
X199437500Y-76993750D02*
X199437500Y-88993750D01*
X166387500Y-76993750D02*
X166387500Y-88993750D01*
X148337500Y-89993750D02*
G75*
G02*
X147337500Y-88993750I0J1000000D01*
G01*
X160337500Y-75993750D02*
G75*
G02*
X161337500Y-76993750I0J-1000000D01*
G01*
X167387500Y-89993750D02*
G75*
G02*
X166387500Y-88993750I0J1000000D01*
G01*
X167387500Y-75993750D02*
X179387499Y-75993750D01*
X186437500Y-89993749D02*
X198437500Y-89993749D01*
X180387498Y-88993750D02*
G75*
G02*
X179387499Y-89993749I-999999J0D01*
G01*
X224537500Y-75993750D02*
X236537500Y-75993750D01*
X218487499Y-88993750D02*
G75*
G02*
X217487500Y-89993749I-999999J0D01*
G01*
X180387499Y-76993750D02*
X180387499Y-88993750D01*
X205487500Y-89993750D02*
G75*
G02*
X204487500Y-88993750I0J1000000D01*
G01*
X217487500Y-75993750D02*
G75*
G02*
X218487500Y-76993750I0J-1000000D01*
G01*
X166387500Y-76993750D02*
G75*
G02*
X167387500Y-75993750I1000000J0D01*
G01*
X123237500Y-76993750D02*
X123237500Y-88993750D01*
X109237500Y-76993750D02*
X109237500Y-88993750D01*
X103187500Y-75993750D02*
G75*
G02*
X104187500Y-76993750I0J-1000000D01*
G01*
X129287500Y-89993749D02*
X141287500Y-89993749D01*
X72137500Y-75993750D02*
X84137500Y-75993750D01*
X65087500Y-75993751D02*
G75*
G02*
X66087499Y-76993750I0J-999999D01*
G01*
X109237500Y-76993750D02*
G75*
G02*
X110237500Y-75993750I1000000J0D01*
G01*
X147337500Y-76993750D02*
G75*
G02*
X148337500Y-75993750I1000000J0D01*
G01*
X142287499Y-88993750D02*
G75*
G02*
X141287500Y-89993749I-999999J0D01*
G01*
X91187500Y-89993749D02*
X103187500Y-89993749D01*
X53087500Y-89993750D02*
G75*
G02*
X52087500Y-88993750I0J1000000D01*
G01*
X72137500Y-89993749D02*
X84137500Y-89993749D01*
X161337500Y-76993750D02*
X161337500Y-88993750D01*
X147337500Y-76993750D02*
X147337500Y-88993750D01*
X148337500Y-89993749D02*
X160337500Y-89993749D01*
X66087499Y-88993750D02*
G75*
G02*
X65087500Y-89993749I-999999J0D01*
G01*
X148337500Y-75993750D02*
X160337500Y-75993750D01*
X141287500Y-75993750D02*
G75*
G02*
X142287500Y-76993750I0J-1000000D01*
G01*
X53087500Y-89993749D02*
X65087500Y-89993749D01*
X123237499Y-88993750D02*
G75*
G02*
X122237500Y-89993749I-999999J0D01*
G01*
X122237500Y-75993750D02*
G75*
G02*
X123237500Y-76993750I0J-1000000D01*
G01*
X104187500Y-76993750D02*
X104187500Y-88993750D01*
X71137500Y-76993750D02*
X71137500Y-88993750D01*
X52087500Y-76993750D02*
G75*
G02*
X53087500Y-75993750I1000000J0D01*
G01*
X90187500Y-76993750D02*
G75*
G02*
X91187500Y-75993750I1000000J0D01*
G01*
X142287500Y-76993750D02*
X142287500Y-88993750D01*
X91187500Y-75993750D02*
X103187500Y-75993750D01*
X104187499Y-88993750D02*
G75*
G02*
X103187500Y-89993749I-999999J0D01*
G01*
X72137500Y-89993750D02*
G75*
G02*
X71137500Y-88993750I0J1000000D01*
G01*
X129287500Y-75993750D02*
X141287500Y-75993750D01*
X110237500Y-75993750D02*
X122237500Y-75993750D01*
X52087500Y-76993750D02*
X52087500Y-88993750D01*
X110237500Y-89993750D02*
G75*
G02*
X109237500Y-88993750I0J1000000D01*
G01*
X129287500Y-89993750D02*
G75*
G02*
X128287500Y-88993750I0J1000000D01*
G01*
X128287500Y-76993750D02*
G75*
G02*
X129287500Y-75993750I1000000J0D01*
G01*
X128287500Y-76993750D02*
X128287500Y-88993750D01*
X84137500Y-75993750D02*
G75*
G02*
X85137500Y-76993750I0J-1000000D01*
G01*
X91187500Y-89993750D02*
G75*
G02*
X90187500Y-88993750I0J1000000D01*
G01*
X85137499Y-88993750D02*
G75*
G02*
X84137500Y-89993749I-999999J0D01*
G01*
X90187500Y-76993750D02*
X90187500Y-88993750D01*
X53087500Y-75993750D02*
X65087500Y-75993750D01*
X66087499Y-76993750D02*
X66087499Y-88993750D01*
X85137500Y-76993750D02*
X85137500Y-88993750D01*
X110237500Y-89993749D02*
X122237500Y-89993749D01*
X71137500Y-76993750D02*
G75*
G02*
X72137500Y-75993750I1000000J0D01*
G01*
X81662500Y-109043750D02*
G75*
G02*
X80662500Y-108043750I0J1000000D01*
G01*
X80662500Y-96043750D02*
X80662500Y-108043750D01*
X57850000Y-95043750D02*
X69850000Y-95043750D01*
X112712500Y-95043750D02*
G75*
G02*
X113712500Y-96043750I0J-1000000D01*
G01*
X81662500Y-109043750D02*
X93662500Y-109043750D01*
X113712500Y-96043750D02*
X113712500Y-108043750D01*
X331787500Y-75993750D02*
G75*
G02*
X332787500Y-76993750I0J-1000000D01*
G01*
X80662500Y-96043750D02*
G75*
G02*
X81662500Y-95043750I1000000J0D01*
G01*
X70850000Y-108043750D02*
G75*
G02*
X69850000Y-109043750I-1000000J0D01*
G01*
X100712500Y-109043750D02*
X112712500Y-109043750D01*
X57850000Y-109043750D02*
X69850000Y-109043750D01*
X69850000Y-95043750D02*
G75*
G02*
X70850000Y-96043750I0J-1000000D01*
G01*
X150812500Y-95043750D02*
G75*
G02*
X151812500Y-96043750I0J-1000000D01*
G01*
X119762500Y-95043750D02*
X131762500Y-95043750D01*
X94662500Y-96043750D02*
X94662500Y-108043750D01*
X100712500Y-109043750D02*
G75*
G02*
X99712500Y-108043750I0J1000000D01*
G01*
X157862500Y-109043750D02*
X169862500Y-109043750D01*
X157862500Y-95043750D02*
X169862500Y-95043750D01*
X56850000Y-96043750D02*
X56850000Y-108043750D01*
X151812500Y-108043750D02*
G75*
G02*
X150812500Y-109043750I-1000000J0D01*
G01*
X137812500Y-96043750D02*
X137812500Y-108043750D01*
X131762500Y-95043750D02*
G75*
G02*
X132762500Y-96043750I0J-1000000D01*
G01*
X113712500Y-108043750D02*
G75*
G02*
X112712500Y-109043750I-1000000J0D01*
G01*
X118762500Y-96043750D02*
X118762500Y-108043750D01*
X57850000Y-109043750D02*
G75*
G02*
X56850000Y-108043750I0J1000000D01*
G01*
X132762500Y-96043750D02*
X132762500Y-108043750D01*
X138812500Y-109043750D02*
G75*
G02*
X137812500Y-108043750I0J1000000D01*
G01*
X56850000Y-96043750D02*
G75*
G02*
X57850000Y-95043750I1000000J0D01*
G01*
X70850000Y-96043750D02*
X70850000Y-108043750D01*
X137812500Y-96043750D02*
G75*
G02*
X138812500Y-95043750I1000000J0D01*
G01*
X99712500Y-96043750D02*
G75*
G02*
X100712500Y-95043750I1000000J0D01*
G01*
X151812500Y-96043750D02*
X151812500Y-108043750D01*
X118762500Y-96043750D02*
G75*
G02*
X119762500Y-95043750I1000000J0D01*
G01*
X138812500Y-109043750D02*
X150812500Y-109043750D01*
X138812500Y-95043750D02*
X150812500Y-95043750D01*
X132762500Y-108043750D02*
G75*
G02*
X131762500Y-109043750I-1000000J0D01*
G01*
X94662500Y-108043750D02*
G75*
G02*
X93662500Y-109043750I-1000000J0D01*
G01*
X119762500Y-109043750D02*
G75*
G02*
X118762500Y-108043750I0J1000000D01*
G01*
X93662500Y-95043750D02*
G75*
G02*
X94662500Y-96043750I0J-1000000D01*
G01*
X99712500Y-96043750D02*
X99712500Y-108043750D01*
X81662500Y-95043750D02*
X93662500Y-95043750D01*
X119762500Y-109043750D02*
X131762500Y-109043750D01*
X100712500Y-95043750D02*
X112712500Y-95043750D01*
X237537499Y-88993750D02*
G75*
G02*
X236537500Y-89993749I-999999J0D01*
G01*
X223537500Y-76993750D02*
G75*
G02*
X224537500Y-75993750I1000000J0D01*
G01*
X281687500Y-89993749D02*
X293687500Y-89993749D01*
X281687500Y-89993750D02*
G75*
G02*
X280687500Y-88993750I0J1000000D01*
G01*
X256587500Y-76993750D02*
X256587500Y-88993750D01*
X294687499Y-88993750D02*
G75*
G02*
X293687500Y-89993749I-999999J0D01*
G01*
X242587500Y-76993750D02*
X242587500Y-88993750D01*
X262637500Y-89993749D02*
X274637500Y-89993749D01*
X223537500Y-76993750D02*
X223537500Y-88993750D01*
X307824500Y-90993750D02*
G75*
G02*
X306824500Y-91993750I-1000000J0D01*
G01*
X262637500Y-89993750D02*
G75*
G02*
X261637500Y-88993750I0J1000000D01*
G01*
X275637500Y-76993750D02*
X275637500Y-88993750D01*
X300736000Y-91993750D02*
G75*
G02*
X299736000Y-90993750I0J1000000D01*
G01*
X300736000Y-91993750D02*
X306824500Y-91993750D01*
X325700500Y-91993750D02*
G75*
G02*
X324700500Y-90993750I0J1000000D01*
G01*
X275637499Y-88993750D02*
G75*
G02*
X274637500Y-89993749I-999999J0D01*
G01*
X224537500Y-89993749D02*
X236537500Y-89993749D01*
X325700500Y-91993750D02*
X331789000Y-91993750D01*
X256587499Y-88993750D02*
G75*
G02*
X255587500Y-89993749I-999999J0D01*
G01*
X243587500Y-89993749D02*
X255587500Y-89993749D01*
X237537500Y-76993750D02*
X237537500Y-88993750D01*
X299737500Y-76993750D02*
X299736000Y-90993750D01*
X280687500Y-76993750D02*
X280687500Y-88993750D01*
X281687500Y-75993750D02*
X293687500Y-75993750D01*
X262637500Y-75993750D02*
X274637500Y-75993750D01*
X243587500Y-89993750D02*
G75*
G02*
X242587500Y-88993750I0J1000000D01*
G01*
X255587500Y-75993750D02*
G75*
G02*
X256587500Y-76993750I0J-1000000D01*
G01*
X261637500Y-76993750D02*
G75*
G02*
X262637500Y-75993750I1000000J0D01*
G01*
X299737500Y-76993750D02*
G75*
G02*
X300737500Y-75993750I1000000J0D01*
G01*
X236537500Y-75993750D02*
G75*
G02*
X237537500Y-76993750I0J-1000000D01*
G01*
X280687500Y-76993750D02*
G75*
G02*
X281687500Y-75993750I1000000J0D01*
G01*
X274637500Y-75993750D02*
G75*
G02*
X275637500Y-76993750I0J-1000000D01*
G01*
X294687500Y-76993750D02*
X294687500Y-88993750D01*
X293687500Y-75993750D02*
G75*
G02*
X294687500Y-76993750I0J-1000000D01*
G01*
X243587500Y-75993750D02*
X255587500Y-75993750D01*
X224537500Y-89993750D02*
G75*
G02*
X223537500Y-88993750I0J1000000D01*
G01*
X261637500Y-76993750D02*
X261637500Y-88993750D01*
X242587500Y-76993750D02*
G75*
G02*
X243587500Y-75993750I1000000J0D01*
G01*
X290212500Y-96043750D02*
X290212500Y-108043750D01*
X157862500Y-109043750D02*
G75*
G02*
X156862500Y-108043750I0J1000000D01*
G01*
X170862500Y-96043750D02*
X170862500Y-108043750D01*
X253112500Y-109043750D02*
G75*
G02*
X252112500Y-108043750I0J1000000D01*
G01*
X266112500Y-108043750D02*
G75*
G02*
X265112500Y-109043750I-1000000J0D01*
G01*
X215012500Y-95043750D02*
X227012500Y-95043750D01*
X253112500Y-109043750D02*
X265112500Y-109043750D01*
X253112500Y-95043750D02*
X265112500Y-95043750D01*
X271162500Y-96043750D02*
X271162500Y-108043750D01*
X266112500Y-96043750D02*
X266112500Y-108043750D01*
X246062500Y-95043750D02*
G75*
G02*
X247062500Y-96043750I0J-1000000D01*
G01*
X233062500Y-96043750D02*
G75*
G02*
X234062500Y-95043750I1000000J0D01*
G01*
X227012500Y-95043750D02*
G75*
G02*
X228012500Y-96043750I0J-1000000D01*
G01*
X175912500Y-96043750D02*
X175912500Y-108043750D01*
X315024999Y-95043750D02*
X327025000Y-95043750D01*
X215012500Y-109043750D02*
G75*
G02*
X214012500Y-108043750I0J1000000D01*
G01*
X176912500Y-109043750D02*
X188912500Y-109043750D01*
X247062500Y-108043750D02*
G75*
G02*
X246062500Y-109043750I-1000000J0D01*
G01*
X195962500Y-95043750D02*
X207962500Y-95043750D01*
X315024999Y-109043750D02*
X327025000Y-109043750D01*
X304212500Y-108043750D02*
G75*
G02*
X303212500Y-109043750I-1000000J0D01*
G01*
X272162500Y-109043750D02*
G75*
G02*
X271162500Y-108043750I0J1000000D01*
G01*
X207962500Y-95043750D02*
G75*
G02*
X208962500Y-96043750I0J-1000000D01*
G01*
X194962500Y-96043750D02*
X194962500Y-108043750D01*
X291212500Y-109043750D02*
G75*
G02*
X290212500Y-108043750I0J1000000D01*
G01*
X291212500Y-95043750D02*
X303212500Y-95043750D01*
X303212500Y-95043750D02*
G75*
G02*
X304212500Y-96043750I0J-1000000D01*
G01*
X290212500Y-96043750D02*
G75*
G02*
X291212500Y-95043750I1000000J0D01*
G01*
X265112500Y-95043750D02*
G75*
G02*
X266112500Y-96043750I0J-1000000D01*
G01*
X285162500Y-108043750D02*
G75*
G02*
X284162500Y-109043750I-1000000J0D01*
G01*
X195962500Y-109043750D02*
G75*
G02*
X194962500Y-108043750I0J1000000D01*
G01*
X284162500Y-95043750D02*
G75*
G02*
X285162500Y-96043750I0J-1000000D01*
G01*
X285162500Y-96043750D02*
X285162500Y-108043750D01*
X272162500Y-109043750D02*
X284162500Y-109043750D01*
X272162500Y-95043750D02*
X284162500Y-95043750D01*
X234062500Y-95043750D02*
X246062500Y-95043750D01*
X176912500Y-109043750D02*
G75*
G02*
X175912500Y-108043750I0J1000000D01*
G01*
X176912500Y-95043750D02*
X188912500Y-95043750D01*
X156862500Y-96043750D02*
X156862500Y-108043750D01*
X234062500Y-109043750D02*
X246062500Y-109043750D01*
X215012500Y-109043750D02*
X227012500Y-109043750D01*
X208962500Y-108043750D02*
G75*
G02*
X207962500Y-109043750I-1000000J0D01*
G01*
X189912500Y-108043750D02*
G75*
G02*
X188912500Y-109043750I-1000000J0D01*
G01*
X188912500Y-95043750D02*
G75*
G02*
X189912500Y-96043750I0J-1000000D01*
G01*
X175912500Y-96043750D02*
G75*
G02*
X176912500Y-95043750I1000000J0D01*
G01*
X228012500Y-108043750D02*
G75*
G02*
X227012500Y-109043750I-1000000J0D01*
G01*
X208962500Y-96043750D02*
X208962500Y-108043750D01*
X247062500Y-96043750D02*
X247062500Y-108043750D01*
X156862500Y-96043750D02*
G75*
G02*
X157862500Y-95043750I1000000J0D01*
G01*
X228012500Y-96043750D02*
X228012500Y-108043750D01*
X194962500Y-96043750D02*
G75*
G02*
X195962500Y-95043750I1000000J0D01*
G01*
X234062500Y-109043750D02*
G75*
G02*
X233062500Y-108043750I0J1000000D01*
G01*
X214012500Y-96043750D02*
X214012500Y-108043750D01*
X214012500Y-96043750D02*
G75*
G02*
X215012500Y-95043750I1000000J0D01*
G01*
X233062500Y-96043750D02*
X233062500Y-108043750D01*
X170862500Y-108043750D02*
G75*
G02*
X169862500Y-109043750I-1000000J0D01*
G01*
X271162500Y-96043750D02*
G75*
G02*
X272162500Y-95043750I1000000J0D01*
G01*
X252112500Y-96043750D02*
G75*
G02*
X253112500Y-95043750I1000000J0D01*
G01*
X304212500Y-96043750D02*
X304212500Y-108043750D01*
X252112500Y-96043750D02*
X252112500Y-108043750D01*
X291212500Y-109043750D02*
X303212500Y-109043750D01*
X169862500Y-95043750D02*
G75*
G02*
X170862500Y-96043750I0J-1000000D01*
G01*
X195962500Y-109043750D02*
X207962500Y-109043750D01*
X189912500Y-96043750D02*
X189912500Y-108043750D01*
X327025000Y-95043750D02*
G75*
G02*
X328025000Y-96043750I0J-1000000D01*
G01*
X314024999Y-96043750D02*
X314024999Y-108043750D01*
X328025000Y-96043750D02*
X328025000Y-108043750D01*
X314024999Y-96043750D02*
G75*
G02*
X315024999Y-95043750I1000000J0D01*
G01*
X72231250Y-114093750D02*
G75*
G02*
X73231250Y-115093750I0J-1000000D01*
G01*
X73231250Y-115093750D02*
X73231250Y-127093750D01*
X54468750Y-115093750D02*
X54468750Y-127093750D01*
X54468750Y-115093750D02*
G75*
G02*
X55468750Y-114093750I1000000J0D01*
G01*
X73231250Y-127093750D02*
G75*
G02*
X72231250Y-128093750I-1000000J0D01*
G01*
X328025000Y-108043750D02*
G75*
G02*
X327025000Y-109043750I-1000000J0D01*
G01*
X315024999Y-109043750D02*
G75*
G02*
X314024999Y-108043750I0J1000000D01*
G01*
X105475000Y-128093750D02*
G75*
G02*
X104475000Y-127093750I0J1000000D01*
G01*
X117475000Y-114093750D02*
G75*
G02*
X118475000Y-115093750I0J-1000000D01*
G01*
X105475000Y-114093750D02*
X117475000Y-114093750D01*
X199725000Y-115093750D02*
G75*
G02*
X200725000Y-114093750I1000000J0D01*
G01*
X143575000Y-128093750D02*
X155575000Y-128093750D01*
X193675000Y-114093750D02*
G75*
G02*
X194675000Y-115093750I0J-1000000D01*
G01*
X180675000Y-115093750D02*
G75*
G02*
X181675000Y-114093750I1000000J0D01*
G01*
X124525000Y-128093750D02*
G75*
G02*
X123525000Y-127093750I0J1000000D01*
G01*
X118475000Y-127093750D02*
G75*
G02*
X117475000Y-128093750I-1000000J0D01*
G01*
X142575000Y-115093750D02*
G75*
G02*
X143575000Y-114093750I1000000J0D01*
G01*
X194675000Y-115093750D02*
X194675000Y-127093750D01*
X161625000Y-115093750D02*
X161625000Y-127093750D01*
X156575000Y-127093750D02*
G75*
G02*
X155575000Y-128093750I-1000000J0D01*
G01*
X85425000Y-115093750D02*
G75*
G02*
X86425000Y-114093750I1000000J0D01*
G01*
X162625000Y-114093750D02*
X174625000Y-114093750D01*
X123525000Y-115093750D02*
X123525000Y-127093750D01*
X155575000Y-114093750D02*
G75*
G02*
X156575000Y-115093750I0J-1000000D01*
G01*
X232775000Y-115093750D02*
X232775000Y-127093750D01*
X219775000Y-114093750D02*
X231775000Y-114093750D01*
X143575000Y-128093750D02*
G75*
G02*
X142575000Y-127093750I0J1000000D01*
G01*
X174625000Y-114093750D02*
G75*
G02*
X175625000Y-115093750I0J-1000000D01*
G01*
X162625000Y-128093750D02*
X174625000Y-128093750D01*
X200725000Y-128093750D02*
G75*
G02*
X199725000Y-127093750I0J1000000D01*
G01*
X175625000Y-127093750D02*
G75*
G02*
X174625000Y-128093750I-1000000J0D01*
G01*
X124525000Y-128093750D02*
X136525000Y-128093750D01*
X142575000Y-115093750D02*
X142575000Y-127093750D01*
X136525000Y-114093750D02*
G75*
G02*
X137525000Y-115093750I0J-1000000D01*
G01*
X199725000Y-115093750D02*
X199725000Y-127093750D01*
X86425000Y-128093750D02*
G75*
G02*
X85425000Y-127093750I0J1000000D01*
G01*
X124525000Y-114093750D02*
X136525000Y-114093750D01*
X213725000Y-115093750D02*
X213725000Y-127093750D01*
X200725000Y-114093750D02*
X212725000Y-114093750D01*
X99425000Y-127093750D02*
G75*
G02*
X98425000Y-128093750I-1000000J0D01*
G01*
X200725000Y-128093750D02*
X212725000Y-128093750D01*
X181675000Y-114093750D02*
X193675000Y-114093750D01*
X137525000Y-127093750D02*
G75*
G02*
X136525000Y-128093750I-1000000J0D01*
G01*
X99425000Y-115093750D02*
X99425000Y-127093750D01*
X123525000Y-115093750D02*
G75*
G02*
X124525000Y-114093750I1000000J0D01*
G01*
X104475000Y-115093750D02*
X104475000Y-127093750D01*
X86425000Y-128093750D02*
X98425000Y-128093750D01*
X194675000Y-127093750D02*
G75*
G02*
X193675000Y-128093750I-1000000J0D01*
G01*
X180675000Y-115093750D02*
X180675000Y-127093750D01*
X118475000Y-115093750D02*
X118475000Y-127093750D01*
X162625000Y-128093750D02*
G75*
G02*
X161625000Y-127093750I0J1000000D01*
G01*
X181675000Y-128093750D02*
G75*
G02*
X180675000Y-127093750I0J1000000D01*
G01*
X231775000Y-114093750D02*
G75*
G02*
X232775000Y-115093750I0J-1000000D01*
G01*
X181675000Y-128093750D02*
X193675000Y-128093750D01*
X218775000Y-115093750D02*
G75*
G02*
X219775000Y-114093750I1000000J0D01*
G01*
X86425000Y-114093750D02*
X98425000Y-114093750D01*
X156575000Y-115093750D02*
X156575000Y-127093750D01*
X143575000Y-114093750D02*
X155575000Y-114093750D01*
X85425000Y-115093750D02*
X85425000Y-127093750D01*
X218775000Y-115093750D02*
X218775000Y-127093750D01*
X219775000Y-128093750D02*
X231775000Y-128093750D01*
X213725000Y-127093750D02*
G75*
G02*
X212725000Y-128093750I-1000000J0D01*
G01*
X212725000Y-114093750D02*
G75*
G02*
X213725000Y-115093750I0J-1000000D01*
G01*
X161625000Y-115093750D02*
G75*
G02*
X162625000Y-114093750I1000000J0D01*
G01*
X98425000Y-114093750D02*
G75*
G02*
X99425000Y-115093750I0J-1000000D01*
G01*
X105475000Y-128093750D02*
X117475000Y-128093750D01*
X55468750Y-128093750D02*
G75*
G02*
X54468750Y-127093750I0J1000000D01*
G01*
X137525000Y-115093750D02*
X137525000Y-127093750D01*
X175625000Y-115093750D02*
X175625000Y-127093750D01*
X104475000Y-115093750D02*
G75*
G02*
X105475000Y-114093750I1000000J0D01*
G01*
X115000000Y-147143750D02*
G75*
G02*
X114000000Y-146143750I0J1000000D01*
G01*
X114000000Y-134143750D02*
G75*
G02*
X115000000Y-133143750I1000000J0D01*
G01*
X128000000Y-134143750D02*
X128000000Y-146143750D01*
X107950000Y-133143750D02*
G75*
G02*
X108950000Y-134143750I0J-1000000D01*
G01*
X94950000Y-134143750D02*
G75*
G02*
X95950000Y-133143750I1000000J0D01*
G01*
X127000000Y-133143750D02*
G75*
G02*
X128000000Y-134143750I0J-1000000D01*
G01*
X55555750Y-135143750D02*
G75*
G02*
X56555750Y-134143750I1000000J0D01*
G01*
X56555750Y-149143750D02*
X61555750Y-149143750D01*
X114000000Y-134143750D02*
X114000000Y-146143750D01*
X115000000Y-133143750D02*
X127000000Y-133143750D01*
X108950000Y-146143750D02*
G75*
G02*
X107950000Y-147143750I-1000000J0D01*
G01*
X95950000Y-147143750D02*
G75*
G02*
X94950000Y-146143750I0J1000000D01*
G01*
X94950000Y-134143750D02*
X94950000Y-146143750D01*
X95950000Y-133143750D02*
X107950000Y-133143750D01*
X56555750Y-149143750D02*
G75*
G02*
X55555750Y-148143750I0J1000000D01*
G01*
X55555750Y-135143750D02*
X55555750Y-148143750D01*
X95950000Y-147143750D02*
X107950000Y-147143750D01*
X108950000Y-134143750D02*
X108950000Y-146143750D01*
X115000000Y-147143750D02*
X127000000Y-147143750D01*
X134050000Y-147143750D02*
X146050000Y-147143750D01*
X134050000Y-133143750D02*
X146050000Y-133143750D01*
X128000000Y-146143750D02*
G75*
G02*
X127000000Y-147143750I-1000000J0D01*
G01*
X56555750Y-134143750D02*
X63261700Y-134143750D01*
X321319250Y-128093750D02*
G75*
G02*
X322319250Y-129093750I0J-1000000D01*
G01*
X269875000Y-114093750D02*
G75*
G02*
X270875000Y-115093750I0J-1000000D01*
G01*
X237825000Y-115093750D02*
G75*
G02*
X238825000Y-114093750I1000000J0D01*
G01*
X288925000Y-114093750D02*
G75*
G02*
X289925000Y-115093750I0J-1000000D01*
G01*
X237825000Y-115093750D02*
X237825000Y-127093750D01*
X275925000Y-115093750D02*
X275925000Y-127093750D01*
X298443250Y-116093750D02*
G75*
G02*
X299443250Y-115093750I1000000J0D01*
G01*
X323319250Y-130093750D02*
G75*
G02*
X322319250Y-129093750I0J1000000D01*
G01*
X238825000Y-114093750D02*
X250825000Y-114093750D01*
X219775000Y-128093750D02*
G75*
G02*
X218775000Y-127093750I0J1000000D01*
G01*
X328319250Y-115093750D02*
G75*
G02*
X329319250Y-116093750I0J-1000000D01*
G01*
X251825000Y-127093750D02*
G75*
G02*
X250825000Y-128093750I-1000000J0D01*
G01*
X250825000Y-114093750D02*
G75*
G02*
X251825000Y-115093750I0J-1000000D01*
G01*
X299443250Y-130093750D02*
G75*
G02*
X298443250Y-129093750I0J1000000D01*
G01*
X257875000Y-128093750D02*
X269875000Y-128093750D01*
X256875000Y-115093750D02*
G75*
G02*
X257875000Y-114093750I1000000J0D01*
G01*
X289925000Y-127093750D02*
G75*
G02*
X288925000Y-128093750I-1000000J0D01*
G01*
X289925000Y-115093750D02*
X289925000Y-127093750D01*
X275925000Y-115093750D02*
G75*
G02*
X276925000Y-114093750I1000000J0D01*
G01*
X256875000Y-115093750D02*
X256875000Y-127093750D01*
X307015225Y-114593750D02*
G75*
G02*
X307881250Y-114093750I866025J-500000D01*
G01*
X307881250Y-114093750D02*
X319881250Y-114093750D01*
X298443250Y-116093750D02*
X298443250Y-129093750D01*
X305443250Y-129093750D02*
G75*
G02*
X306443250Y-128093750I1000000J0D01*
G01*
X270875000Y-115093750D02*
X270875000Y-127093750D01*
X306443250Y-128093750D02*
X321319250Y-128093750D01*
X299443250Y-130093750D02*
X304443250Y-130093750D01*
X299443250Y-115093750D02*
X306149200Y-115093750D01*
X276925000Y-128093750D02*
X288925000Y-128093750D01*
X305443250Y-129093750D02*
G75*
G02*
X304443250Y-130093750I-1000000J0D01*
G01*
X257875000Y-128093750D02*
G75*
G02*
X256875000Y-127093750I0J1000000D01*
G01*
X64993750Y-133143750D02*
X76993750Y-133143750D01*
X321613300Y-115093750D02*
X328319250Y-115093750D01*
X270875000Y-127093750D02*
G75*
G02*
X269875000Y-128093750I-1000000J0D01*
G01*
X257875000Y-114093750D02*
X269875000Y-114093750D01*
X307015225Y-114593750D02*
G75*
G02*
X306149200Y-115093750I-866025J500000D01*
G01*
X276925000Y-128093750D02*
G75*
G02*
X275925000Y-127093750I0J1000000D01*
G01*
X329319250Y-116093750D02*
X329319250Y-129093750D01*
X251825000Y-115093750D02*
X251825000Y-127093750D01*
X276925000Y-114093750D02*
X288925000Y-114093750D01*
X329319250Y-129093750D02*
G75*
G02*
X328319250Y-130093750I-1000000J0D01*
G01*
X238825000Y-128093750D02*
X250825000Y-128093750D01*
X238825000Y-128093750D02*
G75*
G02*
X237825000Y-127093750I0J1000000D01*
G01*
X323319250Y-130093750D02*
X328319250Y-130093750D01*
X232775000Y-127093750D02*
G75*
G02*
X231775000Y-128093750I-1000000J0D01*
G01*
X337837500Y-134143750D02*
G75*
G02*
X338837500Y-133143750I1000000J0D01*
G01*
X54468750Y-153193750D02*
X54468750Y-165193750D01*
X338837500Y-147143750D02*
G75*
G02*
X337837500Y-146143750I0J1000000D01*
G01*
X332787500Y-134143750D02*
X332787500Y-146143750D01*
X300680750Y-148143750D02*
G75*
G02*
X299680750Y-149143750I-1000000J0D01*
G01*
X337837500Y-134143750D02*
X337837500Y-146143750D01*
X318556750Y-149143750D02*
G75*
G02*
X317556750Y-148143750I0J1000000D01*
G01*
X338837500Y-147143750D02*
X350837500Y-147143750D01*
X338837500Y-133143750D02*
X350837500Y-133143750D01*
X293593750Y-149150000D02*
X299680750Y-149143750D01*
X292593750Y-134143750D02*
X292593750Y-148150000D01*
X316556750Y-147143750D02*
G75*
G02*
X317556750Y-148143750I0J-1000000D01*
G01*
X55468750Y-166193750D02*
G75*
G02*
X54468750Y-165193750I0J1000000D01*
G01*
X54468750Y-153193750D02*
G75*
G02*
X55468750Y-152193750I1000000J0D01*
G01*
X332787500Y-146143750D02*
G75*
G02*
X331787500Y-147143750I-1000000J0D01*
G01*
X318556750Y-149143750D02*
X323556750Y-149143750D01*
X351837500Y-146143750D02*
G75*
G02*
X350837500Y-147143750I-1000000J0D01*
G01*
X331787500Y-133143750D02*
G75*
G02*
X332787500Y-134143750I0J-1000000D01*
G01*
X293593750Y-149150000D02*
G75*
G02*
X292593750Y-148150000I0J1000000D01*
G01*
X292593750Y-134143750D02*
G75*
G02*
X293593750Y-133143750I1000000J0D01*
G01*
X350837500Y-133143750D02*
G75*
G02*
X351837500Y-134143750I0J-1000000D01*
G01*
X351837500Y-134143750D02*
X351837500Y-146143750D01*
X315118749Y-133143750D02*
X331787500Y-133143750D01*
X324556750Y-148143750D02*
G75*
G02*
X323556750Y-149143750I-1000000J0D01*
G01*
X247350000Y-134143750D02*
G75*
G02*
X248350000Y-133143750I1000000J0D01*
G01*
X153100000Y-133143750D02*
X165100000Y-133143750D01*
X147050000Y-146143750D02*
G75*
G02*
X146050000Y-147143750I-1000000J0D01*
G01*
X229300000Y-147143750D02*
G75*
G02*
X228300000Y-146143750I0J1000000D01*
G01*
X185150000Y-134143750D02*
X185150000Y-146143750D01*
X223250000Y-146143750D02*
G75*
G02*
X222250000Y-147143750I-1000000J0D01*
G01*
X210250000Y-147143750D02*
G75*
G02*
X209250000Y-146143750I0J1000000D01*
G01*
X172150000Y-133143750D02*
X184150000Y-133143750D01*
X153100000Y-147143750D02*
X165100000Y-147143750D01*
X172150000Y-147143750D02*
G75*
G02*
X171150000Y-146143750I0J1000000D01*
G01*
X222250000Y-133143750D02*
G75*
G02*
X223250000Y-134143750I0J-1000000D01*
G01*
X133050000Y-134143750D02*
X133050000Y-146143750D01*
X191200000Y-147143750D02*
X203200000Y-147143750D01*
X190200000Y-134143750D02*
G75*
G02*
X191200000Y-133143750I1000000J0D01*
G01*
X190200000Y-134143750D02*
X190200000Y-146143750D01*
X152100000Y-134143750D02*
G75*
G02*
X153100000Y-133143750I1000000J0D01*
G01*
X185150000Y-146143750D02*
G75*
G02*
X184150000Y-147143750I-1000000J0D01*
G01*
X280400000Y-146143750D02*
G75*
G02*
X279400000Y-147143750I-1000000J0D01*
G01*
X279400000Y-133143750D02*
G75*
G02*
X280400000Y-134143750I0J-1000000D01*
G01*
X191200000Y-133143750D02*
X203200000Y-133143750D01*
X204200000Y-146143750D02*
G75*
G02*
X203200000Y-147143750I-1000000J0D01*
G01*
X204200000Y-134143750D02*
X204200000Y-146143750D01*
X247350000Y-134143750D02*
X247350000Y-146143750D01*
X210250000Y-147143750D02*
X222250000Y-147143750D01*
X166100000Y-134143750D02*
X166100000Y-146143750D01*
X171150000Y-134143750D02*
G75*
G02*
X172150000Y-133143750I1000000J0D01*
G01*
X166100000Y-146143750D02*
G75*
G02*
X165100000Y-147143750I-1000000J0D01*
G01*
X248350000Y-147143750D02*
G75*
G02*
X247350000Y-146143750I0J1000000D01*
G01*
X228300000Y-134143750D02*
G75*
G02*
X229300000Y-133143750I1000000J0D01*
G01*
X152100000Y-134143750D02*
X152100000Y-146143750D01*
X280400000Y-134143750D02*
X280400000Y-146143750D01*
X228300000Y-134143750D02*
X228300000Y-146143750D01*
X260350000Y-133143750D02*
G75*
G02*
X261350000Y-134143750I0J-1000000D01*
G01*
X248350000Y-133143750D02*
X260350000Y-133143750D01*
X241300000Y-133143750D02*
G75*
G02*
X242300000Y-134143750I0J-1000000D01*
G01*
X242300000Y-134143750D02*
X242300000Y-146143750D01*
X209250000Y-134143750D02*
X209250000Y-146143750D01*
X172150000Y-147143750D02*
X184150000Y-147143750D01*
X153100000Y-147143750D02*
G75*
G02*
X152100000Y-146143750I0J1000000D01*
G01*
X133050000Y-134143750D02*
G75*
G02*
X134050000Y-133143750I1000000J0D01*
G01*
X229300000Y-147143750D02*
X241300000Y-147143750D01*
X209250000Y-134143750D02*
G75*
G02*
X210250000Y-133143750I1000000J0D01*
G01*
X146050000Y-133143750D02*
G75*
G02*
X147050000Y-134143750I0J-1000000D01*
G01*
X210250000Y-133143750D02*
X222250000Y-133143750D01*
X229300000Y-133143750D02*
X241300000Y-133143750D01*
X223250000Y-134143750D02*
X223250000Y-146143750D01*
X267400000Y-147143750D02*
G75*
G02*
X266400000Y-146143750I0J1000000D01*
G01*
X184150000Y-133143750D02*
G75*
G02*
X185150000Y-134143750I0J-1000000D01*
G01*
X171150000Y-134143750D02*
X171150000Y-146143750D01*
X266400000Y-134143750D02*
G75*
G02*
X267400000Y-133143750I1000000J0D01*
G01*
X266400000Y-134143750D02*
X266400000Y-146143750D01*
X267400000Y-147143750D02*
X279400000Y-147143750D01*
X267400000Y-133143750D02*
X279400000Y-133143750D01*
X248350000Y-147143750D02*
X260350000Y-147143750D01*
X261350000Y-146143750D02*
G75*
G02*
X260350000Y-147143750I-1000000J0D01*
G01*
X261350000Y-134143750D02*
X261350000Y-146143750D01*
X147050000Y-134143750D02*
X147050000Y-146143750D01*
X191200000Y-147143750D02*
G75*
G02*
X190200000Y-146143750I0J1000000D01*
G01*
X165100000Y-133143750D02*
G75*
G02*
X166100000Y-134143750I0J-1000000D01*
G01*
X203200000Y-133143750D02*
G75*
G02*
X204200000Y-134143750I0J-1000000D01*
G01*
X242300000Y-146143750D02*
G75*
G02*
X241300000Y-147143750I-1000000J0D01*
G01*
X134050000Y-147143750D02*
G75*
G02*
X133050000Y-146143750I0J1000000D01*
G01*
X99425000Y-153193750D02*
X99425000Y-165193750D01*
X102093750Y-153193750D02*
X102093750Y-165193750D01*
X166387500Y-153193750D02*
X166387500Y-165193750D01*
X70850000Y-153193750D02*
X70850000Y-165193750D01*
X166387500Y-153193750D02*
G75*
G02*
X167387500Y-152193750I1000000J0D01*
G01*
X78281250Y-153193750D02*
X78281250Y-165193750D01*
X78281250Y-153193750D02*
G75*
G02*
X79281250Y-152193750I1000000J0D01*
G01*
X70850000Y-165193750D02*
G75*
G02*
X69850000Y-166193750I-1000000J0D01*
G01*
X102093750Y-153193750D02*
G75*
G02*
X103093750Y-152193750I1000000J0D01*
G01*
X69850000Y-152193750D02*
G75*
G02*
X70850000Y-153193750I0J-1000000D01*
G01*
X167387500Y-166193750D02*
G75*
G02*
X166387500Y-165193750I0J1000000D01*
G01*
X118737500Y-150193750D02*
X113737500Y-150193750D01*
X103093750Y-166193750D02*
G75*
G02*
X102093750Y-165193750I0J1000000D01*
G01*
X79281250Y-166193750D02*
G75*
G02*
X78281250Y-165193750I0J1000000D01*
G01*
X99425000Y-165193750D02*
G75*
G02*
X98425000Y-166193750I-1000000J0D01*
G01*
X98425000Y-152193750D02*
G75*
G02*
X99425000Y-153193750I0J-1000000D01*
G01*
X258968750Y-153193750D02*
X258968750Y-165193750D01*
X264018750Y-153193750D02*
G75*
G02*
X265018750Y-152193750I1000000J0D01*
G01*
X257968750Y-152193750D02*
G75*
G02*
X258968750Y-153193750I0J-1000000D01*
G01*
X350837500Y-152193750D02*
G75*
G02*
X351837500Y-153193750I0J-1000000D01*
G01*
X370887500Y-153193750D02*
X370887500Y-165193750D01*
X356887500Y-153193750D02*
X356887500Y-165193750D01*
X282781250Y-165193750D02*
G75*
G02*
X281781250Y-166193750I-1000000J0D01*
G01*
X264018750Y-153193750D02*
X264018750Y-165193750D01*
X357887500Y-166193750D02*
X369887500Y-166193750D01*
X281781250Y-152193750D02*
G75*
G02*
X282781250Y-153193750I0J-1000000D01*
G01*
X357887500Y-152193750D02*
X369887500Y-152193750D01*
X351837500Y-165193750D02*
G75*
G02*
X350837500Y-166193750I-1000000J0D01*
G01*
X338837500Y-166193750D02*
G75*
G02*
X337837500Y-165193750I0J1000000D01*
G01*
X351837500Y-153193750D02*
X351837500Y-165193750D01*
X319787500Y-166193750D02*
X331787500Y-166193750D01*
X306593750Y-165193750D02*
G75*
G02*
X305593750Y-166193750I-1000000J0D01*
G01*
X290212500Y-153193750D02*
X290212500Y-165193750D01*
X306593750Y-153193750D02*
X306593750Y-165193750D01*
X291212500Y-166193750D02*
G75*
G02*
X290212500Y-165193750I0J1000000D01*
G01*
X282781250Y-153193750D02*
X282781250Y-165193750D01*
X338837500Y-152193750D02*
X350837500Y-152193750D01*
X337837500Y-153193750D02*
G75*
G02*
X338837500Y-152193750I1000000J0D01*
G01*
X337837500Y-153193750D02*
X337837500Y-165193750D01*
X265018750Y-166193750D02*
G75*
G02*
X264018750Y-165193750I0J1000000D01*
G01*
X338837500Y-166193750D02*
X350837500Y-166193750D01*
X319787500Y-166193750D02*
G75*
G02*
X318787500Y-165193750I0J1000000D01*
G01*
X290212500Y-153193750D02*
G75*
G02*
X291212500Y-152193750I1000000J0D01*
G01*
X245968750Y-166193750D02*
G75*
G02*
X244968750Y-165193750I0J1000000D01*
G01*
X332787500Y-165193750D02*
G75*
G02*
X331787500Y-166193750I-1000000J0D01*
G01*
X331787500Y-152193750D02*
G75*
G02*
X332787500Y-153193750I0J-1000000D01*
G01*
X305593750Y-152193750D02*
G75*
G02*
X306593750Y-153193750I0J-1000000D01*
G01*
X318787500Y-153193750D02*
G75*
G02*
X319787500Y-152193750I1000000J0D01*
G01*
X332787500Y-153193750D02*
X332787500Y-165193750D01*
X318787500Y-153193750D02*
X318787500Y-165193750D01*
X319787500Y-152193750D02*
X331787500Y-152193750D01*
X258968750Y-165193750D02*
G75*
G02*
X257968750Y-166193750I-1000000J0D01*
G01*
X227037500Y-151193750D02*
G75*
G02*
X228037500Y-150193750I1000000J0D01*
G01*
X118737500Y-150193750D02*
G75*
G02*
X119737500Y-151193750I0J-1000000D01*
G01*
X198437500Y-152193750D02*
G75*
G02*
X199437500Y-153193750I0J-1000000D01*
G01*
X228031250Y-165193750D02*
G75*
G02*
X227031250Y-164193750I0J1000000D01*
G01*
X138787500Y-164193750D02*
G75*
G02*
X137787500Y-165193750I-1000000J0D01*
G01*
X138787500Y-164193750D02*
X138787500Y-151193750D01*
X244983000Y-151193750D02*
G75*
G02*
X245983000Y-150193750I1000000J0D01*
G01*
X252087500Y-150193750D02*
X245983000Y-150193750D01*
X137787500Y-150193750D02*
G75*
G02*
X138787500Y-151193750I0J-1000000D01*
G01*
X233031250Y-165193750D02*
X228031250Y-165193750D01*
X112737500Y-151193750D02*
G75*
G02*
X113737500Y-150193750I1000000J0D01*
G01*
X252087500Y-150193750D02*
G75*
G02*
X253087500Y-151193750I0J-1000000D01*
G01*
X128031250Y-165193750D02*
G75*
G02*
X127031250Y-164193750I0J1000000D01*
G01*
X234031250Y-164193750D02*
G75*
G02*
X233031250Y-165193750I-1000000J0D01*
G01*
X127031250Y-151193750D02*
G75*
G02*
X128031250Y-150193750I1000000J0D01*
G01*
X199437500Y-165193750D02*
G75*
G02*
X198437500Y-166193750I-1000000J0D01*
G01*
X199437500Y-153193750D02*
X199437500Y-165193750D01*
X127031250Y-164193750D02*
X127031250Y-151193750D01*
X227031250Y-164193750D02*
X227037500Y-151193750D01*
X244983000Y-151193750D02*
X244968750Y-165193750D01*
X49562500Y-76643750D02*
X49562500Y-165543750D01*
X370887500Y-165193750D02*
G75*
G02*
X369887500Y-166193750I-1000000J0D01*
G01*
X52737500Y-73468750D02*
X370237500Y-73468750D01*
X52737500Y-168718750D02*
X370237500Y-168718750D01*
X357887500Y-166193750D02*
G75*
G02*
X356887500Y-165193750I0J1000000D01*
G01*
X356887500Y-153193750D02*
G75*
G02*
X357887500Y-152193750I1000000J0D01*
G01*
X373412500Y-76643750D02*
X373412500Y-165543750D01*
X369887500Y-152193750D02*
G75*
G02*
X370887500Y-153193750I0J-1000000D01*
G01*
M02*
