%FSLAX45Y45*%
G04 Gerber Fmt 4.5, Leading zero omitted, Abs format (unit mm)*
G04 Created by KiCad (PCBNEW (5.1.6)-1) date 2022-08-08 21:24:53*
%MOMM*%
%LPD*%
G01*
G04 APERTURE LIST*
%TA.AperFunction,Profile*%
%ADD10C,0.200000*%
%TD*%
%ADD11C,0.200000*%
%ADD12C,0.300000*%
G04 APERTURE END LIST*
D10*
X34563125Y-7843750D02*
X34563125Y-9072500D01*
X36309375Y-7843750D02*
X36309375Y-9072500D01*
X36309375Y-9072500D02*
G75*
G02*
X36209375Y-9172500I-100000J0D01*
G01*
X34663125Y-9172500D02*
G75*
G02*
X34563125Y-9072500I0J100000D01*
G01*
X36209375Y-7743750D02*
G75*
G02*
X36309375Y-7843750I0J-100000D01*
G01*
X34563125Y-7843750D02*
G75*
G02*
X34663125Y-7743750I100000J0D01*
G01*
X34663125Y-9172500D02*
X36209375Y-9172500D01*
X34663125Y-7743750D02*
X36209375Y-7743750D01*
X34045606Y-9802860D02*
G75*
G02*
X34128150Y-9720175I79370J3310D01*
G01*
X36833250Y-9720175D02*
G75*
G02*
X36909450Y-9796375I0J-76200D01*
G01*
X36909450Y-9796375D02*
X36909450Y-12542775D01*
X34045606Y-12544350D02*
G75*
G03*
X34121806Y-12620550I76200J0D01*
G01*
X36833250Y-12618975D02*
X34121806Y-12620550D01*
X36833250Y-12618975D02*
G75*
G03*
X36909450Y-12542775I0J76200D01*
G01*
X34045606Y-9802860D02*
X34045606Y-12544350D01*
X34128150Y-9720175D02*
X36833250Y-9720175D01*
X19473750Y-9331250D02*
G75*
G03*
X19473750Y-9331250I-230000J0D01*
G01*
X9313750Y-14649375D02*
G75*
G03*
X9313750Y-14649375I-230000J0D01*
G01*
X21220000Y-15681250D02*
G75*
G03*
X21220000Y-15681250I-230000J0D01*
G01*
X33761250Y-14966875D02*
G75*
G03*
X33761250Y-14966875I-230000J0D01*
G01*
X31141875Y-10204375D02*
G75*
G03*
X31141875Y-10204375I-230000J0D01*
G01*
X7805625Y-10204375D02*
G75*
G03*
X7805625Y-10204375I-230000J0D01*
G01*
X37341250Y-16554375D02*
G75*
G02*
X37023750Y-16871875I-317500J0D01*
G01*
X37023750Y-7346875D02*
G75*
G02*
X37341250Y-7664375I0J-317500D01*
G01*
X4956250Y-7664375D02*
G75*
G02*
X5273750Y-7346875I317500J0D01*
G01*
X5273750Y-16871875D02*
G75*
G02*
X4956250Y-16554375I0J317500D01*
G01*
X23403125Y-16419375D02*
X23403125Y-15119375D01*
X23303125Y-15019375D02*
X22803750Y-15019375D01*
X23303125Y-15019375D02*
G75*
G02*
X23403125Y-15119375I0J-100000D01*
G01*
X6355575Y-14714375D02*
X7843175Y-14714375D01*
X7843175Y-14714375D02*
G75*
G02*
X7943175Y-14814375I0J-100000D01*
G01*
X8043175Y-14914375D02*
G75*
G02*
X7943175Y-14814375I0J100000D01*
G01*
X8543175Y-13414375D02*
G75*
G02*
X8643175Y-13514375I0J-100000D01*
G01*
X6412772Y-13364375D02*
G75*
G02*
X6499375Y-13314375I86603J-50000D01*
G01*
X6255575Y-14814375D02*
G75*
G02*
X6355575Y-14714375I100000J0D01*
G01*
X6255575Y-14814375D02*
G75*
G02*
X6155575Y-14914375I-100000J0D01*
G01*
X7872580Y-13414375D02*
X8543175Y-13414375D01*
X6412772Y-13364375D02*
G75*
G02*
X6326170Y-13414375I-86603J50000D01*
G01*
X8643175Y-13514375D02*
X8643175Y-14814375D01*
X8643175Y-14814375D02*
G75*
G02*
X8543175Y-14914375I-100000J0D01*
G01*
X8043175Y-14914375D02*
X8543175Y-14914375D01*
X7785977Y-13364375D02*
G75*
G03*
X7872580Y-13414375I86603J50000D01*
G01*
X7785977Y-13364375D02*
G75*
G03*
X7699375Y-13314375I-86603J-50000D01*
G01*
X32074727Y-11459375D02*
G75*
G03*
X32161330Y-11509375I86603J50000D01*
G01*
X32074727Y-11459375D02*
G75*
G03*
X31988125Y-11409375I-86603J-50000D01*
G01*
X32455675Y-14814375D02*
G75*
G02*
X32555675Y-14714375I100000J0D01*
G01*
X33178750Y-14714375D02*
X32555675Y-14714375D01*
X29359375Y-13314375D02*
X31511875Y-13314375D01*
X30168075Y-14714375D02*
X31655675Y-14714375D01*
X30068075Y-14814375D02*
G75*
G02*
X30168075Y-14714375I100000J0D01*
G01*
X29121250Y-16619375D02*
X30559375Y-16619375D01*
X29121250Y-15219375D02*
X30559375Y-15219375D01*
X26501875Y-16619375D02*
X28178125Y-16619375D01*
X26501875Y-15219375D02*
X28178125Y-15219375D01*
X25408750Y-15219375D02*
X25796875Y-15219375D01*
X25408750Y-15219375D02*
G75*
G02*
X25308750Y-15119375I0J100000D01*
G01*
X19843750Y-16619375D02*
X16738750Y-16619375D01*
X19843750Y-15219375D02*
X16738750Y-15219375D01*
X13778750Y-16519375D02*
X12803125Y-16519375D01*
X13778750Y-15019375D02*
X12803125Y-15019375D01*
X11973750Y-15119375D02*
X11974500Y-16519375D01*
X11974500Y-16519375D02*
G75*
G02*
X11874500Y-16619375I-100000J0D01*
G01*
X10309375Y-15219375D02*
X11173750Y-15219375D01*
X11874500Y-16619375D02*
X10309375Y-16619375D01*
X11273750Y-15119375D02*
G75*
G02*
X11173750Y-15219375I-100000J0D01*
G01*
X7928125Y-16619375D02*
X9842500Y-16619375D01*
X7928125Y-15219375D02*
X9842500Y-15219375D01*
X5546875Y-16619375D02*
X6985000Y-16619375D01*
X5546875Y-15219375D02*
X6985000Y-15219375D01*
X33278750Y-7699375D02*
X33278900Y-9099375D01*
X33178900Y-9199375D02*
G75*
G03*
X33278900Y-9099375I0J100000D01*
G01*
X32370050Y-8999375D02*
G75*
G02*
X32470050Y-9099375I0J-100000D01*
G01*
X30882450Y-8999375D02*
X32370050Y-8999375D01*
X30782450Y-9099375D02*
G75*
G02*
X30882450Y-8999375I100000J0D01*
G01*
X30073750Y-7599375D02*
X33178750Y-7599375D01*
X5546875Y-12809375D02*
X7223125Y-12809375D01*
X5546875Y-11409375D02*
X7223125Y-11409375D01*
X24596875Y-16619375D02*
X25796875Y-16619375D01*
X16738750Y-8999375D02*
X17938750Y-8999375D01*
X16133750Y-8899375D02*
G75*
G02*
X16033750Y-8999375I-100000J0D01*
G01*
X19843750Y-7599375D02*
G75*
G02*
X19943750Y-7699375I0J-100000D01*
G01*
X20448750Y-7699375D02*
G75*
G02*
X20548750Y-7599375I100000J0D01*
G01*
X21848750Y-7699375D02*
X21848750Y-8899375D01*
X20448750Y-7699375D02*
X20448750Y-8899375D01*
X20548750Y-8999375D02*
X21748750Y-8999375D01*
X20548750Y-7599375D02*
X21748750Y-7599375D01*
X19943750Y-8899375D02*
G75*
G02*
X19843750Y-8999375I-100000J0D01*
G01*
X18643750Y-8999375D02*
G75*
G02*
X18543750Y-8899375I0J100000D01*
G01*
X18543750Y-7699375D02*
X18543750Y-8899375D01*
X18643750Y-7599375D02*
X19843750Y-7599375D01*
X18543750Y-7699375D02*
G75*
G02*
X18643750Y-7599375I100000J0D01*
G01*
X17938750Y-7599375D02*
G75*
G02*
X18038750Y-7699375I0J-100000D01*
G01*
X19943750Y-7699375D02*
X19943750Y-8899375D01*
X16638750Y-7699375D02*
X16638750Y-8899375D01*
X14833750Y-8999375D02*
G75*
G02*
X14733750Y-8899375I0J100000D01*
G01*
X16033750Y-7599375D02*
G75*
G02*
X16133750Y-7699375I0J-100000D01*
G01*
X16738750Y-8999375D02*
G75*
G02*
X16638750Y-8899375I0J100000D01*
G01*
X16738750Y-7599375D02*
X17938750Y-7599375D01*
X18643750Y-8999375D02*
X19843750Y-8999375D01*
X18038750Y-8899375D02*
G75*
G02*
X17938750Y-8999375I-100000J0D01*
G01*
X22453750Y-7599375D02*
X23653750Y-7599375D01*
X21848750Y-8899375D02*
G75*
G02*
X21748750Y-8999375I-100000J0D01*
G01*
X18038750Y-7699375D02*
X18038750Y-8899375D01*
X20548750Y-8999375D02*
G75*
G02*
X20448750Y-8899375I0J100000D01*
G01*
X21748750Y-7599375D02*
G75*
G02*
X21848750Y-7699375I0J-100000D01*
G01*
X16638750Y-7699375D02*
G75*
G02*
X16738750Y-7599375I100000J0D01*
G01*
X12323750Y-7699375D02*
X12323750Y-8899375D01*
X10923750Y-7699375D02*
X10923750Y-8899375D01*
X10318750Y-7599375D02*
G75*
G02*
X10418750Y-7699375I0J-100000D01*
G01*
X12928750Y-8999375D02*
X14128750Y-8999375D01*
X7213750Y-7599375D02*
X8413750Y-7599375D01*
X6508750Y-7599375D02*
G75*
G02*
X6608750Y-7699375I0J-100000D01*
G01*
X10923750Y-7699375D02*
G75*
G02*
X11023750Y-7599375I100000J0D01*
G01*
X14733750Y-7699375D02*
G75*
G02*
X14833750Y-7599375I100000J0D01*
G01*
X14228750Y-8899375D02*
G75*
G02*
X14128750Y-8999375I-100000J0D01*
G01*
X9118750Y-8999375D02*
X10318750Y-8999375D01*
X5308750Y-8999375D02*
G75*
G02*
X5208750Y-8899375I0J100000D01*
G01*
X7213750Y-8999375D02*
X8413750Y-8999375D01*
X16133750Y-7699375D02*
X16133750Y-8899375D01*
X14733750Y-7699375D02*
X14733750Y-8899375D01*
X14833750Y-8999375D02*
X16033750Y-8999375D01*
X6608750Y-8899375D02*
G75*
G02*
X6508750Y-8999375I-100000J0D01*
G01*
X14833750Y-7599375D02*
X16033750Y-7599375D01*
X14128750Y-7599375D02*
G75*
G02*
X14228750Y-7699375I0J-100000D01*
G01*
X5308750Y-8999375D02*
X6508750Y-8999375D01*
X12323750Y-8899375D02*
G75*
G02*
X12223750Y-8999375I-100000J0D01*
G01*
X12223750Y-7599375D02*
G75*
G02*
X12323750Y-7699375I0J-100000D01*
G01*
X10418750Y-7699375D02*
X10418750Y-8899375D01*
X7113750Y-7699375D02*
X7113750Y-8899375D01*
X5208750Y-7699375D02*
G75*
G02*
X5308750Y-7599375I100000J0D01*
G01*
X9018750Y-7699375D02*
G75*
G02*
X9118750Y-7599375I100000J0D01*
G01*
X14228750Y-7699375D02*
X14228750Y-8899375D01*
X9118750Y-7599375D02*
X10318750Y-7599375D01*
X10418750Y-8899375D02*
G75*
G02*
X10318750Y-8999375I-100000J0D01*
G01*
X7213750Y-8999375D02*
G75*
G02*
X7113750Y-8899375I0J100000D01*
G01*
X12928750Y-7599375D02*
X14128750Y-7599375D01*
X11023750Y-7599375D02*
X12223750Y-7599375D01*
X5208750Y-7699375D02*
X5208750Y-8899375D01*
X11023750Y-8999375D02*
G75*
G02*
X10923750Y-8899375I0J100000D01*
G01*
X12928750Y-8999375D02*
G75*
G02*
X12828750Y-8899375I0J100000D01*
G01*
X12828750Y-7699375D02*
G75*
G02*
X12928750Y-7599375I100000J0D01*
G01*
X12828750Y-7699375D02*
X12828750Y-8899375D01*
X8413750Y-7599375D02*
G75*
G02*
X8513750Y-7699375I0J-100000D01*
G01*
X9118750Y-8999375D02*
G75*
G02*
X9018750Y-8899375I0J100000D01*
G01*
X8513750Y-8899375D02*
G75*
G02*
X8413750Y-8999375I-100000J0D01*
G01*
X9018750Y-7699375D02*
X9018750Y-8899375D01*
X5308750Y-7599375D02*
X6508750Y-7599375D01*
X6608750Y-7699375D02*
X6608750Y-8899375D01*
X8513750Y-7699375D02*
X8513750Y-8899375D01*
X11023750Y-8999375D02*
X12223750Y-8999375D01*
X7113750Y-7699375D02*
G75*
G02*
X7213750Y-7599375I100000J0D01*
G01*
X8166250Y-10904375D02*
G75*
G02*
X8066250Y-10804375I0J100000D01*
G01*
X8066250Y-9604375D02*
X8066250Y-10804375D01*
X5785000Y-9504375D02*
X6985000Y-9504375D01*
X11271250Y-9504375D02*
G75*
G02*
X11371250Y-9604375I0J-100000D01*
G01*
X8166250Y-10904375D02*
X9366250Y-10904375D01*
X11371250Y-9604375D02*
X11371250Y-10804375D01*
X33178750Y-7599375D02*
G75*
G02*
X33278750Y-7699375I0J-100000D01*
G01*
X8066250Y-9604375D02*
G75*
G02*
X8166250Y-9504375I100000J0D01*
G01*
X7085000Y-10804375D02*
G75*
G02*
X6985000Y-10904375I-100000J0D01*
G01*
X10071250Y-10904375D02*
X11271250Y-10904375D01*
X5785000Y-10904375D02*
X6985000Y-10904375D01*
X6985000Y-9504375D02*
G75*
G02*
X7085000Y-9604375I0J-100000D01*
G01*
X15081250Y-9504375D02*
G75*
G02*
X15181250Y-9604375I0J-100000D01*
G01*
X11976250Y-9504375D02*
X13176250Y-9504375D01*
X9466250Y-9604375D02*
X9466250Y-10804375D01*
X10071250Y-10904375D02*
G75*
G02*
X9971250Y-10804375I0J100000D01*
G01*
X15786250Y-10904375D02*
X16986250Y-10904375D01*
X15786250Y-9504375D02*
X16986250Y-9504375D01*
X5685000Y-9604375D02*
X5685000Y-10804375D01*
X15181250Y-10804375D02*
G75*
G02*
X15081250Y-10904375I-100000J0D01*
G01*
X13781250Y-9604375D02*
X13781250Y-10804375D01*
X13176250Y-9504375D02*
G75*
G02*
X13276250Y-9604375I0J-100000D01*
G01*
X11371250Y-10804375D02*
G75*
G02*
X11271250Y-10904375I-100000J0D01*
G01*
X11876250Y-9604375D02*
X11876250Y-10804375D01*
X5785000Y-10904375D02*
G75*
G02*
X5685000Y-10804375I0J100000D01*
G01*
X13276250Y-9604375D02*
X13276250Y-10804375D01*
X13881250Y-10904375D02*
G75*
G02*
X13781250Y-10804375I0J100000D01*
G01*
X5685000Y-9604375D02*
G75*
G02*
X5785000Y-9504375I100000J0D01*
G01*
X7085000Y-9604375D02*
X7085000Y-10804375D01*
X13781250Y-9604375D02*
G75*
G02*
X13881250Y-9504375I100000J0D01*
G01*
X9971250Y-9604375D02*
G75*
G02*
X10071250Y-9504375I100000J0D01*
G01*
X15181250Y-9604375D02*
X15181250Y-10804375D01*
X11876250Y-9604375D02*
G75*
G02*
X11976250Y-9504375I100000J0D01*
G01*
X13881250Y-10904375D02*
X15081250Y-10904375D01*
X13881250Y-9504375D02*
X15081250Y-9504375D01*
X13276250Y-10804375D02*
G75*
G02*
X13176250Y-10904375I-100000J0D01*
G01*
X9466250Y-10804375D02*
G75*
G02*
X9366250Y-10904375I-100000J0D01*
G01*
X11976250Y-10904375D02*
G75*
G02*
X11876250Y-10804375I0J100000D01*
G01*
X9366250Y-9504375D02*
G75*
G02*
X9466250Y-9604375I0J-100000D01*
G01*
X9971250Y-9604375D02*
X9971250Y-10804375D01*
X8166250Y-9504375D02*
X9366250Y-9504375D01*
X11976250Y-10904375D02*
X13176250Y-10904375D01*
X10071250Y-9504375D02*
X11271250Y-9504375D01*
X23753750Y-8899375D02*
G75*
G02*
X23653750Y-8999375I-100000J0D01*
G01*
X22353750Y-7699375D02*
G75*
G02*
X22453750Y-7599375I100000J0D01*
G01*
X28168750Y-8999375D02*
X29368750Y-8999375D01*
X28168750Y-8999375D02*
G75*
G02*
X28068750Y-8899375I0J100000D01*
G01*
X25658750Y-7699375D02*
X25658750Y-8899375D01*
X29468750Y-8899375D02*
G75*
G02*
X29368750Y-8999375I-100000J0D01*
G01*
X24258750Y-7699375D02*
X24258750Y-8899375D01*
X26263750Y-8999375D02*
X27463750Y-8999375D01*
X22353750Y-7699375D02*
X22353750Y-8899375D01*
X30782450Y-9099375D02*
G75*
G02*
X30682450Y-9199375I-100000J0D01*
G01*
X26263750Y-8999375D02*
G75*
G02*
X26163750Y-8899375I0J100000D01*
G01*
X27563750Y-7699375D02*
X27563750Y-8899375D01*
X30073600Y-9199375D02*
G75*
G02*
X29973600Y-9099375I0J100000D01*
G01*
X30073600Y-9199375D02*
X30682450Y-9199375D01*
X32570050Y-9199375D02*
G75*
G02*
X32470050Y-9099375I0J100000D01*
G01*
X27563750Y-8899375D02*
G75*
G02*
X27463750Y-8999375I-100000J0D01*
G01*
X22453750Y-8999375D02*
X23653750Y-8999375D01*
X32570050Y-9199375D02*
X33178900Y-9199375D01*
X25658750Y-8899375D02*
G75*
G02*
X25558750Y-8999375I-100000J0D01*
G01*
X24358750Y-8999375D02*
X25558750Y-8999375D01*
X23753750Y-7699375D02*
X23753750Y-8899375D01*
X29973750Y-7699375D02*
X29973600Y-9099375D01*
X28068750Y-7699375D02*
X28068750Y-8899375D01*
X28168750Y-7599375D02*
X29368750Y-7599375D01*
X26263750Y-7599375D02*
X27463750Y-7599375D01*
X24358750Y-8999375D02*
G75*
G02*
X24258750Y-8899375I0J100000D01*
G01*
X25558750Y-7599375D02*
G75*
G02*
X25658750Y-7699375I0J-100000D01*
G01*
X26163750Y-7699375D02*
G75*
G02*
X26263750Y-7599375I100000J0D01*
G01*
X29973750Y-7699375D02*
G75*
G02*
X30073750Y-7599375I100000J0D01*
G01*
X23653750Y-7599375D02*
G75*
G02*
X23753750Y-7699375I0J-100000D01*
G01*
X28068750Y-7699375D02*
G75*
G02*
X28168750Y-7599375I100000J0D01*
G01*
X27463750Y-7599375D02*
G75*
G02*
X27563750Y-7699375I0J-100000D01*
G01*
X29468750Y-7699375D02*
X29468750Y-8899375D01*
X29368750Y-7599375D02*
G75*
G02*
X29468750Y-7699375I0J-100000D01*
G01*
X24358750Y-7599375D02*
X25558750Y-7599375D01*
X22453750Y-8999375D02*
G75*
G02*
X22353750Y-8899375I0J100000D01*
G01*
X26163750Y-7699375D02*
X26163750Y-8899375D01*
X24258750Y-7699375D02*
G75*
G02*
X24358750Y-7599375I100000J0D01*
G01*
X29021250Y-9604375D02*
X29021250Y-10804375D01*
X15786250Y-10904375D02*
G75*
G02*
X15686250Y-10804375I0J100000D01*
G01*
X17086250Y-9604375D02*
X17086250Y-10804375D01*
X25311250Y-10904375D02*
G75*
G02*
X25211250Y-10804375I0J100000D01*
G01*
X26611250Y-10804375D02*
G75*
G02*
X26511250Y-10904375I-100000J0D01*
G01*
X21501250Y-9504375D02*
X22701250Y-9504375D01*
X25311250Y-10904375D02*
X26511250Y-10904375D01*
X25311250Y-9504375D02*
X26511250Y-9504375D01*
X27116250Y-9604375D02*
X27116250Y-10804375D01*
X26611250Y-9604375D02*
X26611250Y-10804375D01*
X24606250Y-9504375D02*
G75*
G02*
X24706250Y-9604375I0J-100000D01*
G01*
X23306250Y-9604375D02*
G75*
G02*
X23406250Y-9504375I100000J0D01*
G01*
X22701250Y-9504375D02*
G75*
G02*
X22801250Y-9604375I0J-100000D01*
G01*
X17591250Y-9604375D02*
X17591250Y-10804375D01*
X31502500Y-9504375D02*
X32702500Y-9504375D01*
X21501250Y-10904375D02*
G75*
G02*
X21401250Y-10804375I0J100000D01*
G01*
X17691250Y-10904375D02*
X18891250Y-10904375D01*
X24706250Y-10804375D02*
G75*
G02*
X24606250Y-10904375I-100000J0D01*
G01*
X19596250Y-9504375D02*
X20796250Y-9504375D01*
X31502500Y-10904375D02*
X32702500Y-10904375D01*
X30421250Y-10804375D02*
G75*
G02*
X30321250Y-10904375I-100000J0D01*
G01*
X27216250Y-10904375D02*
G75*
G02*
X27116250Y-10804375I0J100000D01*
G01*
X20796250Y-9504375D02*
G75*
G02*
X20896250Y-9604375I0J-100000D01*
G01*
X19496250Y-9604375D02*
X19496250Y-10804375D01*
X29121250Y-10904375D02*
G75*
G02*
X29021250Y-10804375I0J100000D01*
G01*
X29121250Y-9504375D02*
X30321250Y-9504375D01*
X30321250Y-9504375D02*
G75*
G02*
X30421250Y-9604375I0J-100000D01*
G01*
X29021250Y-9604375D02*
G75*
G02*
X29121250Y-9504375I100000J0D01*
G01*
X26511250Y-9504375D02*
G75*
G02*
X26611250Y-9604375I0J-100000D01*
G01*
X28516250Y-10804375D02*
G75*
G02*
X28416250Y-10904375I-100000J0D01*
G01*
X19596250Y-10904375D02*
G75*
G02*
X19496250Y-10804375I0J100000D01*
G01*
X28416250Y-9504375D02*
G75*
G02*
X28516250Y-9604375I0J-100000D01*
G01*
X28516250Y-9604375D02*
X28516250Y-10804375D01*
X27216250Y-10904375D02*
X28416250Y-10904375D01*
X27216250Y-9504375D02*
X28416250Y-9504375D01*
X23406250Y-9504375D02*
X24606250Y-9504375D01*
X17691250Y-10904375D02*
G75*
G02*
X17591250Y-10804375I0J100000D01*
G01*
X17691250Y-9504375D02*
X18891250Y-9504375D01*
X15686250Y-9604375D02*
X15686250Y-10804375D01*
X23406250Y-10904375D02*
X24606250Y-10904375D01*
X21501250Y-10904375D02*
X22701250Y-10904375D01*
X20896250Y-10804375D02*
G75*
G02*
X20796250Y-10904375I-100000J0D01*
G01*
X18991250Y-10804375D02*
G75*
G02*
X18891250Y-10904375I-100000J0D01*
G01*
X18891250Y-9504375D02*
G75*
G02*
X18991250Y-9604375I0J-100000D01*
G01*
X17591250Y-9604375D02*
G75*
G02*
X17691250Y-9504375I100000J0D01*
G01*
X22801250Y-10804375D02*
G75*
G02*
X22701250Y-10904375I-100000J0D01*
G01*
X20896250Y-9604375D02*
X20896250Y-10804375D01*
X24706250Y-9604375D02*
X24706250Y-10804375D01*
X15686250Y-9604375D02*
G75*
G02*
X15786250Y-9504375I100000J0D01*
G01*
X22801250Y-9604375D02*
X22801250Y-10804375D01*
X19496250Y-9604375D02*
G75*
G02*
X19596250Y-9504375I100000J0D01*
G01*
X23406250Y-10904375D02*
G75*
G02*
X23306250Y-10804375I0J100000D01*
G01*
X21401250Y-9604375D02*
X21401250Y-10804375D01*
X21401250Y-9604375D02*
G75*
G02*
X21501250Y-9504375I100000J0D01*
G01*
X23306250Y-9604375D02*
X23306250Y-10804375D01*
X17086250Y-10804375D02*
G75*
G02*
X16986250Y-10904375I-100000J0D01*
G01*
X27116250Y-9604375D02*
G75*
G02*
X27216250Y-9504375I100000J0D01*
G01*
X25211250Y-9604375D02*
G75*
G02*
X25311250Y-9504375I100000J0D01*
G01*
X30421250Y-9604375D02*
X30421250Y-10804375D01*
X25211250Y-9604375D02*
X25211250Y-10804375D01*
X29121250Y-10904375D02*
X30321250Y-10904375D01*
X16986250Y-9504375D02*
G75*
G02*
X17086250Y-9604375I0J-100000D01*
G01*
X19596250Y-10904375D02*
X20796250Y-10904375D01*
X18991250Y-9604375D02*
X18991250Y-10804375D01*
X32702500Y-9504375D02*
G75*
G02*
X32802500Y-9604375I0J-100000D01*
G01*
X31402500Y-9604375D02*
X31402500Y-10804375D01*
X32802500Y-9604375D02*
X32802500Y-10804375D01*
X31402500Y-9604375D02*
G75*
G02*
X31502500Y-9504375I100000J0D01*
G01*
X7223125Y-11409375D02*
G75*
G02*
X7323125Y-11509375I0J-100000D01*
G01*
X7323125Y-11509375D02*
X7323125Y-12709375D01*
X5446875Y-11509375D02*
X5446875Y-12709375D01*
X5446875Y-11509375D02*
G75*
G02*
X5546875Y-11409375I100000J0D01*
G01*
X7323125Y-12709375D02*
G75*
G02*
X7223125Y-12809375I-100000J0D01*
G01*
X32802500Y-10804375D02*
G75*
G02*
X32702500Y-10904375I-100000J0D01*
G01*
X31502500Y-10904375D02*
G75*
G02*
X31402500Y-10804375I0J100000D01*
G01*
X10547500Y-12809375D02*
G75*
G02*
X10447500Y-12709375I0J100000D01*
G01*
X11747500Y-11409375D02*
G75*
G02*
X11847500Y-11509375I0J-100000D01*
G01*
X10547500Y-11409375D02*
X11747500Y-11409375D01*
X19972500Y-11509375D02*
G75*
G02*
X20072500Y-11409375I100000J0D01*
G01*
X14357500Y-12809375D02*
X15557500Y-12809375D01*
X19367500Y-11409375D02*
G75*
G02*
X19467500Y-11509375I0J-100000D01*
G01*
X18067500Y-11509375D02*
G75*
G02*
X18167500Y-11409375I100000J0D01*
G01*
X12452500Y-12809375D02*
G75*
G02*
X12352500Y-12709375I0J100000D01*
G01*
X11847500Y-12709375D02*
G75*
G02*
X11747500Y-12809375I-100000J0D01*
G01*
X14257500Y-11509375D02*
G75*
G02*
X14357500Y-11409375I100000J0D01*
G01*
X19467500Y-11509375D02*
X19467500Y-12709375D01*
X16162500Y-11509375D02*
X16162500Y-12709375D01*
X15657500Y-12709375D02*
G75*
G02*
X15557500Y-12809375I-100000J0D01*
G01*
X8542500Y-11509375D02*
G75*
G02*
X8642500Y-11409375I100000J0D01*
G01*
X16262500Y-11409375D02*
X17462500Y-11409375D01*
X12352500Y-11509375D02*
X12352500Y-12709375D01*
X15557500Y-11409375D02*
G75*
G02*
X15657500Y-11509375I0J-100000D01*
G01*
X23277500Y-11509375D02*
X23277500Y-12709375D01*
X21977500Y-11409375D02*
X23177500Y-11409375D01*
X14357500Y-12809375D02*
G75*
G02*
X14257500Y-12709375I0J100000D01*
G01*
X17462500Y-11409375D02*
G75*
G02*
X17562500Y-11509375I0J-100000D01*
G01*
X16262500Y-12809375D02*
X17462500Y-12809375D01*
X20072500Y-12809375D02*
G75*
G02*
X19972500Y-12709375I0J100000D01*
G01*
X17562500Y-12709375D02*
G75*
G02*
X17462500Y-12809375I-100000J0D01*
G01*
X12452500Y-12809375D02*
X13652500Y-12809375D01*
X14257500Y-11509375D02*
X14257500Y-12709375D01*
X13652500Y-11409375D02*
G75*
G02*
X13752500Y-11509375I0J-100000D01*
G01*
X19972500Y-11509375D02*
X19972500Y-12709375D01*
X8642500Y-12809375D02*
G75*
G02*
X8542500Y-12709375I0J100000D01*
G01*
X12452500Y-11409375D02*
X13652500Y-11409375D01*
X21372500Y-11509375D02*
X21372500Y-12709375D01*
X20072500Y-11409375D02*
X21272500Y-11409375D01*
X9942500Y-12709375D02*
G75*
G02*
X9842500Y-12809375I-100000J0D01*
G01*
X20072500Y-12809375D02*
X21272500Y-12809375D01*
X18167500Y-11409375D02*
X19367500Y-11409375D01*
X13752500Y-12709375D02*
G75*
G02*
X13652500Y-12809375I-100000J0D01*
G01*
X9942500Y-11509375D02*
X9942500Y-12709375D01*
X12352500Y-11509375D02*
G75*
G02*
X12452500Y-11409375I100000J0D01*
G01*
X10447500Y-11509375D02*
X10447500Y-12709375D01*
X8642500Y-12809375D02*
X9842500Y-12809375D01*
X19467500Y-12709375D02*
G75*
G02*
X19367500Y-12809375I-100000J0D01*
G01*
X18067500Y-11509375D02*
X18067500Y-12709375D01*
X11847500Y-11509375D02*
X11847500Y-12709375D01*
X16262500Y-12809375D02*
G75*
G02*
X16162500Y-12709375I0J100000D01*
G01*
X18167500Y-12809375D02*
G75*
G02*
X18067500Y-12709375I0J100000D01*
G01*
X23177500Y-11409375D02*
G75*
G02*
X23277500Y-11509375I0J-100000D01*
G01*
X18167500Y-12809375D02*
X19367500Y-12809375D01*
X21877500Y-11509375D02*
G75*
G02*
X21977500Y-11409375I100000J0D01*
G01*
X8642500Y-11409375D02*
X9842500Y-11409375D01*
X15657500Y-11509375D02*
X15657500Y-12709375D01*
X14357500Y-11409375D02*
X15557500Y-11409375D01*
X8542500Y-11509375D02*
X8542500Y-12709375D01*
X21877500Y-11509375D02*
X21877500Y-12709375D01*
X21977500Y-12809375D02*
X23177500Y-12809375D01*
X21372500Y-12709375D02*
G75*
G02*
X21272500Y-12809375I-100000J0D01*
G01*
X21272500Y-11409375D02*
G75*
G02*
X21372500Y-11509375I0J-100000D01*
G01*
X16162500Y-11509375D02*
G75*
G02*
X16262500Y-11409375I100000J0D01*
G01*
X9842500Y-11409375D02*
G75*
G02*
X9942500Y-11509375I0J-100000D01*
G01*
X10547500Y-12809375D02*
X11747500Y-12809375D01*
X5546875Y-12809375D02*
G75*
G02*
X5446875Y-12709375I0J100000D01*
G01*
X13752500Y-11509375D02*
X13752500Y-12709375D01*
X17562500Y-11509375D02*
X17562500Y-12709375D01*
X10447500Y-11509375D02*
G75*
G02*
X10547500Y-11409375I100000J0D01*
G01*
X11500000Y-14714375D02*
G75*
G02*
X11400000Y-14614375I0J100000D01*
G01*
X11400000Y-13414375D02*
G75*
G02*
X11500000Y-13314375I100000J0D01*
G01*
X12800000Y-13414375D02*
X12800000Y-14614375D01*
X10795000Y-13314375D02*
G75*
G02*
X10895000Y-13414375I0J-100000D01*
G01*
X9495000Y-13414375D02*
G75*
G02*
X9595000Y-13314375I100000J0D01*
G01*
X12700000Y-13314375D02*
G75*
G02*
X12800000Y-13414375I0J-100000D01*
G01*
X5555575Y-13514375D02*
G75*
G02*
X5655575Y-13414375I100000J0D01*
G01*
X5655575Y-14914375D02*
X6155575Y-14914375D01*
X11400000Y-13414375D02*
X11400000Y-14614375D01*
X11500000Y-13314375D02*
X12700000Y-13314375D01*
X10895000Y-14614375D02*
G75*
G02*
X10795000Y-14714375I-100000J0D01*
G01*
X9595000Y-14714375D02*
G75*
G02*
X9495000Y-14614375I0J100000D01*
G01*
X9495000Y-13414375D02*
X9495000Y-14614375D01*
X9595000Y-13314375D02*
X10795000Y-13314375D01*
X5655575Y-14914375D02*
G75*
G02*
X5555575Y-14814375I0J100000D01*
G01*
X5555575Y-13514375D02*
X5555575Y-14814375D01*
X9595000Y-14714375D02*
X10795000Y-14714375D01*
X10895000Y-13414375D02*
X10895000Y-14614375D01*
X11500000Y-14714375D02*
X12700000Y-14714375D01*
X13405000Y-14714375D02*
X14605000Y-14714375D01*
X13405000Y-13314375D02*
X14605000Y-13314375D01*
X12800000Y-14614375D02*
G75*
G02*
X12700000Y-14714375I-100000J0D01*
G01*
X5655575Y-13414375D02*
X6326170Y-13414375D01*
X32131925Y-12809375D02*
G75*
G02*
X32231925Y-12909375I0J-100000D01*
G01*
X26987500Y-11409375D02*
G75*
G02*
X27087500Y-11509375I0J-100000D01*
G01*
X23782500Y-11509375D02*
G75*
G02*
X23882500Y-11409375I100000J0D01*
G01*
X28892500Y-11409375D02*
G75*
G02*
X28992500Y-11509375I0J-100000D01*
G01*
X23782500Y-11509375D02*
X23782500Y-12709375D01*
X27592500Y-11509375D02*
X27592500Y-12709375D01*
X29844325Y-11609375D02*
G75*
G02*
X29944325Y-11509375I100000J0D01*
G01*
X32331925Y-13009375D02*
G75*
G02*
X32231925Y-12909375I0J100000D01*
G01*
X23882500Y-11409375D02*
X25082500Y-11409375D01*
X21977500Y-12809375D02*
G75*
G02*
X21877500Y-12709375I0J100000D01*
G01*
X32831925Y-11509375D02*
G75*
G02*
X32931925Y-11609375I0J-100000D01*
G01*
X25182500Y-12709375D02*
G75*
G02*
X25082500Y-12809375I-100000J0D01*
G01*
X25082500Y-11409375D02*
G75*
G02*
X25182500Y-11509375I0J-100000D01*
G01*
X29944325Y-13009375D02*
G75*
G02*
X29844325Y-12909375I0J100000D01*
G01*
X25787500Y-12809375D02*
X26987500Y-12809375D01*
X25687500Y-11509375D02*
G75*
G02*
X25787500Y-11409375I100000J0D01*
G01*
X28992500Y-12709375D02*
G75*
G02*
X28892500Y-12809375I-100000J0D01*
G01*
X28992500Y-11509375D02*
X28992500Y-12709375D01*
X27592500Y-11509375D02*
G75*
G02*
X27692500Y-11409375I100000J0D01*
G01*
X25687500Y-11509375D02*
X25687500Y-12709375D01*
X30701522Y-11459375D02*
G75*
G02*
X30788125Y-11409375I86603J-50000D01*
G01*
X30788125Y-11409375D02*
X31988125Y-11409375D01*
X29844325Y-11609375D02*
X29844325Y-12909375D01*
X30544325Y-12909375D02*
G75*
G02*
X30644325Y-12809375I100000J0D01*
G01*
X27087500Y-11509375D02*
X27087500Y-12709375D01*
X30644325Y-12809375D02*
X32131925Y-12809375D01*
X29944325Y-13009375D02*
X30444325Y-13009375D01*
X29944325Y-11509375D02*
X30614920Y-11509375D01*
X27692500Y-12809375D02*
X28892500Y-12809375D01*
X30544325Y-12909375D02*
G75*
G02*
X30444325Y-13009375I-100000J0D01*
G01*
X25787500Y-12809375D02*
G75*
G02*
X25687500Y-12709375I0J100000D01*
G01*
X6499375Y-13314375D02*
X7699375Y-13314375D01*
X32161330Y-11509375D02*
X32831925Y-11509375D01*
X27087500Y-12709375D02*
G75*
G02*
X26987500Y-12809375I-100000J0D01*
G01*
X25787500Y-11409375D02*
X26987500Y-11409375D01*
X30701522Y-11459375D02*
G75*
G02*
X30614920Y-11509375I-86603J50000D01*
G01*
X27692500Y-12809375D02*
G75*
G02*
X27592500Y-12709375I0J100000D01*
G01*
X32931925Y-11609375D02*
X32931925Y-12909375D01*
X25182500Y-11509375D02*
X25182500Y-12709375D01*
X27692500Y-11409375D02*
X28892500Y-11409375D01*
X32931925Y-12909375D02*
G75*
G02*
X32831925Y-13009375I-100000J0D01*
G01*
X23882500Y-12809375D02*
X25082500Y-12809375D01*
X23882500Y-12809375D02*
G75*
G02*
X23782500Y-12709375I0J100000D01*
G01*
X32331925Y-13009375D02*
X32831925Y-13009375D01*
X23277500Y-12709375D02*
G75*
G02*
X23177500Y-12809375I-100000J0D01*
G01*
X33783750Y-13414375D02*
G75*
G02*
X33883750Y-13314375I100000J0D01*
G01*
X5446875Y-15319375D02*
X5446875Y-16519375D01*
X33883750Y-14714375D02*
G75*
G02*
X33783750Y-14614375I0J100000D01*
G01*
X33278750Y-13414375D02*
X33278750Y-14614375D01*
X30068075Y-14814375D02*
G75*
G02*
X29968075Y-14914375I-100000J0D01*
G01*
X33783750Y-13414375D02*
X33783750Y-14614375D01*
X31855675Y-14914375D02*
G75*
G02*
X31755675Y-14814375I0J100000D01*
G01*
X33883750Y-14714375D02*
X35083750Y-14714375D01*
X33883750Y-13314375D02*
X35083750Y-13314375D01*
X29359375Y-14915000D02*
X29968075Y-14914375D01*
X29259375Y-13414375D02*
X29259375Y-14815000D01*
X31655675Y-14714375D02*
G75*
G02*
X31755675Y-14814375I0J-100000D01*
G01*
X5546875Y-16619375D02*
G75*
G02*
X5446875Y-16519375I0J100000D01*
G01*
X5446875Y-15319375D02*
G75*
G02*
X5546875Y-15219375I100000J0D01*
G01*
X33278750Y-14614375D02*
G75*
G02*
X33178750Y-14714375I-100000J0D01*
G01*
X31855675Y-14914375D02*
X32355675Y-14914375D01*
X35183750Y-14614375D02*
G75*
G02*
X35083750Y-14714375I-100000J0D01*
G01*
X33178750Y-13314375D02*
G75*
G02*
X33278750Y-13414375I0J-100000D01*
G01*
X29359375Y-14915000D02*
G75*
G02*
X29259375Y-14815000I0J100000D01*
G01*
X29259375Y-13414375D02*
G75*
G02*
X29359375Y-13314375I100000J0D01*
G01*
X35083750Y-13314375D02*
G75*
G02*
X35183750Y-13414375I0J-100000D01*
G01*
X35183750Y-13414375D02*
X35183750Y-14614375D01*
X31511875Y-13314375D02*
X33178750Y-13314375D01*
X32455675Y-14814375D02*
G75*
G02*
X32355675Y-14914375I-100000J0D01*
G01*
X24735000Y-13414375D02*
G75*
G02*
X24835000Y-13314375I100000J0D01*
G01*
X15310000Y-13314375D02*
X16510000Y-13314375D01*
X14705000Y-14614375D02*
G75*
G02*
X14605000Y-14714375I-100000J0D01*
G01*
X22930000Y-14714375D02*
G75*
G02*
X22830000Y-14614375I0J100000D01*
G01*
X18515000Y-13414375D02*
X18515000Y-14614375D01*
X22325000Y-14614375D02*
G75*
G02*
X22225000Y-14714375I-100000J0D01*
G01*
X21025000Y-14714375D02*
G75*
G02*
X20925000Y-14614375I0J100000D01*
G01*
X17215000Y-13314375D02*
X18415000Y-13314375D01*
X15310000Y-14714375D02*
X16510000Y-14714375D01*
X17215000Y-14714375D02*
G75*
G02*
X17115000Y-14614375I0J100000D01*
G01*
X22225000Y-13314375D02*
G75*
G02*
X22325000Y-13414375I0J-100000D01*
G01*
X13305000Y-13414375D02*
X13305000Y-14614375D01*
X19120000Y-14714375D02*
X20320000Y-14714375D01*
X19020000Y-13414375D02*
G75*
G02*
X19120000Y-13314375I100000J0D01*
G01*
X19020000Y-13414375D02*
X19020000Y-14614375D01*
X15210000Y-13414375D02*
G75*
G02*
X15310000Y-13314375I100000J0D01*
G01*
X18515000Y-14614375D02*
G75*
G02*
X18415000Y-14714375I-100000J0D01*
G01*
X28040000Y-14614375D02*
G75*
G02*
X27940000Y-14714375I-100000J0D01*
G01*
X27940000Y-13314375D02*
G75*
G02*
X28040000Y-13414375I0J-100000D01*
G01*
X19120000Y-13314375D02*
X20320000Y-13314375D01*
X20420000Y-14614375D02*
G75*
G02*
X20320000Y-14714375I-100000J0D01*
G01*
X20420000Y-13414375D02*
X20420000Y-14614375D01*
X24735000Y-13414375D02*
X24735000Y-14614375D01*
X21025000Y-14714375D02*
X22225000Y-14714375D01*
X16610000Y-13414375D02*
X16610000Y-14614375D01*
X17115000Y-13414375D02*
G75*
G02*
X17215000Y-13314375I100000J0D01*
G01*
X16610000Y-14614375D02*
G75*
G02*
X16510000Y-14714375I-100000J0D01*
G01*
X24835000Y-14714375D02*
G75*
G02*
X24735000Y-14614375I0J100000D01*
G01*
X22830000Y-13414375D02*
G75*
G02*
X22930000Y-13314375I100000J0D01*
G01*
X15210000Y-13414375D02*
X15210000Y-14614375D01*
X28040000Y-13414375D02*
X28040000Y-14614375D01*
X22830000Y-13414375D02*
X22830000Y-14614375D01*
X26035000Y-13314375D02*
G75*
G02*
X26135000Y-13414375I0J-100000D01*
G01*
X24835000Y-13314375D02*
X26035000Y-13314375D01*
X24130000Y-13314375D02*
G75*
G02*
X24230000Y-13414375I0J-100000D01*
G01*
X24230000Y-13414375D02*
X24230000Y-14614375D01*
X20925000Y-13414375D02*
X20925000Y-14614375D01*
X17215000Y-14714375D02*
X18415000Y-14714375D01*
X15310000Y-14714375D02*
G75*
G02*
X15210000Y-14614375I0J100000D01*
G01*
X13305000Y-13414375D02*
G75*
G02*
X13405000Y-13314375I100000J0D01*
G01*
X22930000Y-14714375D02*
X24130000Y-14714375D01*
X20925000Y-13414375D02*
G75*
G02*
X21025000Y-13314375I100000J0D01*
G01*
X14605000Y-13314375D02*
G75*
G02*
X14705000Y-13414375I0J-100000D01*
G01*
X21025000Y-13314375D02*
X22225000Y-13314375D01*
X22930000Y-13314375D02*
X24130000Y-13314375D01*
X22325000Y-13414375D02*
X22325000Y-14614375D01*
X26740000Y-14714375D02*
G75*
G02*
X26640000Y-14614375I0J100000D01*
G01*
X18415000Y-13314375D02*
G75*
G02*
X18515000Y-13414375I0J-100000D01*
G01*
X17115000Y-13414375D02*
X17115000Y-14614375D01*
X26640000Y-13414375D02*
G75*
G02*
X26740000Y-13314375I100000J0D01*
G01*
X26640000Y-13414375D02*
X26640000Y-14614375D01*
X26740000Y-14714375D02*
X27940000Y-14714375D01*
X26740000Y-13314375D02*
X27940000Y-13314375D01*
X24835000Y-14714375D02*
X26035000Y-14714375D01*
X26135000Y-14614375D02*
G75*
G02*
X26035000Y-14714375I-100000J0D01*
G01*
X26135000Y-13414375D02*
X26135000Y-14614375D01*
X14705000Y-13414375D02*
X14705000Y-14614375D01*
X19120000Y-14714375D02*
G75*
G02*
X19020000Y-14614375I0J100000D01*
G01*
X16510000Y-13314375D02*
G75*
G02*
X16610000Y-13414375I0J-100000D01*
G01*
X20320000Y-13314375D02*
G75*
G02*
X20420000Y-13414375I0J-100000D01*
G01*
X24230000Y-14614375D02*
G75*
G02*
X24130000Y-14714375I-100000J0D01*
G01*
X13405000Y-14714375D02*
G75*
G02*
X13305000Y-14614375I0J100000D01*
G01*
X9942500Y-15319375D02*
X9942500Y-16519375D01*
X10209375Y-15319375D02*
X10209375Y-16519375D01*
X16638750Y-15319375D02*
X16638750Y-16519375D01*
X7085000Y-15319375D02*
X7085000Y-16519375D01*
X16638750Y-15319375D02*
G75*
G02*
X16738750Y-15219375I100000J0D01*
G01*
X7828125Y-15319375D02*
X7828125Y-16519375D01*
X7828125Y-15319375D02*
G75*
G02*
X7928125Y-15219375I100000J0D01*
G01*
X7085000Y-16519375D02*
G75*
G02*
X6985000Y-16619375I-100000J0D01*
G01*
X10209375Y-15319375D02*
G75*
G02*
X10309375Y-15219375I100000J0D01*
G01*
X6985000Y-15219375D02*
G75*
G02*
X7085000Y-15319375I0J-100000D01*
G01*
X16738750Y-16619375D02*
G75*
G02*
X16638750Y-16519375I0J100000D01*
G01*
X11873750Y-15019375D02*
X11373750Y-15019375D01*
X10309375Y-16619375D02*
G75*
G02*
X10209375Y-16519375I0J100000D01*
G01*
X7928125Y-16619375D02*
G75*
G02*
X7828125Y-16519375I0J100000D01*
G01*
X9942500Y-16519375D02*
G75*
G02*
X9842500Y-16619375I-100000J0D01*
G01*
X9842500Y-15219375D02*
G75*
G02*
X9942500Y-15319375I0J-100000D01*
G01*
X25896875Y-15319375D02*
X25896875Y-16519375D01*
X26401875Y-15319375D02*
G75*
G02*
X26501875Y-15219375I100000J0D01*
G01*
X25796875Y-15219375D02*
G75*
G02*
X25896875Y-15319375I0J-100000D01*
G01*
X35083750Y-15219375D02*
G75*
G02*
X35183750Y-15319375I0J-100000D01*
G01*
X37088750Y-15319375D02*
X37088750Y-16519375D01*
X35688750Y-15319375D02*
X35688750Y-16519375D01*
X28278125Y-16519375D02*
G75*
G02*
X28178125Y-16619375I-100000J0D01*
G01*
X26401875Y-15319375D02*
X26401875Y-16519375D01*
X35788750Y-16619375D02*
X36988750Y-16619375D01*
X28178125Y-15219375D02*
G75*
G02*
X28278125Y-15319375I0J-100000D01*
G01*
X35788750Y-15219375D02*
X36988750Y-15219375D01*
X35183750Y-16519375D02*
G75*
G02*
X35083750Y-16619375I-100000J0D01*
G01*
X33883750Y-16619375D02*
G75*
G02*
X33783750Y-16519375I0J100000D01*
G01*
X35183750Y-15319375D02*
X35183750Y-16519375D01*
X31978750Y-16619375D02*
X33178750Y-16619375D01*
X30659375Y-16519375D02*
G75*
G02*
X30559375Y-16619375I-100000J0D01*
G01*
X29021250Y-15319375D02*
X29021250Y-16519375D01*
X30659375Y-15319375D02*
X30659375Y-16519375D01*
X29121250Y-16619375D02*
G75*
G02*
X29021250Y-16519375I0J100000D01*
G01*
X28278125Y-15319375D02*
X28278125Y-16519375D01*
X33883750Y-15219375D02*
X35083750Y-15219375D01*
X33783750Y-15319375D02*
G75*
G02*
X33883750Y-15219375I100000J0D01*
G01*
X33783750Y-15319375D02*
X33783750Y-16519375D01*
X26501875Y-16619375D02*
G75*
G02*
X26401875Y-16519375I0J100000D01*
G01*
X33883750Y-16619375D02*
X35083750Y-16619375D01*
X31978750Y-16619375D02*
G75*
G02*
X31878750Y-16519375I0J100000D01*
G01*
X29021250Y-15319375D02*
G75*
G02*
X29121250Y-15219375I100000J0D01*
G01*
X24596875Y-16619375D02*
G75*
G02*
X24496875Y-16519375I0J100000D01*
G01*
X33278750Y-16519375D02*
G75*
G02*
X33178750Y-16619375I-100000J0D01*
G01*
X33178750Y-15219375D02*
G75*
G02*
X33278750Y-15319375I0J-100000D01*
G01*
X30559375Y-15219375D02*
G75*
G02*
X30659375Y-15319375I0J-100000D01*
G01*
X31878750Y-15319375D02*
G75*
G02*
X31978750Y-15219375I100000J0D01*
G01*
X33278750Y-15319375D02*
X33278750Y-16519375D01*
X31878750Y-15319375D02*
X31878750Y-16519375D01*
X31978750Y-15219375D02*
X33178750Y-15219375D01*
X25896875Y-16519375D02*
G75*
G02*
X25796875Y-16619375I-100000J0D01*
G01*
X22703750Y-15119375D02*
G75*
G02*
X22803750Y-15019375I100000J0D01*
G01*
X11873750Y-15019375D02*
G75*
G02*
X11973750Y-15119375I0J-100000D01*
G01*
X19843750Y-15219375D02*
G75*
G02*
X19943750Y-15319375I0J-100000D01*
G01*
X22803125Y-16519375D02*
G75*
G02*
X22703125Y-16419375I0J100000D01*
G01*
X13878750Y-16419375D02*
G75*
G02*
X13778750Y-16519375I-100000J0D01*
G01*
X13878750Y-16419375D02*
X13878750Y-15119375D01*
X24498300Y-15119375D02*
G75*
G02*
X24598300Y-15019375I100000J0D01*
G01*
X25208750Y-15019375D02*
X24598300Y-15019375D01*
X13778750Y-15019375D02*
G75*
G02*
X13878750Y-15119375I0J-100000D01*
G01*
X23303125Y-16519375D02*
X22803125Y-16519375D01*
X11273750Y-15119375D02*
G75*
G02*
X11373750Y-15019375I100000J0D01*
G01*
X25208750Y-15019375D02*
G75*
G02*
X25308750Y-15119375I0J-100000D01*
G01*
X12803125Y-16519375D02*
G75*
G02*
X12703125Y-16419375I0J100000D01*
G01*
X23403125Y-16419375D02*
G75*
G02*
X23303125Y-16519375I-100000J0D01*
G01*
X12703125Y-15119375D02*
G75*
G02*
X12803125Y-15019375I100000J0D01*
G01*
X19943750Y-16519375D02*
G75*
G02*
X19843750Y-16619375I-100000J0D01*
G01*
X19943750Y-15319375D02*
X19943750Y-16519375D01*
X12703125Y-16419375D02*
X12703125Y-15119375D01*
X22703125Y-16419375D02*
X22703750Y-15119375D01*
X24498300Y-15119375D02*
X24496875Y-16519375D01*
X4956250Y-7664375D02*
X4956250Y-16554375D01*
X37088750Y-16519375D02*
G75*
G02*
X36988750Y-16619375I-100000J0D01*
G01*
X5273750Y-7346875D02*
X37023750Y-7346875D01*
X5273750Y-16871875D02*
X37023750Y-16871875D01*
X35788750Y-16619375D02*
G75*
G02*
X35688750Y-16519375I0J100000D01*
G01*
X35688750Y-15319375D02*
G75*
G02*
X35788750Y-15219375I100000J0D01*
G01*
X37341250Y-7664375D02*
X37341250Y-16554375D01*
X36988750Y-15219375D02*
G75*
G02*
X37088750Y-15319375I0J-100000D01*
G01*
D11*
D12*
X5232678Y-17347589D02*
X5232678Y-17047589D01*
X5304107Y-17047589D01*
X5346964Y-17061875D01*
X5375536Y-17090447D01*
X5389821Y-17119018D01*
X5404107Y-17176161D01*
X5404107Y-17219018D01*
X5389821Y-17276161D01*
X5375536Y-17304732D01*
X5346964Y-17333304D01*
X5304107Y-17347589D01*
X5232678Y-17347589D01*
X5532678Y-17347589D02*
X5532678Y-17147589D01*
X5532678Y-17204732D02*
X5546964Y-17176161D01*
X5561250Y-17161875D01*
X5589821Y-17147589D01*
X5618393Y-17147589D01*
X5718393Y-17347589D02*
X5718393Y-17147589D01*
X5718393Y-17047589D02*
X5704107Y-17061875D01*
X5718393Y-17076161D01*
X5732678Y-17061875D01*
X5718393Y-17047589D01*
X5718393Y-17076161D01*
X5904107Y-17347589D02*
X5875536Y-17333304D01*
X5861250Y-17304732D01*
X5861250Y-17047589D01*
X6061250Y-17347589D02*
X6032678Y-17333304D01*
X6018393Y-17304732D01*
X6018393Y-17047589D01*
X6404107Y-17347589D02*
X6404107Y-17047589D01*
X6504107Y-17261875D01*
X6604107Y-17047589D01*
X6604107Y-17347589D01*
X6875536Y-17347589D02*
X6875536Y-17190447D01*
X6861250Y-17161875D01*
X6832678Y-17147589D01*
X6775536Y-17147589D01*
X6746964Y-17161875D01*
X6875536Y-17333304D02*
X6846964Y-17347589D01*
X6775536Y-17347589D01*
X6746964Y-17333304D01*
X6732678Y-17304732D01*
X6732678Y-17276161D01*
X6746964Y-17247589D01*
X6775536Y-17233304D01*
X6846964Y-17233304D01*
X6875536Y-17219018D01*
X7018393Y-17147589D02*
X7018393Y-17447589D01*
X7018393Y-17161875D02*
X7046964Y-17147589D01*
X7104107Y-17147589D01*
X7132678Y-17161875D01*
X7146964Y-17176161D01*
X7161250Y-17204732D01*
X7161250Y-17290447D01*
X7146964Y-17319018D01*
X7132678Y-17333304D01*
X7104107Y-17347589D01*
X7046964Y-17347589D01*
X7018393Y-17333304D01*
X7289821Y-17319018D02*
X7304107Y-17333304D01*
X7289821Y-17347589D01*
X7275536Y-17333304D01*
X7289821Y-17319018D01*
X7289821Y-17347589D01*
X7289821Y-17161875D02*
X7304107Y-17176161D01*
X7289821Y-17190447D01*
X7275536Y-17176161D01*
X7289821Y-17161875D01*
X7289821Y-17190447D01*
M02*
