M48
; DRILL file {KiCad (5.1.6)-1} date 07/12/22 00:57:48
; FORMAT={-:-/ absolute / inch / decimal}
; #@! TF.CreationDate,2022-07-12T00:57:48-05:00
; #@! TF.GenerationSoftware,Kicad,Pcbnew,(5.1.6)-1
; #@! TF.FileFunction,NonPlated,1,2,NPTH
FMAT,2
INCH
T1C0.0689
T2C0.0866
T3C0.1200
T4C0.1570
%
G90
G05
T1
X9.6125Y-7.8438
X10.0125Y-7.8438
X12.05Y-9.3438
X12.45Y-9.3438
X10.925Y-7.0938
X11.325Y-7.0938
X4.925Y-7.0938
X5.325Y-7.0938
X5.8625Y-7.8438
X6.2625Y-7.8438
X5.3Y-6.3438
X5.7Y-6.3438
X12.8Y-9.3438
X13.2Y-9.3438
X1.55Y-6.3438
X1.95Y-6.3438
X6.8Y-9.3438
X7.2Y-9.3438
X3.2375Y-8.5938
X3.6375Y-8.5938
X10.3625Y-7.8438
X10.7625Y-7.8438
X2.0187Y-8.5938
X2.4187Y-8.5938
X6.2375Y-8.5938
X6.6375Y-8.5938
X3.9875Y-8.5938
X4.3875Y-8.5938
X2.3Y-6.3438
X2.7Y-6.3438
X6.05Y-9.3438
X6.45Y-9.3438
X2.8625Y-9.3438
X3.2625Y-9.3438
X10.55Y-6.3438
X10.95Y-6.3438
X10.925Y-9.3438
X11.325Y-9.3438
X6.6125Y-7.8438
X7.0125Y-7.8438
X9.9875Y-8.5938
X10.3875Y-8.5938
X7.175Y-7.0938
X7.575Y-7.0938
X9.2375Y-8.5938
X9.6375Y-8.5938
X11.5812Y-7.8438
X11.9812Y-7.8438
X8.4875Y-8.5938
X8.8875Y-8.5938
X5.1125Y-7.8438
X5.5125Y-7.8438
X11.675Y-6.3438
X12.075Y-6.3438
X3.425Y-7.0938
X3.825Y-7.0938
X9.8Y-6.3438
X10.2Y-6.3438
X6.3312Y-9.3438
X6.7313Y-9.3438
X9.8937Y-9.3438
X10.2937Y-9.3438
X7.925Y-7.0938
X8.325Y-7.0938
X4.175Y-7.0938
X4.575Y-7.0938
X5.4875Y-8.5938
X5.8875Y-8.5938
X9.05Y-6.3438
X9.45Y-6.3438
X12.05Y-6.3438
X12.45Y-6.3438
X3.5187Y-9.3438
X3.9187Y-9.3438
X10.0812Y-9.3438
X10.4812Y-9.3438
X6.8Y-6.3438
X7.2Y-6.3438
X6.425Y-7.0938
X6.825Y-7.0938
X2.8625Y-7.8438
X3.2625Y-7.8438
X3.05Y-6.3438
X3.45Y-6.3438
X8.1125Y-7.8438
X8.5125Y-7.8438
X3.8Y-6.3438
X4.2Y-6.3438
X9.425Y-7.0938
X9.825Y-7.0938
X1.6438Y-7.8438
X2.0437Y-7.8438
X12.8Y-8.5938
X13.2Y-8.5938
X1.6438Y-9.3438
X2.0437Y-9.3438
X7.7375Y-8.5938
X8.1375Y-8.5938
X11.3937Y-8.5938
X11.7937Y-8.5938
X1.7375Y-9.3438
X2.1375Y-9.3438
X3.6125Y-7.8438
X4.0125Y-7.8438
X5.675Y-7.0938
X6.075Y-7.0938
X4.55Y-6.3438
X4.95Y-6.3438
X2.5812Y-9.3438
X2.9812Y-9.3438
X6.05Y-6.3438
X6.45Y-6.3438
X1.7375Y-7.0938
X2.1375Y-7.0938
X4.3625Y-7.8438
X4.7625Y-7.8438
X9.1437Y-9.3438
X9.5437Y-9.3438
X3.6125Y-9.3438
X4.0125Y-9.3438
X11.8625Y-7.0938
X12.2625Y-7.0938
X11.0187Y-9.3438
X11.4187Y-9.3438
X12.05Y-8.5938
X12.45Y-8.5938
X4.7375Y-8.5938
X5.1375Y-8.5938
X7.3625Y-7.8438
X7.7625Y-7.8438
X8.3Y-6.3438
X8.7Y-6.3438
X8.8625Y-7.8438
X9.2625Y-7.8438
X10.175Y-7.0938
X10.575Y-7.0938
X2.675Y-7.0938
X3.075Y-7.0938
X1.8313Y-7.8438
X2.2312Y-7.8438
X11.3Y-6.3438
X11.7Y-6.3438
X2.675Y-9.3438
X3.075Y-9.3438
X13.55Y-9.3438
X13.95Y-9.3438
X7.55Y-6.3438
X7.95Y-6.3438
X11.0187Y-8.5938
X11.4187Y-8.5938
X6.9875Y-8.5938
X7.3875Y-8.5938
X8.675Y-7.0938
X9.075Y-7.0938
T2
X13.8538Y-7.0038
X12.9287Y-7.9433
X12.9287Y-7.0038
X13.8538Y-7.9433
T3
X4.75Y-9.6188
X9.25Y-9.6188
X1.75Y-8.3187
X2.6875Y-8.3187
X4.0Y-9.6188
X8.5Y-9.6188
X11.3125Y-7.5687
X12.25Y-7.5687
X11.4062Y-6.0687
X12.3438Y-6.0687
X4.5628Y-9.6188
X8.4998Y-9.6188
X11.125Y-8.3187
X12.0625Y-8.3187
T4
X11.125Y-9.3438
X6.8125Y-7.8438
X10.1875Y-8.5938
X7.375Y-7.0938
X9.4375Y-8.5938
X11.3125Y-8.1687
X11.7812Y-7.8438
X12.25Y-8.1687
X8.6875Y-8.5938
X5.3125Y-7.8438
X11.4062Y-6.6688
X11.875Y-6.3438
X12.3438Y-6.6688
X3.625Y-7.0938
X10.0Y-6.3438
X4.5628Y-9.0187
X6.5312Y-9.3438
X8.4998Y-9.0187
X10.0938Y-9.3438
X8.125Y-7.0938
X4.375Y-7.0938
X5.6875Y-8.5938
X9.25Y-6.3438
X12.25Y-6.3438
X3.7188Y-9.3438
X10.2812Y-9.3438
X7.0Y-6.3438
X6.625Y-7.0938
X3.0625Y-7.8438
X3.25Y-6.3438
X8.3125Y-7.8438
X4.0Y-6.3438
X9.625Y-7.0938
X1.8438Y-7.8438
X13.0Y-8.5938
X1.8438Y-9.3438
X7.9375Y-8.5938
X11.125Y-8.9187
X11.5938Y-8.5938
X12.0625Y-8.9187
X1.9375Y-9.3438
X3.8125Y-7.8438
X5.875Y-7.0938
X4.75Y-6.3438
X2.7812Y-9.3438
X6.25Y-6.3438
X1.9375Y-7.0938
X4.5625Y-7.8438
X9.3438Y-9.3438
X3.8125Y-9.3438
X12.0625Y-7.0938
X11.2188Y-9.3438
X12.25Y-8.5938
X4.9375Y-8.5938
X7.5625Y-7.8438
X8.5Y-6.3438
X9.0625Y-7.8438
X10.375Y-7.0938
X2.875Y-7.0938
X2.0312Y-7.8438
X11.5Y-6.3438
X2.875Y-9.3438
X13.75Y-9.3438
X7.75Y-6.3438
X11.2188Y-8.5938
X7.1875Y-8.5938
X8.875Y-7.0938
X9.8125Y-7.8438
X12.25Y-9.3438
X11.125Y-7.0938
X5.125Y-7.0938
X6.0625Y-7.8438
X5.5Y-6.3438
X13.0Y-9.3438
X1.75Y-6.3438
X4.75Y-9.0187
X7.0Y-9.3438
X9.25Y-9.0187
X3.4375Y-8.5938
X10.5625Y-7.8438
X1.75Y-8.9187
X2.2188Y-8.5938
X2.6875Y-8.9187
X6.4375Y-8.5938
X4.1875Y-8.5938
X2.5Y-6.3438
X4.0Y-9.0187
X6.25Y-9.3438
X8.5Y-9.0187
X3.0625Y-9.3438
X10.75Y-6.3438
T0
M30
