%FSLAX45Y45*%
G04 Gerber Fmt 4.5, Leading zero omitted, Abs format (unit mm)*
G04 Created by KiCad (PCBNEW (5.1.6)-1) date 2022-07-12 00:57:49*
%MOMM*%
%LPD*%
G01*
G04 APERTURE LIST*
%TA.AperFunction,Profile*%
%ADD10C,0.050000*%
%TD*%
%ADD11C,0.200000*%
%ADD12C,0.300000*%
G04 APERTURE END LIST*
D10*
X3810000Y-24685625D02*
G75*
G02*
X3492500Y-24368125I0J317500D01*
G01*
X3492500Y-12700000D02*
G75*
G02*
X3810000Y-12382500I317500J0D01*
G01*
X35560000Y-12382500D02*
G75*
G02*
X35877500Y-12700000I0J-317500D01*
G01*
X35560000Y-12382500D02*
X3810000Y-12382500D01*
X35877500Y-24368125D02*
X35877500Y-12700000D01*
X35877500Y-24368125D02*
G75*
G02*
X35560000Y-24685625I-317500J0D01*
G01*
X3810000Y-24685625D02*
X35560000Y-24685625D01*
X3492500Y-24368125D02*
X3492500Y-12700000D01*
D11*
X3675700Y-15169200D02*
X3715700Y-15209200D01*
X3715700Y-15169200D02*
X3675700Y-15209200D01*
X3710625Y-15270800D02*
X3750625Y-15310800D01*
X3750625Y-15270800D02*
X3710625Y-15310800D01*
X3830471Y-15412871D02*
X3870471Y-15452871D01*
X3870471Y-15412871D02*
X3830471Y-15452871D01*
X3853500Y-15131100D02*
X3893500Y-15171100D01*
X3893500Y-15131100D02*
X3853500Y-15171100D01*
X4285300Y-18369600D02*
X4325300Y-18409600D01*
X4325300Y-18369600D02*
X4285300Y-18409600D01*
X4501200Y-21773200D02*
X4541200Y-21813200D01*
X4541200Y-21773200D02*
X4501200Y-21813200D01*
X5377500Y-13950000D02*
X5417500Y-13990000D01*
X5417500Y-13950000D02*
X5377500Y-13990000D01*
X5872800Y-13492800D02*
X5912800Y-13532800D01*
X5912800Y-13492800D02*
X5872800Y-13532800D01*
X6250625Y-20458750D02*
X6290625Y-20498750D01*
X6290625Y-20458750D02*
X6250625Y-20498750D01*
X6488750Y-13553125D02*
X6528750Y-13593125D01*
X6528750Y-13553125D02*
X6488750Y-13593125D01*
X6965000Y-22998750D02*
X7005000Y-23038750D01*
X7005000Y-22998750D02*
X6965000Y-23038750D01*
X7441250Y-18871250D02*
X7481250Y-18911250D01*
X7481250Y-18871250D02*
X7441250Y-18911250D01*
X7511100Y-14394500D02*
X7551100Y-14434500D01*
X7551100Y-14394500D02*
X7511100Y-14434500D01*
X8076250Y-23633750D02*
X8116250Y-23673750D01*
X8116250Y-23633750D02*
X8076250Y-23673750D01*
X8387400Y-14178600D02*
X8427400Y-14218600D01*
X8427400Y-14178600D02*
X8387400Y-14218600D01*
X8641400Y-13632500D02*
X8681400Y-13672500D01*
X8681400Y-13632500D02*
X8641400Y-13672500D01*
X8895400Y-14178600D02*
X8935400Y-14218600D01*
X8935400Y-14178600D02*
X8895400Y-14218600D01*
X9149400Y-13632500D02*
X9189400Y-13672500D01*
X9189400Y-13632500D02*
X9149400Y-13672500D01*
X9390700Y-14178600D02*
X9430700Y-14218600D01*
X9430700Y-14178600D02*
X9390700Y-14218600D01*
X9555800Y-15562900D02*
X9595800Y-15602900D01*
X9595800Y-15562900D02*
X9555800Y-15602900D01*
X9670100Y-14585000D02*
X9710100Y-14625000D01*
X9710100Y-14585000D02*
X9670100Y-14625000D01*
X9901875Y-23475000D02*
X9941875Y-23515000D01*
X9941875Y-23475000D02*
X9901875Y-23515000D01*
X10089200Y-14445300D02*
X10129200Y-14485300D01*
X10129200Y-14445300D02*
X10089200Y-14485300D01*
X10317800Y-13111800D02*
X10357800Y-13151800D01*
X10357800Y-13111800D02*
X10317800Y-13151800D01*
X10597200Y-13670600D02*
X10637200Y-13710600D01*
X10637200Y-13670600D02*
X10597200Y-13710600D01*
X10851200Y-13398704D02*
X10891200Y-13438704D01*
X10891200Y-13398704D02*
X10851200Y-13438704D01*
X10854375Y-24338600D02*
X10894375Y-24378600D01*
X10894375Y-24338600D02*
X10854375Y-24378600D01*
X11016300Y-13518200D02*
X11056300Y-13558200D01*
X11056300Y-13518200D02*
X11016300Y-13558200D01*
X11105200Y-13442000D02*
X11145200Y-13482000D01*
X11145200Y-13442000D02*
X11105200Y-13482000D01*
X11257600Y-13492800D02*
X11297600Y-13532800D01*
X11297600Y-13492800D02*
X11257600Y-13532800D01*
X11623360Y-14108750D02*
X11663360Y-14148750D01*
X11663360Y-14108750D02*
X11623360Y-14148750D01*
X11740200Y-12921300D02*
X11780200Y-12961300D01*
X11780200Y-12921300D02*
X11740200Y-12961300D01*
X12283125Y-12838750D02*
X12323125Y-12878750D01*
X12323125Y-12838750D02*
X12283125Y-12878750D01*
X13632500Y-21252500D02*
X13672500Y-21292500D01*
X13672500Y-21252500D02*
X13632500Y-21292500D01*
X13701080Y-14051600D02*
X13741080Y-14091600D01*
X13741080Y-14051600D02*
X13701080Y-14091600D01*
X15181900Y-14305600D02*
X15221900Y-14345600D01*
X15221900Y-14305600D02*
X15181900Y-14345600D01*
X16490000Y-23208300D02*
X16530000Y-23248300D01*
X16530000Y-23208300D02*
X16490000Y-23248300D01*
X16528100Y-13696000D02*
X16568100Y-13736000D01*
X16568100Y-13696000D02*
X16528100Y-13736000D01*
X16569375Y-24300500D02*
X16609375Y-24340500D01*
X16609375Y-24300500D02*
X16569375Y-24340500D01*
X16998000Y-13950000D02*
X17038000Y-13990000D01*
X17038000Y-13950000D02*
X16998000Y-13990000D01*
X17204375Y-23316250D02*
X17244375Y-23356250D01*
X17244375Y-23316250D02*
X17204375Y-23356250D01*
X17315500Y-13950000D02*
X17355500Y-13990000D01*
X17355500Y-13950000D02*
X17315500Y-13990000D01*
X17633000Y-13950000D02*
X17673000Y-13990000D01*
X17673000Y-13950000D02*
X17633000Y-13990000D01*
X22363750Y-24348125D02*
X22403750Y-24388125D01*
X22403750Y-24348125D02*
X22363750Y-24388125D01*
X22760625Y-18950625D02*
X22800625Y-18990625D01*
X22800625Y-18950625D02*
X22760625Y-18990625D01*
X25141875Y-20776250D02*
X25181875Y-20816250D01*
X25181875Y-20776250D02*
X25141875Y-20816250D01*
X29110625Y-15616875D02*
X29150625Y-15656875D01*
X29150625Y-15616875D02*
X29110625Y-15656875D01*
X33238125Y-16807500D02*
X33278125Y-16847500D01*
X33278125Y-16807500D02*
X33238125Y-16847500D01*
X10832600Y-13078125D02*
X10872600Y-13118125D01*
X10872600Y-13078125D02*
X10832600Y-13118125D01*
X10833100Y-13210625D02*
X10873100Y-13250625D01*
X10873100Y-13210625D02*
X10833100Y-13250625D01*
X10917600Y-13078125D02*
X10957600Y-13118125D01*
X10957600Y-13078125D02*
X10917600Y-13118125D01*
X10918100Y-13210625D02*
X10958100Y-13250625D01*
X10958100Y-13210625D02*
X10918100Y-13250625D01*
X11002600Y-13078125D02*
X11042600Y-13118125D01*
X11042600Y-13078125D02*
X11002600Y-13118125D01*
X11003100Y-13210625D02*
X11043100Y-13250625D01*
X11043100Y-13210625D02*
X11003100Y-13250625D01*
X11087600Y-13078125D02*
X11127600Y-13118125D01*
X11127600Y-13078125D02*
X11087600Y-13118125D01*
X11088100Y-13210625D02*
X11128100Y-13250625D01*
X11128100Y-13210625D02*
X11088100Y-13250625D01*
X11172600Y-13078125D02*
X11212600Y-13118125D01*
X11212600Y-13078125D02*
X11172600Y-13118125D01*
X11173100Y-13210625D02*
X11213100Y-13250625D01*
X11213100Y-13210625D02*
X11173100Y-13250625D01*
X11257600Y-13078125D02*
X11297600Y-13118125D01*
X11297600Y-13078125D02*
X11257600Y-13118125D01*
X11258100Y-13210625D02*
X11298100Y-13250625D01*
X11298100Y-13210625D02*
X11258100Y-13250625D01*
X11342600Y-13078125D02*
X11382600Y-13118125D01*
X11382600Y-13078125D02*
X11342600Y-13118125D01*
X11343100Y-13210625D02*
X11383100Y-13250625D01*
X11383100Y-13210625D02*
X11343100Y-13250625D01*
X11428100Y-13078125D02*
X11468100Y-13118125D01*
X11468100Y-13078125D02*
X11428100Y-13118125D01*
X11428100Y-13210625D02*
X11468100Y-13250625D01*
X11468100Y-13210625D02*
X11428100Y-13250625D01*
X11117100Y-14058125D02*
G75*
G03*
X11117100Y-14058125I-30000J0D01*
G01*
X11117100Y-14208125D02*
G75*
G03*
X11117100Y-14208125I-30000J0D01*
G01*
X10748100Y-12794625D02*
G75*
G03*
X10748100Y-12794625I-30000J0D01*
G01*
X10738100Y-12834625D02*
X10738100Y-12754625D01*
X10698100Y-12834625D02*
X10698100Y-12754625D01*
X10738100Y-12754625D02*
G75*
G03*
X10698100Y-12754625I-20000J0D01*
G01*
X10698100Y-12834625D02*
G75*
G03*
X10738100Y-12834625I20000J0D01*
G01*
X10748100Y-13132625D02*
G75*
G03*
X10748100Y-13132625I-30000J0D01*
G01*
X10738100Y-13207625D02*
X10738100Y-13057625D01*
X10698100Y-13207625D02*
X10698100Y-13057625D01*
X10738100Y-13057625D02*
G75*
G03*
X10698100Y-13057625I-20000J0D01*
G01*
X10698100Y-13207625D02*
G75*
G03*
X10738100Y-13207625I20000J0D01*
G01*
X11613100Y-12794625D02*
G75*
G03*
X11613100Y-12794625I-30000J0D01*
G01*
X11603100Y-12834625D02*
X11603100Y-12754625D01*
X11563100Y-12834625D02*
X11563100Y-12754625D01*
X11603100Y-12754625D02*
G75*
G03*
X11563100Y-12754625I-20000J0D01*
G01*
X11563100Y-12834625D02*
G75*
G03*
X11603100Y-12834625I20000J0D01*
G01*
X11613100Y-13132625D02*
G75*
G03*
X11613100Y-13132625I-30000J0D01*
G01*
X11603100Y-13207625D02*
X11603100Y-13057625D01*
X11563100Y-13207625D02*
X11563100Y-13057625D01*
X11603100Y-13057625D02*
G75*
G03*
X11563100Y-13057625I-20000J0D01*
G01*
X11563100Y-13207625D02*
G75*
G03*
X11603100Y-13207625I20000J0D01*
G01*
X9889358Y-14049706D02*
X9889358Y-14119706D01*
X9854358Y-14084706D02*
X9924358Y-14084706D01*
X10397358Y-14049706D02*
X10397358Y-14119706D01*
X10362358Y-14084706D02*
X10432358Y-14084706D01*
X9890125Y-13287300D02*
X9890125Y-13357300D01*
X9855125Y-13322300D02*
X9925125Y-13322300D01*
X10398125Y-13287300D02*
X10398125Y-13357300D01*
X10363125Y-13322300D02*
X10433125Y-13322300D01*
X9890125Y-13795300D02*
X9890125Y-13865300D01*
X9855125Y-13830300D02*
X9925125Y-13830300D01*
X10398125Y-13795300D02*
X10398125Y-13865300D01*
X10363125Y-13830300D02*
X10433125Y-13830300D01*
X9232900Y-12744375D02*
X9232900Y-12814375D01*
X9197900Y-12779375D02*
X9267900Y-12779375D01*
X9740900Y-12744375D02*
X9740900Y-12814375D01*
X9705900Y-12779375D02*
X9775900Y-12779375D01*
X11976100Y-12585625D02*
X11976100Y-12655625D01*
X11941100Y-12620625D02*
X12011100Y-12620625D01*
X11976100Y-13095625D02*
X11976100Y-13165625D01*
X11941100Y-13130625D02*
X12011100Y-13130625D01*
X9890125Y-14303300D02*
X9890125Y-14373300D01*
X9855125Y-14338300D02*
X9925125Y-14338300D01*
X10398125Y-14303300D02*
X10398125Y-14373300D01*
X10363125Y-14338300D02*
X10433125Y-14338300D01*
X9890125Y-14557300D02*
X9890125Y-14627300D01*
X9855125Y-14592300D02*
X9925125Y-14592300D01*
X10398125Y-14557300D02*
X10398125Y-14627300D01*
X10363125Y-14592300D02*
X10433125Y-14592300D01*
X9889973Y-13541879D02*
X9889973Y-13611879D01*
X9854973Y-13576879D02*
X9924973Y-13576879D01*
X10397973Y-13541879D02*
X10397973Y-13611879D01*
X10362973Y-13576879D02*
X10432973Y-13576879D01*
X33650191Y-20648566D02*
X33650191Y-20594684D01*
X33596309Y-20594684D01*
X33596309Y-20648566D01*
X33650191Y-20648566D01*
X33904191Y-20648566D02*
X33904191Y-20594684D01*
X33850309Y-20594684D01*
X33850309Y-20648566D01*
X33904191Y-20648566D01*
X34158191Y-20648566D02*
X34158191Y-20594684D01*
X34104309Y-20594684D01*
X34104309Y-20648566D01*
X34158191Y-20648566D01*
X34412191Y-20648566D02*
X34412191Y-20594684D01*
X34358309Y-20594684D01*
X34358309Y-20648566D01*
X34412191Y-20648566D01*
X33656541Y-17768841D02*
X33656541Y-17714959D01*
X33602659Y-17714959D01*
X33602659Y-17768841D01*
X33656541Y-17768841D01*
X33910541Y-17768841D02*
X33910541Y-17714959D01*
X33856659Y-17714959D01*
X33856659Y-17768841D01*
X33910541Y-17768841D01*
X34164541Y-17768841D02*
X34164541Y-17714959D01*
X34110659Y-17714959D01*
X34110659Y-17768841D01*
X34164541Y-17768841D01*
X34418541Y-17768841D02*
X34418541Y-17714959D01*
X34364659Y-17714959D01*
X34364659Y-17768841D01*
X34418541Y-17768841D01*
X21780500Y-13930625D02*
X21820500Y-13890625D01*
X21780500Y-13850625D01*
X21740500Y-13890625D01*
X21780500Y-13930625D01*
X21780500Y-14692625D02*
X21820500Y-14652625D01*
X21780500Y-14612625D01*
X21740500Y-14652625D01*
X21780500Y-14692625D01*
X5784530Y-12831440D02*
X5824530Y-12791440D01*
X5784530Y-12751440D01*
X5744530Y-12791440D01*
X5784530Y-12831440D01*
X6272530Y-12831440D02*
X6312530Y-12791440D01*
X6272530Y-12751440D01*
X6232530Y-12791440D01*
X6272530Y-12831440D01*
X27495500Y-13613125D02*
X27535500Y-13573125D01*
X27495500Y-13533125D01*
X27455500Y-13573125D01*
X27495500Y-13613125D01*
X27495500Y-14375125D02*
X27535500Y-14335125D01*
X27495500Y-14295125D01*
X27455500Y-14335125D01*
X27495500Y-14375125D01*
X20831175Y-13771875D02*
X20871175Y-13731875D01*
X20831175Y-13691875D01*
X20791175Y-13731875D01*
X20831175Y-13771875D01*
X20831175Y-14533875D02*
X20871175Y-14493875D01*
X20831175Y-14453875D01*
X20791175Y-14493875D01*
X20831175Y-14533875D01*
X17338675Y-13613125D02*
X17378675Y-13573125D01*
X17338675Y-13533125D01*
X17298675Y-13573125D01*
X17338675Y-13613125D01*
X17338675Y-14375125D02*
X17378675Y-14335125D01*
X17338675Y-14295125D01*
X17298675Y-14335125D01*
X17338675Y-14375125D01*
X31940500Y-13930625D02*
X31980500Y-13890625D01*
X31940500Y-13850625D01*
X31900500Y-13890625D01*
X31940500Y-13930625D01*
X31940500Y-14692625D02*
X31980500Y-14652625D01*
X31940500Y-14612625D01*
X31900500Y-14652625D01*
X31940500Y-14692625D01*
X14338300Y-13692500D02*
X14378300Y-13652500D01*
X14338300Y-13612500D01*
X14298300Y-13652500D01*
X14338300Y-13692500D01*
X14338300Y-14454500D02*
X14378300Y-14414500D01*
X14338300Y-14374500D01*
X14298300Y-14414500D01*
X14338300Y-14454500D01*
X33515300Y-13771875D02*
X33555300Y-13731875D01*
X33515300Y-13691875D01*
X33475300Y-13731875D01*
X33515300Y-13771875D01*
X33515300Y-14533875D02*
X33555300Y-14493875D01*
X33515300Y-14453875D01*
X33475300Y-14493875D01*
X33515300Y-14533875D01*
X26225500Y-13613125D02*
X26265500Y-13573125D01*
X26225500Y-13533125D01*
X26185500Y-13573125D01*
X26225500Y-13613125D01*
X26225500Y-14375125D02*
X26265500Y-14335125D01*
X26225500Y-14295125D01*
X26185500Y-14335125D01*
X26225500Y-14375125D01*
X16703675Y-13930625D02*
X16743675Y-13890625D01*
X16703675Y-13850625D01*
X16663675Y-13890625D01*
X16703675Y-13930625D01*
X16703675Y-14692625D02*
X16743675Y-14652625D01*
X16703675Y-14612625D01*
X16663675Y-14652625D01*
X16703675Y-14692625D01*
X14658975Y-13692500D02*
X14698975Y-13652500D01*
X14658975Y-13612500D01*
X14618975Y-13652500D01*
X14658975Y-13692500D01*
X14658975Y-14454500D02*
X14698975Y-14414500D01*
X14658975Y-14374500D01*
X14618975Y-14414500D01*
X14658975Y-14454500D01*
X17021175Y-13771875D02*
X17061175Y-13731875D01*
X17021175Y-13691875D01*
X16981175Y-13731875D01*
X17021175Y-13771875D01*
X17021175Y-14533875D02*
X17061175Y-14493875D01*
X17021175Y-14453875D01*
X16981175Y-14493875D01*
X17021175Y-14533875D01*
X15430500Y-13933800D02*
X15470500Y-13893800D01*
X15430500Y-13853800D01*
X15390500Y-13893800D01*
X15430500Y-13933800D01*
X15430500Y-14695800D02*
X15470500Y-14655800D01*
X15430500Y-14615800D01*
X15390500Y-14655800D01*
X15430500Y-14695800D01*
X25590500Y-13930625D02*
X25630500Y-13890625D01*
X25590500Y-13850625D01*
X25550500Y-13890625D01*
X25590500Y-13930625D01*
X25590500Y-14692625D02*
X25630500Y-14652625D01*
X25590500Y-14612625D01*
X25550500Y-14652625D01*
X25590500Y-14692625D01*
X29400500Y-13930625D02*
X29440500Y-13890625D01*
X29400500Y-13850625D01*
X29360500Y-13890625D01*
X29400500Y-13930625D01*
X29400500Y-14692625D02*
X29440500Y-14652625D01*
X29400500Y-14612625D01*
X29360500Y-14652625D01*
X29400500Y-14692625D01*
X22733000Y-13454375D02*
X22773000Y-13414375D01*
X22733000Y-13374375D01*
X22693000Y-13414375D01*
X22733000Y-13454375D01*
X22733000Y-14216375D02*
X22773000Y-14176375D01*
X22733000Y-14136375D01*
X22693000Y-14176375D01*
X22733000Y-14216375D01*
X16068675Y-13613125D02*
X16108675Y-13573125D01*
X16068675Y-13533125D01*
X16028675Y-13573125D01*
X16068675Y-13613125D01*
X16068675Y-14375125D02*
X16108675Y-14335125D01*
X16068675Y-14295125D01*
X16028675Y-14335125D01*
X16068675Y-14375125D01*
X6389750Y-14975200D02*
X6429750Y-14935200D01*
X6389750Y-14895200D01*
X6349750Y-14935200D01*
X6389750Y-14975200D01*
X6889750Y-14975200D02*
X6929750Y-14935200D01*
X6889750Y-14895200D01*
X6849750Y-14935200D01*
X6889750Y-14975200D01*
X32880300Y-13454375D02*
X32920300Y-13414375D01*
X32880300Y-13374375D01*
X32840300Y-13414375D01*
X32880300Y-13454375D01*
X32880300Y-14216375D02*
X32920300Y-14176375D01*
X32880300Y-14136375D01*
X32840300Y-14176375D01*
X32880300Y-14216375D01*
X14973300Y-13692500D02*
X15013300Y-13652500D01*
X14973300Y-13612500D01*
X14933300Y-13652500D01*
X14973300Y-13692500D01*
X14973300Y-14454500D02*
X15013300Y-14414500D01*
X14973300Y-14374500D01*
X14933300Y-14414500D01*
X14973300Y-14454500D01*
X19243675Y-13930625D02*
X19283675Y-13890625D01*
X19243675Y-13850625D01*
X19203675Y-13890625D01*
X19243675Y-13930625D01*
X19243675Y-14692625D02*
X19283675Y-14652625D01*
X19243675Y-14612625D01*
X19203675Y-14652625D01*
X19243675Y-14692625D01*
X17973675Y-13930625D02*
X18013675Y-13890625D01*
X17973675Y-13850625D01*
X17933675Y-13890625D01*
X17973675Y-13930625D01*
X17973675Y-14692625D02*
X18013675Y-14652625D01*
X17973675Y-14612625D01*
X17933675Y-14652625D01*
X17973675Y-14692625D01*
X28448000Y-13771875D02*
X28488000Y-13731875D01*
X28448000Y-13691875D01*
X28408000Y-13731875D01*
X28448000Y-13771875D01*
X28448000Y-14533875D02*
X28488000Y-14493875D01*
X28448000Y-14453875D01*
X28408000Y-14493875D01*
X28448000Y-14533875D01*
X26860500Y-13930625D02*
X26900500Y-13890625D01*
X26860500Y-13850625D01*
X26820500Y-13890625D01*
X26860500Y-13930625D01*
X26860500Y-14692625D02*
X26900500Y-14652625D01*
X26860500Y-14612625D01*
X26820500Y-14652625D01*
X26860500Y-14692625D01*
X18926175Y-13454375D02*
X18966175Y-13414375D01*
X18926175Y-13374375D01*
X18886175Y-13414375D01*
X18926175Y-13454375D01*
X18926175Y-14216375D02*
X18966175Y-14176375D01*
X18926175Y-14136375D01*
X18886175Y-14176375D01*
X18926175Y-14216375D01*
X26543000Y-13454375D02*
X26583000Y-13414375D01*
X26543000Y-13374375D01*
X26503000Y-13414375D01*
X26543000Y-13454375D01*
X26543000Y-14216375D02*
X26583000Y-14176375D01*
X26543000Y-14136375D01*
X26503000Y-14176375D01*
X26543000Y-14216375D01*
X18291175Y-13771875D02*
X18331175Y-13731875D01*
X18291175Y-13691875D01*
X18251175Y-13731875D01*
X18291175Y-13771875D01*
X18291175Y-14533875D02*
X18331175Y-14493875D01*
X18291175Y-14453875D01*
X18251175Y-14493875D01*
X18291175Y-14533875D01*
X24320500Y-13930625D02*
X24360500Y-13890625D01*
X24320500Y-13850625D01*
X24280500Y-13890625D01*
X24320500Y-13930625D01*
X24320500Y-14692625D02*
X24360500Y-14652625D01*
X24320500Y-14612625D01*
X24280500Y-14652625D01*
X24320500Y-14692625D01*
X31623000Y-13454375D02*
X31663000Y-13414375D01*
X31623000Y-13374375D01*
X31583000Y-13414375D01*
X31623000Y-13454375D01*
X31623000Y-14216375D02*
X31663000Y-14176375D01*
X31623000Y-14136375D01*
X31583000Y-14176375D01*
X31623000Y-14216375D01*
X25908000Y-13771875D02*
X25948000Y-13731875D01*
X25908000Y-13691875D01*
X25868000Y-13731875D01*
X25908000Y-13771875D01*
X25908000Y-14533875D02*
X25948000Y-14493875D01*
X25908000Y-14453875D01*
X25868000Y-14493875D01*
X25908000Y-14533875D01*
X4603887Y-13220678D02*
X4643887Y-13180678D01*
X4603887Y-13140678D01*
X4563887Y-13180678D01*
X4603887Y-13220678D01*
X4603887Y-14744678D02*
X4643887Y-14704678D01*
X4603887Y-14664678D01*
X4563887Y-14704678D01*
X4603887Y-14744678D01*
X4857887Y-13220678D02*
X4897887Y-13180678D01*
X4857887Y-13140678D01*
X4817887Y-13180678D01*
X4857887Y-13220678D01*
X4857887Y-14744678D02*
X4897887Y-14704678D01*
X4857887Y-14664678D01*
X4817887Y-14704678D01*
X4857887Y-14744678D01*
X5111887Y-13220678D02*
X5151887Y-13180678D01*
X5111887Y-13140678D01*
X5071887Y-13180678D01*
X5111887Y-13220678D01*
X5111887Y-14744678D02*
X5151887Y-14704678D01*
X5111887Y-14664678D01*
X5071887Y-14704678D01*
X5111887Y-14744678D01*
X5365887Y-13220678D02*
X5405887Y-13180678D01*
X5365887Y-13140678D01*
X5325887Y-13180678D01*
X5365887Y-13220678D01*
X5365887Y-14744678D02*
X5405887Y-14704678D01*
X5365887Y-14664678D01*
X5325887Y-14704678D01*
X5365887Y-14744678D01*
X5619886Y-13220678D02*
X5659886Y-13180678D01*
X5619886Y-13140678D01*
X5579887Y-13180678D01*
X5619886Y-13220678D01*
X5619886Y-14744678D02*
X5659886Y-14704678D01*
X5619886Y-14664678D01*
X5579887Y-14704678D01*
X5619886Y-14744678D01*
X5873886Y-13220678D02*
X5913886Y-13180678D01*
X5873886Y-13140678D01*
X5833886Y-13180678D01*
X5873886Y-13220678D01*
X5873886Y-14744678D02*
X5913886Y-14704678D01*
X5873886Y-14664678D01*
X5833886Y-14704678D01*
X5873886Y-14744678D01*
X6127886Y-13220678D02*
X6167886Y-13180678D01*
X6127886Y-13140678D01*
X6087886Y-13180678D01*
X6127886Y-13220678D01*
X6127886Y-14744678D02*
X6167886Y-14704678D01*
X6127886Y-14664678D01*
X6087886Y-14704678D01*
X6127886Y-14744678D01*
X6381886Y-13220678D02*
X6421886Y-13180678D01*
X6381886Y-13140678D01*
X6341886Y-13180678D01*
X6381886Y-13220678D01*
X6381886Y-14744678D02*
X6421886Y-14704678D01*
X6381886Y-14664678D01*
X6341886Y-14704678D01*
X6381886Y-14744678D01*
X6635886Y-13220678D02*
X6675886Y-13180678D01*
X6635886Y-13140678D01*
X6595886Y-13180678D01*
X6635886Y-13220678D01*
X6635886Y-14744678D02*
X6675886Y-14704678D01*
X6635886Y-14664678D01*
X6595886Y-14704678D01*
X6635886Y-14744678D01*
X6889886Y-13220678D02*
X6929886Y-13180678D01*
X6889886Y-13140678D01*
X6849886Y-13180678D01*
X6889886Y-13220678D01*
X6889886Y-14744678D02*
X6929886Y-14704678D01*
X6889886Y-14664678D01*
X6849886Y-14704678D01*
X6889886Y-14744678D01*
X7143886Y-13220678D02*
X7183886Y-13180678D01*
X7143886Y-13140678D01*
X7103886Y-13180678D01*
X7143886Y-13220678D01*
X7143886Y-14744678D02*
X7183886Y-14704678D01*
X7143886Y-14664678D01*
X7103886Y-14704678D01*
X7143886Y-14744678D01*
X7397886Y-13220678D02*
X7437886Y-13180678D01*
X7397886Y-13140678D01*
X7357886Y-13180678D01*
X7397886Y-13220678D01*
X7397886Y-14744678D02*
X7437886Y-14704678D01*
X7397886Y-14664678D01*
X7357886Y-14704678D01*
X7397886Y-14744678D01*
X7651886Y-13220678D02*
X7691886Y-13180678D01*
X7651886Y-13140678D01*
X7611886Y-13180678D01*
X7651886Y-13220678D01*
X7651886Y-14744678D02*
X7691886Y-14704678D01*
X7651886Y-14664678D01*
X7611886Y-14704678D01*
X7651886Y-14744678D01*
X7905886Y-13220678D02*
X7945886Y-13180678D01*
X7905886Y-13140678D01*
X7865886Y-13180678D01*
X7905886Y-13220678D01*
X7905886Y-14744678D02*
X7945886Y-14704678D01*
X7905886Y-14664678D01*
X7865886Y-14704678D01*
X7905886Y-14744678D01*
X8159886Y-13220678D02*
X8199886Y-13180678D01*
X8159886Y-13140678D01*
X8119886Y-13180678D01*
X8159886Y-13220678D01*
X8159886Y-14744678D02*
X8199886Y-14704678D01*
X8159886Y-14664678D01*
X8119886Y-14704678D01*
X8159886Y-14744678D01*
X8413887Y-13220678D02*
X8453887Y-13180678D01*
X8413887Y-13140678D01*
X8373886Y-13180678D01*
X8413887Y-13220678D01*
X8413887Y-14744678D02*
X8453887Y-14704678D01*
X8413887Y-14664678D01*
X8373886Y-14704678D01*
X8413887Y-14744678D01*
X8667887Y-13220678D02*
X8707887Y-13180678D01*
X8667887Y-13140678D01*
X8627887Y-13180678D01*
X8667887Y-13220678D01*
X8667887Y-14744678D02*
X8707887Y-14704678D01*
X8667887Y-14664678D01*
X8627887Y-14704678D01*
X8667887Y-14744678D01*
X8921887Y-13220678D02*
X8961887Y-13180678D01*
X8921887Y-13140678D01*
X8881887Y-13180678D01*
X8921887Y-13220678D01*
X8921887Y-14744678D02*
X8961887Y-14704678D01*
X8921887Y-14664678D01*
X8881887Y-14704678D01*
X8921887Y-14744678D01*
X9175887Y-13220678D02*
X9215887Y-13180678D01*
X9175887Y-13140678D01*
X9135887Y-13180678D01*
X9175887Y-13220678D01*
X9175887Y-14744678D02*
X9215887Y-14704678D01*
X9175887Y-14664678D01*
X9135887Y-14704678D01*
X9175887Y-14744678D01*
X9429887Y-13220678D02*
X9469887Y-13180678D01*
X9429887Y-13140678D01*
X9389887Y-13180678D01*
X9429887Y-13220678D01*
X9429887Y-14744678D02*
X9469887Y-14704678D01*
X9429887Y-14664678D01*
X9389887Y-14704678D01*
X9429887Y-14744678D01*
X7170800Y-12841600D02*
X7210800Y-12801600D01*
X7170800Y-12761600D01*
X7130800Y-12801600D01*
X7170800Y-12841600D01*
X7670800Y-12841600D02*
X7710800Y-12801600D01*
X7670800Y-12761600D01*
X7630800Y-12801600D01*
X7670800Y-12841600D01*
X12065000Y-13749650D02*
X12105000Y-13709650D01*
X12065000Y-13669650D01*
X12025000Y-13709650D01*
X12065000Y-13749650D01*
X12827000Y-13749650D02*
X12867000Y-13709650D01*
X12827000Y-13669650D01*
X12787000Y-13709650D01*
X12827000Y-13749650D01*
X18608675Y-13613125D02*
X18648675Y-13573125D01*
X18608675Y-13533125D01*
X18568675Y-13573125D01*
X18608675Y-13613125D01*
X18608675Y-14375125D02*
X18648675Y-14335125D01*
X18608675Y-14295125D01*
X18568675Y-14335125D01*
X18608675Y-14375125D01*
X28765500Y-13613125D02*
X28805500Y-13573125D01*
X28765500Y-13533125D01*
X28725500Y-13573125D01*
X28765500Y-13613125D01*
X28765500Y-14375125D02*
X28805500Y-14335125D01*
X28765500Y-14295125D01*
X28725500Y-14335125D01*
X28765500Y-14375125D01*
X34147125Y-13454375D02*
X34187125Y-13414375D01*
X34147125Y-13374375D01*
X34107125Y-13414375D01*
X34147125Y-13454375D01*
X34147125Y-14216375D02*
X34187125Y-14176375D01*
X34147125Y-14136375D01*
X34107125Y-14176375D01*
X34147125Y-14216375D01*
X17656175Y-13454375D02*
X17696175Y-13414375D01*
X17656175Y-13374375D01*
X17616175Y-13414375D01*
X17656175Y-13454375D01*
X17656175Y-14216375D02*
X17696175Y-14176375D01*
X17656175Y-14136375D01*
X17616175Y-14176375D01*
X17656175Y-14216375D01*
X34467800Y-13933800D02*
X34507800Y-13893800D01*
X34467800Y-13853800D01*
X34427800Y-13893800D01*
X34467800Y-13933800D01*
X34467800Y-14695800D02*
X34507800Y-14655800D01*
X34467800Y-14615800D01*
X34427800Y-14655800D01*
X34467800Y-14695800D01*
X19561175Y-13771875D02*
X19601175Y-13731875D01*
X19561175Y-13691875D01*
X19521175Y-13731875D01*
X19561175Y-13771875D01*
X19561175Y-14533875D02*
X19601175Y-14493875D01*
X19561175Y-14453875D01*
X19521175Y-14493875D01*
X19561175Y-14533875D01*
X5294630Y-12717775D02*
X5334630Y-12677775D01*
X5294630Y-12637775D01*
X5254630Y-12677775D01*
X5294630Y-12717775D01*
X5294630Y-12967775D02*
X5334630Y-12927775D01*
X5294630Y-12887775D01*
X5254630Y-12927775D01*
X5294630Y-12967775D01*
X24003000Y-13454375D02*
X24043000Y-13414375D01*
X24003000Y-13374375D01*
X23963000Y-13414375D01*
X24003000Y-13454375D01*
X24003000Y-14216375D02*
X24043000Y-14176375D01*
X24003000Y-14136375D01*
X23963000Y-14176375D01*
X24003000Y-14216375D01*
X19878675Y-13613125D02*
X19918675Y-13573125D01*
X19878675Y-13533125D01*
X19838675Y-13573125D01*
X19878675Y-13613125D01*
X19878675Y-14375125D02*
X19918675Y-14335125D01*
X19878675Y-14295125D01*
X19838675Y-14335125D01*
X19878675Y-14375125D01*
X20513675Y-13930625D02*
X20553675Y-13890625D01*
X20513675Y-13850625D01*
X20473675Y-13890625D01*
X20513675Y-13930625D01*
X20513675Y-14692625D02*
X20553675Y-14652625D01*
X20513675Y-14612625D01*
X20473675Y-14652625D01*
X20513675Y-14692625D01*
X6760210Y-12717775D02*
X6800210Y-12677775D01*
X6760210Y-12637775D01*
X6720210Y-12677775D01*
X6760210Y-12717775D01*
X6760210Y-12967775D02*
X6800210Y-12927775D01*
X6760210Y-12887775D01*
X6720210Y-12927775D01*
X6760210Y-12967775D01*
X33629600Y-15441925D02*
X33669600Y-15401925D01*
X33629600Y-15361925D01*
X33589600Y-15401925D01*
X33629600Y-15441925D01*
X34391600Y-15441925D02*
X34431600Y-15401925D01*
X34391600Y-15361925D01*
X34351600Y-15401925D01*
X34391600Y-15441925D01*
X24638000Y-13771875D02*
X24678000Y-13731875D01*
X24638000Y-13691875D01*
X24598000Y-13731875D01*
X24638000Y-13771875D01*
X24638000Y-14533875D02*
X24678000Y-14493875D01*
X24638000Y-14453875D01*
X24598000Y-14493875D01*
X24638000Y-14533875D01*
X21148675Y-13613125D02*
X21188675Y-13573125D01*
X21148675Y-13533125D01*
X21108675Y-13573125D01*
X21148675Y-13613125D01*
X21148675Y-14375125D02*
X21188675Y-14335125D01*
X21148675Y-14295125D01*
X21108675Y-14335125D01*
X21148675Y-14375125D01*
X20196175Y-13454375D02*
X20236175Y-13414375D01*
X20196175Y-13374375D01*
X20156175Y-13414375D01*
X20196175Y-13454375D01*
X20196175Y-14216375D02*
X20236175Y-14176375D01*
X20196175Y-14136375D01*
X20156175Y-14176375D01*
X20196175Y-14216375D01*
X33197800Y-13930625D02*
X33237800Y-13890625D01*
X33197800Y-13850625D01*
X33157800Y-13890625D01*
X33197800Y-13930625D01*
X33197800Y-14692625D02*
X33237800Y-14652625D01*
X33197800Y-14612625D01*
X33157800Y-14652625D01*
X33197800Y-14692625D01*
X15748000Y-13806800D02*
X15788000Y-13766800D01*
X15748000Y-13726800D01*
X15708000Y-13766800D01*
X15748000Y-13806800D01*
X15748000Y-14568800D02*
X15788000Y-14528800D01*
X15748000Y-14488800D01*
X15708000Y-14528800D01*
X15748000Y-14568800D01*
X27813000Y-13454375D02*
X27853000Y-13414375D01*
X27813000Y-13374375D01*
X27773000Y-13414375D01*
X27813000Y-13454375D01*
X27813000Y-14216375D02*
X27853000Y-14176375D01*
X27813000Y-14136375D01*
X27773000Y-14176375D01*
X27813000Y-14216375D01*
X27178000Y-13771875D02*
X27218000Y-13731875D01*
X27178000Y-13691875D01*
X27138000Y-13731875D01*
X27178000Y-13771875D01*
X27178000Y-14533875D02*
X27218000Y-14493875D01*
X27178000Y-14453875D01*
X27138000Y-14493875D01*
X27178000Y-14533875D01*
X16386175Y-13454375D02*
X16426175Y-13414375D01*
X16386175Y-13374375D01*
X16346175Y-13414375D01*
X16386175Y-13454375D01*
X16386175Y-14216375D02*
X16426175Y-14176375D01*
X16386175Y-14136375D01*
X16346175Y-14176375D01*
X16386175Y-14216375D01*
X29083000Y-13454375D02*
X29123000Y-13414375D01*
X29083000Y-13374375D01*
X29043000Y-13414375D01*
X29083000Y-13454375D01*
X29083000Y-14216375D02*
X29123000Y-14176375D01*
X29083000Y-14136375D01*
X29043000Y-14176375D01*
X29083000Y-14216375D01*
X29718000Y-13771875D02*
X29758000Y-13731875D01*
X29718000Y-13691875D01*
X29678000Y-13731875D01*
X29718000Y-13771875D01*
X29718000Y-14533875D02*
X29758000Y-14493875D01*
X29718000Y-14453875D01*
X29678000Y-14493875D01*
X29718000Y-14533875D01*
X14020800Y-13692500D02*
X14060800Y-13652500D01*
X14020800Y-13612500D01*
X13980800Y-13652500D01*
X14020800Y-13692500D01*
X14020800Y-14454500D02*
X14060800Y-14414500D01*
X14020800Y-14374500D01*
X13980800Y-14414500D01*
X14020800Y-14454500D01*
X12065000Y-14044925D02*
X12105000Y-14004925D01*
X12065000Y-13964925D01*
X12025000Y-14004925D01*
X12065000Y-14044925D01*
X12827000Y-14044925D02*
X12867000Y-14004925D01*
X12827000Y-13964925D01*
X12787000Y-14004925D01*
X12827000Y-14044925D01*
X23685500Y-13613125D02*
X23725500Y-13573125D01*
X23685500Y-13533125D01*
X23645500Y-13573125D01*
X23685500Y-13613125D01*
X23685500Y-14375125D02*
X23725500Y-14335125D01*
X23685500Y-14295125D01*
X23645500Y-14335125D01*
X23685500Y-14375125D01*
X22415500Y-13613125D02*
X22455500Y-13573125D01*
X22415500Y-13533125D01*
X22375500Y-13573125D01*
X22415500Y-13613125D01*
X22415500Y-14375125D02*
X22455500Y-14335125D01*
X22415500Y-14295125D01*
X22375500Y-14335125D01*
X22415500Y-14375125D01*
X28130500Y-13930625D02*
X28170500Y-13890625D01*
X28130500Y-13850625D01*
X28090500Y-13890625D01*
X28130500Y-13930625D01*
X28130500Y-14692625D02*
X28170500Y-14652625D01*
X28130500Y-14612625D01*
X28090500Y-14652625D01*
X28130500Y-14692625D01*
X30353000Y-13454375D02*
X30393000Y-13414375D01*
X30353000Y-13374375D01*
X30313000Y-13414375D01*
X30353000Y-13454375D01*
X30353000Y-14216375D02*
X30393000Y-14176375D01*
X30353000Y-14136375D01*
X30313000Y-14176375D01*
X30353000Y-14216375D01*
X30035500Y-13613125D02*
X30075500Y-13573125D01*
X30035500Y-13533125D01*
X29995500Y-13573125D01*
X30035500Y-13613125D01*
X30035500Y-14375125D02*
X30075500Y-14335125D01*
X30035500Y-14295125D01*
X29995500Y-14335125D01*
X30035500Y-14375125D01*
X33829625Y-13613125D02*
X33869625Y-13573125D01*
X33829625Y-13533125D01*
X33789625Y-13573125D01*
X33829625Y-13613125D01*
X33829625Y-14375125D02*
X33869625Y-14335125D01*
X33829625Y-14295125D01*
X33789625Y-14335125D01*
X33829625Y-14375125D01*
X21463000Y-13454375D02*
X21503000Y-13414375D01*
X21463000Y-13374375D01*
X21423000Y-13414375D01*
X21463000Y-13454375D01*
X21463000Y-14216375D02*
X21503000Y-14176375D01*
X21463000Y-14136375D01*
X21423000Y-14176375D01*
X21463000Y-14216375D01*
X34785300Y-13771875D02*
X34825300Y-13731875D01*
X34785300Y-13691875D01*
X34745300Y-13731875D01*
X34785300Y-13771875D01*
X34785300Y-14533875D02*
X34825300Y-14493875D01*
X34785300Y-14453875D01*
X34745300Y-14493875D01*
X34785300Y-14533875D01*
X30988000Y-13771875D02*
X31028000Y-13731875D01*
X30988000Y-13691875D01*
X30948000Y-13731875D01*
X30988000Y-13771875D01*
X30988000Y-14533875D02*
X31028000Y-14493875D01*
X30988000Y-14453875D01*
X30948000Y-14493875D01*
X30988000Y-14533875D01*
X24955500Y-13613125D02*
X24995500Y-13573125D01*
X24955500Y-13533125D01*
X24915500Y-13573125D01*
X24955500Y-13613125D01*
X24955500Y-14375125D02*
X24995500Y-14335125D01*
X24955500Y-14295125D01*
X24915500Y-14335125D01*
X24955500Y-14375125D01*
X23368000Y-13771875D02*
X23408000Y-13731875D01*
X23368000Y-13691875D01*
X23328000Y-13731875D01*
X23368000Y-13771875D01*
X23368000Y-14533875D02*
X23408000Y-14493875D01*
X23368000Y-14453875D01*
X23328000Y-14493875D01*
X23368000Y-14533875D01*
X31305500Y-13613125D02*
X31345500Y-13573125D01*
X31305500Y-13533125D01*
X31265500Y-13573125D01*
X31305500Y-13613125D01*
X31305500Y-14375125D02*
X31345500Y-14335125D01*
X31305500Y-14295125D01*
X31265500Y-14335125D01*
X31305500Y-14375125D01*
X25273000Y-13454375D02*
X25313000Y-13414375D01*
X25273000Y-13374375D01*
X25233000Y-13414375D01*
X25273000Y-13454375D01*
X25273000Y-14216375D02*
X25313000Y-14176375D01*
X25273000Y-14136375D01*
X25233000Y-14176375D01*
X25273000Y-14216375D01*
X30670500Y-13930625D02*
X30710500Y-13890625D01*
X30670500Y-13850625D01*
X30630500Y-13890625D01*
X30670500Y-13930625D01*
X30670500Y-14692625D02*
X30710500Y-14652625D01*
X30670500Y-14612625D01*
X30630500Y-14652625D01*
X30670500Y-14692625D01*
X32258000Y-13771875D02*
X32298000Y-13731875D01*
X32258000Y-13691875D01*
X32218000Y-13731875D01*
X32258000Y-13771875D01*
X32258000Y-14533875D02*
X32298000Y-14493875D01*
X32258000Y-14453875D01*
X32218000Y-14493875D01*
X32258000Y-14533875D01*
X22098000Y-13771875D02*
X22138000Y-13731875D01*
X22098000Y-13691875D01*
X22058000Y-13731875D01*
X22098000Y-13771875D01*
X22098000Y-14533875D02*
X22138000Y-14493875D01*
X22098000Y-14453875D01*
X22058000Y-14493875D01*
X22098000Y-14533875D01*
X23050500Y-13930625D02*
X23090500Y-13890625D01*
X23050500Y-13850625D01*
X23010500Y-13890625D01*
X23050500Y-13930625D01*
X23050500Y-14692625D02*
X23090500Y-14652625D01*
X23050500Y-14612625D01*
X23010500Y-14652625D01*
X23050500Y-14692625D01*
X32575500Y-13613125D02*
X32615500Y-13573125D01*
X32575500Y-13533125D01*
X32535500Y-13573125D01*
X32575500Y-13613125D01*
X32575500Y-14375125D02*
X32615500Y-14335125D01*
X32575500Y-14295125D01*
X32535500Y-14335125D01*
X32575500Y-14375125D01*
X10035625Y-12734375D02*
X10125625Y-12824375D01*
X10125625Y-12734375D02*
X10035625Y-12824375D01*
X10125625Y-12779375D02*
G75*
G03*
X10125625Y-12779375I-45000J0D01*
G01*
X10289625Y-12734375D02*
X10379625Y-12824375D01*
X10379625Y-12734375D02*
X10289625Y-12824375D01*
X10379625Y-12779375D02*
G75*
G03*
X10379625Y-12779375I-45000J0D01*
G01*
X33213775Y-15983750D02*
X33313775Y-16083750D01*
X33313775Y-15983750D02*
X33213775Y-16083750D01*
X33263775Y-15983750D02*
X33263775Y-16083750D01*
X33213775Y-16033750D02*
X33313775Y-16033750D01*
X33213775Y-16233750D02*
X33313775Y-16333750D01*
X33313775Y-16233750D02*
X33213775Y-16333750D01*
X33263775Y-16233750D02*
X33263775Y-16333750D01*
X33213775Y-16283750D02*
X33313775Y-16283750D01*
X33213775Y-16483750D02*
X33313775Y-16583750D01*
X33313775Y-16483750D02*
X33213775Y-16583750D01*
X33263775Y-16483750D02*
X33263775Y-16583750D01*
X33213775Y-16533750D02*
X33313775Y-16533750D01*
X34663775Y-15983750D02*
X34763775Y-16083750D01*
X34763775Y-15983750D02*
X34663775Y-16083750D01*
X34713775Y-15983750D02*
X34713775Y-16083750D01*
X34663775Y-16033750D02*
X34763775Y-16033750D01*
X34663775Y-16483750D02*
X34763775Y-16583750D01*
X34763775Y-16483750D02*
X34663775Y-16583750D01*
X34713775Y-16483750D02*
X34713775Y-16583750D01*
X34663775Y-16533750D02*
X34763775Y-16533750D01*
X13462800Y-12662700D02*
X13562800Y-12762700D01*
X13562800Y-12662700D02*
X13462800Y-12762700D01*
X13512800Y-12662700D02*
X13512800Y-12762700D01*
X13462800Y-12712700D02*
X13562800Y-12712700D01*
X13462800Y-12916700D02*
X13562800Y-13016700D01*
X13562800Y-12916700D02*
X13462800Y-13016700D01*
X13512800Y-12916700D02*
X13512800Y-13016700D01*
X13462800Y-12966700D02*
X13562800Y-12966700D01*
X13716800Y-12662700D02*
X13816800Y-12762700D01*
X13816800Y-12662700D02*
X13716800Y-12762700D01*
X13766800Y-12662700D02*
X13766800Y-12762700D01*
X13716800Y-12712700D02*
X13816800Y-12712700D01*
X13716800Y-12916700D02*
X13816800Y-13016700D01*
X13816800Y-12916700D02*
X13716800Y-13016700D01*
X13766800Y-12916700D02*
X13766800Y-13016700D01*
X13716800Y-12966700D02*
X13816800Y-12966700D01*
X13970800Y-12662700D02*
X14070800Y-12762700D01*
X14070800Y-12662700D02*
X13970800Y-12762700D01*
X14020800Y-12662700D02*
X14020800Y-12762700D01*
X13970800Y-12712700D02*
X14070800Y-12712700D01*
X13970800Y-12916700D02*
X14070800Y-13016700D01*
X14070800Y-12916700D02*
X13970800Y-13016700D01*
X14020800Y-12916700D02*
X14020800Y-13016700D01*
X13970800Y-12966700D02*
X14070800Y-12966700D01*
X15487500Y-12619600D02*
X15597500Y-12729600D01*
X15597500Y-12619600D02*
X15487500Y-12729600D01*
X15581391Y-12713491D02*
X15581391Y-12635709D01*
X15503609Y-12635709D01*
X15503609Y-12713491D01*
X15581391Y-12713491D01*
X15487500Y-13069600D02*
X15597500Y-13179600D01*
X15597500Y-13069600D02*
X15487500Y-13179600D01*
X15581391Y-13163491D02*
X15581391Y-13085709D01*
X15503609Y-13085709D01*
X15503609Y-13163491D01*
X15581391Y-13163491D01*
X16137500Y-12619600D02*
X16247500Y-12729600D01*
X16247500Y-12619600D02*
X16137500Y-12729600D01*
X16231391Y-12713491D02*
X16231391Y-12635709D01*
X16153609Y-12635709D01*
X16153609Y-12713491D01*
X16231391Y-12713491D01*
X16137500Y-13069600D02*
X16247500Y-13179600D01*
X16247500Y-13069600D02*
X16137500Y-13179600D01*
X16231391Y-13163491D02*
X16231391Y-13085709D01*
X16153609Y-13085709D01*
X16153609Y-13163491D01*
X16231391Y-13163491D01*
X14423000Y-12619600D02*
X14533000Y-12729600D01*
X14533000Y-12619600D02*
X14423000Y-12729600D01*
X14516891Y-12713491D02*
X14516891Y-12635709D01*
X14439109Y-12635709D01*
X14439109Y-12713491D01*
X14516891Y-12713491D01*
X14423000Y-13069600D02*
X14533000Y-13179600D01*
X14533000Y-13069600D02*
X14423000Y-13179600D01*
X14516891Y-13163491D02*
X14516891Y-13085709D01*
X14439109Y-13085709D01*
X14439109Y-13163491D01*
X14516891Y-13163491D01*
X15073000Y-12619600D02*
X15183000Y-12729600D01*
X15183000Y-12619600D02*
X15073000Y-12729600D01*
X15166891Y-12713491D02*
X15166891Y-12635709D01*
X15089109Y-12635709D01*
X15089109Y-12713491D01*
X15166891Y-12713491D01*
X15073000Y-13069600D02*
X15183000Y-13179600D01*
X15183000Y-13069600D02*
X15073000Y-13179600D01*
X15166891Y-13163491D02*
X15166891Y-13085709D01*
X15089109Y-13085709D01*
X15089109Y-13163491D01*
X15166891Y-13163491D01*
X9229250Y-19595625D02*
X9376250Y-19742625D01*
X9376250Y-19595625D02*
X9229250Y-19742625D01*
X9302750Y-19742625D02*
X9376250Y-19669125D01*
X9302750Y-19595625D01*
X9229250Y-19669125D01*
X9302750Y-19742625D01*
X9864250Y-19341625D02*
X10011250Y-19488625D01*
X10011250Y-19341625D02*
X9864250Y-19488625D01*
X9937750Y-19488625D02*
X10011250Y-19415125D01*
X9937750Y-19341625D01*
X9864250Y-19415125D01*
X9937750Y-19488625D01*
X14468000Y-17690625D02*
X14615000Y-17837625D01*
X14615000Y-17690625D02*
X14468000Y-17837625D01*
X14541500Y-17837625D02*
X14615000Y-17764125D01*
X14541500Y-17690625D01*
X14468000Y-17764125D01*
X14541500Y-17837625D01*
X15103000Y-17436625D02*
X15250000Y-17583625D01*
X15250000Y-17436625D02*
X15103000Y-17583625D01*
X15176500Y-17583625D02*
X15250000Y-17510125D01*
X15176500Y-17436625D01*
X15103000Y-17510125D01*
X15176500Y-17583625D01*
X11610500Y-15785625D02*
X11757500Y-15932625D01*
X11757500Y-15785625D02*
X11610500Y-15932625D01*
X11684000Y-15932625D02*
X11757500Y-15859125D01*
X11684000Y-15785625D01*
X11610500Y-15859125D01*
X11684000Y-15932625D01*
X12245500Y-15531625D02*
X12392500Y-15678625D01*
X12392500Y-15531625D02*
X12245500Y-15678625D01*
X12319000Y-15678625D02*
X12392500Y-15605125D01*
X12319000Y-15531625D01*
X12245500Y-15605125D01*
X12319000Y-15678625D01*
X6609875Y-23405625D02*
X6756875Y-23552625D01*
X6756875Y-23405625D02*
X6609875Y-23552625D01*
X6683375Y-23552625D02*
X6756875Y-23479125D01*
X6683375Y-23405625D01*
X6609875Y-23479125D01*
X6683375Y-23552625D01*
X7244875Y-23151625D02*
X7391875Y-23298625D01*
X7391875Y-23151625D02*
X7244875Y-23298625D01*
X7318375Y-23298625D02*
X7391875Y-23225125D01*
X7318375Y-23151625D01*
X7244875Y-23225125D01*
X7318375Y-23298625D01*
X15420500Y-15785625D02*
X15567500Y-15932625D01*
X15567500Y-15785625D02*
X15420500Y-15932625D01*
X15494000Y-15932625D02*
X15567500Y-15859125D01*
X15494000Y-15785625D01*
X15420500Y-15859125D01*
X15494000Y-15932625D01*
X16055500Y-15531625D02*
X16202500Y-15678625D01*
X16202500Y-15531625D02*
X16055500Y-15678625D01*
X16129000Y-15678625D02*
X16202500Y-15605125D01*
X16129000Y-15531625D01*
X16055500Y-15605125D01*
X16129000Y-15678625D01*
X4466750Y-17690625D02*
X4613750Y-17837625D01*
X4613750Y-17690625D02*
X4466750Y-17837625D01*
X4540250Y-17837625D02*
X4613750Y-17764125D01*
X4540250Y-17690625D01*
X4466750Y-17764125D01*
X4540250Y-17837625D01*
X5101750Y-17436625D02*
X5248750Y-17583625D01*
X5248750Y-17436625D02*
X5101750Y-17583625D01*
X5175250Y-17583625D02*
X5248750Y-17510125D01*
X5175250Y-17436625D01*
X5101750Y-17510125D01*
X5175250Y-17583625D01*
X11134250Y-19595625D02*
X11281250Y-19742625D01*
X11281250Y-19595625D02*
X11134250Y-19742625D01*
X11207750Y-19742625D02*
X11281250Y-19669125D01*
X11207750Y-19595625D01*
X11134250Y-19669125D01*
X11207750Y-19742625D01*
X11769250Y-19341625D02*
X11916250Y-19488625D01*
X11916250Y-19341625D02*
X11769250Y-19488625D01*
X11842750Y-19488625D02*
X11916250Y-19415125D01*
X11842750Y-19341625D01*
X11769250Y-19415125D01*
X11842750Y-19488625D01*
X23278625Y-23405625D02*
X23425625Y-23552625D01*
X23425625Y-23405625D02*
X23278625Y-23552625D01*
X23352125Y-23552625D02*
X23425625Y-23479125D01*
X23352125Y-23405625D01*
X23278625Y-23479125D01*
X23352125Y-23552625D01*
X23913625Y-23151625D02*
X24060625Y-23298625D01*
X24060625Y-23151625D02*
X23913625Y-23298625D01*
X23987125Y-23298625D02*
X24060625Y-23225125D01*
X23987125Y-23151625D01*
X23913625Y-23225125D01*
X23987125Y-23298625D01*
X9229250Y-23405625D02*
X9376250Y-23552625D01*
X9376250Y-23405625D02*
X9229250Y-23552625D01*
X9302750Y-23552625D02*
X9376250Y-23479125D01*
X9302750Y-23405625D01*
X9229250Y-23479125D01*
X9302750Y-23552625D01*
X9864250Y-23151625D02*
X10011250Y-23298625D01*
X10011250Y-23151625D02*
X9864250Y-23298625D01*
X9937750Y-23298625D02*
X10011250Y-23225125D01*
X9937750Y-23151625D01*
X9864250Y-23225125D01*
X9937750Y-23298625D01*
X30184250Y-17690625D02*
X30331250Y-17837625D01*
X30331250Y-17690625D02*
X30184250Y-17837625D01*
X30257750Y-17837625D02*
X30331250Y-17764125D01*
X30257750Y-17690625D01*
X30184250Y-17764125D01*
X30257750Y-17837625D01*
X30819250Y-17436625D02*
X30966250Y-17583625D01*
X30966250Y-17436625D02*
X30819250Y-17583625D01*
X30892750Y-17583625D02*
X30966250Y-17510125D01*
X30892750Y-17436625D01*
X30819250Y-17510125D01*
X30892750Y-17583625D01*
X28041125Y-23405625D02*
X28188125Y-23552625D01*
X28188125Y-23405625D02*
X28041125Y-23552625D01*
X28114625Y-23552625D02*
X28188125Y-23479125D01*
X28114625Y-23405625D01*
X28041125Y-23479125D01*
X28114625Y-23552625D01*
X28676125Y-23151625D02*
X28823125Y-23298625D01*
X28823125Y-23151625D02*
X28676125Y-23298625D01*
X28749625Y-23298625D02*
X28823125Y-23225125D01*
X28749625Y-23151625D01*
X28676125Y-23225125D01*
X28749625Y-23298625D01*
X30660500Y-21500625D02*
X30807500Y-21647625D01*
X30807500Y-21500625D02*
X30660500Y-21647625D01*
X30734000Y-21647625D02*
X30807500Y-21574125D01*
X30734000Y-21500625D01*
X30660500Y-21574125D01*
X30734000Y-21647625D01*
X31295500Y-21246625D02*
X31442500Y-21393625D01*
X31442500Y-21246625D02*
X31295500Y-21393625D01*
X31369000Y-21393625D02*
X31442500Y-21320125D01*
X31369000Y-21246625D01*
X31295500Y-21320125D01*
X31369000Y-21393625D01*
X12086750Y-21500625D02*
X12233750Y-21647625D01*
X12233750Y-21500625D02*
X12086750Y-21647625D01*
X12160250Y-21647625D02*
X12233750Y-21574125D01*
X12160250Y-21500625D01*
X12086750Y-21574125D01*
X12160250Y-21647625D01*
X12721750Y-21246625D02*
X12868750Y-21393625D01*
X12868750Y-21246625D02*
X12721750Y-21393625D01*
X12795250Y-21393625D02*
X12868750Y-21320125D01*
X12795250Y-21246625D01*
X12721750Y-21320125D01*
X12795250Y-21393625D01*
X18754250Y-19595625D02*
X18901250Y-19742625D01*
X18901250Y-19595625D02*
X18754250Y-19742625D01*
X18827750Y-19742625D02*
X18901250Y-19669125D01*
X18827750Y-19595625D01*
X18754250Y-19669125D01*
X18827750Y-19742625D01*
X19389250Y-19341625D02*
X19536250Y-19488625D01*
X19536250Y-19341625D02*
X19389250Y-19488625D01*
X19462750Y-19488625D02*
X19536250Y-19415125D01*
X19462750Y-19341625D01*
X19389250Y-19415125D01*
X19462750Y-19488625D01*
X21135500Y-15785625D02*
X21282500Y-15932625D01*
X21282500Y-15785625D02*
X21135500Y-15932625D01*
X21209000Y-15932625D02*
X21282500Y-15859125D01*
X21209000Y-15785625D01*
X21135500Y-15859125D01*
X21209000Y-15932625D01*
X21770500Y-15531625D02*
X21917500Y-15678625D01*
X21917500Y-15531625D02*
X21770500Y-15678625D01*
X21844000Y-15678625D02*
X21917500Y-15605125D01*
X21844000Y-15531625D01*
X21770500Y-15605125D01*
X21844000Y-15678625D01*
X22564250Y-19595625D02*
X22711250Y-19742625D01*
X22711250Y-19595625D02*
X22564250Y-19742625D01*
X22637750Y-19742625D02*
X22711250Y-19669125D01*
X22637750Y-19595625D01*
X22564250Y-19669125D01*
X22637750Y-19742625D01*
X23199250Y-19341625D02*
X23346250Y-19488625D01*
X23346250Y-19341625D02*
X23199250Y-19488625D01*
X23272750Y-19488625D02*
X23346250Y-19415125D01*
X23272750Y-19341625D01*
X23199250Y-19415125D01*
X23272750Y-19488625D01*
X25898000Y-17690625D02*
X26045000Y-17837625D01*
X26045000Y-17690625D02*
X25898000Y-17837625D01*
X25971500Y-17837625D02*
X26045000Y-17764125D01*
X25971500Y-17690625D01*
X25898000Y-17764125D01*
X25971500Y-17837625D01*
X26533000Y-17436625D02*
X26680000Y-17583625D01*
X26680000Y-17436625D02*
X26533000Y-17583625D01*
X26606500Y-17583625D02*
X26680000Y-17510125D01*
X26606500Y-17436625D01*
X26533000Y-17510125D01*
X26606500Y-17583625D01*
X6848000Y-17690625D02*
X6995000Y-17837625D01*
X6995000Y-17690625D02*
X6848000Y-17837625D01*
X6921500Y-17837625D02*
X6995000Y-17764125D01*
X6921500Y-17690625D01*
X6848000Y-17764125D01*
X6921500Y-17837625D01*
X7483000Y-17436625D02*
X7630000Y-17583625D01*
X7630000Y-17436625D02*
X7483000Y-17583625D01*
X7556500Y-17583625D02*
X7630000Y-17510125D01*
X7556500Y-17436625D01*
X7483000Y-17510125D01*
X7556500Y-17583625D01*
X4704875Y-19595625D02*
X4851875Y-19742625D01*
X4851875Y-19595625D02*
X4704875Y-19742625D01*
X4778375Y-19742625D02*
X4851875Y-19669125D01*
X4778375Y-19595625D01*
X4704875Y-19669125D01*
X4778375Y-19742625D01*
X5339875Y-19341625D02*
X5486875Y-19488625D01*
X5486875Y-19341625D02*
X5339875Y-19488625D01*
X5413375Y-19488625D02*
X5486875Y-19415125D01*
X5413375Y-19341625D01*
X5339875Y-19415125D01*
X5413375Y-19488625D01*
X28755500Y-15785625D02*
X28902500Y-15932625D01*
X28902500Y-15785625D02*
X28755500Y-15932625D01*
X28829000Y-15932625D02*
X28902500Y-15859125D01*
X28829000Y-15785625D01*
X28755500Y-15859125D01*
X28829000Y-15932625D01*
X29390500Y-15531625D02*
X29537500Y-15678625D01*
X29537500Y-15531625D02*
X29390500Y-15678625D01*
X29464000Y-15678625D02*
X29537500Y-15605125D01*
X29464000Y-15531625D01*
X29390500Y-15605125D01*
X29464000Y-15678625D01*
X6848000Y-23405625D02*
X6995000Y-23552625D01*
X6995000Y-23405625D02*
X6848000Y-23552625D01*
X6921500Y-23552625D02*
X6995000Y-23479125D01*
X6921500Y-23405625D01*
X6848000Y-23479125D01*
X6921500Y-23552625D01*
X7483000Y-23151625D02*
X7630000Y-23298625D01*
X7630000Y-23151625D02*
X7483000Y-23298625D01*
X7556500Y-23298625D02*
X7630000Y-23225125D01*
X7556500Y-23151625D01*
X7483000Y-23225125D01*
X7556500Y-23298625D01*
X34470500Y-23405625D02*
X34617500Y-23552625D01*
X34617500Y-23405625D02*
X34470500Y-23552625D01*
X34544000Y-23552625D02*
X34617500Y-23479125D01*
X34544000Y-23405625D01*
X34470500Y-23479125D01*
X34544000Y-23552625D01*
X35105500Y-23151625D02*
X35252500Y-23298625D01*
X35252500Y-23151625D02*
X35105500Y-23298625D01*
X35179000Y-23298625D02*
X35252500Y-23225125D01*
X35179000Y-23151625D01*
X35105500Y-23225125D01*
X35179000Y-23298625D01*
X19230500Y-15785625D02*
X19377500Y-15932625D01*
X19377500Y-15785625D02*
X19230500Y-15932625D01*
X19304000Y-15932625D02*
X19377500Y-15859125D01*
X19304000Y-15785625D01*
X19230500Y-15859125D01*
X19304000Y-15932625D01*
X19865500Y-15531625D02*
X20012500Y-15678625D01*
X20012500Y-15531625D02*
X19865500Y-15678625D01*
X19939000Y-15678625D02*
X20012500Y-15605125D01*
X19939000Y-15531625D01*
X19865500Y-15605125D01*
X19939000Y-15678625D01*
X28041125Y-21500625D02*
X28188125Y-21647625D01*
X28188125Y-21500625D02*
X28041125Y-21647625D01*
X28114625Y-21647625D02*
X28188125Y-21574125D01*
X28114625Y-21500625D01*
X28041125Y-21574125D01*
X28114625Y-21647625D01*
X28676125Y-21246625D02*
X28823125Y-21393625D01*
X28823125Y-21246625D02*
X28676125Y-21393625D01*
X28749625Y-21393625D02*
X28823125Y-21320125D01*
X28749625Y-21246625D01*
X28676125Y-21320125D01*
X28749625Y-21393625D01*
X17801750Y-21500625D02*
X17948750Y-21647625D01*
X17948750Y-21500625D02*
X17801750Y-21647625D01*
X17875250Y-21647625D02*
X17948750Y-21574125D01*
X17875250Y-21500625D01*
X17801750Y-21574125D01*
X17875250Y-21647625D01*
X18436750Y-21246625D02*
X18583750Y-21393625D01*
X18583750Y-21246625D02*
X18436750Y-21393625D01*
X18510250Y-21393625D02*
X18583750Y-21320125D01*
X18510250Y-21246625D01*
X18436750Y-21320125D01*
X18510250Y-21393625D01*
X22088000Y-17690625D02*
X22235000Y-17837625D01*
X22235000Y-17690625D02*
X22088000Y-17837625D01*
X22161500Y-17837625D02*
X22235000Y-17764125D01*
X22161500Y-17690625D01*
X22088000Y-17764125D01*
X22161500Y-17837625D01*
X22723000Y-17436625D02*
X22870000Y-17583625D01*
X22870000Y-17436625D02*
X22723000Y-17583625D01*
X22796500Y-17583625D02*
X22870000Y-17510125D01*
X22796500Y-17436625D01*
X22723000Y-17510125D01*
X22796500Y-17583625D01*
X24469250Y-19595625D02*
X24616250Y-19742625D01*
X24616250Y-19595625D02*
X24469250Y-19742625D01*
X24542750Y-19742625D02*
X24616250Y-19669125D01*
X24542750Y-19595625D01*
X24469250Y-19669125D01*
X24542750Y-19742625D01*
X25104250Y-19341625D02*
X25251250Y-19488625D01*
X25251250Y-19341625D02*
X25104250Y-19488625D01*
X25177750Y-19488625D02*
X25251250Y-19415125D01*
X25177750Y-19341625D01*
X25104250Y-19415125D01*
X25177750Y-19488625D01*
X30660500Y-23405625D02*
X30807500Y-23552625D01*
X30807500Y-23405625D02*
X30660500Y-23552625D01*
X30734000Y-23552625D02*
X30807500Y-23479125D01*
X30734000Y-23405625D01*
X30660500Y-23479125D01*
X30734000Y-23552625D01*
X31295500Y-23151625D02*
X31442500Y-23298625D01*
X31442500Y-23151625D02*
X31295500Y-23298625D01*
X31369000Y-23298625D02*
X31442500Y-23225125D01*
X31369000Y-23151625D01*
X31295500Y-23225125D01*
X31369000Y-23298625D01*
X27803000Y-17690625D02*
X27950000Y-17837625D01*
X27950000Y-17690625D02*
X27803000Y-17837625D01*
X27876500Y-17837625D02*
X27950000Y-17764125D01*
X27876500Y-17690625D01*
X27803000Y-17764125D01*
X27876500Y-17837625D01*
X28438000Y-17436625D02*
X28585000Y-17583625D01*
X28585000Y-17436625D02*
X28438000Y-17583625D01*
X28511500Y-17583625D02*
X28585000Y-17510125D01*
X28511500Y-17436625D01*
X28438000Y-17510125D01*
X28511500Y-17583625D01*
X12563000Y-17690625D02*
X12710000Y-17837625D01*
X12710000Y-17690625D02*
X12563000Y-17837625D01*
X12636500Y-17837625D02*
X12710000Y-17764125D01*
X12636500Y-17690625D01*
X12563000Y-17764125D01*
X12636500Y-17837625D01*
X13198000Y-17436625D02*
X13345000Y-17583625D01*
X13345000Y-17436625D02*
X13198000Y-17583625D01*
X13271500Y-17583625D02*
X13345000Y-17510125D01*
X13271500Y-17436625D01*
X13198000Y-17510125D01*
X13271500Y-17583625D01*
X14944250Y-19595625D02*
X15091250Y-19742625D01*
X15091250Y-19595625D02*
X14944250Y-19742625D01*
X15017750Y-19742625D02*
X15091250Y-19669125D01*
X15017750Y-19595625D01*
X14944250Y-19669125D01*
X15017750Y-19742625D01*
X15579250Y-19341625D02*
X15726250Y-19488625D01*
X15726250Y-19341625D02*
X15579250Y-19488625D01*
X15652750Y-19488625D02*
X15726250Y-19415125D01*
X15652750Y-19341625D01*
X15579250Y-19415125D01*
X15652750Y-19488625D01*
X13515500Y-15785625D02*
X13662500Y-15932625D01*
X13662500Y-15785625D02*
X13515500Y-15932625D01*
X13589000Y-15932625D02*
X13662500Y-15859125D01*
X13589000Y-15785625D01*
X13515500Y-15859125D01*
X13589000Y-15932625D01*
X14150500Y-15531625D02*
X14297500Y-15678625D01*
X14297500Y-15531625D02*
X14150500Y-15678625D01*
X14224000Y-15678625D02*
X14297500Y-15605125D01*
X14224000Y-15531625D01*
X14150500Y-15605125D01*
X14224000Y-15678625D01*
X32565500Y-23405625D02*
X32712500Y-23552625D01*
X32712500Y-23405625D02*
X32565500Y-23552625D01*
X32639000Y-23552625D02*
X32712500Y-23479125D01*
X32639000Y-23405625D01*
X32565500Y-23479125D01*
X32639000Y-23552625D01*
X33200500Y-23151625D02*
X33347500Y-23298625D01*
X33347500Y-23151625D02*
X33200500Y-23298625D01*
X33274000Y-23298625D02*
X33347500Y-23225125D01*
X33274000Y-23151625D01*
X33200500Y-23225125D01*
X33274000Y-23298625D01*
X3990500Y-15785625D02*
X4137500Y-15932625D01*
X4137500Y-15785625D02*
X3990500Y-15932625D01*
X4064000Y-15932625D02*
X4137500Y-15859125D01*
X4064000Y-15785625D01*
X3990500Y-15859125D01*
X4064000Y-15932625D01*
X4625500Y-15531625D02*
X4772500Y-15678625D01*
X4772500Y-15531625D02*
X4625500Y-15678625D01*
X4699000Y-15678625D02*
X4772500Y-15605125D01*
X4699000Y-15531625D01*
X4625500Y-15605125D01*
X4699000Y-15678625D01*
X17325500Y-23405625D02*
X17472500Y-23552625D01*
X17472500Y-23405625D02*
X17325500Y-23552625D01*
X17399000Y-23552625D02*
X17472500Y-23479125D01*
X17399000Y-23405625D01*
X17325500Y-23479125D01*
X17399000Y-23552625D01*
X17960500Y-23151625D02*
X18107500Y-23298625D01*
X18107500Y-23151625D02*
X17960500Y-23298625D01*
X18034000Y-23298625D02*
X18107500Y-23225125D01*
X18034000Y-23151625D01*
X17960500Y-23225125D01*
X18034000Y-23298625D01*
X8276750Y-21500625D02*
X8423750Y-21647625D01*
X8423750Y-21500625D02*
X8276750Y-21647625D01*
X8350250Y-21647625D02*
X8423750Y-21574125D01*
X8350250Y-21500625D01*
X8276750Y-21574125D01*
X8350250Y-21647625D01*
X8911750Y-21246625D02*
X9058750Y-21393625D01*
X9058750Y-21246625D02*
X8911750Y-21393625D01*
X8985250Y-21393625D02*
X9058750Y-21320125D01*
X8985250Y-21246625D01*
X8911750Y-21320125D01*
X8985250Y-21393625D01*
X26374250Y-19595625D02*
X26521250Y-19742625D01*
X26521250Y-19595625D02*
X26374250Y-19742625D01*
X26447750Y-19742625D02*
X26521250Y-19669125D01*
X26447750Y-19595625D01*
X26374250Y-19669125D01*
X26447750Y-19742625D01*
X27009250Y-19341625D02*
X27156250Y-19488625D01*
X27156250Y-19341625D02*
X27009250Y-19488625D01*
X27082750Y-19488625D02*
X27156250Y-19415125D01*
X27082750Y-19341625D01*
X27009250Y-19415125D01*
X27082750Y-19488625D01*
X5181125Y-21500625D02*
X5328125Y-21647625D01*
X5328125Y-21500625D02*
X5181125Y-21647625D01*
X5254625Y-21647625D02*
X5328125Y-21574125D01*
X5254625Y-21500625D01*
X5181125Y-21574125D01*
X5254625Y-21647625D01*
X5816125Y-21246625D02*
X5963125Y-21393625D01*
X5963125Y-21246625D02*
X5816125Y-21393625D01*
X5889625Y-21393625D02*
X5963125Y-21320125D01*
X5889625Y-21246625D01*
X5816125Y-21320125D01*
X5889625Y-21393625D01*
X15896750Y-21500625D02*
X16043750Y-21647625D01*
X16043750Y-21500625D02*
X15896750Y-21647625D01*
X15970250Y-21647625D02*
X16043750Y-21574125D01*
X15970250Y-21500625D01*
X15896750Y-21574125D01*
X15970250Y-21647625D01*
X16531750Y-21246625D02*
X16678750Y-21393625D01*
X16678750Y-21246625D02*
X16531750Y-21393625D01*
X16605250Y-21393625D02*
X16678750Y-21320125D01*
X16605250Y-21246625D01*
X16531750Y-21320125D01*
X16605250Y-21393625D01*
X10181750Y-21500625D02*
X10328750Y-21647625D01*
X10328750Y-21500625D02*
X10181750Y-21647625D01*
X10255250Y-21647625D02*
X10328750Y-21574125D01*
X10255250Y-21500625D01*
X10181750Y-21574125D01*
X10255250Y-21647625D01*
X10816750Y-21246625D02*
X10963750Y-21393625D01*
X10963750Y-21246625D02*
X10816750Y-21393625D01*
X10890250Y-21393625D02*
X10963750Y-21320125D01*
X10890250Y-21246625D01*
X10816750Y-21320125D01*
X10890250Y-21393625D01*
X5895500Y-15785625D02*
X6042500Y-15932625D01*
X6042500Y-15785625D02*
X5895500Y-15932625D01*
X5969000Y-15932625D02*
X6042500Y-15859125D01*
X5969000Y-15785625D01*
X5895500Y-15859125D01*
X5969000Y-15932625D01*
X6530500Y-15531625D02*
X6677500Y-15678625D01*
X6677500Y-15531625D02*
X6530500Y-15678625D01*
X6604000Y-15678625D02*
X6677500Y-15605125D01*
X6604000Y-15531625D01*
X6530500Y-15605125D01*
X6604000Y-15678625D01*
X15420500Y-23405625D02*
X15567500Y-23552625D01*
X15567500Y-23405625D02*
X15420500Y-23552625D01*
X15494000Y-23552625D02*
X15567500Y-23479125D01*
X15494000Y-23405625D01*
X15420500Y-23479125D01*
X15494000Y-23552625D01*
X16055500Y-23151625D02*
X16202500Y-23298625D01*
X16202500Y-23151625D02*
X16055500Y-23298625D01*
X16129000Y-23298625D02*
X16202500Y-23225125D01*
X16129000Y-23151625D01*
X16055500Y-23225125D01*
X16129000Y-23298625D01*
X7324250Y-23405625D02*
X7471250Y-23552625D01*
X7471250Y-23405625D02*
X7324250Y-23552625D01*
X7397750Y-23552625D02*
X7471250Y-23479125D01*
X7397750Y-23405625D01*
X7324250Y-23479125D01*
X7397750Y-23552625D01*
X7959250Y-23151625D02*
X8106250Y-23298625D01*
X8106250Y-23151625D02*
X7959250Y-23298625D01*
X8032750Y-23298625D02*
X8106250Y-23225125D01*
X8032750Y-23151625D01*
X7959250Y-23225125D01*
X8032750Y-23298625D01*
X26850500Y-15785625D02*
X26997500Y-15932625D01*
X26997500Y-15785625D02*
X26850500Y-15932625D01*
X26924000Y-15932625D02*
X26997500Y-15859125D01*
X26924000Y-15785625D01*
X26850500Y-15859125D01*
X26924000Y-15932625D01*
X27485500Y-15531625D02*
X27632500Y-15678625D01*
X27632500Y-15531625D02*
X27485500Y-15678625D01*
X27559000Y-15678625D02*
X27632500Y-15605125D01*
X27559000Y-15531625D01*
X27485500Y-15605125D01*
X27559000Y-15678625D01*
X27803000Y-23405625D02*
X27950000Y-23552625D01*
X27950000Y-23405625D02*
X27803000Y-23552625D01*
X27876500Y-23552625D02*
X27950000Y-23479125D01*
X27876500Y-23405625D01*
X27803000Y-23479125D01*
X27876500Y-23552625D01*
X28438000Y-23151625D02*
X28585000Y-23298625D01*
X28585000Y-23151625D02*
X28438000Y-23298625D01*
X28511500Y-23298625D02*
X28585000Y-23225125D01*
X28511500Y-23151625D01*
X28438000Y-23225125D01*
X28511500Y-23298625D01*
X16849250Y-19595625D02*
X16996250Y-19742625D01*
X16996250Y-19595625D02*
X16849250Y-19742625D01*
X16922750Y-19742625D02*
X16996250Y-19669125D01*
X16922750Y-19595625D01*
X16849250Y-19669125D01*
X16922750Y-19742625D01*
X17484250Y-19341625D02*
X17631250Y-19488625D01*
X17631250Y-19341625D02*
X17484250Y-19488625D01*
X17557750Y-19488625D02*
X17631250Y-19415125D01*
X17557750Y-19341625D01*
X17484250Y-19415125D01*
X17557750Y-19488625D01*
X25421750Y-21500625D02*
X25568750Y-21647625D01*
X25568750Y-21500625D02*
X25421750Y-21647625D01*
X25495250Y-21647625D02*
X25568750Y-21574125D01*
X25495250Y-21500625D01*
X25421750Y-21574125D01*
X25495250Y-21647625D01*
X26056750Y-21246625D02*
X26203750Y-21393625D01*
X26203750Y-21246625D02*
X26056750Y-21393625D01*
X26130250Y-21393625D02*
X26203750Y-21320125D01*
X26130250Y-21246625D01*
X26056750Y-21320125D01*
X26130250Y-21393625D01*
X18278000Y-17690625D02*
X18425000Y-17837625D01*
X18425000Y-17690625D02*
X18278000Y-17837625D01*
X18351500Y-17837625D02*
X18425000Y-17764125D01*
X18351500Y-17690625D01*
X18278000Y-17764125D01*
X18351500Y-17837625D01*
X18913000Y-17436625D02*
X19060000Y-17583625D01*
X19060000Y-17436625D02*
X18913000Y-17583625D01*
X18986500Y-17583625D02*
X19060000Y-17510125D01*
X18986500Y-17436625D01*
X18913000Y-17510125D01*
X18986500Y-17583625D01*
X23516750Y-21500625D02*
X23663750Y-21647625D01*
X23663750Y-21500625D02*
X23516750Y-21647625D01*
X23590250Y-21647625D02*
X23663750Y-21574125D01*
X23590250Y-21500625D01*
X23516750Y-21574125D01*
X23590250Y-21647625D01*
X24151750Y-21246625D02*
X24298750Y-21393625D01*
X24298750Y-21246625D02*
X24151750Y-21393625D01*
X24225250Y-21393625D02*
X24298750Y-21320125D01*
X24225250Y-21246625D01*
X24151750Y-21320125D01*
X24225250Y-21393625D01*
X29469875Y-19595625D02*
X29616875Y-19742625D01*
X29616875Y-19595625D02*
X29469875Y-19742625D01*
X29543375Y-19742625D02*
X29616875Y-19669125D01*
X29543375Y-19595625D01*
X29469875Y-19669125D01*
X29543375Y-19742625D01*
X30104875Y-19341625D02*
X30251875Y-19488625D01*
X30251875Y-19341625D02*
X30104875Y-19488625D01*
X30178375Y-19488625D02*
X30251875Y-19415125D01*
X30178375Y-19341625D01*
X30104875Y-19415125D01*
X30178375Y-19488625D01*
X21611750Y-21500625D02*
X21758750Y-21647625D01*
X21758750Y-21500625D02*
X21611750Y-21647625D01*
X21685250Y-21647625D02*
X21758750Y-21574125D01*
X21685250Y-21500625D01*
X21611750Y-21574125D01*
X21685250Y-21647625D01*
X22246750Y-21246625D02*
X22393750Y-21393625D01*
X22393750Y-21246625D02*
X22246750Y-21393625D01*
X22320250Y-21393625D02*
X22393750Y-21320125D01*
X22320250Y-21246625D01*
X22246750Y-21320125D01*
X22320250Y-21393625D01*
X13039250Y-19595625D02*
X13186250Y-19742625D01*
X13186250Y-19595625D02*
X13039250Y-19742625D01*
X13112750Y-19742625D02*
X13186250Y-19669125D01*
X13112750Y-19595625D01*
X13039250Y-19669125D01*
X13112750Y-19742625D01*
X13674250Y-19341625D02*
X13821250Y-19488625D01*
X13821250Y-19341625D02*
X13674250Y-19488625D01*
X13747750Y-19488625D02*
X13821250Y-19415125D01*
X13747750Y-19341625D01*
X13674250Y-19415125D01*
X13747750Y-19488625D01*
X29708000Y-15785625D02*
X29855000Y-15932625D01*
X29855000Y-15785625D02*
X29708000Y-15932625D01*
X29781500Y-15932625D02*
X29855000Y-15859125D01*
X29781500Y-15785625D01*
X29708000Y-15859125D01*
X29781500Y-15932625D01*
X30343000Y-15531625D02*
X30490000Y-15678625D01*
X30490000Y-15531625D02*
X30343000Y-15678625D01*
X30416500Y-15678625D02*
X30490000Y-15605125D01*
X30416500Y-15531625D01*
X30343000Y-15605125D01*
X30416500Y-15678625D01*
X8753000Y-17690625D02*
X8900000Y-17837625D01*
X8900000Y-17690625D02*
X8753000Y-17837625D01*
X8826500Y-17837625D02*
X8900000Y-17764125D01*
X8826500Y-17690625D01*
X8753000Y-17764125D01*
X8826500Y-17837625D01*
X9388000Y-17436625D02*
X9535000Y-17583625D01*
X9535000Y-17436625D02*
X9388000Y-17583625D01*
X9461500Y-17583625D02*
X9535000Y-17510125D01*
X9461500Y-17436625D01*
X9388000Y-17510125D01*
X9461500Y-17583625D01*
X24945500Y-15785625D02*
X25092500Y-15932625D01*
X25092500Y-15785625D02*
X24945500Y-15932625D01*
X25019000Y-15932625D02*
X25092500Y-15859125D01*
X25019000Y-15785625D01*
X24945500Y-15859125D01*
X25019000Y-15932625D01*
X25580500Y-15531625D02*
X25727500Y-15678625D01*
X25727500Y-15531625D02*
X25580500Y-15678625D01*
X25654000Y-15678625D02*
X25727500Y-15605125D01*
X25654000Y-15531625D01*
X25580500Y-15605125D01*
X25654000Y-15678625D01*
X16134875Y-23405625D02*
X16281875Y-23552625D01*
X16281875Y-23405625D02*
X16134875Y-23552625D01*
X16208375Y-23552625D02*
X16281875Y-23479125D01*
X16208375Y-23405625D01*
X16134875Y-23479125D01*
X16208375Y-23552625D01*
X16769875Y-23151625D02*
X16916875Y-23298625D01*
X16916875Y-23151625D02*
X16769875Y-23298625D01*
X16843375Y-23298625D02*
X16916875Y-23225125D01*
X16843375Y-23151625D01*
X16769875Y-23225125D01*
X16843375Y-23298625D01*
X25183625Y-23405625D02*
X25330625Y-23552625D01*
X25330625Y-23405625D02*
X25183625Y-23552625D01*
X25257125Y-23552625D02*
X25330625Y-23479125D01*
X25257125Y-23405625D01*
X25183625Y-23479125D01*
X25257125Y-23552625D01*
X25818625Y-23151625D02*
X25965625Y-23298625D01*
X25965625Y-23151625D02*
X25818625Y-23298625D01*
X25892125Y-23298625D02*
X25965625Y-23225125D01*
X25892125Y-23151625D01*
X25818625Y-23225125D01*
X25892125Y-23298625D01*
X20183000Y-17690625D02*
X20330000Y-17837625D01*
X20330000Y-17690625D02*
X20183000Y-17837625D01*
X20256500Y-17837625D02*
X20330000Y-17764125D01*
X20256500Y-17690625D01*
X20183000Y-17764125D01*
X20256500Y-17837625D01*
X20818000Y-17436625D02*
X20965000Y-17583625D01*
X20965000Y-17436625D02*
X20818000Y-17583625D01*
X20891500Y-17583625D02*
X20965000Y-17510125D01*
X20891500Y-17436625D01*
X20818000Y-17510125D01*
X20891500Y-17583625D01*
X10658000Y-17690625D02*
X10805000Y-17837625D01*
X10805000Y-17690625D02*
X10658000Y-17837625D01*
X10731500Y-17837625D02*
X10805000Y-17764125D01*
X10731500Y-17690625D01*
X10658000Y-17764125D01*
X10731500Y-17837625D01*
X11293000Y-17436625D02*
X11440000Y-17583625D01*
X11440000Y-17436625D02*
X11293000Y-17583625D01*
X11366500Y-17583625D02*
X11440000Y-17510125D01*
X11366500Y-17436625D01*
X11293000Y-17510125D01*
X11366500Y-17583625D01*
X13991750Y-21500625D02*
X14138750Y-21647625D01*
X14138750Y-21500625D02*
X13991750Y-21647625D01*
X14065250Y-21647625D02*
X14138750Y-21574125D01*
X14065250Y-21500625D01*
X13991750Y-21574125D01*
X14065250Y-21647625D01*
X14626750Y-21246625D02*
X14773750Y-21393625D01*
X14773750Y-21246625D02*
X14626750Y-21393625D01*
X14700250Y-21393625D02*
X14773750Y-21320125D01*
X14700250Y-21246625D01*
X14626750Y-21320125D01*
X14700250Y-21393625D01*
X23040500Y-15785625D02*
X23187500Y-15932625D01*
X23187500Y-15785625D02*
X23040500Y-15932625D01*
X23114000Y-15932625D02*
X23187500Y-15859125D01*
X23114000Y-15785625D01*
X23040500Y-15859125D01*
X23114000Y-15932625D01*
X23675500Y-15531625D02*
X23822500Y-15678625D01*
X23822500Y-15531625D02*
X23675500Y-15678625D01*
X23749000Y-15678625D02*
X23822500Y-15605125D01*
X23749000Y-15531625D01*
X23675500Y-15605125D01*
X23749000Y-15678625D01*
X30660500Y-15785625D02*
X30807500Y-15932625D01*
X30807500Y-15785625D02*
X30660500Y-15932625D01*
X30734000Y-15932625D02*
X30807500Y-15859125D01*
X30734000Y-15785625D01*
X30660500Y-15859125D01*
X30734000Y-15932625D01*
X31295500Y-15531625D02*
X31442500Y-15678625D01*
X31442500Y-15531625D02*
X31295500Y-15678625D01*
X31369000Y-15678625D02*
X31442500Y-15605125D01*
X31369000Y-15531625D01*
X31295500Y-15605125D01*
X31369000Y-15678625D01*
X8991125Y-23405625D02*
X9138125Y-23552625D01*
X9138125Y-23405625D02*
X8991125Y-23552625D01*
X9064625Y-23552625D02*
X9138125Y-23479125D01*
X9064625Y-23405625D01*
X8991125Y-23479125D01*
X9064625Y-23552625D01*
X9626125Y-23151625D02*
X9773125Y-23298625D01*
X9773125Y-23151625D02*
X9626125Y-23298625D01*
X9699625Y-23298625D02*
X9773125Y-23225125D01*
X9699625Y-23151625D01*
X9626125Y-23225125D01*
X9699625Y-23298625D01*
X25659875Y-23405625D02*
X25806875Y-23552625D01*
X25806875Y-23405625D02*
X25659875Y-23552625D01*
X25733375Y-23552625D02*
X25806875Y-23479125D01*
X25733375Y-23405625D01*
X25659875Y-23479125D01*
X25733375Y-23552625D01*
X26294875Y-23151625D02*
X26441875Y-23298625D01*
X26441875Y-23151625D02*
X26294875Y-23298625D01*
X26368375Y-23298625D02*
X26441875Y-23225125D01*
X26368375Y-23151625D01*
X26294875Y-23225125D01*
X26368375Y-23298625D01*
X17325500Y-15785625D02*
X17472500Y-15932625D01*
X17472500Y-15785625D02*
X17325500Y-15932625D01*
X17399000Y-15932625D02*
X17472500Y-15859125D01*
X17399000Y-15785625D01*
X17325500Y-15859125D01*
X17399000Y-15932625D01*
X17960500Y-15531625D02*
X18107500Y-15678625D01*
X18107500Y-15531625D02*
X17960500Y-15678625D01*
X18034000Y-15678625D02*
X18107500Y-15605125D01*
X18034000Y-15531625D01*
X17960500Y-15605125D01*
X18034000Y-15678625D01*
X16373000Y-17690625D02*
X16520000Y-17837625D01*
X16520000Y-17690625D02*
X16373000Y-17837625D01*
X16446500Y-17837625D02*
X16520000Y-17764125D01*
X16446500Y-17690625D01*
X16373000Y-17764125D01*
X16446500Y-17837625D01*
X17008000Y-17436625D02*
X17155000Y-17583625D01*
X17155000Y-17436625D02*
X17008000Y-17583625D01*
X17081500Y-17583625D02*
X17155000Y-17510125D01*
X17081500Y-17436625D01*
X17008000Y-17510125D01*
X17081500Y-17583625D01*
X7324250Y-19595625D02*
X7471250Y-19742625D01*
X7471250Y-19595625D02*
X7324250Y-19742625D01*
X7397750Y-19742625D02*
X7471250Y-19669125D01*
X7397750Y-19595625D01*
X7324250Y-19669125D01*
X7397750Y-19742625D01*
X7959250Y-19341625D02*
X8106250Y-19488625D01*
X8106250Y-19341625D02*
X7959250Y-19488625D01*
X8032750Y-19488625D02*
X8106250Y-19415125D01*
X8032750Y-19341625D01*
X7959250Y-19415125D01*
X8032750Y-19488625D01*
X7800500Y-15785625D02*
X7947500Y-15932625D01*
X7947500Y-15785625D02*
X7800500Y-15932625D01*
X7874000Y-15932625D02*
X7947500Y-15859125D01*
X7874000Y-15785625D01*
X7800500Y-15859125D01*
X7874000Y-15932625D01*
X8435500Y-15531625D02*
X8582500Y-15678625D01*
X8582500Y-15531625D02*
X8435500Y-15678625D01*
X8509000Y-15678625D02*
X8582500Y-15605125D01*
X8509000Y-15531625D01*
X8435500Y-15605125D01*
X8509000Y-15678625D01*
X20659250Y-19595625D02*
X20806250Y-19742625D01*
X20806250Y-19595625D02*
X20659250Y-19742625D01*
X20732750Y-19742625D02*
X20806250Y-19669125D01*
X20732750Y-19595625D01*
X20659250Y-19669125D01*
X20732750Y-19742625D01*
X21294250Y-19341625D02*
X21441250Y-19488625D01*
X21441250Y-19341625D02*
X21294250Y-19488625D01*
X21367750Y-19488625D02*
X21441250Y-19415125D01*
X21367750Y-19341625D01*
X21294250Y-19415125D01*
X21367750Y-19488625D01*
X9705500Y-15785625D02*
X9852500Y-15932625D01*
X9852500Y-15785625D02*
X9705500Y-15932625D01*
X9779000Y-15932625D02*
X9852500Y-15859125D01*
X9779000Y-15785625D01*
X9705500Y-15859125D01*
X9779000Y-15932625D01*
X10340500Y-15531625D02*
X10487500Y-15678625D01*
X10487500Y-15531625D02*
X10340500Y-15678625D01*
X10414000Y-15678625D02*
X10487500Y-15605125D01*
X10414000Y-15531625D01*
X10340500Y-15605125D01*
X10414000Y-15678625D01*
X23993000Y-17690625D02*
X24140000Y-17837625D01*
X24140000Y-17690625D02*
X23993000Y-17837625D01*
X24066500Y-17837625D02*
X24140000Y-17764125D01*
X24066500Y-17690625D01*
X23993000Y-17764125D01*
X24066500Y-17837625D01*
X24628000Y-17436625D02*
X24775000Y-17583625D01*
X24775000Y-17436625D02*
X24628000Y-17583625D01*
X24701500Y-17583625D02*
X24775000Y-17510125D01*
X24701500Y-17436625D01*
X24628000Y-17510125D01*
X24701500Y-17583625D01*
X4228625Y-19595625D02*
X4375625Y-19742625D01*
X4375625Y-19595625D02*
X4228625Y-19742625D01*
X4302125Y-19742625D02*
X4375625Y-19669125D01*
X4302125Y-19595625D01*
X4228625Y-19669125D01*
X4302125Y-19742625D01*
X4863625Y-19341625D02*
X5010625Y-19488625D01*
X5010625Y-19341625D02*
X4863625Y-19488625D01*
X4937125Y-19488625D02*
X5010625Y-19415125D01*
X4937125Y-19341625D01*
X4863625Y-19415125D01*
X4937125Y-19488625D01*
X32565500Y-21500625D02*
X32712500Y-21647625D01*
X32712500Y-21500625D02*
X32565500Y-21647625D01*
X32639000Y-21647625D02*
X32712500Y-21574125D01*
X32639000Y-21500625D01*
X32565500Y-21574125D01*
X32639000Y-21647625D01*
X33200500Y-21246625D02*
X33347500Y-21393625D01*
X33347500Y-21246625D02*
X33200500Y-21393625D01*
X33274000Y-21393625D02*
X33347500Y-21320125D01*
X33274000Y-21246625D01*
X33200500Y-21320125D01*
X33274000Y-21393625D01*
X4228625Y-23405625D02*
X4375625Y-23552625D01*
X4375625Y-23405625D02*
X4228625Y-23552625D01*
X4302125Y-23552625D02*
X4375625Y-23479125D01*
X4302125Y-23405625D01*
X4228625Y-23479125D01*
X4302125Y-23552625D01*
X4863625Y-23151625D02*
X5010625Y-23298625D01*
X5010625Y-23151625D02*
X4863625Y-23298625D01*
X4937125Y-23298625D02*
X5010625Y-23225125D01*
X4937125Y-23151625D01*
X4863625Y-23225125D01*
X4937125Y-23298625D01*
X19706750Y-21500625D02*
X19853750Y-21647625D01*
X19853750Y-21500625D02*
X19706750Y-21647625D01*
X19780250Y-21647625D02*
X19853750Y-21574125D01*
X19780250Y-21500625D01*
X19706750Y-21574125D01*
X19780250Y-21647625D01*
X20341750Y-21246625D02*
X20488750Y-21393625D01*
X20488750Y-21246625D02*
X20341750Y-21393625D01*
X20415250Y-21393625D02*
X20488750Y-21320125D01*
X20415250Y-21246625D01*
X20341750Y-21320125D01*
X20415250Y-21393625D01*
X28993625Y-21500625D02*
X29140625Y-21647625D01*
X29140625Y-21500625D02*
X28993625Y-21647625D01*
X29067125Y-21647625D02*
X29140625Y-21574125D01*
X29067125Y-21500625D01*
X28993625Y-21574125D01*
X29067125Y-21647625D01*
X29628625Y-21246625D02*
X29775625Y-21393625D01*
X29775625Y-21246625D02*
X29628625Y-21393625D01*
X29702125Y-21393625D02*
X29775625Y-21320125D01*
X29702125Y-21246625D01*
X29628625Y-21320125D01*
X29702125Y-21393625D01*
X4466750Y-23405625D02*
X4613750Y-23552625D01*
X4613750Y-23405625D02*
X4466750Y-23552625D01*
X4540250Y-23552625D02*
X4613750Y-23479125D01*
X4540250Y-23405625D01*
X4466750Y-23479125D01*
X4540250Y-23552625D01*
X5101750Y-23151625D02*
X5248750Y-23298625D01*
X5248750Y-23151625D02*
X5101750Y-23298625D01*
X5175250Y-23298625D02*
X5248750Y-23225125D01*
X5175250Y-23151625D01*
X5101750Y-23225125D01*
X5175250Y-23298625D01*
X34013775Y-15648750D02*
X34013775Y-15798750D01*
X33938775Y-15723750D02*
X34088775Y-15723750D01*
X34088775Y-15723750D02*
G75*
G03*
X34088775Y-15723750I-75000J0D01*
G01*
X33948775Y-15788750D02*
X34078775Y-15788750D01*
X33948775Y-15658750D02*
X34078775Y-15658750D01*
X34078775Y-15788750D02*
G75*
G03*
X34078775Y-15658750I0J65000D01*
G01*
X33948775Y-15658750D02*
G75*
G03*
X33948775Y-15788750I0J-65000D01*
G01*
X34013775Y-16768750D02*
X34013775Y-16918750D01*
X33938775Y-16843750D02*
X34088775Y-16843750D01*
X34088775Y-16843750D02*
G75*
G03*
X34088775Y-16843750I-75000J0D01*
G01*
X33948775Y-16908750D02*
X34078775Y-16908750D01*
X33948775Y-16778750D02*
X34078775Y-16778750D01*
X34078775Y-16908750D02*
G75*
G03*
X34078775Y-16778750I0J65000D01*
G01*
X33948775Y-16778750D02*
G75*
G03*
X33948775Y-16908750I0J-65000D01*
G01*
X7697782Y-22540907D02*
X7697782Y-22385342D01*
X7542217Y-22385342D01*
X7542217Y-22540907D01*
X7697782Y-22540907D01*
X7730000Y-22463125D02*
G75*
G03*
X7730000Y-22463125I-110000J0D01*
G01*
X4046532Y-14682782D02*
X4046532Y-14527217D01*
X3890967Y-14527217D01*
X3890967Y-14682782D01*
X4046532Y-14682782D01*
X4078750Y-14605000D02*
G75*
G03*
X4078750Y-14605000I-110000J0D01*
G01*
X29525907Y-18095908D02*
X29525907Y-17940343D01*
X29370342Y-17940343D01*
X29370342Y-18095908D01*
X29525907Y-18095908D01*
X29558125Y-18018125D02*
G75*
G03*
X29558125Y-18018125I-110000J0D01*
G01*
X17857783Y-17222783D02*
X17857783Y-17067218D01*
X17702218Y-17067218D01*
X17702218Y-17222783D01*
X17857783Y-17222783D01*
X17890000Y-17145000D02*
G75*
G03*
X17890000Y-17145000I-110000J0D01*
G01*
X19604033Y-23572782D02*
X19604033Y-23417217D01*
X19448468Y-23417217D01*
X19448468Y-23572782D01*
X19604033Y-23572782D01*
X19636250Y-23495000D02*
G75*
G03*
X19636250Y-23495000I-110000J0D01*
G01*
X32145282Y-22858407D02*
X32145282Y-22702842D01*
X31989717Y-22702842D01*
X31989717Y-22858407D01*
X32145282Y-22858407D01*
X32177500Y-22780625D02*
G75*
G03*
X32177500Y-22780625I-110000J0D01*
G01*
X19762783Y-12936532D02*
X19762783Y-12780967D01*
X19607218Y-12780967D01*
X19607218Y-12936532D01*
X19762783Y-12936532D01*
X19795000Y-12858750D02*
G75*
G03*
X19795000Y-12858750I-110000J0D01*
G01*
X4046532Y-12936532D02*
X4046532Y-12780967D01*
X3890967Y-12780967D01*
X3890967Y-12936532D01*
X4046532Y-12936532D01*
X4078750Y-12858750D02*
G75*
G03*
X4078750Y-12858750I-110000J0D01*
G01*
X35479033Y-12936532D02*
X35479033Y-12780967D01*
X35323468Y-12780967D01*
X35323468Y-12936532D01*
X35479033Y-12936532D01*
X35511250Y-12858750D02*
G75*
G03*
X35511250Y-12858750I-110000J0D01*
G01*
X6189657Y-18095908D02*
X6189657Y-17940343D01*
X6034092Y-17940343D01*
X6034092Y-18095908D01*
X6189657Y-18095908D01*
X6221875Y-18018125D02*
G75*
G03*
X6221875Y-18018125I-110000J0D01*
G01*
X35479033Y-14682782D02*
X35479033Y-14527217D01*
X35323468Y-14527217D01*
X35323468Y-14682782D01*
X35479033Y-14682782D01*
X35511250Y-14605000D02*
G75*
G03*
X35511250Y-14605000I-110000J0D01*
G01*
D12*
X3776428Y-25153839D02*
X3776428Y-24853839D01*
X3847857Y-24853839D01*
X3890714Y-24868125D01*
X3919286Y-24896696D01*
X3933571Y-24925268D01*
X3947857Y-24982411D01*
X3947857Y-25025268D01*
X3933571Y-25082411D01*
X3919286Y-25110982D01*
X3890714Y-25139554D01*
X3847857Y-25153839D01*
X3776428Y-25153839D01*
X4076428Y-25153839D02*
X4076428Y-24953839D01*
X4076428Y-25010982D02*
X4090714Y-24982411D01*
X4105000Y-24968125D01*
X4133571Y-24953839D01*
X4162143Y-24953839D01*
X4262143Y-25153839D02*
X4262143Y-24953839D01*
X4262143Y-24853839D02*
X4247857Y-24868125D01*
X4262143Y-24882411D01*
X4276428Y-24868125D01*
X4262143Y-24853839D01*
X4262143Y-24882411D01*
X4447857Y-25153839D02*
X4419286Y-25139554D01*
X4405000Y-25110982D01*
X4405000Y-24853839D01*
X4605000Y-25153839D02*
X4576428Y-25139554D01*
X4562143Y-25110982D01*
X4562143Y-24853839D01*
X4947857Y-25153839D02*
X4947857Y-24853839D01*
X5047857Y-25068125D01*
X5147857Y-24853839D01*
X5147857Y-25153839D01*
X5419286Y-25153839D02*
X5419286Y-24996696D01*
X5405000Y-24968125D01*
X5376428Y-24953839D01*
X5319286Y-24953839D01*
X5290714Y-24968125D01*
X5419286Y-25139554D02*
X5390714Y-25153839D01*
X5319286Y-25153839D01*
X5290714Y-25139554D01*
X5276428Y-25110982D01*
X5276428Y-25082411D01*
X5290714Y-25053839D01*
X5319286Y-25039554D01*
X5390714Y-25039554D01*
X5419286Y-25025268D01*
X5562143Y-24953839D02*
X5562143Y-25253839D01*
X5562143Y-24968125D02*
X5590714Y-24953839D01*
X5647857Y-24953839D01*
X5676428Y-24968125D01*
X5690714Y-24982411D01*
X5705000Y-25010982D01*
X5705000Y-25096696D01*
X5690714Y-25125268D01*
X5676428Y-25139554D01*
X5647857Y-25153839D01*
X5590714Y-25153839D01*
X5562143Y-25139554D01*
X5833571Y-25125268D02*
X5847857Y-25139554D01*
X5833571Y-25153839D01*
X5819286Y-25139554D01*
X5833571Y-25125268D01*
X5833571Y-25153839D01*
X5833571Y-24968125D02*
X5847857Y-24982411D01*
X5833571Y-24996696D01*
X5819286Y-24982411D01*
X5833571Y-24968125D01*
X5833571Y-24996696D01*
X3450000Y-25628125D02*
X3490000Y-25668125D01*
X3490000Y-25628125D02*
X3450000Y-25668125D01*
X3833571Y-25483839D02*
X3862143Y-25483839D01*
X3890714Y-25498125D01*
X3905000Y-25512411D01*
X3919286Y-25540982D01*
X3933571Y-25598125D01*
X3933571Y-25669554D01*
X3919286Y-25726696D01*
X3905000Y-25755268D01*
X3890714Y-25769554D01*
X3862143Y-25783839D01*
X3833571Y-25783839D01*
X3805000Y-25769554D01*
X3790714Y-25755268D01*
X3776428Y-25726696D01*
X3762143Y-25669554D01*
X3762143Y-25598125D01*
X3776428Y-25540982D01*
X3790714Y-25512411D01*
X3805000Y-25498125D01*
X3833571Y-25483839D01*
X4062143Y-25755268D02*
X4076428Y-25769554D01*
X4062143Y-25783839D01*
X4047857Y-25769554D01*
X4062143Y-25755268D01*
X4062143Y-25783839D01*
X4333571Y-25583839D02*
X4333571Y-25783839D01*
X4262143Y-25469554D02*
X4190714Y-25683839D01*
X4376428Y-25683839D01*
X4547857Y-25483839D02*
X4576428Y-25483839D01*
X4605000Y-25498125D01*
X4619286Y-25512411D01*
X4633571Y-25540982D01*
X4647857Y-25598125D01*
X4647857Y-25669554D01*
X4633571Y-25726696D01*
X4619286Y-25755268D01*
X4605000Y-25769554D01*
X4576428Y-25783839D01*
X4547857Y-25783839D01*
X4519286Y-25769554D01*
X4505000Y-25755268D01*
X4490714Y-25726696D01*
X4476428Y-25669554D01*
X4476428Y-25598125D01*
X4490714Y-25540982D01*
X4505000Y-25512411D01*
X4519286Y-25498125D01*
X4547857Y-25483839D01*
X4776428Y-25783839D02*
X4776428Y-25583839D01*
X4776428Y-25612411D02*
X4790714Y-25598125D01*
X4819286Y-25583839D01*
X4862143Y-25583839D01*
X4890714Y-25598125D01*
X4905000Y-25626696D01*
X4905000Y-25783839D01*
X4905000Y-25626696D02*
X4919286Y-25598125D01*
X4947857Y-25583839D01*
X4990714Y-25583839D01*
X5019286Y-25598125D01*
X5033571Y-25626696D01*
X5033571Y-25783839D01*
X5176428Y-25783839D02*
X5176428Y-25583839D01*
X5176428Y-25612411D02*
X5190714Y-25598125D01*
X5219286Y-25583839D01*
X5262143Y-25583839D01*
X5290714Y-25598125D01*
X5305000Y-25626696D01*
X5305000Y-25783839D01*
X5305000Y-25626696D02*
X5319286Y-25598125D01*
X5347857Y-25583839D01*
X5390714Y-25583839D01*
X5419286Y-25598125D01*
X5433571Y-25626696D01*
X5433571Y-25783839D01*
X6019286Y-25469554D02*
X5762143Y-25855268D01*
X6405000Y-25483839D02*
X6433571Y-25483839D01*
X6462143Y-25498125D01*
X6476428Y-25512411D01*
X6490714Y-25540982D01*
X6505000Y-25598125D01*
X6505000Y-25669554D01*
X6490714Y-25726696D01*
X6476428Y-25755268D01*
X6462143Y-25769554D01*
X6433571Y-25783839D01*
X6405000Y-25783839D01*
X6376428Y-25769554D01*
X6362143Y-25755268D01*
X6347857Y-25726696D01*
X6333571Y-25669554D01*
X6333571Y-25598125D01*
X6347857Y-25540982D01*
X6362143Y-25512411D01*
X6376428Y-25498125D01*
X6405000Y-25483839D01*
X6633571Y-25755268D02*
X6647857Y-25769554D01*
X6633571Y-25783839D01*
X6619286Y-25769554D01*
X6633571Y-25755268D01*
X6633571Y-25783839D01*
X6833571Y-25483839D02*
X6862143Y-25483839D01*
X6890714Y-25498125D01*
X6905000Y-25512411D01*
X6919286Y-25540982D01*
X6933571Y-25598125D01*
X6933571Y-25669554D01*
X6919286Y-25726696D01*
X6905000Y-25755268D01*
X6890714Y-25769554D01*
X6862143Y-25783839D01*
X6833571Y-25783839D01*
X6805000Y-25769554D01*
X6790714Y-25755268D01*
X6776428Y-25726696D01*
X6762143Y-25669554D01*
X6762143Y-25598125D01*
X6776428Y-25540982D01*
X6790714Y-25512411D01*
X6805000Y-25498125D01*
X6833571Y-25483839D01*
X7219286Y-25783839D02*
X7047857Y-25783839D01*
X7133571Y-25783839D02*
X7133571Y-25483839D01*
X7105000Y-25526696D01*
X7076428Y-25555268D01*
X7047857Y-25569554D01*
X7476428Y-25483839D02*
X7419286Y-25483839D01*
X7390714Y-25498125D01*
X7376428Y-25512411D01*
X7347857Y-25555268D01*
X7333571Y-25612411D01*
X7333571Y-25726696D01*
X7347857Y-25755268D01*
X7362143Y-25769554D01*
X7390714Y-25783839D01*
X7447857Y-25783839D01*
X7476428Y-25769554D01*
X7490714Y-25755268D01*
X7505000Y-25726696D01*
X7505000Y-25655268D01*
X7490714Y-25626696D01*
X7476428Y-25612411D01*
X7447857Y-25598125D01*
X7390714Y-25598125D01*
X7362143Y-25612411D01*
X7347857Y-25626696D01*
X7333571Y-25655268D01*
X7619286Y-25483839D02*
X7619286Y-25540982D01*
X7733571Y-25483839D02*
X7733571Y-25540982D01*
X8176428Y-25898125D02*
X8162143Y-25883839D01*
X8133571Y-25840982D01*
X8119286Y-25812411D01*
X8105000Y-25769554D01*
X8090714Y-25698125D01*
X8090714Y-25640982D01*
X8105000Y-25569554D01*
X8119286Y-25526696D01*
X8133571Y-25498125D01*
X8162143Y-25455268D01*
X8176428Y-25440982D01*
X8419286Y-25483839D02*
X8362143Y-25483839D01*
X8333571Y-25498125D01*
X8319286Y-25512411D01*
X8290714Y-25555268D01*
X8276428Y-25612411D01*
X8276428Y-25726696D01*
X8290714Y-25755268D01*
X8305000Y-25769554D01*
X8333571Y-25783839D01*
X8390714Y-25783839D01*
X8419286Y-25769554D01*
X8433571Y-25755268D01*
X8447857Y-25726696D01*
X8447857Y-25655268D01*
X8433571Y-25626696D01*
X8419286Y-25612411D01*
X8390714Y-25598125D01*
X8333571Y-25598125D01*
X8305000Y-25612411D01*
X8290714Y-25626696D01*
X8276428Y-25655268D01*
X8705000Y-25583839D02*
X8705000Y-25783839D01*
X8633571Y-25469554D02*
X8562143Y-25683839D01*
X8747857Y-25683839D01*
X9090714Y-25783839D02*
X9090714Y-25483839D01*
X9219286Y-25783839D02*
X9219286Y-25626696D01*
X9205000Y-25598125D01*
X9176428Y-25583839D01*
X9133571Y-25583839D01*
X9105000Y-25598125D01*
X9090714Y-25612411D01*
X9405000Y-25783839D02*
X9376428Y-25769554D01*
X9362143Y-25755268D01*
X9347857Y-25726696D01*
X9347857Y-25640982D01*
X9362143Y-25612411D01*
X9376428Y-25598125D01*
X9405000Y-25583839D01*
X9447857Y-25583839D01*
X9476428Y-25598125D01*
X9490714Y-25612411D01*
X9505000Y-25640982D01*
X9505000Y-25726696D01*
X9490714Y-25755268D01*
X9476428Y-25769554D01*
X9447857Y-25783839D01*
X9405000Y-25783839D01*
X9676428Y-25783839D02*
X9647857Y-25769554D01*
X9633571Y-25740982D01*
X9633571Y-25483839D01*
X9905000Y-25769554D02*
X9876428Y-25783839D01*
X9819286Y-25783839D01*
X9790714Y-25769554D01*
X9776428Y-25740982D01*
X9776428Y-25626696D01*
X9790714Y-25598125D01*
X9819286Y-25583839D01*
X9876428Y-25583839D01*
X9905000Y-25598125D01*
X9919286Y-25626696D01*
X9919286Y-25655268D01*
X9776428Y-25683839D01*
X10033571Y-25769554D02*
X10062143Y-25783839D01*
X10119286Y-25783839D01*
X10147857Y-25769554D01*
X10162143Y-25740982D01*
X10162143Y-25726696D01*
X10147857Y-25698125D01*
X10119286Y-25683839D01*
X10076428Y-25683839D01*
X10047857Y-25669554D01*
X10033571Y-25640982D01*
X10033571Y-25626696D01*
X10047857Y-25598125D01*
X10076428Y-25583839D01*
X10119286Y-25583839D01*
X10147857Y-25598125D01*
X10262143Y-25898125D02*
X10276428Y-25883839D01*
X10305000Y-25840982D01*
X10319286Y-25812411D01*
X10333571Y-25769554D01*
X10347857Y-25698125D01*
X10347857Y-25640982D01*
X10333571Y-25569554D01*
X10319286Y-25526696D01*
X10305000Y-25498125D01*
X10276428Y-25455268D01*
X10262143Y-25440982D01*
X3490000Y-26044125D02*
G75*
G03*
X3490000Y-26044125I-30000J0D01*
G01*
X3833571Y-25879839D02*
X3862143Y-25879839D01*
X3890714Y-25894125D01*
X3905000Y-25908411D01*
X3919286Y-25936982D01*
X3933571Y-25994125D01*
X3933571Y-26065554D01*
X3919286Y-26122696D01*
X3905000Y-26151268D01*
X3890714Y-26165554D01*
X3862143Y-26179839D01*
X3833571Y-26179839D01*
X3805000Y-26165554D01*
X3790714Y-26151268D01*
X3776428Y-26122696D01*
X3762143Y-26065554D01*
X3762143Y-25994125D01*
X3776428Y-25936982D01*
X3790714Y-25908411D01*
X3805000Y-25894125D01*
X3833571Y-25879839D01*
X4062143Y-26151268D02*
X4076428Y-26165554D01*
X4062143Y-26179839D01*
X4047857Y-26165554D01*
X4062143Y-26151268D01*
X4062143Y-26179839D01*
X4333571Y-25879839D02*
X4276428Y-25879839D01*
X4247857Y-25894125D01*
X4233571Y-25908411D01*
X4205000Y-25951268D01*
X4190714Y-26008411D01*
X4190714Y-26122696D01*
X4205000Y-26151268D01*
X4219286Y-26165554D01*
X4247857Y-26179839D01*
X4305000Y-26179839D01*
X4333571Y-26165554D01*
X4347857Y-26151268D01*
X4362143Y-26122696D01*
X4362143Y-26051268D01*
X4347857Y-26022696D01*
X4333571Y-26008411D01*
X4305000Y-25994125D01*
X4247857Y-25994125D01*
X4219286Y-26008411D01*
X4205000Y-26022696D01*
X4190714Y-26051268D01*
X4547857Y-25879839D02*
X4576428Y-25879839D01*
X4605000Y-25894125D01*
X4619286Y-25908411D01*
X4633571Y-25936982D01*
X4647857Y-25994125D01*
X4647857Y-26065554D01*
X4633571Y-26122696D01*
X4619286Y-26151268D01*
X4605000Y-26165554D01*
X4576428Y-26179839D01*
X4547857Y-26179839D01*
X4519286Y-26165554D01*
X4505000Y-26151268D01*
X4490714Y-26122696D01*
X4476428Y-26065554D01*
X4476428Y-25994125D01*
X4490714Y-25936982D01*
X4505000Y-25908411D01*
X4519286Y-25894125D01*
X4547857Y-25879839D01*
X4776428Y-26179839D02*
X4776428Y-25979839D01*
X4776428Y-26008411D02*
X4790714Y-25994125D01*
X4819286Y-25979839D01*
X4862143Y-25979839D01*
X4890714Y-25994125D01*
X4905000Y-26022696D01*
X4905000Y-26179839D01*
X4905000Y-26022696D02*
X4919286Y-25994125D01*
X4947857Y-25979839D01*
X4990714Y-25979839D01*
X5019286Y-25994125D01*
X5033571Y-26022696D01*
X5033571Y-26179839D01*
X5176428Y-26179839D02*
X5176428Y-25979839D01*
X5176428Y-26008411D02*
X5190714Y-25994125D01*
X5219286Y-25979839D01*
X5262143Y-25979839D01*
X5290714Y-25994125D01*
X5305000Y-26022696D01*
X5305000Y-26179839D01*
X5305000Y-26022696D02*
X5319286Y-25994125D01*
X5347857Y-25979839D01*
X5390714Y-25979839D01*
X5419286Y-25994125D01*
X5433571Y-26022696D01*
X5433571Y-26179839D01*
X6019286Y-25865554D02*
X5762143Y-26251268D01*
X6405000Y-25879839D02*
X6433571Y-25879839D01*
X6462143Y-25894125D01*
X6476428Y-25908411D01*
X6490714Y-25936982D01*
X6505000Y-25994125D01*
X6505000Y-26065554D01*
X6490714Y-26122696D01*
X6476428Y-26151268D01*
X6462143Y-26165554D01*
X6433571Y-26179839D01*
X6405000Y-26179839D01*
X6376428Y-26165554D01*
X6362143Y-26151268D01*
X6347857Y-26122696D01*
X6333571Y-26065554D01*
X6333571Y-25994125D01*
X6347857Y-25936982D01*
X6362143Y-25908411D01*
X6376428Y-25894125D01*
X6405000Y-25879839D01*
X6633571Y-26151268D02*
X6647857Y-26165554D01*
X6633571Y-26179839D01*
X6619286Y-26165554D01*
X6633571Y-26151268D01*
X6633571Y-26179839D01*
X6833571Y-25879839D02*
X6862143Y-25879839D01*
X6890714Y-25894125D01*
X6905000Y-25908411D01*
X6919286Y-25936982D01*
X6933571Y-25994125D01*
X6933571Y-26065554D01*
X6919286Y-26122696D01*
X6905000Y-26151268D01*
X6890714Y-26165554D01*
X6862143Y-26179839D01*
X6833571Y-26179839D01*
X6805000Y-26165554D01*
X6790714Y-26151268D01*
X6776428Y-26122696D01*
X6762143Y-26065554D01*
X6762143Y-25994125D01*
X6776428Y-25936982D01*
X6790714Y-25908411D01*
X6805000Y-25894125D01*
X6833571Y-25879839D01*
X7047857Y-25908411D02*
X7062143Y-25894125D01*
X7090714Y-25879839D01*
X7162143Y-25879839D01*
X7190714Y-25894125D01*
X7205000Y-25908411D01*
X7219286Y-25936982D01*
X7219286Y-25965554D01*
X7205000Y-26008411D01*
X7033571Y-26179839D01*
X7219286Y-26179839D01*
X7476428Y-25979839D02*
X7476428Y-26179839D01*
X7405000Y-25865554D02*
X7333571Y-26079839D01*
X7519286Y-26079839D01*
X7619286Y-25879839D02*
X7619286Y-25936982D01*
X7733571Y-25879839D02*
X7733571Y-25936982D01*
X8176428Y-26294125D02*
X8162143Y-26279839D01*
X8133571Y-26236982D01*
X8119286Y-26208411D01*
X8105000Y-26165554D01*
X8090714Y-26094125D01*
X8090714Y-26036982D01*
X8105000Y-25965554D01*
X8119286Y-25922696D01*
X8133571Y-25894125D01*
X8162143Y-25851268D01*
X8176428Y-25836982D01*
X8276428Y-25908411D02*
X8290714Y-25894125D01*
X8319286Y-25879839D01*
X8390714Y-25879839D01*
X8419286Y-25894125D01*
X8433571Y-25908411D01*
X8447857Y-25936982D01*
X8447857Y-25965554D01*
X8433571Y-26008411D01*
X8262143Y-26179839D01*
X8447857Y-26179839D01*
X8805000Y-26179839D02*
X8805000Y-25879839D01*
X8933571Y-26179839D02*
X8933571Y-26022696D01*
X8919286Y-25994125D01*
X8890714Y-25979839D01*
X8847857Y-25979839D01*
X8819286Y-25994125D01*
X8805000Y-26008411D01*
X9119286Y-26179839D02*
X9090714Y-26165554D01*
X9076428Y-26151268D01*
X9062143Y-26122696D01*
X9062143Y-26036982D01*
X9076428Y-26008411D01*
X9090714Y-25994125D01*
X9119286Y-25979839D01*
X9162143Y-25979839D01*
X9190714Y-25994125D01*
X9205000Y-26008411D01*
X9219286Y-26036982D01*
X9219286Y-26122696D01*
X9205000Y-26151268D01*
X9190714Y-26165554D01*
X9162143Y-26179839D01*
X9119286Y-26179839D01*
X9390714Y-26179839D02*
X9362143Y-26165554D01*
X9347857Y-26136982D01*
X9347857Y-25879839D01*
X9619286Y-26165554D02*
X9590714Y-26179839D01*
X9533571Y-26179839D01*
X9505000Y-26165554D01*
X9490714Y-26136982D01*
X9490714Y-26022696D01*
X9505000Y-25994125D01*
X9533571Y-25979839D01*
X9590714Y-25979839D01*
X9619286Y-25994125D01*
X9633571Y-26022696D01*
X9633571Y-26051268D01*
X9490714Y-26079839D01*
X9747857Y-26165554D02*
X9776428Y-26179839D01*
X9833571Y-26179839D01*
X9862143Y-26165554D01*
X9876428Y-26136982D01*
X9876428Y-26122696D01*
X9862143Y-26094125D01*
X9833571Y-26079839D01*
X9790714Y-26079839D01*
X9762143Y-26065554D01*
X9747857Y-26036982D01*
X9747857Y-26022696D01*
X9762143Y-25994125D01*
X9790714Y-25979839D01*
X9833571Y-25979839D01*
X9862143Y-25994125D01*
X10233571Y-26065554D02*
X10462143Y-26065554D01*
X10347857Y-26179839D02*
X10347857Y-25951268D01*
X10962143Y-25979839D02*
X10962143Y-26179839D01*
X10890714Y-25865554D02*
X10819286Y-26079839D01*
X11005000Y-26079839D01*
X11333571Y-26165554D02*
X11362143Y-26179839D01*
X11419286Y-26179839D01*
X11447857Y-26165554D01*
X11462143Y-26136982D01*
X11462143Y-26122696D01*
X11447857Y-26094125D01*
X11419286Y-26079839D01*
X11376428Y-26079839D01*
X11347857Y-26065554D01*
X11333571Y-26036982D01*
X11333571Y-26022696D01*
X11347857Y-25994125D01*
X11376428Y-25979839D01*
X11419286Y-25979839D01*
X11447857Y-25994125D01*
X11633571Y-26179839D02*
X11605000Y-26165554D01*
X11590714Y-26136982D01*
X11590714Y-25879839D01*
X11790714Y-26179839D02*
X11762143Y-26165554D01*
X11747857Y-26151268D01*
X11733571Y-26122696D01*
X11733571Y-26036982D01*
X11747857Y-26008411D01*
X11762143Y-25994125D01*
X11790714Y-25979839D01*
X11833571Y-25979839D01*
X11862143Y-25994125D01*
X11876428Y-26008411D01*
X11890714Y-26036982D01*
X11890714Y-26122696D01*
X11876428Y-26151268D01*
X11862143Y-26165554D01*
X11833571Y-26179839D01*
X11790714Y-26179839D01*
X11976428Y-25979839D02*
X12090714Y-25979839D01*
X12019286Y-25879839D02*
X12019286Y-26136982D01*
X12033571Y-26165554D01*
X12062143Y-26179839D01*
X12090714Y-26179839D01*
X12176428Y-26165554D02*
X12205000Y-26179839D01*
X12262143Y-26179839D01*
X12290714Y-26165554D01*
X12305000Y-26136982D01*
X12305000Y-26122696D01*
X12290714Y-26094125D01*
X12262143Y-26079839D01*
X12219286Y-26079839D01*
X12190714Y-26065554D01*
X12176428Y-26036982D01*
X12176428Y-26022696D01*
X12190714Y-25994125D01*
X12219286Y-25979839D01*
X12262143Y-25979839D01*
X12290714Y-25994125D01*
X12405000Y-26294125D02*
X12419286Y-26279839D01*
X12447857Y-26236982D01*
X12462143Y-26208411D01*
X12476428Y-26165554D01*
X12490714Y-26094125D01*
X12490714Y-26036982D01*
X12476428Y-25965554D01*
X12462143Y-25922696D01*
X12447857Y-25894125D01*
X12419286Y-25851268D01*
X12405000Y-25836982D01*
X3455000Y-26405125D02*
X3455000Y-26475125D01*
X3420000Y-26440125D02*
X3490000Y-26440125D01*
X3833571Y-26275839D02*
X3862143Y-26275839D01*
X3890714Y-26290125D01*
X3905000Y-26304411D01*
X3919286Y-26332982D01*
X3933571Y-26390125D01*
X3933571Y-26461554D01*
X3919286Y-26518696D01*
X3905000Y-26547268D01*
X3890714Y-26561554D01*
X3862143Y-26575839D01*
X3833571Y-26575839D01*
X3805000Y-26561554D01*
X3790714Y-26547268D01*
X3776428Y-26518696D01*
X3762143Y-26461554D01*
X3762143Y-26390125D01*
X3776428Y-26332982D01*
X3790714Y-26304411D01*
X3805000Y-26290125D01*
X3833571Y-26275839D01*
X4062143Y-26547268D02*
X4076428Y-26561554D01*
X4062143Y-26575839D01*
X4047857Y-26561554D01*
X4062143Y-26547268D01*
X4062143Y-26575839D01*
X4176428Y-26275839D02*
X4376428Y-26275839D01*
X4247857Y-26575839D01*
X4547857Y-26275839D02*
X4576428Y-26275839D01*
X4605000Y-26290125D01*
X4619286Y-26304411D01*
X4633571Y-26332982D01*
X4647857Y-26390125D01*
X4647857Y-26461554D01*
X4633571Y-26518696D01*
X4619286Y-26547268D01*
X4605000Y-26561554D01*
X4576428Y-26575839D01*
X4547857Y-26575839D01*
X4519286Y-26561554D01*
X4505000Y-26547268D01*
X4490714Y-26518696D01*
X4476428Y-26461554D01*
X4476428Y-26390125D01*
X4490714Y-26332982D01*
X4505000Y-26304411D01*
X4519286Y-26290125D01*
X4547857Y-26275839D01*
X4776428Y-26575839D02*
X4776428Y-26375839D01*
X4776428Y-26404411D02*
X4790714Y-26390125D01*
X4819286Y-26375839D01*
X4862143Y-26375839D01*
X4890714Y-26390125D01*
X4905000Y-26418696D01*
X4905000Y-26575839D01*
X4905000Y-26418696D02*
X4919286Y-26390125D01*
X4947857Y-26375839D01*
X4990714Y-26375839D01*
X5019286Y-26390125D01*
X5033571Y-26418696D01*
X5033571Y-26575839D01*
X5176428Y-26575839D02*
X5176428Y-26375839D01*
X5176428Y-26404411D02*
X5190714Y-26390125D01*
X5219286Y-26375839D01*
X5262143Y-26375839D01*
X5290714Y-26390125D01*
X5305000Y-26418696D01*
X5305000Y-26575839D01*
X5305000Y-26418696D02*
X5319286Y-26390125D01*
X5347857Y-26375839D01*
X5390714Y-26375839D01*
X5419286Y-26390125D01*
X5433571Y-26418696D01*
X5433571Y-26575839D01*
X6019286Y-26261554D02*
X5762143Y-26647268D01*
X6405000Y-26275839D02*
X6433571Y-26275839D01*
X6462143Y-26290125D01*
X6476428Y-26304411D01*
X6490714Y-26332982D01*
X6505000Y-26390125D01*
X6505000Y-26461554D01*
X6490714Y-26518696D01*
X6476428Y-26547268D01*
X6462143Y-26561554D01*
X6433571Y-26575839D01*
X6405000Y-26575839D01*
X6376428Y-26561554D01*
X6362143Y-26547268D01*
X6347857Y-26518696D01*
X6333571Y-26461554D01*
X6333571Y-26390125D01*
X6347857Y-26332982D01*
X6362143Y-26304411D01*
X6376428Y-26290125D01*
X6405000Y-26275839D01*
X6633571Y-26547268D02*
X6647857Y-26561554D01*
X6633571Y-26575839D01*
X6619286Y-26561554D01*
X6633571Y-26547268D01*
X6633571Y-26575839D01*
X6833571Y-26275839D02*
X6862143Y-26275839D01*
X6890714Y-26290125D01*
X6905000Y-26304411D01*
X6919286Y-26332982D01*
X6933571Y-26390125D01*
X6933571Y-26461554D01*
X6919286Y-26518696D01*
X6905000Y-26547268D01*
X6890714Y-26561554D01*
X6862143Y-26575839D01*
X6833571Y-26575839D01*
X6805000Y-26561554D01*
X6790714Y-26547268D01*
X6776428Y-26518696D01*
X6762143Y-26461554D01*
X6762143Y-26390125D01*
X6776428Y-26332982D01*
X6790714Y-26304411D01*
X6805000Y-26290125D01*
X6833571Y-26275839D01*
X7047857Y-26304411D02*
X7062143Y-26290125D01*
X7090714Y-26275839D01*
X7162143Y-26275839D01*
X7190714Y-26290125D01*
X7205000Y-26304411D01*
X7219286Y-26332982D01*
X7219286Y-26361554D01*
X7205000Y-26404411D01*
X7033571Y-26575839D01*
X7219286Y-26575839D01*
X7390714Y-26404411D02*
X7362143Y-26390125D01*
X7347857Y-26375839D01*
X7333571Y-26347268D01*
X7333571Y-26332982D01*
X7347857Y-26304411D01*
X7362143Y-26290125D01*
X7390714Y-26275839D01*
X7447857Y-26275839D01*
X7476428Y-26290125D01*
X7490714Y-26304411D01*
X7505000Y-26332982D01*
X7505000Y-26347268D01*
X7490714Y-26375839D01*
X7476428Y-26390125D01*
X7447857Y-26404411D01*
X7390714Y-26404411D01*
X7362143Y-26418696D01*
X7347857Y-26432982D01*
X7333571Y-26461554D01*
X7333571Y-26518696D01*
X7347857Y-26547268D01*
X7362143Y-26561554D01*
X7390714Y-26575839D01*
X7447857Y-26575839D01*
X7476428Y-26561554D01*
X7490714Y-26547268D01*
X7505000Y-26518696D01*
X7505000Y-26461554D01*
X7490714Y-26432982D01*
X7476428Y-26418696D01*
X7447857Y-26404411D01*
X7619286Y-26275839D02*
X7619286Y-26332982D01*
X7733571Y-26275839D02*
X7733571Y-26332982D01*
X8176428Y-26690125D02*
X8162143Y-26675839D01*
X8133571Y-26632982D01*
X8119286Y-26604411D01*
X8105000Y-26561554D01*
X8090714Y-26490125D01*
X8090714Y-26432982D01*
X8105000Y-26361554D01*
X8119286Y-26318696D01*
X8133571Y-26290125D01*
X8162143Y-26247268D01*
X8176428Y-26232982D01*
X8447857Y-26575839D02*
X8276428Y-26575839D01*
X8362143Y-26575839D02*
X8362143Y-26275839D01*
X8333571Y-26318696D01*
X8305000Y-26347268D01*
X8276428Y-26361554D01*
X8705000Y-26275839D02*
X8647857Y-26275839D01*
X8619286Y-26290125D01*
X8605000Y-26304411D01*
X8576428Y-26347268D01*
X8562143Y-26404411D01*
X8562143Y-26518696D01*
X8576428Y-26547268D01*
X8590714Y-26561554D01*
X8619286Y-26575839D01*
X8676428Y-26575839D01*
X8705000Y-26561554D01*
X8719286Y-26547268D01*
X8733571Y-26518696D01*
X8733571Y-26447268D01*
X8719286Y-26418696D01*
X8705000Y-26404411D01*
X8676428Y-26390125D01*
X8619286Y-26390125D01*
X8590714Y-26404411D01*
X8576428Y-26418696D01*
X8562143Y-26447268D01*
X9090714Y-26575839D02*
X9090714Y-26275839D01*
X9219286Y-26575839D02*
X9219286Y-26418696D01*
X9205000Y-26390125D01*
X9176428Y-26375839D01*
X9133571Y-26375839D01*
X9105000Y-26390125D01*
X9090714Y-26404411D01*
X9405000Y-26575839D02*
X9376428Y-26561554D01*
X9362143Y-26547268D01*
X9347857Y-26518696D01*
X9347857Y-26432982D01*
X9362143Y-26404411D01*
X9376428Y-26390125D01*
X9405000Y-26375839D01*
X9447857Y-26375839D01*
X9476428Y-26390125D01*
X9490714Y-26404411D01*
X9505000Y-26432982D01*
X9505000Y-26518696D01*
X9490714Y-26547268D01*
X9476428Y-26561554D01*
X9447857Y-26575839D01*
X9405000Y-26575839D01*
X9676428Y-26575839D02*
X9647857Y-26561554D01*
X9633571Y-26532982D01*
X9633571Y-26275839D01*
X9905000Y-26561554D02*
X9876428Y-26575839D01*
X9819286Y-26575839D01*
X9790714Y-26561554D01*
X9776428Y-26532982D01*
X9776428Y-26418696D01*
X9790714Y-26390125D01*
X9819286Y-26375839D01*
X9876428Y-26375839D01*
X9905000Y-26390125D01*
X9919286Y-26418696D01*
X9919286Y-26447268D01*
X9776428Y-26475839D01*
X10033571Y-26561554D02*
X10062143Y-26575839D01*
X10119286Y-26575839D01*
X10147857Y-26561554D01*
X10162143Y-26532982D01*
X10162143Y-26518696D01*
X10147857Y-26490125D01*
X10119286Y-26475839D01*
X10076428Y-26475839D01*
X10047857Y-26461554D01*
X10033571Y-26432982D01*
X10033571Y-26418696D01*
X10047857Y-26390125D01*
X10076428Y-26375839D01*
X10119286Y-26375839D01*
X10147857Y-26390125D01*
X10262143Y-26690125D02*
X10276428Y-26675839D01*
X10305000Y-26632982D01*
X10319286Y-26604411D01*
X10333571Y-26561554D01*
X10347857Y-26490125D01*
X10347857Y-26432982D01*
X10333571Y-26361554D01*
X10319286Y-26318696D01*
X10305000Y-26290125D01*
X10276428Y-26247268D01*
X10262143Y-26232982D01*
X3478841Y-26863066D02*
X3478841Y-26809184D01*
X3424959Y-26809184D01*
X3424959Y-26863066D01*
X3478841Y-26863066D01*
X3833571Y-26671839D02*
X3862143Y-26671839D01*
X3890714Y-26686125D01*
X3905000Y-26700411D01*
X3919286Y-26728982D01*
X3933571Y-26786125D01*
X3933571Y-26857554D01*
X3919286Y-26914696D01*
X3905000Y-26943268D01*
X3890714Y-26957554D01*
X3862143Y-26971839D01*
X3833571Y-26971839D01*
X3805000Y-26957554D01*
X3790714Y-26943268D01*
X3776428Y-26914696D01*
X3762143Y-26857554D01*
X3762143Y-26786125D01*
X3776428Y-26728982D01*
X3790714Y-26700411D01*
X3805000Y-26686125D01*
X3833571Y-26671839D01*
X4062143Y-26943268D02*
X4076428Y-26957554D01*
X4062143Y-26971839D01*
X4047857Y-26957554D01*
X4062143Y-26943268D01*
X4062143Y-26971839D01*
X4176428Y-26671839D02*
X4376428Y-26671839D01*
X4247857Y-26971839D01*
X4619286Y-26671839D02*
X4562143Y-26671839D01*
X4533571Y-26686125D01*
X4519286Y-26700411D01*
X4490714Y-26743268D01*
X4476428Y-26800411D01*
X4476428Y-26914696D01*
X4490714Y-26943268D01*
X4505000Y-26957554D01*
X4533571Y-26971839D01*
X4590714Y-26971839D01*
X4619286Y-26957554D01*
X4633571Y-26943268D01*
X4647857Y-26914696D01*
X4647857Y-26843268D01*
X4633571Y-26814696D01*
X4619286Y-26800411D01*
X4590714Y-26786125D01*
X4533571Y-26786125D01*
X4505000Y-26800411D01*
X4490714Y-26814696D01*
X4476428Y-26843268D01*
X4776428Y-26971839D02*
X4776428Y-26771839D01*
X4776428Y-26800411D02*
X4790714Y-26786125D01*
X4819286Y-26771839D01*
X4862143Y-26771839D01*
X4890714Y-26786125D01*
X4905000Y-26814696D01*
X4905000Y-26971839D01*
X4905000Y-26814696D02*
X4919286Y-26786125D01*
X4947857Y-26771839D01*
X4990714Y-26771839D01*
X5019286Y-26786125D01*
X5033571Y-26814696D01*
X5033571Y-26971839D01*
X5176428Y-26971839D02*
X5176428Y-26771839D01*
X5176428Y-26800411D02*
X5190714Y-26786125D01*
X5219286Y-26771839D01*
X5262143Y-26771839D01*
X5290714Y-26786125D01*
X5305000Y-26814696D01*
X5305000Y-26971839D01*
X5305000Y-26814696D02*
X5319286Y-26786125D01*
X5347857Y-26771839D01*
X5390714Y-26771839D01*
X5419286Y-26786125D01*
X5433571Y-26814696D01*
X5433571Y-26971839D01*
X6019286Y-26657554D02*
X5762143Y-27043268D01*
X6405000Y-26671839D02*
X6433571Y-26671839D01*
X6462143Y-26686125D01*
X6476428Y-26700411D01*
X6490714Y-26728982D01*
X6505000Y-26786125D01*
X6505000Y-26857554D01*
X6490714Y-26914696D01*
X6476428Y-26943268D01*
X6462143Y-26957554D01*
X6433571Y-26971839D01*
X6405000Y-26971839D01*
X6376428Y-26957554D01*
X6362143Y-26943268D01*
X6347857Y-26914696D01*
X6333571Y-26857554D01*
X6333571Y-26786125D01*
X6347857Y-26728982D01*
X6362143Y-26700411D01*
X6376428Y-26686125D01*
X6405000Y-26671839D01*
X6633571Y-26943268D02*
X6647857Y-26957554D01*
X6633571Y-26971839D01*
X6619286Y-26957554D01*
X6633571Y-26943268D01*
X6633571Y-26971839D01*
X6833571Y-26671839D02*
X6862143Y-26671839D01*
X6890714Y-26686125D01*
X6905000Y-26700411D01*
X6919286Y-26728982D01*
X6933571Y-26786125D01*
X6933571Y-26857554D01*
X6919286Y-26914696D01*
X6905000Y-26943268D01*
X6890714Y-26957554D01*
X6862143Y-26971839D01*
X6833571Y-26971839D01*
X6805000Y-26957554D01*
X6790714Y-26943268D01*
X6776428Y-26914696D01*
X6762143Y-26857554D01*
X6762143Y-26786125D01*
X6776428Y-26728982D01*
X6790714Y-26700411D01*
X6805000Y-26686125D01*
X6833571Y-26671839D01*
X7033571Y-26671839D02*
X7219286Y-26671839D01*
X7119286Y-26786125D01*
X7162143Y-26786125D01*
X7190714Y-26800411D01*
X7205000Y-26814696D01*
X7219286Y-26843268D01*
X7219286Y-26914696D01*
X7205000Y-26943268D01*
X7190714Y-26957554D01*
X7162143Y-26971839D01*
X7076428Y-26971839D01*
X7047857Y-26957554D01*
X7033571Y-26943268D01*
X7405000Y-26671839D02*
X7433571Y-26671839D01*
X7462143Y-26686125D01*
X7476428Y-26700411D01*
X7490714Y-26728982D01*
X7505000Y-26786125D01*
X7505000Y-26857554D01*
X7490714Y-26914696D01*
X7476428Y-26943268D01*
X7462143Y-26957554D01*
X7433571Y-26971839D01*
X7405000Y-26971839D01*
X7376428Y-26957554D01*
X7362143Y-26943268D01*
X7347857Y-26914696D01*
X7333571Y-26857554D01*
X7333571Y-26786125D01*
X7347857Y-26728982D01*
X7362143Y-26700411D01*
X7376428Y-26686125D01*
X7405000Y-26671839D01*
X7619286Y-26671839D02*
X7619286Y-26728982D01*
X7733571Y-26671839D02*
X7733571Y-26728982D01*
X8176428Y-27086125D02*
X8162143Y-27071839D01*
X8133571Y-27028982D01*
X8119286Y-27000411D01*
X8105000Y-26957554D01*
X8090714Y-26886125D01*
X8090714Y-26828982D01*
X8105000Y-26757554D01*
X8119286Y-26714696D01*
X8133571Y-26686125D01*
X8162143Y-26643268D01*
X8176428Y-26628982D01*
X8333571Y-26800411D02*
X8305000Y-26786125D01*
X8290714Y-26771839D01*
X8276428Y-26743268D01*
X8276428Y-26728982D01*
X8290714Y-26700411D01*
X8305000Y-26686125D01*
X8333571Y-26671839D01*
X8390714Y-26671839D01*
X8419286Y-26686125D01*
X8433571Y-26700411D01*
X8447857Y-26728982D01*
X8447857Y-26743268D01*
X8433571Y-26771839D01*
X8419286Y-26786125D01*
X8390714Y-26800411D01*
X8333571Y-26800411D01*
X8305000Y-26814696D01*
X8290714Y-26828982D01*
X8276428Y-26857554D01*
X8276428Y-26914696D01*
X8290714Y-26943268D01*
X8305000Y-26957554D01*
X8333571Y-26971839D01*
X8390714Y-26971839D01*
X8419286Y-26957554D01*
X8433571Y-26943268D01*
X8447857Y-26914696D01*
X8447857Y-26857554D01*
X8433571Y-26828982D01*
X8419286Y-26814696D01*
X8390714Y-26800411D01*
X8805000Y-26971839D02*
X8805000Y-26671839D01*
X8933571Y-26971839D02*
X8933571Y-26814696D01*
X8919286Y-26786125D01*
X8890714Y-26771839D01*
X8847857Y-26771839D01*
X8819286Y-26786125D01*
X8805000Y-26800411D01*
X9119286Y-26971839D02*
X9090714Y-26957554D01*
X9076428Y-26943268D01*
X9062143Y-26914696D01*
X9062143Y-26828982D01*
X9076428Y-26800411D01*
X9090714Y-26786125D01*
X9119286Y-26771839D01*
X9162143Y-26771839D01*
X9190714Y-26786125D01*
X9205000Y-26800411D01*
X9219286Y-26828982D01*
X9219286Y-26914696D01*
X9205000Y-26943268D01*
X9190714Y-26957554D01*
X9162143Y-26971839D01*
X9119286Y-26971839D01*
X9390714Y-26971839D02*
X9362143Y-26957554D01*
X9347857Y-26928982D01*
X9347857Y-26671839D01*
X9619286Y-26957554D02*
X9590714Y-26971839D01*
X9533571Y-26971839D01*
X9505000Y-26957554D01*
X9490714Y-26928982D01*
X9490714Y-26814696D01*
X9505000Y-26786125D01*
X9533571Y-26771839D01*
X9590714Y-26771839D01*
X9619286Y-26786125D01*
X9633571Y-26814696D01*
X9633571Y-26843268D01*
X9490714Y-26871839D01*
X9747857Y-26957554D02*
X9776428Y-26971839D01*
X9833571Y-26971839D01*
X9862143Y-26957554D01*
X9876428Y-26928982D01*
X9876428Y-26914696D01*
X9862143Y-26886125D01*
X9833571Y-26871839D01*
X9790714Y-26871839D01*
X9762143Y-26857554D01*
X9747857Y-26828982D01*
X9747857Y-26814696D01*
X9762143Y-26786125D01*
X9790714Y-26771839D01*
X9833571Y-26771839D01*
X9862143Y-26786125D01*
X9976428Y-27086125D02*
X9990714Y-27071839D01*
X10019286Y-27028982D01*
X10033571Y-27000411D01*
X10047857Y-26957554D01*
X10062143Y-26886125D01*
X10062143Y-26828982D01*
X10047857Y-26757554D01*
X10033571Y-26714696D01*
X10019286Y-26686125D01*
X9990714Y-26643268D01*
X9976428Y-26628982D01*
X3450000Y-27272125D02*
X3490000Y-27232125D01*
X3450000Y-27192125D01*
X3410000Y-27232125D01*
X3450000Y-27272125D01*
X3833571Y-27067839D02*
X3862143Y-27067839D01*
X3890714Y-27082125D01*
X3905000Y-27096411D01*
X3919286Y-27124982D01*
X3933571Y-27182125D01*
X3933571Y-27253554D01*
X3919286Y-27310696D01*
X3905000Y-27339268D01*
X3890714Y-27353554D01*
X3862143Y-27367839D01*
X3833571Y-27367839D01*
X3805000Y-27353554D01*
X3790714Y-27339268D01*
X3776428Y-27310696D01*
X3762143Y-27253554D01*
X3762143Y-27182125D01*
X3776428Y-27124982D01*
X3790714Y-27096411D01*
X3805000Y-27082125D01*
X3833571Y-27067839D01*
X4062143Y-27339268D02*
X4076428Y-27353554D01*
X4062143Y-27367839D01*
X4047857Y-27353554D01*
X4062143Y-27339268D01*
X4062143Y-27367839D01*
X4247857Y-27196411D02*
X4219286Y-27182125D01*
X4205000Y-27167839D01*
X4190714Y-27139268D01*
X4190714Y-27124982D01*
X4205000Y-27096411D01*
X4219286Y-27082125D01*
X4247857Y-27067839D01*
X4305000Y-27067839D01*
X4333571Y-27082125D01*
X4347857Y-27096411D01*
X4362143Y-27124982D01*
X4362143Y-27139268D01*
X4347857Y-27167839D01*
X4333571Y-27182125D01*
X4305000Y-27196411D01*
X4247857Y-27196411D01*
X4219286Y-27210696D01*
X4205000Y-27224982D01*
X4190714Y-27253554D01*
X4190714Y-27310696D01*
X4205000Y-27339268D01*
X4219286Y-27353554D01*
X4247857Y-27367839D01*
X4305000Y-27367839D01*
X4333571Y-27353554D01*
X4347857Y-27339268D01*
X4362143Y-27310696D01*
X4362143Y-27253554D01*
X4347857Y-27224982D01*
X4333571Y-27210696D01*
X4305000Y-27196411D01*
X4547857Y-27067839D02*
X4576428Y-27067839D01*
X4605000Y-27082125D01*
X4619286Y-27096411D01*
X4633571Y-27124982D01*
X4647857Y-27182125D01*
X4647857Y-27253554D01*
X4633571Y-27310696D01*
X4619286Y-27339268D01*
X4605000Y-27353554D01*
X4576428Y-27367839D01*
X4547857Y-27367839D01*
X4519286Y-27353554D01*
X4505000Y-27339268D01*
X4490714Y-27310696D01*
X4476428Y-27253554D01*
X4476428Y-27182125D01*
X4490714Y-27124982D01*
X4505000Y-27096411D01*
X4519286Y-27082125D01*
X4547857Y-27067839D01*
X4776428Y-27367839D02*
X4776428Y-27167839D01*
X4776428Y-27196411D02*
X4790714Y-27182125D01*
X4819286Y-27167839D01*
X4862143Y-27167839D01*
X4890714Y-27182125D01*
X4905000Y-27210696D01*
X4905000Y-27367839D01*
X4905000Y-27210696D02*
X4919286Y-27182125D01*
X4947857Y-27167839D01*
X4990714Y-27167839D01*
X5019286Y-27182125D01*
X5033571Y-27210696D01*
X5033571Y-27367839D01*
X5176428Y-27367839D02*
X5176428Y-27167839D01*
X5176428Y-27196411D02*
X5190714Y-27182125D01*
X5219286Y-27167839D01*
X5262143Y-27167839D01*
X5290714Y-27182125D01*
X5305000Y-27210696D01*
X5305000Y-27367839D01*
X5305000Y-27210696D02*
X5319286Y-27182125D01*
X5347857Y-27167839D01*
X5390714Y-27167839D01*
X5419286Y-27182125D01*
X5433571Y-27210696D01*
X5433571Y-27367839D01*
X6019286Y-27053554D02*
X5762143Y-27439268D01*
X6405000Y-27067839D02*
X6433571Y-27067839D01*
X6462143Y-27082125D01*
X6476428Y-27096411D01*
X6490714Y-27124982D01*
X6505000Y-27182125D01*
X6505000Y-27253554D01*
X6490714Y-27310696D01*
X6476428Y-27339268D01*
X6462143Y-27353554D01*
X6433571Y-27367839D01*
X6405000Y-27367839D01*
X6376428Y-27353554D01*
X6362143Y-27339268D01*
X6347857Y-27310696D01*
X6333571Y-27253554D01*
X6333571Y-27182125D01*
X6347857Y-27124982D01*
X6362143Y-27096411D01*
X6376428Y-27082125D01*
X6405000Y-27067839D01*
X6633571Y-27339268D02*
X6647857Y-27353554D01*
X6633571Y-27367839D01*
X6619286Y-27353554D01*
X6633571Y-27339268D01*
X6633571Y-27367839D01*
X6833571Y-27067839D02*
X6862143Y-27067839D01*
X6890714Y-27082125D01*
X6905000Y-27096411D01*
X6919286Y-27124982D01*
X6933571Y-27182125D01*
X6933571Y-27253554D01*
X6919286Y-27310696D01*
X6905000Y-27339268D01*
X6890714Y-27353554D01*
X6862143Y-27367839D01*
X6833571Y-27367839D01*
X6805000Y-27353554D01*
X6790714Y-27339268D01*
X6776428Y-27310696D01*
X6762143Y-27253554D01*
X6762143Y-27182125D01*
X6776428Y-27124982D01*
X6790714Y-27096411D01*
X6805000Y-27082125D01*
X6833571Y-27067839D01*
X7033571Y-27067839D02*
X7219286Y-27067839D01*
X7119286Y-27182125D01*
X7162143Y-27182125D01*
X7190714Y-27196411D01*
X7205000Y-27210696D01*
X7219286Y-27239268D01*
X7219286Y-27310696D01*
X7205000Y-27339268D01*
X7190714Y-27353554D01*
X7162143Y-27367839D01*
X7076428Y-27367839D01*
X7047857Y-27353554D01*
X7033571Y-27339268D01*
X7505000Y-27367839D02*
X7333571Y-27367839D01*
X7419286Y-27367839D02*
X7419286Y-27067839D01*
X7390714Y-27110696D01*
X7362143Y-27139268D01*
X7333571Y-27153554D01*
X7619286Y-27067839D02*
X7619286Y-27124982D01*
X7733571Y-27067839D02*
X7733571Y-27124982D01*
X8176428Y-27482125D02*
X8162143Y-27467839D01*
X8133571Y-27424982D01*
X8119286Y-27396411D01*
X8105000Y-27353554D01*
X8090714Y-27282125D01*
X8090714Y-27224982D01*
X8105000Y-27153554D01*
X8119286Y-27110696D01*
X8133571Y-27082125D01*
X8162143Y-27039268D01*
X8176428Y-27024982D01*
X8447857Y-27367839D02*
X8276428Y-27367839D01*
X8362143Y-27367839D02*
X8362143Y-27067839D01*
X8333571Y-27110696D01*
X8305000Y-27139268D01*
X8276428Y-27153554D01*
X8619286Y-27196411D02*
X8590714Y-27182125D01*
X8576428Y-27167839D01*
X8562143Y-27139268D01*
X8562143Y-27124982D01*
X8576428Y-27096411D01*
X8590714Y-27082125D01*
X8619286Y-27067839D01*
X8676428Y-27067839D01*
X8705000Y-27082125D01*
X8719286Y-27096411D01*
X8733571Y-27124982D01*
X8733571Y-27139268D01*
X8719286Y-27167839D01*
X8705000Y-27182125D01*
X8676428Y-27196411D01*
X8619286Y-27196411D01*
X8590714Y-27210696D01*
X8576428Y-27224982D01*
X8562143Y-27253554D01*
X8562143Y-27310696D01*
X8576428Y-27339268D01*
X8590714Y-27353554D01*
X8619286Y-27367839D01*
X8676428Y-27367839D01*
X8705000Y-27353554D01*
X8719286Y-27339268D01*
X8733571Y-27310696D01*
X8733571Y-27253554D01*
X8719286Y-27224982D01*
X8705000Y-27210696D01*
X8676428Y-27196411D01*
X8905000Y-27196411D02*
X8876428Y-27182125D01*
X8862143Y-27167839D01*
X8847857Y-27139268D01*
X8847857Y-27124982D01*
X8862143Y-27096411D01*
X8876428Y-27082125D01*
X8905000Y-27067839D01*
X8962143Y-27067839D01*
X8990714Y-27082125D01*
X9005000Y-27096411D01*
X9019286Y-27124982D01*
X9019286Y-27139268D01*
X9005000Y-27167839D01*
X8990714Y-27182125D01*
X8962143Y-27196411D01*
X8905000Y-27196411D01*
X8876428Y-27210696D01*
X8862143Y-27224982D01*
X8847857Y-27253554D01*
X8847857Y-27310696D01*
X8862143Y-27339268D01*
X8876428Y-27353554D01*
X8905000Y-27367839D01*
X8962143Y-27367839D01*
X8990714Y-27353554D01*
X9005000Y-27339268D01*
X9019286Y-27310696D01*
X9019286Y-27253554D01*
X9005000Y-27224982D01*
X8990714Y-27210696D01*
X8962143Y-27196411D01*
X9376428Y-27367839D02*
X9376428Y-27067839D01*
X9505000Y-27367839D02*
X9505000Y-27210696D01*
X9490714Y-27182125D01*
X9462143Y-27167839D01*
X9419286Y-27167839D01*
X9390714Y-27182125D01*
X9376428Y-27196411D01*
X9690714Y-27367839D02*
X9662143Y-27353554D01*
X9647857Y-27339268D01*
X9633571Y-27310696D01*
X9633571Y-27224982D01*
X9647857Y-27196411D01*
X9662143Y-27182125D01*
X9690714Y-27167839D01*
X9733571Y-27167839D01*
X9762143Y-27182125D01*
X9776428Y-27196411D01*
X9790714Y-27224982D01*
X9790714Y-27310696D01*
X9776428Y-27339268D01*
X9762143Y-27353554D01*
X9733571Y-27367839D01*
X9690714Y-27367839D01*
X9962143Y-27367839D02*
X9933571Y-27353554D01*
X9919286Y-27324982D01*
X9919286Y-27067839D01*
X10190714Y-27353554D02*
X10162143Y-27367839D01*
X10105000Y-27367839D01*
X10076428Y-27353554D01*
X10062143Y-27324982D01*
X10062143Y-27210696D01*
X10076428Y-27182125D01*
X10105000Y-27167839D01*
X10162143Y-27167839D01*
X10190714Y-27182125D01*
X10205000Y-27210696D01*
X10205000Y-27239268D01*
X10062143Y-27267839D01*
X10319286Y-27353554D02*
X10347857Y-27367839D01*
X10405000Y-27367839D01*
X10433571Y-27353554D01*
X10447857Y-27324982D01*
X10447857Y-27310696D01*
X10433571Y-27282125D01*
X10405000Y-27267839D01*
X10362143Y-27267839D01*
X10333571Y-27253554D01*
X10319286Y-27224982D01*
X10319286Y-27210696D01*
X10333571Y-27182125D01*
X10362143Y-27167839D01*
X10405000Y-27167839D01*
X10433571Y-27182125D01*
X10547857Y-27482125D02*
X10562143Y-27467839D01*
X10590714Y-27424982D01*
X10605000Y-27396411D01*
X10619286Y-27353554D01*
X10633571Y-27282125D01*
X10633571Y-27224982D01*
X10619286Y-27153554D01*
X10605000Y-27110696D01*
X10590714Y-27082125D01*
X10562143Y-27039268D01*
X10547857Y-27024982D01*
X3400000Y-27583125D02*
X3490000Y-27673125D01*
X3490000Y-27583125D02*
X3400000Y-27673125D01*
X3490000Y-27628125D02*
G75*
G03*
X3490000Y-27628125I-45000J0D01*
G01*
X3833571Y-27463839D02*
X3862143Y-27463839D01*
X3890714Y-27478125D01*
X3905000Y-27492411D01*
X3919286Y-27520982D01*
X3933571Y-27578125D01*
X3933571Y-27649554D01*
X3919286Y-27706696D01*
X3905000Y-27735268D01*
X3890714Y-27749554D01*
X3862143Y-27763839D01*
X3833571Y-27763839D01*
X3805000Y-27749554D01*
X3790714Y-27735268D01*
X3776428Y-27706696D01*
X3762143Y-27649554D01*
X3762143Y-27578125D01*
X3776428Y-27520982D01*
X3790714Y-27492411D01*
X3805000Y-27478125D01*
X3833571Y-27463839D01*
X4062143Y-27735268D02*
X4076428Y-27749554D01*
X4062143Y-27763839D01*
X4047857Y-27749554D01*
X4062143Y-27735268D01*
X4062143Y-27763839D01*
X4219286Y-27763839D02*
X4276428Y-27763839D01*
X4305000Y-27749554D01*
X4319286Y-27735268D01*
X4347857Y-27692411D01*
X4362143Y-27635268D01*
X4362143Y-27520982D01*
X4347857Y-27492411D01*
X4333571Y-27478125D01*
X4305000Y-27463839D01*
X4247857Y-27463839D01*
X4219286Y-27478125D01*
X4205000Y-27492411D01*
X4190714Y-27520982D01*
X4190714Y-27592411D01*
X4205000Y-27620982D01*
X4219286Y-27635268D01*
X4247857Y-27649554D01*
X4305000Y-27649554D01*
X4333571Y-27635268D01*
X4347857Y-27620982D01*
X4362143Y-27592411D01*
X4547857Y-27463839D02*
X4576428Y-27463839D01*
X4605000Y-27478125D01*
X4619286Y-27492411D01*
X4633571Y-27520982D01*
X4647857Y-27578125D01*
X4647857Y-27649554D01*
X4633571Y-27706696D01*
X4619286Y-27735268D01*
X4605000Y-27749554D01*
X4576428Y-27763839D01*
X4547857Y-27763839D01*
X4519286Y-27749554D01*
X4505000Y-27735268D01*
X4490714Y-27706696D01*
X4476428Y-27649554D01*
X4476428Y-27578125D01*
X4490714Y-27520982D01*
X4505000Y-27492411D01*
X4519286Y-27478125D01*
X4547857Y-27463839D01*
X4776428Y-27763839D02*
X4776428Y-27563839D01*
X4776428Y-27592411D02*
X4790714Y-27578125D01*
X4819286Y-27563839D01*
X4862143Y-27563839D01*
X4890714Y-27578125D01*
X4905000Y-27606696D01*
X4905000Y-27763839D01*
X4905000Y-27606696D02*
X4919286Y-27578125D01*
X4947857Y-27563839D01*
X4990714Y-27563839D01*
X5019286Y-27578125D01*
X5033571Y-27606696D01*
X5033571Y-27763839D01*
X5176428Y-27763839D02*
X5176428Y-27563839D01*
X5176428Y-27592411D02*
X5190714Y-27578125D01*
X5219286Y-27563839D01*
X5262143Y-27563839D01*
X5290714Y-27578125D01*
X5305000Y-27606696D01*
X5305000Y-27763839D01*
X5305000Y-27606696D02*
X5319286Y-27578125D01*
X5347857Y-27563839D01*
X5390714Y-27563839D01*
X5419286Y-27578125D01*
X5433571Y-27606696D01*
X5433571Y-27763839D01*
X6019286Y-27449554D02*
X5762143Y-27835268D01*
X6405000Y-27463839D02*
X6433571Y-27463839D01*
X6462143Y-27478125D01*
X6476428Y-27492411D01*
X6490714Y-27520982D01*
X6505000Y-27578125D01*
X6505000Y-27649554D01*
X6490714Y-27706696D01*
X6476428Y-27735268D01*
X6462143Y-27749554D01*
X6433571Y-27763839D01*
X6405000Y-27763839D01*
X6376428Y-27749554D01*
X6362143Y-27735268D01*
X6347857Y-27706696D01*
X6333571Y-27649554D01*
X6333571Y-27578125D01*
X6347857Y-27520982D01*
X6362143Y-27492411D01*
X6376428Y-27478125D01*
X6405000Y-27463839D01*
X6633571Y-27735268D02*
X6647857Y-27749554D01*
X6633571Y-27763839D01*
X6619286Y-27749554D01*
X6633571Y-27735268D01*
X6633571Y-27763839D01*
X6833571Y-27463839D02*
X6862143Y-27463839D01*
X6890714Y-27478125D01*
X6905000Y-27492411D01*
X6919286Y-27520982D01*
X6933571Y-27578125D01*
X6933571Y-27649554D01*
X6919286Y-27706696D01*
X6905000Y-27735268D01*
X6890714Y-27749554D01*
X6862143Y-27763839D01*
X6833571Y-27763839D01*
X6805000Y-27749554D01*
X6790714Y-27735268D01*
X6776428Y-27706696D01*
X6762143Y-27649554D01*
X6762143Y-27578125D01*
X6776428Y-27520982D01*
X6790714Y-27492411D01*
X6805000Y-27478125D01*
X6833571Y-27463839D01*
X7033571Y-27463839D02*
X7219286Y-27463839D01*
X7119286Y-27578125D01*
X7162143Y-27578125D01*
X7190714Y-27592411D01*
X7205000Y-27606696D01*
X7219286Y-27635268D01*
X7219286Y-27706696D01*
X7205000Y-27735268D01*
X7190714Y-27749554D01*
X7162143Y-27763839D01*
X7076428Y-27763839D01*
X7047857Y-27749554D01*
X7033571Y-27735268D01*
X7490714Y-27463839D02*
X7347857Y-27463839D01*
X7333571Y-27606696D01*
X7347857Y-27592411D01*
X7376428Y-27578125D01*
X7447857Y-27578125D01*
X7476428Y-27592411D01*
X7490714Y-27606696D01*
X7505000Y-27635268D01*
X7505000Y-27706696D01*
X7490714Y-27735268D01*
X7476428Y-27749554D01*
X7447857Y-27763839D01*
X7376428Y-27763839D01*
X7347857Y-27749554D01*
X7333571Y-27735268D01*
X7619286Y-27463839D02*
X7619286Y-27520982D01*
X7733571Y-27463839D02*
X7733571Y-27520982D01*
X8176428Y-27878125D02*
X8162143Y-27863839D01*
X8133571Y-27820982D01*
X8119286Y-27792411D01*
X8105000Y-27749554D01*
X8090714Y-27678125D01*
X8090714Y-27620982D01*
X8105000Y-27549554D01*
X8119286Y-27506696D01*
X8133571Y-27478125D01*
X8162143Y-27435268D01*
X8176428Y-27420982D01*
X8276428Y-27492411D02*
X8290714Y-27478125D01*
X8319286Y-27463839D01*
X8390714Y-27463839D01*
X8419286Y-27478125D01*
X8433571Y-27492411D01*
X8447857Y-27520982D01*
X8447857Y-27549554D01*
X8433571Y-27592411D01*
X8262143Y-27763839D01*
X8447857Y-27763839D01*
X8805000Y-27763839D02*
X8805000Y-27463839D01*
X8933571Y-27763839D02*
X8933571Y-27606696D01*
X8919286Y-27578125D01*
X8890714Y-27563839D01*
X8847857Y-27563839D01*
X8819286Y-27578125D01*
X8805000Y-27592411D01*
X9119286Y-27763839D02*
X9090714Y-27749554D01*
X9076428Y-27735268D01*
X9062143Y-27706696D01*
X9062143Y-27620982D01*
X9076428Y-27592411D01*
X9090714Y-27578125D01*
X9119286Y-27563839D01*
X9162143Y-27563839D01*
X9190714Y-27578125D01*
X9205000Y-27592411D01*
X9219286Y-27620982D01*
X9219286Y-27706696D01*
X9205000Y-27735268D01*
X9190714Y-27749554D01*
X9162143Y-27763839D01*
X9119286Y-27763839D01*
X9390714Y-27763839D02*
X9362143Y-27749554D01*
X9347857Y-27720982D01*
X9347857Y-27463839D01*
X9619286Y-27749554D02*
X9590714Y-27763839D01*
X9533571Y-27763839D01*
X9505000Y-27749554D01*
X9490714Y-27720982D01*
X9490714Y-27606696D01*
X9505000Y-27578125D01*
X9533571Y-27563839D01*
X9590714Y-27563839D01*
X9619286Y-27578125D01*
X9633571Y-27606696D01*
X9633571Y-27635268D01*
X9490714Y-27663839D01*
X9747857Y-27749554D02*
X9776428Y-27763839D01*
X9833571Y-27763839D01*
X9862143Y-27749554D01*
X9876428Y-27720982D01*
X9876428Y-27706696D01*
X9862143Y-27678125D01*
X9833571Y-27663839D01*
X9790714Y-27663839D01*
X9762143Y-27649554D01*
X9747857Y-27620982D01*
X9747857Y-27606696D01*
X9762143Y-27578125D01*
X9790714Y-27563839D01*
X9833571Y-27563839D01*
X9862143Y-27578125D01*
X9976428Y-27878125D02*
X9990714Y-27863839D01*
X10019286Y-27820982D01*
X10033571Y-27792411D01*
X10047857Y-27749554D01*
X10062143Y-27678125D01*
X10062143Y-27620982D01*
X10047857Y-27549554D01*
X10033571Y-27506696D01*
X10019286Y-27478125D01*
X9990714Y-27435268D01*
X9976428Y-27420982D01*
X3390000Y-27974125D02*
X3490000Y-28074125D01*
X3490000Y-27974125D02*
X3390000Y-28074125D01*
X3440000Y-27974125D02*
X3440000Y-28074125D01*
X3390000Y-28024125D02*
X3490000Y-28024125D01*
X3933571Y-28159839D02*
X3762143Y-28159839D01*
X3847857Y-28159839D02*
X3847857Y-27859839D01*
X3819286Y-27902696D01*
X3790714Y-27931268D01*
X3762143Y-27945554D01*
X4062143Y-28131268D02*
X4076428Y-28145554D01*
X4062143Y-28159839D01*
X4047857Y-28145554D01*
X4062143Y-28131268D01*
X4062143Y-28159839D01*
X4262143Y-27859839D02*
X4290714Y-27859839D01*
X4319286Y-27874125D01*
X4333571Y-27888411D01*
X4347857Y-27916982D01*
X4362143Y-27974125D01*
X4362143Y-28045554D01*
X4347857Y-28102696D01*
X4333571Y-28131268D01*
X4319286Y-28145554D01*
X4290714Y-28159839D01*
X4262143Y-28159839D01*
X4233571Y-28145554D01*
X4219286Y-28131268D01*
X4205000Y-28102696D01*
X4190714Y-28045554D01*
X4190714Y-27974125D01*
X4205000Y-27916982D01*
X4219286Y-27888411D01*
X4233571Y-27874125D01*
X4262143Y-27859839D01*
X4547857Y-27859839D02*
X4576428Y-27859839D01*
X4605000Y-27874125D01*
X4619286Y-27888411D01*
X4633571Y-27916982D01*
X4647857Y-27974125D01*
X4647857Y-28045554D01*
X4633571Y-28102696D01*
X4619286Y-28131268D01*
X4605000Y-28145554D01*
X4576428Y-28159839D01*
X4547857Y-28159839D01*
X4519286Y-28145554D01*
X4505000Y-28131268D01*
X4490714Y-28102696D01*
X4476428Y-28045554D01*
X4476428Y-27974125D01*
X4490714Y-27916982D01*
X4505000Y-27888411D01*
X4519286Y-27874125D01*
X4547857Y-27859839D01*
X4776428Y-28159839D02*
X4776428Y-27959839D01*
X4776428Y-27988411D02*
X4790714Y-27974125D01*
X4819286Y-27959839D01*
X4862143Y-27959839D01*
X4890714Y-27974125D01*
X4905000Y-28002696D01*
X4905000Y-28159839D01*
X4905000Y-28002696D02*
X4919286Y-27974125D01*
X4947857Y-27959839D01*
X4990714Y-27959839D01*
X5019286Y-27974125D01*
X5033571Y-28002696D01*
X5033571Y-28159839D01*
X5176428Y-28159839D02*
X5176428Y-27959839D01*
X5176428Y-27988411D02*
X5190714Y-27974125D01*
X5219286Y-27959839D01*
X5262143Y-27959839D01*
X5290714Y-27974125D01*
X5305000Y-28002696D01*
X5305000Y-28159839D01*
X5305000Y-28002696D02*
X5319286Y-27974125D01*
X5347857Y-27959839D01*
X5390714Y-27959839D01*
X5419286Y-27974125D01*
X5433571Y-28002696D01*
X5433571Y-28159839D01*
X6019286Y-27845554D02*
X5762143Y-28231268D01*
X6405000Y-27859839D02*
X6433571Y-27859839D01*
X6462143Y-27874125D01*
X6476428Y-27888411D01*
X6490714Y-27916982D01*
X6505000Y-27974125D01*
X6505000Y-28045554D01*
X6490714Y-28102696D01*
X6476428Y-28131268D01*
X6462143Y-28145554D01*
X6433571Y-28159839D01*
X6405000Y-28159839D01*
X6376428Y-28145554D01*
X6362143Y-28131268D01*
X6347857Y-28102696D01*
X6333571Y-28045554D01*
X6333571Y-27974125D01*
X6347857Y-27916982D01*
X6362143Y-27888411D01*
X6376428Y-27874125D01*
X6405000Y-27859839D01*
X6633571Y-28131268D02*
X6647857Y-28145554D01*
X6633571Y-28159839D01*
X6619286Y-28145554D01*
X6633571Y-28131268D01*
X6633571Y-28159839D01*
X6833571Y-27859839D02*
X6862143Y-27859839D01*
X6890714Y-27874125D01*
X6905000Y-27888411D01*
X6919286Y-27916982D01*
X6933571Y-27974125D01*
X6933571Y-28045554D01*
X6919286Y-28102696D01*
X6905000Y-28131268D01*
X6890714Y-28145554D01*
X6862143Y-28159839D01*
X6833571Y-28159839D01*
X6805000Y-28145554D01*
X6790714Y-28131268D01*
X6776428Y-28102696D01*
X6762143Y-28045554D01*
X6762143Y-27974125D01*
X6776428Y-27916982D01*
X6790714Y-27888411D01*
X6805000Y-27874125D01*
X6833571Y-27859839D01*
X7033571Y-27859839D02*
X7219286Y-27859839D01*
X7119286Y-27974125D01*
X7162143Y-27974125D01*
X7190714Y-27988411D01*
X7205000Y-28002696D01*
X7219286Y-28031268D01*
X7219286Y-28102696D01*
X7205000Y-28131268D01*
X7190714Y-28145554D01*
X7162143Y-28159839D01*
X7076428Y-28159839D01*
X7047857Y-28145554D01*
X7033571Y-28131268D01*
X7362143Y-28159839D02*
X7419286Y-28159839D01*
X7447857Y-28145554D01*
X7462143Y-28131268D01*
X7490714Y-28088411D01*
X7505000Y-28031268D01*
X7505000Y-27916982D01*
X7490714Y-27888411D01*
X7476428Y-27874125D01*
X7447857Y-27859839D01*
X7390714Y-27859839D01*
X7362143Y-27874125D01*
X7347857Y-27888411D01*
X7333571Y-27916982D01*
X7333571Y-27988411D01*
X7347857Y-28016982D01*
X7362143Y-28031268D01*
X7390714Y-28045554D01*
X7447857Y-28045554D01*
X7476428Y-28031268D01*
X7490714Y-28016982D01*
X7505000Y-27988411D01*
X7619286Y-27859839D02*
X7619286Y-27916982D01*
X7733571Y-27859839D02*
X7733571Y-27916982D01*
X8176428Y-28274125D02*
X8162143Y-28259839D01*
X8133571Y-28216982D01*
X8119286Y-28188411D01*
X8105000Y-28145554D01*
X8090714Y-28074125D01*
X8090714Y-28016982D01*
X8105000Y-27945554D01*
X8119286Y-27902696D01*
X8133571Y-27874125D01*
X8162143Y-27831268D01*
X8176428Y-27816982D01*
X8447857Y-28159839D02*
X8276428Y-28159839D01*
X8362143Y-28159839D02*
X8362143Y-27859839D01*
X8333571Y-27902696D01*
X8305000Y-27931268D01*
X8276428Y-27945554D01*
X8733571Y-28159839D02*
X8562143Y-28159839D01*
X8647857Y-28159839D02*
X8647857Y-27859839D01*
X8619286Y-27902696D01*
X8590714Y-27931268D01*
X8562143Y-27945554D01*
X9090714Y-28159839D02*
X9090714Y-27859839D01*
X9219286Y-28159839D02*
X9219286Y-28002696D01*
X9205000Y-27974125D01*
X9176428Y-27959839D01*
X9133571Y-27959839D01*
X9105000Y-27974125D01*
X9090714Y-27988411D01*
X9405000Y-28159839D02*
X9376428Y-28145554D01*
X9362143Y-28131268D01*
X9347857Y-28102696D01*
X9347857Y-28016982D01*
X9362143Y-27988411D01*
X9376428Y-27974125D01*
X9405000Y-27959839D01*
X9447857Y-27959839D01*
X9476428Y-27974125D01*
X9490714Y-27988411D01*
X9505000Y-28016982D01*
X9505000Y-28102696D01*
X9490714Y-28131268D01*
X9476428Y-28145554D01*
X9447857Y-28159839D01*
X9405000Y-28159839D01*
X9676428Y-28159839D02*
X9647857Y-28145554D01*
X9633571Y-28116982D01*
X9633571Y-27859839D01*
X9905000Y-28145554D02*
X9876428Y-28159839D01*
X9819286Y-28159839D01*
X9790714Y-28145554D01*
X9776428Y-28116982D01*
X9776428Y-28002696D01*
X9790714Y-27974125D01*
X9819286Y-27959839D01*
X9876428Y-27959839D01*
X9905000Y-27974125D01*
X9919286Y-28002696D01*
X9919286Y-28031268D01*
X9776428Y-28059839D01*
X10033571Y-28145554D02*
X10062143Y-28159839D01*
X10119286Y-28159839D01*
X10147857Y-28145554D01*
X10162143Y-28116982D01*
X10162143Y-28102696D01*
X10147857Y-28074125D01*
X10119286Y-28059839D01*
X10076428Y-28059839D01*
X10047857Y-28045554D01*
X10033571Y-28016982D01*
X10033571Y-28002696D01*
X10047857Y-27974125D01*
X10076428Y-27959839D01*
X10119286Y-27959839D01*
X10147857Y-27974125D01*
X10262143Y-28274125D02*
X10276428Y-28259839D01*
X10305000Y-28216982D01*
X10319286Y-28188411D01*
X10333571Y-28145554D01*
X10347857Y-28074125D01*
X10347857Y-28016982D01*
X10333571Y-27945554D01*
X10319286Y-27902696D01*
X10305000Y-27874125D01*
X10276428Y-27831268D01*
X10262143Y-27816982D01*
X3380000Y-28365125D02*
X3490000Y-28475125D01*
X3490000Y-28365125D02*
X3380000Y-28475125D01*
X3473891Y-28459016D02*
X3473891Y-28381234D01*
X3396109Y-28381234D01*
X3396109Y-28459016D01*
X3473891Y-28459016D01*
X3933571Y-28555839D02*
X3762143Y-28555839D01*
X3847857Y-28555839D02*
X3847857Y-28255839D01*
X3819286Y-28298696D01*
X3790714Y-28327268D01*
X3762143Y-28341554D01*
X4062143Y-28527268D02*
X4076428Y-28541554D01*
X4062143Y-28555839D01*
X4047857Y-28541554D01*
X4062143Y-28527268D01*
X4062143Y-28555839D01*
X4362143Y-28555839D02*
X4190714Y-28555839D01*
X4276428Y-28555839D02*
X4276428Y-28255839D01*
X4247857Y-28298696D01*
X4219286Y-28327268D01*
X4190714Y-28341554D01*
X4547857Y-28255839D02*
X4576428Y-28255839D01*
X4605000Y-28270125D01*
X4619286Y-28284411D01*
X4633571Y-28312982D01*
X4647857Y-28370125D01*
X4647857Y-28441554D01*
X4633571Y-28498696D01*
X4619286Y-28527268D01*
X4605000Y-28541554D01*
X4576428Y-28555839D01*
X4547857Y-28555839D01*
X4519286Y-28541554D01*
X4505000Y-28527268D01*
X4490714Y-28498696D01*
X4476428Y-28441554D01*
X4476428Y-28370125D01*
X4490714Y-28312982D01*
X4505000Y-28284411D01*
X4519286Y-28270125D01*
X4547857Y-28255839D01*
X4776428Y-28555839D02*
X4776428Y-28355839D01*
X4776428Y-28384411D02*
X4790714Y-28370125D01*
X4819286Y-28355839D01*
X4862143Y-28355839D01*
X4890714Y-28370125D01*
X4905000Y-28398696D01*
X4905000Y-28555839D01*
X4905000Y-28398696D02*
X4919286Y-28370125D01*
X4947857Y-28355839D01*
X4990714Y-28355839D01*
X5019286Y-28370125D01*
X5033571Y-28398696D01*
X5033571Y-28555839D01*
X5176428Y-28555839D02*
X5176428Y-28355839D01*
X5176428Y-28384411D02*
X5190714Y-28370125D01*
X5219286Y-28355839D01*
X5262143Y-28355839D01*
X5290714Y-28370125D01*
X5305000Y-28398696D01*
X5305000Y-28555839D01*
X5305000Y-28398696D02*
X5319286Y-28370125D01*
X5347857Y-28355839D01*
X5390714Y-28355839D01*
X5419286Y-28370125D01*
X5433571Y-28398696D01*
X5433571Y-28555839D01*
X6019286Y-28241554D02*
X5762143Y-28627268D01*
X6405000Y-28255839D02*
X6433571Y-28255839D01*
X6462143Y-28270125D01*
X6476428Y-28284411D01*
X6490714Y-28312982D01*
X6505000Y-28370125D01*
X6505000Y-28441554D01*
X6490714Y-28498696D01*
X6476428Y-28527268D01*
X6462143Y-28541554D01*
X6433571Y-28555839D01*
X6405000Y-28555839D01*
X6376428Y-28541554D01*
X6362143Y-28527268D01*
X6347857Y-28498696D01*
X6333571Y-28441554D01*
X6333571Y-28370125D01*
X6347857Y-28312982D01*
X6362143Y-28284411D01*
X6376428Y-28270125D01*
X6405000Y-28255839D01*
X6633571Y-28527268D02*
X6647857Y-28541554D01*
X6633571Y-28555839D01*
X6619286Y-28541554D01*
X6633571Y-28527268D01*
X6633571Y-28555839D01*
X6833571Y-28255839D02*
X6862143Y-28255839D01*
X6890714Y-28270125D01*
X6905000Y-28284411D01*
X6919286Y-28312982D01*
X6933571Y-28370125D01*
X6933571Y-28441554D01*
X6919286Y-28498696D01*
X6905000Y-28527268D01*
X6890714Y-28541554D01*
X6862143Y-28555839D01*
X6833571Y-28555839D01*
X6805000Y-28541554D01*
X6790714Y-28527268D01*
X6776428Y-28498696D01*
X6762143Y-28441554D01*
X6762143Y-28370125D01*
X6776428Y-28312982D01*
X6790714Y-28284411D01*
X6805000Y-28270125D01*
X6833571Y-28255839D01*
X7190714Y-28355839D02*
X7190714Y-28555839D01*
X7119286Y-28241554D02*
X7047857Y-28455839D01*
X7233571Y-28455839D01*
X7319286Y-28255839D02*
X7505000Y-28255839D01*
X7405000Y-28370125D01*
X7447857Y-28370125D01*
X7476428Y-28384411D01*
X7490714Y-28398696D01*
X7505000Y-28427268D01*
X7505000Y-28498696D01*
X7490714Y-28527268D01*
X7476428Y-28541554D01*
X7447857Y-28555839D01*
X7362143Y-28555839D01*
X7333571Y-28541554D01*
X7319286Y-28527268D01*
X7619286Y-28255839D02*
X7619286Y-28312982D01*
X7733571Y-28255839D02*
X7733571Y-28312982D01*
X8176428Y-28670125D02*
X8162143Y-28655839D01*
X8133571Y-28612982D01*
X8119286Y-28584411D01*
X8105000Y-28541554D01*
X8090714Y-28470125D01*
X8090714Y-28412982D01*
X8105000Y-28341554D01*
X8119286Y-28298696D01*
X8133571Y-28270125D01*
X8162143Y-28227268D01*
X8176428Y-28212982D01*
X8333571Y-28384411D02*
X8305000Y-28370125D01*
X8290714Y-28355839D01*
X8276428Y-28327268D01*
X8276428Y-28312982D01*
X8290714Y-28284411D01*
X8305000Y-28270125D01*
X8333571Y-28255839D01*
X8390714Y-28255839D01*
X8419286Y-28270125D01*
X8433571Y-28284411D01*
X8447857Y-28312982D01*
X8447857Y-28327268D01*
X8433571Y-28355839D01*
X8419286Y-28370125D01*
X8390714Y-28384411D01*
X8333571Y-28384411D01*
X8305000Y-28398696D01*
X8290714Y-28412982D01*
X8276428Y-28441554D01*
X8276428Y-28498696D01*
X8290714Y-28527268D01*
X8305000Y-28541554D01*
X8333571Y-28555839D01*
X8390714Y-28555839D01*
X8419286Y-28541554D01*
X8433571Y-28527268D01*
X8447857Y-28498696D01*
X8447857Y-28441554D01*
X8433571Y-28412982D01*
X8419286Y-28398696D01*
X8390714Y-28384411D01*
X8805000Y-28555839D02*
X8805000Y-28255839D01*
X8933571Y-28555839D02*
X8933571Y-28398696D01*
X8919286Y-28370125D01*
X8890714Y-28355839D01*
X8847857Y-28355839D01*
X8819286Y-28370125D01*
X8805000Y-28384411D01*
X9119286Y-28555839D02*
X9090714Y-28541554D01*
X9076428Y-28527268D01*
X9062143Y-28498696D01*
X9062143Y-28412982D01*
X9076428Y-28384411D01*
X9090714Y-28370125D01*
X9119286Y-28355839D01*
X9162143Y-28355839D01*
X9190714Y-28370125D01*
X9205000Y-28384411D01*
X9219286Y-28412982D01*
X9219286Y-28498696D01*
X9205000Y-28527268D01*
X9190714Y-28541554D01*
X9162143Y-28555839D01*
X9119286Y-28555839D01*
X9390714Y-28555839D02*
X9362143Y-28541554D01*
X9347857Y-28512982D01*
X9347857Y-28255839D01*
X9619286Y-28541554D02*
X9590714Y-28555839D01*
X9533571Y-28555839D01*
X9505000Y-28541554D01*
X9490714Y-28512982D01*
X9490714Y-28398696D01*
X9505000Y-28370125D01*
X9533571Y-28355839D01*
X9590714Y-28355839D01*
X9619286Y-28370125D01*
X9633571Y-28398696D01*
X9633571Y-28427268D01*
X9490714Y-28455839D01*
X9747857Y-28541554D02*
X9776428Y-28555839D01*
X9833571Y-28555839D01*
X9862143Y-28541554D01*
X9876428Y-28512982D01*
X9876428Y-28498696D01*
X9862143Y-28470125D01*
X9833571Y-28455839D01*
X9790714Y-28455839D01*
X9762143Y-28441554D01*
X9747857Y-28412982D01*
X9747857Y-28398696D01*
X9762143Y-28370125D01*
X9790714Y-28355839D01*
X9833571Y-28355839D01*
X9862143Y-28370125D01*
X9976428Y-28670125D02*
X9990714Y-28655839D01*
X10019286Y-28612982D01*
X10033571Y-28584411D01*
X10047857Y-28541554D01*
X10062143Y-28470125D01*
X10062143Y-28412982D01*
X10047857Y-28341554D01*
X10033571Y-28298696D01*
X10019286Y-28270125D01*
X9990714Y-28227268D01*
X9976428Y-28212982D01*
X3343000Y-28742625D02*
X3490000Y-28889625D01*
X3490000Y-28742625D02*
X3343000Y-28889625D01*
X3416500Y-28889625D02*
X3490000Y-28816125D01*
X3416500Y-28742625D01*
X3343000Y-28816125D01*
X3416500Y-28889625D01*
X3933571Y-28951839D02*
X3762143Y-28951839D01*
X3847857Y-28951839D02*
X3847857Y-28651839D01*
X3819286Y-28694696D01*
X3790714Y-28723268D01*
X3762143Y-28737554D01*
X4062143Y-28923268D02*
X4076428Y-28937554D01*
X4062143Y-28951839D01*
X4047857Y-28937554D01*
X4062143Y-28923268D01*
X4062143Y-28951839D01*
X4333571Y-28751839D02*
X4333571Y-28951839D01*
X4262143Y-28637554D02*
X4190714Y-28851839D01*
X4376428Y-28851839D01*
X4462143Y-28651839D02*
X4662143Y-28651839D01*
X4533571Y-28951839D01*
X4776428Y-28951839D02*
X4776428Y-28751839D01*
X4776428Y-28780411D02*
X4790714Y-28766125D01*
X4819286Y-28751839D01*
X4862143Y-28751839D01*
X4890714Y-28766125D01*
X4905000Y-28794696D01*
X4905000Y-28951839D01*
X4905000Y-28794696D02*
X4919286Y-28766125D01*
X4947857Y-28751839D01*
X4990714Y-28751839D01*
X5019286Y-28766125D01*
X5033571Y-28794696D01*
X5033571Y-28951839D01*
X5176428Y-28951839D02*
X5176428Y-28751839D01*
X5176428Y-28780411D02*
X5190714Y-28766125D01*
X5219286Y-28751839D01*
X5262143Y-28751839D01*
X5290714Y-28766125D01*
X5305000Y-28794696D01*
X5305000Y-28951839D01*
X5305000Y-28794696D02*
X5319286Y-28766125D01*
X5347857Y-28751839D01*
X5390714Y-28751839D01*
X5419286Y-28766125D01*
X5433571Y-28794696D01*
X5433571Y-28951839D01*
X6019286Y-28637554D02*
X5762143Y-29023268D01*
X6405000Y-28651839D02*
X6433571Y-28651839D01*
X6462143Y-28666125D01*
X6476428Y-28680411D01*
X6490714Y-28708982D01*
X6505000Y-28766125D01*
X6505000Y-28837554D01*
X6490714Y-28894696D01*
X6476428Y-28923268D01*
X6462143Y-28937554D01*
X6433571Y-28951839D01*
X6405000Y-28951839D01*
X6376428Y-28937554D01*
X6362143Y-28923268D01*
X6347857Y-28894696D01*
X6333571Y-28837554D01*
X6333571Y-28766125D01*
X6347857Y-28708982D01*
X6362143Y-28680411D01*
X6376428Y-28666125D01*
X6405000Y-28651839D01*
X6633571Y-28923268D02*
X6647857Y-28937554D01*
X6633571Y-28951839D01*
X6619286Y-28937554D01*
X6633571Y-28923268D01*
X6633571Y-28951839D01*
X6833571Y-28651839D02*
X6862143Y-28651839D01*
X6890714Y-28666125D01*
X6905000Y-28680411D01*
X6919286Y-28708982D01*
X6933571Y-28766125D01*
X6933571Y-28837554D01*
X6919286Y-28894696D01*
X6905000Y-28923268D01*
X6890714Y-28937554D01*
X6862143Y-28951839D01*
X6833571Y-28951839D01*
X6805000Y-28937554D01*
X6790714Y-28923268D01*
X6776428Y-28894696D01*
X6762143Y-28837554D01*
X6762143Y-28766125D01*
X6776428Y-28708982D01*
X6790714Y-28680411D01*
X6805000Y-28666125D01*
X6833571Y-28651839D01*
X7205000Y-28651839D02*
X7062143Y-28651839D01*
X7047857Y-28794696D01*
X7062143Y-28780411D01*
X7090714Y-28766125D01*
X7162143Y-28766125D01*
X7190714Y-28780411D01*
X7205000Y-28794696D01*
X7219286Y-28823268D01*
X7219286Y-28894696D01*
X7205000Y-28923268D01*
X7190714Y-28937554D01*
X7162143Y-28951839D01*
X7090714Y-28951839D01*
X7062143Y-28937554D01*
X7047857Y-28923268D01*
X7390714Y-28780411D02*
X7362143Y-28766125D01*
X7347857Y-28751839D01*
X7333571Y-28723268D01*
X7333571Y-28708982D01*
X7347857Y-28680411D01*
X7362143Y-28666125D01*
X7390714Y-28651839D01*
X7447857Y-28651839D01*
X7476428Y-28666125D01*
X7490714Y-28680411D01*
X7505000Y-28708982D01*
X7505000Y-28723268D01*
X7490714Y-28751839D01*
X7476428Y-28766125D01*
X7447857Y-28780411D01*
X7390714Y-28780411D01*
X7362143Y-28794696D01*
X7347857Y-28808982D01*
X7333571Y-28837554D01*
X7333571Y-28894696D01*
X7347857Y-28923268D01*
X7362143Y-28937554D01*
X7390714Y-28951839D01*
X7447857Y-28951839D01*
X7476428Y-28937554D01*
X7490714Y-28923268D01*
X7505000Y-28894696D01*
X7505000Y-28837554D01*
X7490714Y-28808982D01*
X7476428Y-28794696D01*
X7447857Y-28780411D01*
X7619286Y-28651839D02*
X7619286Y-28708982D01*
X7733571Y-28651839D02*
X7733571Y-28708982D01*
X8176428Y-29066125D02*
X8162143Y-29051839D01*
X8133571Y-29008982D01*
X8119286Y-28980411D01*
X8105000Y-28937554D01*
X8090714Y-28866125D01*
X8090714Y-28808982D01*
X8105000Y-28737554D01*
X8119286Y-28694696D01*
X8133571Y-28666125D01*
X8162143Y-28623268D01*
X8176428Y-28608982D01*
X8447857Y-28951839D02*
X8276428Y-28951839D01*
X8362143Y-28951839D02*
X8362143Y-28651839D01*
X8333571Y-28694696D01*
X8305000Y-28723268D01*
X8276428Y-28737554D01*
X8719286Y-28651839D02*
X8576428Y-28651839D01*
X8562143Y-28794696D01*
X8576428Y-28780411D01*
X8605000Y-28766125D01*
X8676428Y-28766125D01*
X8705000Y-28780411D01*
X8719286Y-28794696D01*
X8733571Y-28823268D01*
X8733571Y-28894696D01*
X8719286Y-28923268D01*
X8705000Y-28937554D01*
X8676428Y-28951839D01*
X8605000Y-28951839D01*
X8576428Y-28937554D01*
X8562143Y-28923268D01*
X8990714Y-28751839D02*
X8990714Y-28951839D01*
X8919286Y-28637554D02*
X8847857Y-28851839D01*
X9033571Y-28851839D01*
X9376428Y-28951839D02*
X9376428Y-28651839D01*
X9505000Y-28951839D02*
X9505000Y-28794696D01*
X9490714Y-28766125D01*
X9462143Y-28751839D01*
X9419286Y-28751839D01*
X9390714Y-28766125D01*
X9376428Y-28780411D01*
X9690714Y-28951839D02*
X9662143Y-28937554D01*
X9647857Y-28923268D01*
X9633571Y-28894696D01*
X9633571Y-28808982D01*
X9647857Y-28780411D01*
X9662143Y-28766125D01*
X9690714Y-28751839D01*
X9733571Y-28751839D01*
X9762143Y-28766125D01*
X9776428Y-28780411D01*
X9790714Y-28808982D01*
X9790714Y-28894696D01*
X9776428Y-28923268D01*
X9762143Y-28937554D01*
X9733571Y-28951839D01*
X9690714Y-28951839D01*
X9962143Y-28951839D02*
X9933571Y-28937554D01*
X9919286Y-28908982D01*
X9919286Y-28651839D01*
X10190714Y-28937554D02*
X10162143Y-28951839D01*
X10105000Y-28951839D01*
X10076428Y-28937554D01*
X10062143Y-28908982D01*
X10062143Y-28794696D01*
X10076428Y-28766125D01*
X10105000Y-28751839D01*
X10162143Y-28751839D01*
X10190714Y-28766125D01*
X10205000Y-28794696D01*
X10205000Y-28823268D01*
X10062143Y-28851839D01*
X10319286Y-28937554D02*
X10347857Y-28951839D01*
X10405000Y-28951839D01*
X10433571Y-28937554D01*
X10447857Y-28908982D01*
X10447857Y-28894696D01*
X10433571Y-28866125D01*
X10405000Y-28851839D01*
X10362143Y-28851839D01*
X10333571Y-28837554D01*
X10319286Y-28808982D01*
X10319286Y-28794696D01*
X10333571Y-28766125D01*
X10362143Y-28751839D01*
X10405000Y-28751839D01*
X10433571Y-28766125D01*
X10547857Y-29066125D02*
X10562143Y-29051839D01*
X10590714Y-29008982D01*
X10605000Y-28980411D01*
X10619286Y-28937554D01*
X10633571Y-28866125D01*
X10633571Y-28808982D01*
X10619286Y-28737554D01*
X10605000Y-28694696D01*
X10590714Y-28666125D01*
X10562143Y-28623268D01*
X10547857Y-28608982D01*
X3415000Y-29137125D02*
X3415000Y-29287125D01*
X3340000Y-29212125D02*
X3490000Y-29212125D01*
X3490000Y-29212125D02*
G75*
G03*
X3490000Y-29212125I-75000J0D01*
G01*
X3933571Y-29347839D02*
X3762143Y-29347839D01*
X3847857Y-29347839D02*
X3847857Y-29047839D01*
X3819286Y-29090696D01*
X3790714Y-29119268D01*
X3762143Y-29133554D01*
X4062143Y-29319268D02*
X4076428Y-29333554D01*
X4062143Y-29347839D01*
X4047857Y-29333554D01*
X4062143Y-29319268D01*
X4062143Y-29347839D01*
X4347857Y-29047839D02*
X4205000Y-29047839D01*
X4190714Y-29190696D01*
X4205000Y-29176411D01*
X4233571Y-29162125D01*
X4305000Y-29162125D01*
X4333571Y-29176411D01*
X4347857Y-29190696D01*
X4362143Y-29219268D01*
X4362143Y-29290696D01*
X4347857Y-29319268D01*
X4333571Y-29333554D01*
X4305000Y-29347839D01*
X4233571Y-29347839D01*
X4205000Y-29333554D01*
X4190714Y-29319268D01*
X4547857Y-29047839D02*
X4576428Y-29047839D01*
X4605000Y-29062125D01*
X4619286Y-29076411D01*
X4633571Y-29104982D01*
X4647857Y-29162125D01*
X4647857Y-29233554D01*
X4633571Y-29290696D01*
X4619286Y-29319268D01*
X4605000Y-29333554D01*
X4576428Y-29347839D01*
X4547857Y-29347839D01*
X4519286Y-29333554D01*
X4505000Y-29319268D01*
X4490714Y-29290696D01*
X4476428Y-29233554D01*
X4476428Y-29162125D01*
X4490714Y-29104982D01*
X4505000Y-29076411D01*
X4519286Y-29062125D01*
X4547857Y-29047839D01*
X4776428Y-29347839D02*
X4776428Y-29147839D01*
X4776428Y-29176411D02*
X4790714Y-29162125D01*
X4819286Y-29147839D01*
X4862143Y-29147839D01*
X4890714Y-29162125D01*
X4905000Y-29190696D01*
X4905000Y-29347839D01*
X4905000Y-29190696D02*
X4919286Y-29162125D01*
X4947857Y-29147839D01*
X4990714Y-29147839D01*
X5019286Y-29162125D01*
X5033571Y-29190696D01*
X5033571Y-29347839D01*
X5176428Y-29347839D02*
X5176428Y-29147839D01*
X5176428Y-29176411D02*
X5190714Y-29162125D01*
X5219286Y-29147839D01*
X5262143Y-29147839D01*
X5290714Y-29162125D01*
X5305000Y-29190696D01*
X5305000Y-29347839D01*
X5305000Y-29190696D02*
X5319286Y-29162125D01*
X5347857Y-29147839D01*
X5390714Y-29147839D01*
X5419286Y-29162125D01*
X5433571Y-29190696D01*
X5433571Y-29347839D01*
X6019286Y-29033554D02*
X5762143Y-29419268D01*
X6405000Y-29047839D02*
X6433571Y-29047839D01*
X6462143Y-29062125D01*
X6476428Y-29076411D01*
X6490714Y-29104982D01*
X6505000Y-29162125D01*
X6505000Y-29233554D01*
X6490714Y-29290696D01*
X6476428Y-29319268D01*
X6462143Y-29333554D01*
X6433571Y-29347839D01*
X6405000Y-29347839D01*
X6376428Y-29333554D01*
X6362143Y-29319268D01*
X6347857Y-29290696D01*
X6333571Y-29233554D01*
X6333571Y-29162125D01*
X6347857Y-29104982D01*
X6362143Y-29076411D01*
X6376428Y-29062125D01*
X6405000Y-29047839D01*
X6633571Y-29319268D02*
X6647857Y-29333554D01*
X6633571Y-29347839D01*
X6619286Y-29333554D01*
X6633571Y-29319268D01*
X6633571Y-29347839D01*
X6833571Y-29047839D02*
X6862143Y-29047839D01*
X6890714Y-29062125D01*
X6905000Y-29076411D01*
X6919286Y-29104982D01*
X6933571Y-29162125D01*
X6933571Y-29233554D01*
X6919286Y-29290696D01*
X6905000Y-29319268D01*
X6890714Y-29333554D01*
X6862143Y-29347839D01*
X6833571Y-29347839D01*
X6805000Y-29333554D01*
X6790714Y-29319268D01*
X6776428Y-29290696D01*
X6762143Y-29233554D01*
X6762143Y-29162125D01*
X6776428Y-29104982D01*
X6790714Y-29076411D01*
X6805000Y-29062125D01*
X6833571Y-29047839D01*
X7205000Y-29047839D02*
X7062143Y-29047839D01*
X7047857Y-29190696D01*
X7062143Y-29176411D01*
X7090714Y-29162125D01*
X7162143Y-29162125D01*
X7190714Y-29176411D01*
X7205000Y-29190696D01*
X7219286Y-29219268D01*
X7219286Y-29290696D01*
X7205000Y-29319268D01*
X7190714Y-29333554D01*
X7162143Y-29347839D01*
X7090714Y-29347839D01*
X7062143Y-29333554D01*
X7047857Y-29319268D01*
X7362143Y-29347839D02*
X7419286Y-29347839D01*
X7447857Y-29333554D01*
X7462143Y-29319268D01*
X7490714Y-29276411D01*
X7505000Y-29219268D01*
X7505000Y-29104982D01*
X7490714Y-29076411D01*
X7476428Y-29062125D01*
X7447857Y-29047839D01*
X7390714Y-29047839D01*
X7362143Y-29062125D01*
X7347857Y-29076411D01*
X7333571Y-29104982D01*
X7333571Y-29176411D01*
X7347857Y-29204982D01*
X7362143Y-29219268D01*
X7390714Y-29233554D01*
X7447857Y-29233554D01*
X7476428Y-29219268D01*
X7490714Y-29204982D01*
X7505000Y-29176411D01*
X7619286Y-29047839D02*
X7619286Y-29104982D01*
X7733571Y-29047839D02*
X7733571Y-29104982D01*
X8176428Y-29462125D02*
X8162143Y-29447839D01*
X8133571Y-29404982D01*
X8119286Y-29376411D01*
X8105000Y-29333554D01*
X8090714Y-29262125D01*
X8090714Y-29204982D01*
X8105000Y-29133554D01*
X8119286Y-29090696D01*
X8133571Y-29062125D01*
X8162143Y-29019268D01*
X8176428Y-29004982D01*
X8347857Y-29047839D02*
X8376428Y-29047839D01*
X8405000Y-29062125D01*
X8419286Y-29076411D01*
X8433571Y-29104982D01*
X8447857Y-29162125D01*
X8447857Y-29233554D01*
X8433571Y-29290696D01*
X8419286Y-29319268D01*
X8405000Y-29333554D01*
X8376428Y-29347839D01*
X8347857Y-29347839D01*
X8319286Y-29333554D01*
X8305000Y-29319268D01*
X8290714Y-29290696D01*
X8276428Y-29233554D01*
X8276428Y-29162125D01*
X8290714Y-29104982D01*
X8305000Y-29076411D01*
X8319286Y-29062125D01*
X8347857Y-29047839D01*
X8805000Y-29347839D02*
X8805000Y-29047839D01*
X8933571Y-29347839D02*
X8933571Y-29190696D01*
X8919286Y-29162125D01*
X8890714Y-29147839D01*
X8847857Y-29147839D01*
X8819286Y-29162125D01*
X8805000Y-29176411D01*
X9119286Y-29347839D02*
X9090714Y-29333554D01*
X9076428Y-29319268D01*
X9062143Y-29290696D01*
X9062143Y-29204982D01*
X9076428Y-29176411D01*
X9090714Y-29162125D01*
X9119286Y-29147839D01*
X9162143Y-29147839D01*
X9190714Y-29162125D01*
X9205000Y-29176411D01*
X9219286Y-29204982D01*
X9219286Y-29290696D01*
X9205000Y-29319268D01*
X9190714Y-29333554D01*
X9162143Y-29347839D01*
X9119286Y-29347839D01*
X9390714Y-29347839D02*
X9362143Y-29333554D01*
X9347857Y-29304982D01*
X9347857Y-29047839D01*
X9619286Y-29333554D02*
X9590714Y-29347839D01*
X9533571Y-29347839D01*
X9505000Y-29333554D01*
X9490714Y-29304982D01*
X9490714Y-29190696D01*
X9505000Y-29162125D01*
X9533571Y-29147839D01*
X9590714Y-29147839D01*
X9619286Y-29162125D01*
X9633571Y-29190696D01*
X9633571Y-29219268D01*
X9490714Y-29247839D01*
X9747857Y-29333554D02*
X9776428Y-29347839D01*
X9833571Y-29347839D01*
X9862143Y-29333554D01*
X9876428Y-29304982D01*
X9876428Y-29290696D01*
X9862143Y-29262125D01*
X9833571Y-29247839D01*
X9790714Y-29247839D01*
X9762143Y-29233554D01*
X9747857Y-29204982D01*
X9747857Y-29190696D01*
X9762143Y-29162125D01*
X9790714Y-29147839D01*
X9833571Y-29147839D01*
X9862143Y-29162125D01*
X10233571Y-29233554D02*
X10462143Y-29233554D01*
X10347857Y-29347839D02*
X10347857Y-29119268D01*
X10819286Y-29076411D02*
X10833571Y-29062125D01*
X10862143Y-29047839D01*
X10933571Y-29047839D01*
X10962143Y-29062125D01*
X10976428Y-29076411D01*
X10990714Y-29104982D01*
X10990714Y-29133554D01*
X10976428Y-29176411D01*
X10805000Y-29347839D01*
X10990714Y-29347839D01*
X11333571Y-29333554D02*
X11362143Y-29347839D01*
X11419286Y-29347839D01*
X11447857Y-29333554D01*
X11462143Y-29304982D01*
X11462143Y-29290696D01*
X11447857Y-29262125D01*
X11419286Y-29247839D01*
X11376428Y-29247839D01*
X11347857Y-29233554D01*
X11333571Y-29204982D01*
X11333571Y-29190696D01*
X11347857Y-29162125D01*
X11376428Y-29147839D01*
X11419286Y-29147839D01*
X11447857Y-29162125D01*
X11633571Y-29347839D02*
X11605000Y-29333554D01*
X11590714Y-29304982D01*
X11590714Y-29047839D01*
X11790714Y-29347839D02*
X11762143Y-29333554D01*
X11747857Y-29319268D01*
X11733571Y-29290696D01*
X11733571Y-29204982D01*
X11747857Y-29176411D01*
X11762143Y-29162125D01*
X11790714Y-29147839D01*
X11833571Y-29147839D01*
X11862143Y-29162125D01*
X11876428Y-29176411D01*
X11890714Y-29204982D01*
X11890714Y-29290696D01*
X11876428Y-29319268D01*
X11862143Y-29333554D01*
X11833571Y-29347839D01*
X11790714Y-29347839D01*
X11976428Y-29147839D02*
X12090714Y-29147839D01*
X12019286Y-29047839D02*
X12019286Y-29304982D01*
X12033571Y-29333554D01*
X12062143Y-29347839D01*
X12090714Y-29347839D01*
X12176428Y-29333554D02*
X12205000Y-29347839D01*
X12262143Y-29347839D01*
X12290714Y-29333554D01*
X12305000Y-29304982D01*
X12305000Y-29290696D01*
X12290714Y-29262125D01*
X12262143Y-29247839D01*
X12219286Y-29247839D01*
X12190714Y-29233554D01*
X12176428Y-29204982D01*
X12176428Y-29190696D01*
X12190714Y-29162125D01*
X12219286Y-29147839D01*
X12262143Y-29147839D01*
X12290714Y-29162125D01*
X12405000Y-29462125D02*
X12419286Y-29447839D01*
X12447857Y-29404982D01*
X12462143Y-29376411D01*
X12476428Y-29333554D01*
X12490714Y-29262125D01*
X12490714Y-29204982D01*
X12476428Y-29133554D01*
X12462143Y-29090696D01*
X12447857Y-29062125D01*
X12419286Y-29019268D01*
X12405000Y-29004982D01*
X3457782Y-29685908D02*
X3457782Y-29530343D01*
X3302217Y-29530343D01*
X3302217Y-29685908D01*
X3457782Y-29685908D01*
X3490000Y-29608125D02*
G75*
G03*
X3490000Y-29608125I-110000J0D01*
G01*
X3762143Y-29472411D02*
X3776428Y-29458125D01*
X3805000Y-29443839D01*
X3876428Y-29443839D01*
X3905000Y-29458125D01*
X3919286Y-29472411D01*
X3933571Y-29500982D01*
X3933571Y-29529554D01*
X3919286Y-29572411D01*
X3747857Y-29743839D01*
X3933571Y-29743839D01*
X4062143Y-29715268D02*
X4076428Y-29729554D01*
X4062143Y-29743839D01*
X4047857Y-29729554D01*
X4062143Y-29715268D01*
X4062143Y-29743839D01*
X4190714Y-29472411D02*
X4205000Y-29458125D01*
X4233571Y-29443839D01*
X4305000Y-29443839D01*
X4333571Y-29458125D01*
X4347857Y-29472411D01*
X4362143Y-29500982D01*
X4362143Y-29529554D01*
X4347857Y-29572411D01*
X4176428Y-29743839D01*
X4362143Y-29743839D01*
X4547857Y-29443839D02*
X4576428Y-29443839D01*
X4605000Y-29458125D01*
X4619286Y-29472411D01*
X4633571Y-29500982D01*
X4647857Y-29558125D01*
X4647857Y-29629554D01*
X4633571Y-29686696D01*
X4619286Y-29715268D01*
X4605000Y-29729554D01*
X4576428Y-29743839D01*
X4547857Y-29743839D01*
X4519286Y-29729554D01*
X4505000Y-29715268D01*
X4490714Y-29686696D01*
X4476428Y-29629554D01*
X4476428Y-29558125D01*
X4490714Y-29500982D01*
X4505000Y-29472411D01*
X4519286Y-29458125D01*
X4547857Y-29443839D01*
X4776428Y-29743839D02*
X4776428Y-29543839D01*
X4776428Y-29572411D02*
X4790714Y-29558125D01*
X4819286Y-29543839D01*
X4862143Y-29543839D01*
X4890714Y-29558125D01*
X4905000Y-29586696D01*
X4905000Y-29743839D01*
X4905000Y-29586696D02*
X4919286Y-29558125D01*
X4947857Y-29543839D01*
X4990714Y-29543839D01*
X5019286Y-29558125D01*
X5033571Y-29586696D01*
X5033571Y-29743839D01*
X5176428Y-29743839D02*
X5176428Y-29543839D01*
X5176428Y-29572411D02*
X5190714Y-29558125D01*
X5219286Y-29543839D01*
X5262143Y-29543839D01*
X5290714Y-29558125D01*
X5305000Y-29586696D01*
X5305000Y-29743839D01*
X5305000Y-29586696D02*
X5319286Y-29558125D01*
X5347857Y-29543839D01*
X5390714Y-29543839D01*
X5419286Y-29558125D01*
X5433571Y-29586696D01*
X5433571Y-29743839D01*
X6019286Y-29429554D02*
X5762143Y-29815268D01*
X6405000Y-29443839D02*
X6433571Y-29443839D01*
X6462143Y-29458125D01*
X6476428Y-29472411D01*
X6490714Y-29500982D01*
X6505000Y-29558125D01*
X6505000Y-29629554D01*
X6490714Y-29686696D01*
X6476428Y-29715268D01*
X6462143Y-29729554D01*
X6433571Y-29743839D01*
X6405000Y-29743839D01*
X6376428Y-29729554D01*
X6362143Y-29715268D01*
X6347857Y-29686696D01*
X6333571Y-29629554D01*
X6333571Y-29558125D01*
X6347857Y-29500982D01*
X6362143Y-29472411D01*
X6376428Y-29458125D01*
X6405000Y-29443839D01*
X6633571Y-29715268D02*
X6647857Y-29729554D01*
X6633571Y-29743839D01*
X6619286Y-29729554D01*
X6633571Y-29715268D01*
X6633571Y-29743839D01*
X6833571Y-29443839D02*
X6862143Y-29443839D01*
X6890714Y-29458125D01*
X6905000Y-29472411D01*
X6919286Y-29500982D01*
X6933571Y-29558125D01*
X6933571Y-29629554D01*
X6919286Y-29686696D01*
X6905000Y-29715268D01*
X6890714Y-29729554D01*
X6862143Y-29743839D01*
X6833571Y-29743839D01*
X6805000Y-29729554D01*
X6790714Y-29715268D01*
X6776428Y-29686696D01*
X6762143Y-29629554D01*
X6762143Y-29558125D01*
X6776428Y-29500982D01*
X6790714Y-29472411D01*
X6805000Y-29458125D01*
X6833571Y-29443839D01*
X7105000Y-29572411D02*
X7076428Y-29558125D01*
X7062143Y-29543839D01*
X7047857Y-29515268D01*
X7047857Y-29500982D01*
X7062143Y-29472411D01*
X7076428Y-29458125D01*
X7105000Y-29443839D01*
X7162143Y-29443839D01*
X7190714Y-29458125D01*
X7205000Y-29472411D01*
X7219286Y-29500982D01*
X7219286Y-29515268D01*
X7205000Y-29543839D01*
X7190714Y-29558125D01*
X7162143Y-29572411D01*
X7105000Y-29572411D01*
X7076428Y-29586696D01*
X7062143Y-29600982D01*
X7047857Y-29629554D01*
X7047857Y-29686696D01*
X7062143Y-29715268D01*
X7076428Y-29729554D01*
X7105000Y-29743839D01*
X7162143Y-29743839D01*
X7190714Y-29729554D01*
X7205000Y-29715268D01*
X7219286Y-29686696D01*
X7219286Y-29629554D01*
X7205000Y-29600982D01*
X7190714Y-29586696D01*
X7162143Y-29572411D01*
X7319286Y-29443839D02*
X7519286Y-29443839D01*
X7390714Y-29743839D01*
X7619286Y-29443839D02*
X7619286Y-29500982D01*
X7733571Y-29443839D02*
X7733571Y-29500982D01*
X8176428Y-29858125D02*
X8162143Y-29843839D01*
X8133571Y-29800982D01*
X8119286Y-29772411D01*
X8105000Y-29729554D01*
X8090714Y-29658125D01*
X8090714Y-29600982D01*
X8105000Y-29529554D01*
X8119286Y-29486696D01*
X8133571Y-29458125D01*
X8162143Y-29415268D01*
X8176428Y-29400982D01*
X8447857Y-29743839D02*
X8276428Y-29743839D01*
X8362143Y-29743839D02*
X8362143Y-29443839D01*
X8333571Y-29486696D01*
X8305000Y-29515268D01*
X8276428Y-29529554D01*
X8733571Y-29743839D02*
X8562143Y-29743839D01*
X8647857Y-29743839D02*
X8647857Y-29443839D01*
X8619286Y-29486696D01*
X8590714Y-29515268D01*
X8562143Y-29529554D01*
X9090714Y-29743839D02*
X9090714Y-29443839D01*
X9219286Y-29743839D02*
X9219286Y-29586696D01*
X9205000Y-29558125D01*
X9176428Y-29543839D01*
X9133571Y-29543839D01*
X9105000Y-29558125D01*
X9090714Y-29572411D01*
X9405000Y-29743839D02*
X9376428Y-29729554D01*
X9362143Y-29715268D01*
X9347857Y-29686696D01*
X9347857Y-29600982D01*
X9362143Y-29572411D01*
X9376428Y-29558125D01*
X9405000Y-29543839D01*
X9447857Y-29543839D01*
X9476428Y-29558125D01*
X9490714Y-29572411D01*
X9505000Y-29600982D01*
X9505000Y-29686696D01*
X9490714Y-29715268D01*
X9476428Y-29729554D01*
X9447857Y-29743839D01*
X9405000Y-29743839D01*
X9676428Y-29743839D02*
X9647857Y-29729554D01*
X9633571Y-29700982D01*
X9633571Y-29443839D01*
X9905000Y-29729554D02*
X9876428Y-29743839D01*
X9819286Y-29743839D01*
X9790714Y-29729554D01*
X9776428Y-29700982D01*
X9776428Y-29586696D01*
X9790714Y-29558125D01*
X9819286Y-29543839D01*
X9876428Y-29543839D01*
X9905000Y-29558125D01*
X9919286Y-29586696D01*
X9919286Y-29615268D01*
X9776428Y-29643839D01*
X10033571Y-29729554D02*
X10062143Y-29743839D01*
X10119286Y-29743839D01*
X10147857Y-29729554D01*
X10162143Y-29700982D01*
X10162143Y-29686696D01*
X10147857Y-29658125D01*
X10119286Y-29643839D01*
X10076428Y-29643839D01*
X10047857Y-29629554D01*
X10033571Y-29600982D01*
X10033571Y-29586696D01*
X10047857Y-29558125D01*
X10076428Y-29543839D01*
X10119286Y-29543839D01*
X10147857Y-29558125D01*
X10262143Y-29858125D02*
X10276428Y-29843839D01*
X10305000Y-29800982D01*
X10319286Y-29772411D01*
X10333571Y-29729554D01*
X10347857Y-29658125D01*
X10347857Y-29600982D01*
X10333571Y-29529554D01*
X10319286Y-29486696D01*
X10305000Y-29458125D01*
X10276428Y-29415268D01*
X10262143Y-29400982D01*
M02*
