M48
; DRILL file {KiCad (5.1.6)-1} date 07/12/22 00:57:48
; FORMAT={-:-/ absolute / inch / decimal}
; #@! TF.CreationDate,2022-07-12T00:57:48-05:00
; #@! TF.GenerationSoftware,Kicad,Pcbnew,(5.1.6)-1
; #@! TF.FileFunction,Plated,1,2,PTH
FMAT,2
INCH
T1C0.0157
T2C0.0236
T3C0.0276
T4C0.0300
T5C0.0315
T6C0.0354
T7C0.0394
T8C0.0433
T9C0.0579
T10C0.0591
T11C0.0866
%
G90
G05
T1
X1.455Y-5.98
X1.4688Y-6.02
X1.5159Y-6.0759
X1.525Y-5.965
X1.695Y-7.24
X1.78Y-8.58
X2.125Y-5.5
X2.32Y-5.32
X2.4688Y-8.0625
X2.5625Y-5.3438
X2.75Y-9.0625
X2.9375Y-7.4375
X2.965Y-5.675
X3.1875Y-9.3125
X3.31Y-5.59
X3.41Y-5.375
X3.51Y-5.59
X3.61Y-5.375
X3.705Y-5.59
X3.77Y-6.135
X3.815Y-5.75
X3.9062Y-9.25
X3.98Y-5.695
X4.07Y-5.17
X4.18Y-5.39
X4.28Y-5.283
X4.2812Y-9.59
X4.345Y-5.33
X4.38Y-5.3
X4.44Y-5.32
X4.584Y-5.5625
X4.63Y-5.095
X4.8438Y-5.0625
X5.375Y-8.375
X5.402Y-5.54
X5.985Y-5.64
X6.5Y-9.145
X6.515Y-5.4
X6.5312Y-9.575
X6.7Y-5.5
X6.7812Y-9.1875
X6.825Y-5.5
X6.95Y-5.5
X8.8125Y-9.5938
X8.9688Y-7.4688
X9.9062Y-8.1875
X11.4688Y-6.1562
X13.0938Y-6.625
X4.2727Y-5.1567
X4.2729Y-5.2089
X4.3061Y-5.1567
X4.3063Y-5.2089
X4.3396Y-5.1567
X4.3398Y-5.2089
X4.3731Y-5.1567
X4.3733Y-5.2089
X4.4065Y-5.1567
X4.4067Y-5.2089
X4.44Y-5.1567
X4.4402Y-5.2089
X4.4735Y-5.1567
X4.4737Y-5.2089
X4.5071Y-5.1567
X4.5071Y-5.2089
T2
X4.365Y-5.5347
X4.365Y-5.5938
T3
X3.8934Y-5.5452
X4.0934Y-5.5452
X3.8937Y-5.245
X4.0938Y-5.245
X3.8937Y-5.445
X4.0938Y-5.445
X3.635Y-5.0312
X3.835Y-5.0312
X4.715Y-4.9688
X4.715Y-5.1695
X3.8937Y-5.645
X4.0938Y-5.645
X3.8937Y-5.745
X4.0938Y-5.745
X3.8937Y-5.3452
X4.0937Y-5.3452
T4
X13.2375Y-8.1188
X13.3375Y-8.1188
X13.4375Y-8.1188
X13.5375Y-8.1188
X13.24Y-6.985
X13.34Y-6.985
X13.44Y-6.985
X13.54Y-6.985
T5
X8.575Y-5.4688
X8.575Y-5.7687
X2.2774Y-5.036
X2.4695Y-5.036
X10.825Y-5.3438
X10.825Y-5.6437
X8.2012Y-5.4062
X8.2012Y-5.7062
X6.8262Y-5.3438
X6.8262Y-5.6437
X12.575Y-5.4688
X12.575Y-5.7687
X5.645Y-5.375
X5.645Y-5.675
X13.195Y-5.4062
X13.195Y-5.7062
X10.325Y-5.3438
X10.325Y-5.6437
X6.5762Y-5.4688
X6.5762Y-5.7687
X5.7713Y-5.375
X5.7713Y-5.675
X6.7012Y-5.4062
X6.7012Y-5.7062
X6.075Y-5.47
X6.075Y-5.77
X10.075Y-5.4688
X10.075Y-5.7687
X11.575Y-5.4688
X11.575Y-5.7687
X8.95Y-5.2812
X8.95Y-5.5812
X6.3262Y-5.3438
X6.3262Y-5.6437
X2.5156Y-5.88
X2.7125Y-5.88
X12.945Y-5.2812
X12.945Y-5.5812
X5.895Y-5.375
X5.895Y-5.675
X7.5762Y-5.4688
X7.5762Y-5.7687
X7.0762Y-5.4688
X7.0762Y-5.7687
X11.2Y-5.4062
X11.2Y-5.7062
X10.575Y-5.4688
X10.575Y-5.7687
X7.4512Y-5.2812
X7.4512Y-5.5812
X10.45Y-5.2812
X10.45Y-5.5812
X7.2012Y-5.4062
X7.2012Y-5.7062
X9.575Y-5.4688
X9.575Y-5.7687
X12.45Y-5.2812
X12.45Y-5.5812
X10.2Y-5.4062
X10.2Y-5.7062
X1.8126Y-5.1892
X1.8126Y-5.7892
X1.9126Y-5.1892
X1.9126Y-5.7892
X2.0126Y-5.1892
X2.0126Y-5.7892
X2.1126Y-5.1892
X2.1126Y-5.7892
X2.2126Y-5.1892
X2.2126Y-5.7892
X2.3126Y-5.1892
X2.3126Y-5.7892
X2.4126Y-5.1892
X2.4126Y-5.7892
X2.5126Y-5.1892
X2.5126Y-5.7892
X2.6126Y-5.1892
X2.6126Y-5.7892
X2.7126Y-5.1892
X2.7126Y-5.7892
X2.8126Y-5.1892
X2.8126Y-5.7892
X2.9126Y-5.1892
X2.9126Y-5.7892
X3.0126Y-5.1892
X3.0126Y-5.7892
X3.1126Y-5.1892
X3.1126Y-5.7892
X3.2126Y-5.1892
X3.2126Y-5.7892
X3.3126Y-5.1892
X3.3126Y-5.7892
X3.4126Y-5.1892
X3.4126Y-5.7892
X3.5126Y-5.1892
X3.5126Y-5.7892
X3.6126Y-5.1892
X3.6126Y-5.7892
X3.7126Y-5.1892
X3.7126Y-5.7892
X2.8231Y-5.04
X3.02Y-5.04
X4.75Y-5.3975
X5.05Y-5.3975
X7.3262Y-5.3438
X7.3262Y-5.6437
X11.325Y-5.3438
X11.325Y-5.6437
X13.4437Y-5.2812
X13.4437Y-5.5812
X6.9512Y-5.2812
X6.9512Y-5.5812
X13.57Y-5.47
X13.57Y-5.77
X7.7012Y-5.4062
X7.7012Y-5.7062
X2.0845Y-4.9912
X2.0845Y-5.0897
X9.45Y-5.2812
X9.45Y-5.5812
X7.8262Y-5.3438
X7.8262Y-5.6437
X8.0762Y-5.4688
X8.0762Y-5.7687
X2.6615Y-4.9912
X2.6615Y-5.0897
X13.24Y-6.0637
X13.54Y-6.0637
X9.7Y-5.4062
X9.7Y-5.7062
X8.3262Y-5.3438
X8.3262Y-5.6437
X7.9512Y-5.2812
X7.9512Y-5.5812
X13.07Y-5.4688
X13.07Y-5.7687
X6.2Y-5.42
X6.2Y-5.72
X10.95Y-5.2812
X10.95Y-5.5812
X10.7Y-5.4062
X10.7Y-5.7062
X6.4512Y-5.2812
X6.4512Y-5.5812
X11.45Y-5.2812
X11.45Y-5.5812
X11.7Y-5.4062
X11.7Y-5.7062
X5.52Y-5.375
X5.52Y-5.675
X4.75Y-5.5137
X5.05Y-5.5137
X9.325Y-5.3438
X9.325Y-5.6437
X8.825Y-5.3438
X8.825Y-5.6437
X11.075Y-5.4688
X11.075Y-5.7687
X11.95Y-5.2812
X11.95Y-5.5812
X11.825Y-5.3438
X11.825Y-5.6437
X13.3187Y-5.3438
X13.3187Y-5.6437
X8.45Y-5.2812
X8.45Y-5.5812
X13.695Y-5.4062
X13.695Y-5.7062
X12.2Y-5.4062
X12.2Y-5.7062
X9.825Y-5.3438
X9.825Y-5.6437
X9.2Y-5.4062
X9.2Y-5.7062
X12.325Y-5.3438
X12.325Y-5.6437
X9.95Y-5.2812
X9.95Y-5.5812
X12.075Y-5.4688
X12.075Y-5.7687
X12.7Y-5.4062
X12.7Y-5.7062
X8.7Y-5.4062
X8.7Y-5.7062
X9.075Y-5.4688
X9.075Y-5.7687
X12.825Y-5.3438
X12.825Y-5.6437
T6
X3.9688Y-5.0312
X4.0687Y-5.0312
T7
X13.096Y-6.3125
X13.096Y-6.4109
X13.096Y-6.5094
X13.6668Y-6.3125
X13.6668Y-6.5094
X5.32Y-5.005
X5.32Y-5.105
X5.42Y-5.005
X5.42Y-5.105
X5.52Y-5.005
X5.52Y-5.105
T8
X6.1191Y-4.99
X6.1191Y-5.1672
X6.375Y-4.99
X6.375Y-5.1672
X5.7Y-4.99
X5.7Y-5.1672
X5.9559Y-4.99
X5.9559Y-5.1672
T9
X3.6625Y-7.7437
X3.9125Y-7.6437
X5.725Y-6.9937
X5.975Y-6.8937
X4.6Y-6.2437
X4.85Y-6.1437
X2.6313Y-9.2438
X2.8813Y-9.1437
X6.1Y-6.2437
X6.35Y-6.1437
X1.7875Y-6.9937
X2.0375Y-6.8937
X4.4125Y-7.7437
X4.6625Y-7.6437
X9.1937Y-9.2438
X9.4437Y-9.1437
X3.6625Y-9.2438
X3.9125Y-9.1437
X11.9125Y-6.9937
X12.1625Y-6.8937
X11.0687Y-9.2438
X11.3187Y-9.1437
X12.1Y-8.4938
X12.35Y-8.3937
X4.7875Y-8.4938
X5.0375Y-8.3937
X7.4125Y-7.7437
X7.6625Y-7.6437
X8.35Y-6.2437
X8.6Y-6.1437
X8.9125Y-7.7437
X9.1625Y-7.6437
X10.225Y-6.9937
X10.475Y-6.8937
X2.725Y-6.9937
X2.975Y-6.8937
X1.8812Y-7.7437
X2.1313Y-7.6437
X11.35Y-6.2437
X11.6Y-6.1437
X2.725Y-9.2438
X2.975Y-9.1437
X13.6Y-9.2438
X13.85Y-9.1437
X7.6Y-6.2437
X7.85Y-6.1437
X11.0687Y-8.4938
X11.3187Y-8.3937
X7.0375Y-8.4938
X7.2875Y-8.3937
X8.725Y-6.9937
X8.975Y-6.8937
X9.6625Y-7.7437
X9.9125Y-7.6437
X12.1Y-9.2438
X12.35Y-9.1437
X10.975Y-6.9937
X11.225Y-6.8937
X4.975Y-6.9937
X5.225Y-6.8937
X5.9125Y-7.7437
X6.1625Y-7.6437
X5.35Y-6.2437
X5.6Y-6.1437
X12.85Y-9.2438
X13.1Y-9.1437
X1.6Y-6.2437
X1.85Y-6.1437
X6.85Y-9.2438
X7.1Y-9.1437
X3.2875Y-8.4938
X3.5375Y-8.3937
X10.4125Y-7.7437
X10.6625Y-7.6437
X2.0688Y-8.4938
X2.3188Y-8.3937
X6.2875Y-8.4938
X6.5375Y-8.3937
X4.0375Y-8.4938
X4.2875Y-8.3937
X2.35Y-6.2437
X2.6Y-6.1437
X6.1Y-9.2438
X6.35Y-9.1437
X2.9125Y-9.2438
X3.1625Y-9.1437
X10.6Y-6.2437
X10.85Y-6.1437
X10.975Y-9.2438
X11.225Y-9.1437
X6.6625Y-7.7437
X6.9125Y-7.6437
X10.0375Y-8.4938
X10.2875Y-8.3937
X7.225Y-6.9937
X7.475Y-6.8937
X9.2875Y-8.4938
X9.5375Y-8.3937
X11.6312Y-7.7437
X11.8812Y-7.6437
X8.5375Y-8.4938
X8.7875Y-8.3937
X5.1625Y-7.7437
X5.4125Y-7.6437
X11.725Y-6.2437
X11.975Y-6.1437
X3.475Y-6.9937
X3.725Y-6.8937
X9.85Y-6.2437
X10.1Y-6.1437
X6.3812Y-9.2438
X6.6312Y-9.1437
X9.9437Y-9.2438
X10.1937Y-9.1437
X7.975Y-6.9937
X8.225Y-6.8937
X4.225Y-6.9937
X4.475Y-6.8937
X5.5375Y-8.4938
X5.7875Y-8.3937
X9.1Y-6.2437
X9.35Y-6.1437
X12.1Y-6.2437
X12.35Y-6.1437
X3.5688Y-9.2438
X3.8188Y-9.1437
X10.1312Y-9.2438
X10.3812Y-9.1437
X6.85Y-6.2437
X7.1Y-6.1437
X6.475Y-6.9937
X6.725Y-6.8937
X2.9125Y-7.7437
X3.1625Y-7.6437
X3.1Y-6.2437
X3.35Y-6.1437
X8.1625Y-7.7437
X8.4125Y-7.6437
X3.85Y-6.2437
X4.1Y-6.1437
X9.475Y-6.9937
X9.725Y-6.8937
X1.6937Y-7.7437
X1.9437Y-7.6437
X12.85Y-8.4938
X13.1Y-8.3937
X1.6937Y-9.2438
X1.9437Y-9.1437
X7.7875Y-8.4938
X8.0375Y-8.3937
X11.4437Y-8.4938
X11.6937Y-8.3937
X1.7875Y-9.2438
X2.0375Y-9.1437
T11
X3.0Y-8.8438
X1.5625Y-5.75
X11.5938Y-7.0938
X7.0Y-6.75
X7.6875Y-9.25
X12.625Y-8.9688
X7.75Y-5.0625
X1.5625Y-5.0625
X13.9375Y-5.0625
X2.4062Y-7.0938
X13.9375Y-5.75
T2
G00X4.2197Y-5.053
M15
G01X4.2197Y-5.0215
M16
G05
G00X4.2197Y-5.1999
M15
G01X4.2197Y-5.1408
M16
G05
G00X4.5603Y-5.053
M15
G01X4.5603Y-5.0215
M16
G05
G00X4.5603Y-5.1999
M15
G01X4.5603Y-5.1408
M16
G05
T10
G00X13.3657Y-6.1905
M15
G01X13.4168Y-6.1905
M16
G05
G00X13.3657Y-6.6314
M15
G01X13.4168Y-6.6314
M16
G05
T0
M30
