%FSLAX45Y45*%
G04 Gerber Fmt 4.5, Leading zero omitted, Abs format (unit mm)*
G04 Created by KiCad (PCBNEW (5.1.6)-1) date 2022-07-12 00:57:49*
%MOMM*%
%LPD*%
G01*
G04 APERTURE LIST*
%TA.AperFunction,Profile*%
%ADD10C,0.050000*%
%TD*%
%ADD11C,0.200000*%
%ADD12C,0.300000*%
G04 APERTURE END LIST*
D10*
X3810000Y-24685625D02*
G75*
G02*
X3492500Y-24368125I0J317500D01*
G01*
X3492500Y-12700000D02*
G75*
G02*
X3810000Y-12382500I317500J0D01*
G01*
X35560000Y-12382500D02*
G75*
G02*
X35877500Y-12700000I0J-317500D01*
G01*
X35560000Y-12382500D02*
X3810000Y-12382500D01*
X35877500Y-24368125D02*
X35877500Y-12700000D01*
X35877500Y-24368125D02*
G75*
G02*
X35560000Y-24685625I-317500J0D01*
G01*
X3810000Y-24685625D02*
X35560000Y-24685625D01*
X3492500Y-24368125D02*
X3492500Y-12700000D01*
D11*
X24328250Y-19835625D02*
X24503250Y-20010625D01*
X24503250Y-19835625D02*
X24328250Y-20010625D01*
X25344250Y-19835625D02*
X25519250Y-20010625D01*
X25519250Y-19835625D02*
X25344250Y-20010625D01*
X30519500Y-23645625D02*
X30694500Y-23820625D01*
X30694500Y-23645625D02*
X30519500Y-23820625D01*
X31535500Y-23645625D02*
X31710500Y-23820625D01*
X31710500Y-23645625D02*
X31535500Y-23820625D01*
X27662000Y-17930625D02*
X27837000Y-18105625D01*
X27837000Y-17930625D02*
X27662000Y-18105625D01*
X28678000Y-17930625D02*
X28853000Y-18105625D01*
X28853000Y-17930625D02*
X28678000Y-18105625D01*
X12422000Y-17930625D02*
X12597000Y-18105625D01*
X12597000Y-17930625D02*
X12422000Y-18105625D01*
X13438000Y-17930625D02*
X13613000Y-18105625D01*
X13613000Y-17930625D02*
X13438000Y-18105625D01*
X14803250Y-19835625D02*
X14978250Y-20010625D01*
X14978250Y-19835625D02*
X14803250Y-20010625D01*
X15819250Y-19835625D02*
X15994250Y-20010625D01*
X15994250Y-19835625D02*
X15819250Y-20010625D01*
X13374500Y-16025625D02*
X13549500Y-16200625D01*
X13549500Y-16025625D02*
X13374500Y-16200625D01*
X14390500Y-16025625D02*
X14565500Y-16200625D01*
X14565500Y-16025625D02*
X14390500Y-16200625D01*
X32424500Y-23645625D02*
X32599500Y-23820625D01*
X32599500Y-23645625D02*
X32424500Y-23820625D01*
X33440500Y-23645625D02*
X33615500Y-23820625D01*
X33615500Y-23645625D02*
X33440500Y-23820625D01*
X3849500Y-16025625D02*
X4024500Y-16200625D01*
X4024500Y-16025625D02*
X3849500Y-16200625D01*
X4865500Y-16025625D02*
X5040500Y-16200625D01*
X5040500Y-16025625D02*
X4865500Y-16200625D01*
X17184500Y-23645625D02*
X17359500Y-23820625D01*
X17359500Y-23645625D02*
X17184500Y-23820625D01*
X18200500Y-23645625D02*
X18375500Y-23820625D01*
X18375500Y-23645625D02*
X18200500Y-23820625D01*
X8135750Y-21740625D02*
X8310750Y-21915625D01*
X8310750Y-21740625D02*
X8135750Y-21915625D01*
X9151750Y-21740625D02*
X9326750Y-21915625D01*
X9326750Y-21740625D02*
X9151750Y-21915625D01*
X26233250Y-19835625D02*
X26408250Y-20010625D01*
X26408250Y-19835625D02*
X26233250Y-20010625D01*
X27249250Y-19835625D02*
X27424250Y-20010625D01*
X27424250Y-19835625D02*
X27249250Y-20010625D01*
X5040125Y-21740625D02*
X5215125Y-21915625D01*
X5215125Y-21740625D02*
X5040125Y-21915625D01*
X6056125Y-21740625D02*
X6231125Y-21915625D01*
X6231125Y-21740625D02*
X6056125Y-21915625D01*
X15755750Y-21740625D02*
X15930750Y-21915625D01*
X15930750Y-21740625D02*
X15755750Y-21915625D01*
X16771750Y-21740625D02*
X16946750Y-21915625D01*
X16946750Y-21740625D02*
X16771750Y-21915625D01*
X10040750Y-21740625D02*
X10215750Y-21915625D01*
X10215750Y-21740625D02*
X10040750Y-21915625D01*
X11056750Y-21740625D02*
X11231750Y-21915625D01*
X11231750Y-21740625D02*
X11056750Y-21915625D01*
X5754500Y-16025625D02*
X5929500Y-16200625D01*
X5929500Y-16025625D02*
X5754500Y-16200625D01*
X6770500Y-16025625D02*
X6945500Y-16200625D01*
X6945500Y-16025625D02*
X6770500Y-16200625D01*
X15279500Y-23645625D02*
X15454500Y-23820625D01*
X15454500Y-23645625D02*
X15279500Y-23820625D01*
X16295500Y-23645625D02*
X16470500Y-23820625D01*
X16470500Y-23645625D02*
X16295500Y-23820625D01*
X7183250Y-23645625D02*
X7358250Y-23820625D01*
X7358250Y-23645625D02*
X7183250Y-23820625D01*
X8199250Y-23645625D02*
X8374250Y-23820625D01*
X8374250Y-23645625D02*
X8199250Y-23820625D01*
X26709500Y-16025625D02*
X26884500Y-16200625D01*
X26884500Y-16025625D02*
X26709500Y-16200625D01*
X27725500Y-16025625D02*
X27900500Y-16200625D01*
X27900500Y-16025625D02*
X27725500Y-16200625D01*
X27662000Y-23645625D02*
X27837000Y-23820625D01*
X27837000Y-23645625D02*
X27662000Y-23820625D01*
X28678000Y-23645625D02*
X28853000Y-23820625D01*
X28853000Y-23645625D02*
X28678000Y-23820625D01*
X16708250Y-19835625D02*
X16883250Y-20010625D01*
X16883250Y-19835625D02*
X16708250Y-20010625D01*
X17724250Y-19835625D02*
X17899250Y-20010625D01*
X17899250Y-19835625D02*
X17724250Y-20010625D01*
X25280750Y-21740625D02*
X25455750Y-21915625D01*
X25455750Y-21740625D02*
X25280750Y-21915625D01*
X26296750Y-21740625D02*
X26471750Y-21915625D01*
X26471750Y-21740625D02*
X26296750Y-21915625D01*
X18137000Y-17930625D02*
X18312000Y-18105625D01*
X18312000Y-17930625D02*
X18137000Y-18105625D01*
X19153000Y-17930625D02*
X19328000Y-18105625D01*
X19328000Y-17930625D02*
X19153000Y-18105625D01*
X23375750Y-21740625D02*
X23550750Y-21915625D01*
X23550750Y-21740625D02*
X23375750Y-21915625D01*
X24391750Y-21740625D02*
X24566750Y-21915625D01*
X24566750Y-21740625D02*
X24391750Y-21915625D01*
X29328875Y-19835625D02*
X29503875Y-20010625D01*
X29503875Y-19835625D02*
X29328875Y-20010625D01*
X30344875Y-19835625D02*
X30519875Y-20010625D01*
X30519875Y-19835625D02*
X30344875Y-20010625D01*
X21470750Y-21740625D02*
X21645750Y-21915625D01*
X21645750Y-21740625D02*
X21470750Y-21915625D01*
X22486750Y-21740625D02*
X22661750Y-21915625D01*
X22661750Y-21740625D02*
X22486750Y-21915625D01*
X12898250Y-19835625D02*
X13073250Y-20010625D01*
X13073250Y-19835625D02*
X12898250Y-20010625D01*
X13914250Y-19835625D02*
X14089250Y-20010625D01*
X14089250Y-19835625D02*
X13914250Y-20010625D01*
X29567000Y-16025625D02*
X29742000Y-16200625D01*
X29742000Y-16025625D02*
X29567000Y-16200625D01*
X30583000Y-16025625D02*
X30758000Y-16200625D01*
X30758000Y-16025625D02*
X30583000Y-16200625D01*
X8612000Y-17930625D02*
X8787000Y-18105625D01*
X8787000Y-17930625D02*
X8612000Y-18105625D01*
X9628000Y-17930625D02*
X9803000Y-18105625D01*
X9803000Y-17930625D02*
X9628000Y-18105625D01*
X24804500Y-16025625D02*
X24979500Y-16200625D01*
X24979500Y-16025625D02*
X24804500Y-16200625D01*
X25820500Y-16025625D02*
X25995500Y-16200625D01*
X25995500Y-16025625D02*
X25820500Y-16200625D01*
X15993875Y-23645625D02*
X16168875Y-23820625D01*
X16168875Y-23645625D02*
X15993875Y-23820625D01*
X17009875Y-23645625D02*
X17184875Y-23820625D01*
X17184875Y-23645625D02*
X17009875Y-23820625D01*
X25042625Y-23645625D02*
X25217625Y-23820625D01*
X25217625Y-23645625D02*
X25042625Y-23820625D01*
X26058625Y-23645625D02*
X26233625Y-23820625D01*
X26233625Y-23645625D02*
X26058625Y-23820625D01*
X20042000Y-17930625D02*
X20217000Y-18105625D01*
X20217000Y-17930625D02*
X20042000Y-18105625D01*
X21058000Y-17930625D02*
X21233000Y-18105625D01*
X21233000Y-17930625D02*
X21058000Y-18105625D01*
X10517000Y-17930625D02*
X10692000Y-18105625D01*
X10692000Y-17930625D02*
X10517000Y-18105625D01*
X11533000Y-17930625D02*
X11708000Y-18105625D01*
X11708000Y-17930625D02*
X11533000Y-18105625D01*
X13850750Y-21740625D02*
X14025750Y-21915625D01*
X14025750Y-21740625D02*
X13850750Y-21915625D01*
X14866750Y-21740625D02*
X15041750Y-21915625D01*
X15041750Y-21740625D02*
X14866750Y-21915625D01*
X22899500Y-16025625D02*
X23074500Y-16200625D01*
X23074500Y-16025625D02*
X22899500Y-16200625D01*
X23915500Y-16025625D02*
X24090500Y-16200625D01*
X24090500Y-16025625D02*
X23915500Y-16200625D01*
X30519500Y-16025625D02*
X30694500Y-16200625D01*
X30694500Y-16025625D02*
X30519500Y-16200625D01*
X31535500Y-16025625D02*
X31710500Y-16200625D01*
X31710500Y-16025625D02*
X31535500Y-16200625D01*
X8850125Y-23645625D02*
X9025125Y-23820625D01*
X9025125Y-23645625D02*
X8850125Y-23820625D01*
X9866125Y-23645625D02*
X10041125Y-23820625D01*
X10041125Y-23645625D02*
X9866125Y-23820625D01*
X25518875Y-23645625D02*
X25693875Y-23820625D01*
X25693875Y-23645625D02*
X25518875Y-23820625D01*
X26534875Y-23645625D02*
X26709875Y-23820625D01*
X26709875Y-23645625D02*
X26534875Y-23820625D01*
X17184500Y-16025625D02*
X17359500Y-16200625D01*
X17359500Y-16025625D02*
X17184500Y-16200625D01*
X18200500Y-16025625D02*
X18375500Y-16200625D01*
X18375500Y-16025625D02*
X18200500Y-16200625D01*
X16232000Y-17930625D02*
X16407000Y-18105625D01*
X16407000Y-17930625D02*
X16232000Y-18105625D01*
X17248000Y-17930625D02*
X17423000Y-18105625D01*
X17423000Y-17930625D02*
X17248000Y-18105625D01*
X7183250Y-19835625D02*
X7358250Y-20010625D01*
X7358250Y-19835625D02*
X7183250Y-20010625D01*
X8199250Y-19835625D02*
X8374250Y-20010625D01*
X8374250Y-19835625D02*
X8199250Y-20010625D01*
X7659500Y-16025625D02*
X7834500Y-16200625D01*
X7834500Y-16025625D02*
X7659500Y-16200625D01*
X8675500Y-16025625D02*
X8850500Y-16200625D01*
X8850500Y-16025625D02*
X8675500Y-16200625D01*
X20518250Y-19835625D02*
X20693250Y-20010625D01*
X20693250Y-19835625D02*
X20518250Y-20010625D01*
X21534250Y-19835625D02*
X21709250Y-20010625D01*
X21709250Y-19835625D02*
X21534250Y-20010625D01*
X9564500Y-16025625D02*
X9739500Y-16200625D01*
X9739500Y-16025625D02*
X9564500Y-16200625D01*
X10580500Y-16025625D02*
X10755500Y-16200625D01*
X10755500Y-16025625D02*
X10580500Y-16200625D01*
X23852000Y-17930625D02*
X24027000Y-18105625D01*
X24027000Y-17930625D02*
X23852000Y-18105625D01*
X24868000Y-17930625D02*
X25043000Y-18105625D01*
X25043000Y-17930625D02*
X24868000Y-18105625D01*
X4087625Y-19835625D02*
X4262625Y-20010625D01*
X4262625Y-19835625D02*
X4087625Y-20010625D01*
X5103625Y-19835625D02*
X5278625Y-20010625D01*
X5278625Y-19835625D02*
X5103625Y-20010625D01*
X32424500Y-21740625D02*
X32599500Y-21915625D01*
X32599500Y-21740625D02*
X32424500Y-21915625D01*
X33440500Y-21740625D02*
X33615500Y-21915625D01*
X33615500Y-21740625D02*
X33440500Y-21915625D01*
X4087625Y-23645625D02*
X4262625Y-23820625D01*
X4262625Y-23645625D02*
X4087625Y-23820625D01*
X5103625Y-23645625D02*
X5278625Y-23820625D01*
X5278625Y-23645625D02*
X5103625Y-23820625D01*
X19565750Y-21740625D02*
X19740750Y-21915625D01*
X19740750Y-21740625D02*
X19565750Y-21915625D01*
X20581750Y-21740625D02*
X20756750Y-21915625D01*
X20756750Y-21740625D02*
X20581750Y-21915625D01*
X28852625Y-21740625D02*
X29027625Y-21915625D01*
X29027625Y-21740625D02*
X28852625Y-21915625D01*
X29868625Y-21740625D02*
X30043625Y-21915625D01*
X30043625Y-21740625D02*
X29868625Y-21915625D01*
X4325750Y-23645625D02*
X4500750Y-23820625D01*
X4500750Y-23645625D02*
X4325750Y-23820625D01*
X5341750Y-23645625D02*
X5516750Y-23820625D01*
X5516750Y-23645625D02*
X5341750Y-23820625D01*
X9088250Y-19835625D02*
X9263250Y-20010625D01*
X9263250Y-19835625D02*
X9088250Y-20010625D01*
X10104250Y-19835625D02*
X10279250Y-20010625D01*
X10279250Y-19835625D02*
X10104250Y-20010625D01*
X14327000Y-17930625D02*
X14502000Y-18105625D01*
X14502000Y-17930625D02*
X14327000Y-18105625D01*
X15343000Y-17930625D02*
X15518000Y-18105625D01*
X15518000Y-17930625D02*
X15343000Y-18105625D01*
X11469500Y-16025625D02*
X11644500Y-16200625D01*
X11644500Y-16025625D02*
X11469500Y-16200625D01*
X12485500Y-16025625D02*
X12660500Y-16200625D01*
X12660500Y-16025625D02*
X12485500Y-16200625D01*
X6468875Y-23645625D02*
X6643875Y-23820625D01*
X6643875Y-23645625D02*
X6468875Y-23820625D01*
X7484875Y-23645625D02*
X7659875Y-23820625D01*
X7659875Y-23645625D02*
X7484875Y-23820625D01*
X15279500Y-16025625D02*
X15454500Y-16200625D01*
X15454500Y-16025625D02*
X15279500Y-16200625D01*
X16295500Y-16025625D02*
X16470500Y-16200625D01*
X16470500Y-16025625D02*
X16295500Y-16200625D01*
X4325750Y-17930625D02*
X4500750Y-18105625D01*
X4500750Y-17930625D02*
X4325750Y-18105625D01*
X5341750Y-17930625D02*
X5516750Y-18105625D01*
X5516750Y-17930625D02*
X5341750Y-18105625D01*
X10993250Y-19835625D02*
X11168250Y-20010625D01*
X11168250Y-19835625D02*
X10993250Y-20010625D01*
X12009250Y-19835625D02*
X12184250Y-20010625D01*
X12184250Y-19835625D02*
X12009250Y-20010625D01*
X23137625Y-23645625D02*
X23312625Y-23820625D01*
X23312625Y-23645625D02*
X23137625Y-23820625D01*
X24153625Y-23645625D02*
X24328625Y-23820625D01*
X24328625Y-23645625D02*
X24153625Y-23820625D01*
X9088250Y-23645625D02*
X9263250Y-23820625D01*
X9263250Y-23645625D02*
X9088250Y-23820625D01*
X10104250Y-23645625D02*
X10279250Y-23820625D01*
X10279250Y-23645625D02*
X10104250Y-23820625D01*
X30043250Y-17930625D02*
X30218250Y-18105625D01*
X30218250Y-17930625D02*
X30043250Y-18105625D01*
X31059250Y-17930625D02*
X31234250Y-18105625D01*
X31234250Y-17930625D02*
X31059250Y-18105625D01*
X27900125Y-23645625D02*
X28075125Y-23820625D01*
X28075125Y-23645625D02*
X27900125Y-23820625D01*
X28916125Y-23645625D02*
X29091125Y-23820625D01*
X29091125Y-23645625D02*
X28916125Y-23820625D01*
X30519500Y-21740625D02*
X30694500Y-21915625D01*
X30694500Y-21740625D02*
X30519500Y-21915625D01*
X31535500Y-21740625D02*
X31710500Y-21915625D01*
X31710500Y-21740625D02*
X31535500Y-21915625D01*
X11945750Y-21740625D02*
X12120750Y-21915625D01*
X12120750Y-21740625D02*
X11945750Y-21915625D01*
X12961750Y-21740625D02*
X13136750Y-21915625D01*
X13136750Y-21740625D02*
X12961750Y-21915625D01*
X18613250Y-19835625D02*
X18788250Y-20010625D01*
X18788250Y-19835625D02*
X18613250Y-20010625D01*
X19629250Y-19835625D02*
X19804250Y-20010625D01*
X19804250Y-19835625D02*
X19629250Y-20010625D01*
X20994500Y-16025625D02*
X21169500Y-16200625D01*
X21169500Y-16025625D02*
X20994500Y-16200625D01*
X22010500Y-16025625D02*
X22185500Y-16200625D01*
X22185500Y-16025625D02*
X22010500Y-16200625D01*
X22423250Y-19835625D02*
X22598250Y-20010625D01*
X22598250Y-19835625D02*
X22423250Y-20010625D01*
X23439250Y-19835625D02*
X23614250Y-20010625D01*
X23614250Y-19835625D02*
X23439250Y-20010625D01*
X25757000Y-17930625D02*
X25932000Y-18105625D01*
X25932000Y-17930625D02*
X25757000Y-18105625D01*
X26773000Y-17930625D02*
X26948000Y-18105625D01*
X26948000Y-17930625D02*
X26773000Y-18105625D01*
X6707000Y-17930625D02*
X6882000Y-18105625D01*
X6882000Y-17930625D02*
X6707000Y-18105625D01*
X7723000Y-17930625D02*
X7898000Y-18105625D01*
X7898000Y-17930625D02*
X7723000Y-18105625D01*
X4563875Y-19835625D02*
X4738875Y-20010625D01*
X4738875Y-19835625D02*
X4563875Y-20010625D01*
X5579875Y-19835625D02*
X5754875Y-20010625D01*
X5754875Y-19835625D02*
X5579875Y-20010625D01*
X28614500Y-16025625D02*
X28789500Y-16200625D01*
X28789500Y-16025625D02*
X28614500Y-16200625D01*
X29630500Y-16025625D02*
X29805500Y-16200625D01*
X29805500Y-16025625D02*
X29630500Y-16200625D01*
X6707000Y-23645625D02*
X6882000Y-23820625D01*
X6882000Y-23645625D02*
X6707000Y-23820625D01*
X7723000Y-23645625D02*
X7898000Y-23820625D01*
X7898000Y-23645625D02*
X7723000Y-23820625D01*
X34329500Y-23645625D02*
X34504500Y-23820625D01*
X34504500Y-23645625D02*
X34329500Y-23820625D01*
X35345500Y-23645625D02*
X35520500Y-23820625D01*
X35520500Y-23645625D02*
X35345500Y-23820625D01*
X19089500Y-16025625D02*
X19264500Y-16200625D01*
X19264500Y-16025625D02*
X19089500Y-16200625D01*
X20105500Y-16025625D02*
X20280500Y-16200625D01*
X20280500Y-16025625D02*
X20105500Y-16200625D01*
X27900125Y-21740625D02*
X28075125Y-21915625D01*
X28075125Y-21740625D02*
X27900125Y-21915625D01*
X28916125Y-21740625D02*
X29091125Y-21915625D01*
X29091125Y-21740625D02*
X28916125Y-21915625D01*
X17660750Y-21740625D02*
X17835750Y-21915625D01*
X17835750Y-21740625D02*
X17660750Y-21915625D01*
X18676750Y-21740625D02*
X18851750Y-21915625D01*
X18851750Y-21740625D02*
X18676750Y-21915625D01*
X21947000Y-17930625D02*
X22122000Y-18105625D01*
X22122000Y-17930625D02*
X21947000Y-18105625D01*
X22963000Y-17930625D02*
X23138000Y-18105625D01*
X23138000Y-17930625D02*
X22963000Y-18105625D01*
X35298775Y-17789525D02*
G75*
G03*
X35298775Y-17789525I-110000J0D01*
G01*
X32948775Y-20175875D02*
G75*
G03*
X32948775Y-20175875I-110000J0D01*
G01*
X32948775Y-17789525D02*
G75*
G03*
X32948775Y-17789525I-110000J0D01*
G01*
X35298775Y-20175875D02*
G75*
G03*
X35298775Y-20175875I-110000J0D01*
G01*
X12065000Y-24279225D02*
X12065000Y-24584025D01*
X11912600Y-24431625D02*
X12217400Y-24431625D01*
X23495000Y-24279225D02*
X23495000Y-24584025D01*
X23342600Y-24431625D02*
X23647400Y-24431625D01*
X4445000Y-20977225D02*
X4445000Y-21282025D01*
X4292600Y-21129625D02*
X4597400Y-21129625D01*
X6826250Y-20977225D02*
X6826250Y-21282025D01*
X6673850Y-21129625D02*
X6978650Y-21129625D01*
X10160000Y-24279225D02*
X10160000Y-24584025D01*
X10007600Y-24431625D02*
X10312400Y-24431625D01*
X21590000Y-24279225D02*
X21590000Y-24584025D01*
X21437600Y-24431625D02*
X21742400Y-24431625D01*
X28733750Y-19072225D02*
X28733750Y-19377025D01*
X28581350Y-19224625D02*
X28886150Y-19224625D01*
X31115000Y-19072225D02*
X31115000Y-19377025D01*
X30962600Y-19224625D02*
X31267400Y-19224625D01*
X28971875Y-15262225D02*
X28971875Y-15567025D01*
X28819475Y-15414625D02*
X29124275Y-15414625D01*
X31353125Y-15262225D02*
X31353125Y-15567025D01*
X31200725Y-15414625D02*
X31505525Y-15414625D01*
X11589385Y-24279225D02*
X11589385Y-24584025D01*
X11436985Y-24431625D02*
X11741785Y-24431625D01*
X21589365Y-24279225D02*
X21589365Y-24584025D01*
X21436965Y-24431625D02*
X21741765Y-24431625D01*
X28257500Y-20977225D02*
X28257500Y-21282025D01*
X28105100Y-21129625D02*
X28409900Y-21129625D01*
X30638750Y-20977225D02*
X30638750Y-21282025D01*
X30486350Y-21129625D02*
X30791150Y-21129625D01*
X28398491Y-23874116D02*
X28398491Y-23592134D01*
X28116509Y-23592134D01*
X28116509Y-23874116D01*
X28398491Y-23874116D01*
X17444741Y-20064116D02*
X17444741Y-19782134D01*
X17162759Y-19782134D01*
X17162759Y-20064116D01*
X17444741Y-20064116D01*
X26017241Y-21969116D02*
X26017241Y-21687134D01*
X25735259Y-21687134D01*
X25735259Y-21969116D01*
X26017241Y-21969116D01*
X18873491Y-18159116D02*
X18873491Y-17877134D01*
X18591509Y-17877134D01*
X18591509Y-18159116D01*
X18873491Y-18159116D01*
X24112241Y-21969116D02*
X24112241Y-21687134D01*
X23830259Y-21687134D01*
X23830259Y-21969116D01*
X24112241Y-21969116D01*
X28874741Y-20889616D02*
X28874741Y-20607634D01*
X28592759Y-20607634D01*
X28592759Y-20889616D01*
X28874741Y-20889616D01*
X30065366Y-20064116D02*
X30065366Y-19782134D01*
X29783384Y-19782134D01*
X29783384Y-20064116D01*
X30065366Y-20064116D01*
X31255991Y-20889616D02*
X31255991Y-20607634D01*
X30974009Y-20607634D01*
X30974009Y-20889616D01*
X31255991Y-20889616D01*
X22207241Y-21969116D02*
X22207241Y-21687134D01*
X21925259Y-21687134D01*
X21925259Y-21969116D01*
X22207241Y-21969116D01*
X13634741Y-20064116D02*
X13634741Y-19782134D01*
X13352759Y-19782134D01*
X13352759Y-20064116D01*
X13634741Y-20064116D01*
X29112866Y-17079616D02*
X29112866Y-16797634D01*
X28830884Y-16797634D01*
X28830884Y-17079616D01*
X29112866Y-17079616D01*
X30303491Y-16254116D02*
X30303491Y-15972134D01*
X30021509Y-15972134D01*
X30021509Y-16254116D01*
X30303491Y-16254116D01*
X31494116Y-17079616D02*
X31494116Y-16797634D01*
X31212134Y-16797634D01*
X31212134Y-17079616D01*
X31494116Y-17079616D01*
X9348491Y-18159116D02*
X9348491Y-17877134D01*
X9066509Y-17877134D01*
X9066509Y-18159116D01*
X9348491Y-18159116D01*
X25540991Y-16254116D02*
X25540991Y-15972134D01*
X25259009Y-15972134D01*
X25259009Y-16254116D01*
X25540991Y-16254116D01*
X11730376Y-23048616D02*
X11730376Y-22766634D01*
X11448394Y-22766634D01*
X11448394Y-23048616D01*
X11730376Y-23048616D01*
X16730366Y-23874116D02*
X16730366Y-23592134D01*
X16448384Y-23592134D01*
X16448384Y-23874116D01*
X16730366Y-23874116D01*
X21730356Y-23048616D02*
X21730356Y-22766634D01*
X21448374Y-22766634D01*
X21448374Y-23048616D01*
X21730356Y-23048616D01*
X25779116Y-23874116D02*
X25779116Y-23592134D01*
X25497134Y-23592134D01*
X25497134Y-23874116D01*
X25779116Y-23874116D01*
X20778491Y-18159116D02*
X20778491Y-17877134D01*
X20496509Y-17877134D01*
X20496509Y-18159116D01*
X20778491Y-18159116D01*
X11253491Y-18159116D02*
X11253491Y-17877134D01*
X10971509Y-17877134D01*
X10971509Y-18159116D01*
X11253491Y-18159116D01*
X14587241Y-21969116D02*
X14587241Y-21687134D01*
X14305259Y-21687134D01*
X14305259Y-21969116D01*
X14587241Y-21969116D01*
X23635991Y-16254116D02*
X23635991Y-15972134D01*
X23354009Y-15972134D01*
X23354009Y-16254116D01*
X23635991Y-16254116D01*
X31255991Y-16254116D02*
X31255991Y-15972134D01*
X30974009Y-15972134D01*
X30974009Y-16254116D01*
X31255991Y-16254116D01*
X9586616Y-23874116D02*
X9586616Y-23592134D01*
X9304634Y-23592134D01*
X9304634Y-23874116D01*
X9586616Y-23874116D01*
X26255366Y-23874116D02*
X26255366Y-23592134D01*
X25973384Y-23592134D01*
X25973384Y-23874116D01*
X26255366Y-23874116D01*
X17920991Y-16254116D02*
X17920991Y-15972134D01*
X17639009Y-15972134D01*
X17639009Y-16254116D01*
X17920991Y-16254116D01*
X16968491Y-18159116D02*
X16968491Y-17877134D01*
X16686509Y-17877134D01*
X16686509Y-18159116D01*
X16968491Y-18159116D01*
X7919741Y-20064116D02*
X7919741Y-19782134D01*
X7637759Y-19782134D01*
X7637759Y-20064116D01*
X7919741Y-20064116D01*
X8395991Y-16254116D02*
X8395991Y-15972134D01*
X8114009Y-15972134D01*
X8114009Y-16254116D01*
X8395991Y-16254116D01*
X21254741Y-20064116D02*
X21254741Y-19782134D01*
X20972759Y-19782134D01*
X20972759Y-20064116D01*
X21254741Y-20064116D01*
X10300991Y-16254116D02*
X10300991Y-15972134D01*
X10019009Y-15972134D01*
X10019009Y-16254116D01*
X10300991Y-16254116D01*
X24588491Y-18159116D02*
X24588491Y-17877134D01*
X24306509Y-17877134D01*
X24306509Y-18159116D01*
X24588491Y-18159116D01*
X4824116Y-20064116D02*
X4824116Y-19782134D01*
X4542134Y-19782134D01*
X4542134Y-20064116D01*
X4824116Y-20064116D01*
X33160991Y-21969116D02*
X33160991Y-21687134D01*
X32879009Y-21687134D01*
X32879009Y-21969116D01*
X33160991Y-21969116D01*
X4824116Y-23874116D02*
X4824116Y-23592134D01*
X4542134Y-23592134D01*
X4542134Y-23874116D01*
X4824116Y-23874116D01*
X20302241Y-21969116D02*
X20302241Y-21687134D01*
X20020259Y-21687134D01*
X20020259Y-21969116D01*
X20302241Y-21969116D01*
X28398491Y-22794616D02*
X28398491Y-22512634D01*
X28116509Y-22512634D01*
X28116509Y-22794616D01*
X28398491Y-22794616D01*
X29589116Y-21969116D02*
X29589116Y-21687134D01*
X29307134Y-21687134D01*
X29307134Y-21969116D01*
X29589116Y-21969116D01*
X30779741Y-22794616D02*
X30779741Y-22512634D01*
X30497759Y-22512634D01*
X30497759Y-22794616D01*
X30779741Y-22794616D01*
X5062241Y-23874116D02*
X5062241Y-23592134D01*
X4780259Y-23592134D01*
X4780259Y-23874116D01*
X5062241Y-23874116D01*
X9824741Y-20064116D02*
X9824741Y-19782134D01*
X9542759Y-19782134D01*
X9542759Y-20064116D01*
X9824741Y-20064116D01*
X15063491Y-18159116D02*
X15063491Y-17877134D01*
X14781509Y-17877134D01*
X14781509Y-18159116D01*
X15063491Y-18159116D01*
X12205991Y-16254116D02*
X12205991Y-15972134D01*
X11924009Y-15972134D01*
X11924009Y-16254116D01*
X12205991Y-16254116D01*
X7205366Y-23874116D02*
X7205366Y-23592134D01*
X6923384Y-23592134D01*
X6923384Y-23874116D01*
X7205366Y-23874116D01*
X16015991Y-16254116D02*
X16015991Y-15972134D01*
X15734009Y-15972134D01*
X15734009Y-16254116D01*
X16015991Y-16254116D01*
X5062241Y-18159116D02*
X5062241Y-17877134D01*
X4780259Y-17877134D01*
X4780259Y-18159116D01*
X5062241Y-18159116D01*
X11729741Y-20064116D02*
X11729741Y-19782134D01*
X11447759Y-19782134D01*
X11447759Y-20064116D01*
X11729741Y-20064116D01*
X23874116Y-23874116D02*
X23874116Y-23592134D01*
X23592134Y-23592134D01*
X23592134Y-23874116D01*
X23874116Y-23874116D01*
X9824741Y-23874116D02*
X9824741Y-23592134D01*
X9542759Y-23592134D01*
X9542759Y-23874116D01*
X9824741Y-23874116D01*
X30779741Y-18159116D02*
X30779741Y-17877134D01*
X30497759Y-17877134D01*
X30497759Y-18159116D01*
X30779741Y-18159116D01*
X28636616Y-23874116D02*
X28636616Y-23592134D01*
X28354634Y-23592134D01*
X28354634Y-23874116D01*
X28636616Y-23874116D01*
X31255991Y-21969116D02*
X31255991Y-21687134D01*
X30974009Y-21687134D01*
X30974009Y-21969116D01*
X31255991Y-21969116D01*
X12682241Y-21969116D02*
X12682241Y-21687134D01*
X12400259Y-21687134D01*
X12400259Y-21969116D01*
X12682241Y-21969116D01*
X19349741Y-20064116D02*
X19349741Y-19782134D01*
X19067759Y-19782134D01*
X19067759Y-20064116D01*
X19349741Y-20064116D01*
X21730991Y-16254116D02*
X21730991Y-15972134D01*
X21449009Y-15972134D01*
X21449009Y-16254116D01*
X21730991Y-16254116D01*
X23159741Y-20064116D02*
X23159741Y-19782134D01*
X22877759Y-19782134D01*
X22877759Y-20064116D01*
X23159741Y-20064116D01*
X26493491Y-18159116D02*
X26493491Y-17877134D01*
X26211509Y-17877134D01*
X26211509Y-18159116D01*
X26493491Y-18159116D01*
X7443491Y-18159116D02*
X7443491Y-17877134D01*
X7161509Y-17877134D01*
X7161509Y-18159116D01*
X7443491Y-18159116D01*
X5300366Y-20064116D02*
X5300366Y-19782134D01*
X5018384Y-19782134D01*
X5018384Y-20064116D01*
X5300366Y-20064116D01*
X29350991Y-16254116D02*
X29350991Y-15972134D01*
X29069009Y-15972134D01*
X29069009Y-16254116D01*
X29350991Y-16254116D01*
X7443491Y-23874116D02*
X7443491Y-23592134D01*
X7161509Y-23592134D01*
X7161509Y-23874116D01*
X7443491Y-23874116D01*
X35065991Y-23874116D02*
X35065991Y-23592134D01*
X34784009Y-23592134D01*
X34784009Y-23874116D01*
X35065991Y-23874116D01*
X19825991Y-16254116D02*
X19825991Y-15972134D01*
X19544009Y-15972134D01*
X19544009Y-16254116D01*
X19825991Y-16254116D01*
X28636616Y-21969116D02*
X28636616Y-21687134D01*
X28354634Y-21687134D01*
X28354634Y-21969116D01*
X28636616Y-21969116D01*
X18397241Y-21969116D02*
X18397241Y-21687134D01*
X18115259Y-21687134D01*
X18115259Y-21969116D01*
X18397241Y-21969116D01*
X22683491Y-18159116D02*
X22683491Y-17877134D01*
X22401509Y-17877134D01*
X22401509Y-18159116D01*
X22683491Y-18159116D01*
X25064741Y-20064116D02*
X25064741Y-19782134D01*
X24782759Y-19782134D01*
X24782759Y-20064116D01*
X25064741Y-20064116D01*
X31255991Y-23874116D02*
X31255991Y-23592134D01*
X30974009Y-23592134D01*
X30974009Y-23874116D01*
X31255991Y-23874116D01*
X28398491Y-18159116D02*
X28398491Y-17877134D01*
X28116509Y-17877134D01*
X28116509Y-18159116D01*
X28398491Y-18159116D01*
X13158491Y-18159116D02*
X13158491Y-17877134D01*
X12876509Y-17877134D01*
X12876509Y-18159116D01*
X13158491Y-18159116D01*
X15539741Y-20064116D02*
X15539741Y-19782134D01*
X15257759Y-19782134D01*
X15257759Y-20064116D01*
X15539741Y-20064116D01*
X14110991Y-16254116D02*
X14110991Y-15972134D01*
X13829009Y-15972134D01*
X13829009Y-16254116D01*
X14110991Y-16254116D01*
X33160991Y-23874116D02*
X33160991Y-23592134D01*
X32879009Y-23592134D01*
X32879009Y-23874116D01*
X33160991Y-23874116D01*
X4585991Y-16254116D02*
X4585991Y-15972134D01*
X4304009Y-15972134D01*
X4304009Y-16254116D01*
X4585991Y-16254116D01*
X12205991Y-23048616D02*
X12205991Y-22766634D01*
X11924009Y-22766634D01*
X11924009Y-23048616D01*
X12205991Y-23048616D01*
X17920991Y-23874116D02*
X17920991Y-23592134D01*
X17639009Y-23592134D01*
X17639009Y-23874116D01*
X17920991Y-23874116D01*
X23635991Y-23048616D02*
X23635991Y-22766634D01*
X23354009Y-22766634D01*
X23354009Y-23048616D01*
X23635991Y-23048616D01*
X8872241Y-21969116D02*
X8872241Y-21687134D01*
X8590259Y-21687134D01*
X8590259Y-21969116D01*
X8872241Y-21969116D01*
X26969741Y-20064116D02*
X26969741Y-19782134D01*
X26687759Y-19782134D01*
X26687759Y-20064116D01*
X26969741Y-20064116D01*
X4585991Y-22794616D02*
X4585991Y-22512634D01*
X4304009Y-22512634D01*
X4304009Y-22794616D01*
X4585991Y-22794616D01*
X5776616Y-21969116D02*
X5776616Y-21687134D01*
X5494634Y-21687134D01*
X5494634Y-21969116D01*
X5776616Y-21969116D01*
X6967241Y-22794616D02*
X6967241Y-22512634D01*
X6685259Y-22512634D01*
X6685259Y-22794616D01*
X6967241Y-22794616D01*
X16492241Y-21969116D02*
X16492241Y-21687134D01*
X16210259Y-21687134D01*
X16210259Y-21969116D01*
X16492241Y-21969116D01*
X10777241Y-21969116D02*
X10777241Y-21687134D01*
X10495259Y-21687134D01*
X10495259Y-21969116D01*
X10777241Y-21969116D01*
X6490991Y-16254116D02*
X6490991Y-15972134D01*
X6209009Y-15972134D01*
X6209009Y-16254116D01*
X6490991Y-16254116D01*
X10300991Y-23048616D02*
X10300991Y-22766634D01*
X10019009Y-22766634D01*
X10019009Y-23048616D01*
X10300991Y-23048616D01*
X16015991Y-23874116D02*
X16015991Y-23592134D01*
X15734009Y-23592134D01*
X15734009Y-23874116D01*
X16015991Y-23874116D01*
X21730991Y-23048616D02*
X21730991Y-22766634D01*
X21449009Y-22766634D01*
X21449009Y-23048616D01*
X21730991Y-23048616D01*
X7919741Y-23874116D02*
X7919741Y-23592134D01*
X7637759Y-23592134D01*
X7637759Y-23874116D01*
X7919741Y-23874116D01*
X27445991Y-16254116D02*
X27445991Y-15972134D01*
X27164009Y-15972134D01*
X27164009Y-16254116D01*
X27445991Y-16254116D01*
D12*
X3776428Y-25153839D02*
X3776428Y-24853839D01*
X3847857Y-24853839D01*
X3890714Y-24868125D01*
X3919286Y-24896696D01*
X3933571Y-24925268D01*
X3947857Y-24982411D01*
X3947857Y-25025268D01*
X3933571Y-25082411D01*
X3919286Y-25110982D01*
X3890714Y-25139554D01*
X3847857Y-25153839D01*
X3776428Y-25153839D01*
X4076428Y-25153839D02*
X4076428Y-24953839D01*
X4076428Y-25010982D02*
X4090714Y-24982411D01*
X4105000Y-24968125D01*
X4133571Y-24953839D01*
X4162143Y-24953839D01*
X4262143Y-25153839D02*
X4262143Y-24953839D01*
X4262143Y-24853839D02*
X4247857Y-24868125D01*
X4262143Y-24882411D01*
X4276428Y-24868125D01*
X4262143Y-24853839D01*
X4262143Y-24882411D01*
X4447857Y-25153839D02*
X4419286Y-25139554D01*
X4405000Y-25110982D01*
X4405000Y-24853839D01*
X4605000Y-25153839D02*
X4576428Y-25139554D01*
X4562143Y-25110982D01*
X4562143Y-24853839D01*
X4947857Y-25153839D02*
X4947857Y-24853839D01*
X5047857Y-25068125D01*
X5147857Y-24853839D01*
X5147857Y-25153839D01*
X5419286Y-25153839D02*
X5419286Y-24996696D01*
X5405000Y-24968125D01*
X5376428Y-24953839D01*
X5319286Y-24953839D01*
X5290714Y-24968125D01*
X5419286Y-25139554D02*
X5390714Y-25153839D01*
X5319286Y-25153839D01*
X5290714Y-25139554D01*
X5276428Y-25110982D01*
X5276428Y-25082411D01*
X5290714Y-25053839D01*
X5319286Y-25039554D01*
X5390714Y-25039554D01*
X5419286Y-25025268D01*
X5562143Y-24953839D02*
X5562143Y-25253839D01*
X5562143Y-24968125D02*
X5590714Y-24953839D01*
X5647857Y-24953839D01*
X5676428Y-24968125D01*
X5690714Y-24982411D01*
X5705000Y-25010982D01*
X5705000Y-25096696D01*
X5690714Y-25125268D01*
X5676428Y-25139554D01*
X5647857Y-25153839D01*
X5590714Y-25153839D01*
X5562143Y-25139554D01*
X5833571Y-25125268D02*
X5847857Y-25139554D01*
X5833571Y-25153839D01*
X5819286Y-25139554D01*
X5833571Y-25125268D01*
X5833571Y-25153839D01*
X5833571Y-24968125D02*
X5847857Y-24982411D01*
X5833571Y-24996696D01*
X5819286Y-24982411D01*
X5833571Y-24968125D01*
X5833571Y-24996696D01*
X3315000Y-25560625D02*
X3490000Y-25735625D01*
X3490000Y-25560625D02*
X3315000Y-25735625D01*
X3933571Y-25783839D02*
X3762143Y-25783839D01*
X3847857Y-25783839D02*
X3847857Y-25483839D01*
X3819286Y-25526696D01*
X3790714Y-25555268D01*
X3762143Y-25569554D01*
X4062143Y-25755268D02*
X4076428Y-25769554D01*
X4062143Y-25783839D01*
X4047857Y-25769554D01*
X4062143Y-25755268D01*
X4062143Y-25783839D01*
X4176428Y-25483839D02*
X4376428Y-25483839D01*
X4247857Y-25783839D01*
X4633571Y-25483839D02*
X4490714Y-25483839D01*
X4476428Y-25626696D01*
X4490714Y-25612411D01*
X4519286Y-25598125D01*
X4590714Y-25598125D01*
X4619286Y-25612411D01*
X4633571Y-25626696D01*
X4647857Y-25655268D01*
X4647857Y-25726696D01*
X4633571Y-25755268D01*
X4619286Y-25769554D01*
X4590714Y-25783839D01*
X4519286Y-25783839D01*
X4490714Y-25769554D01*
X4476428Y-25755268D01*
X4776428Y-25783839D02*
X4776428Y-25583839D01*
X4776428Y-25612411D02*
X4790714Y-25598125D01*
X4819286Y-25583839D01*
X4862143Y-25583839D01*
X4890714Y-25598125D01*
X4905000Y-25626696D01*
X4905000Y-25783839D01*
X4905000Y-25626696D02*
X4919286Y-25598125D01*
X4947857Y-25583839D01*
X4990714Y-25583839D01*
X5019286Y-25598125D01*
X5033571Y-25626696D01*
X5033571Y-25783839D01*
X5176428Y-25783839D02*
X5176428Y-25583839D01*
X5176428Y-25612411D02*
X5190714Y-25598125D01*
X5219286Y-25583839D01*
X5262143Y-25583839D01*
X5290714Y-25598125D01*
X5305000Y-25626696D01*
X5305000Y-25783839D01*
X5305000Y-25626696D02*
X5319286Y-25598125D01*
X5347857Y-25583839D01*
X5390714Y-25583839D01*
X5419286Y-25598125D01*
X5433571Y-25626696D01*
X5433571Y-25783839D01*
X6019286Y-25469554D02*
X5762143Y-25855268D01*
X6405000Y-25483839D02*
X6433571Y-25483839D01*
X6462143Y-25498125D01*
X6476428Y-25512411D01*
X6490714Y-25540982D01*
X6505000Y-25598125D01*
X6505000Y-25669554D01*
X6490714Y-25726696D01*
X6476428Y-25755268D01*
X6462143Y-25769554D01*
X6433571Y-25783839D01*
X6405000Y-25783839D01*
X6376428Y-25769554D01*
X6362143Y-25755268D01*
X6347857Y-25726696D01*
X6333571Y-25669554D01*
X6333571Y-25598125D01*
X6347857Y-25540982D01*
X6362143Y-25512411D01*
X6376428Y-25498125D01*
X6405000Y-25483839D01*
X6633571Y-25755268D02*
X6647857Y-25769554D01*
X6633571Y-25783839D01*
X6619286Y-25769554D01*
X6633571Y-25755268D01*
X6633571Y-25783839D01*
X6833571Y-25483839D02*
X6862143Y-25483839D01*
X6890714Y-25498125D01*
X6905000Y-25512411D01*
X6919286Y-25540982D01*
X6933571Y-25598125D01*
X6933571Y-25669554D01*
X6919286Y-25726696D01*
X6905000Y-25755268D01*
X6890714Y-25769554D01*
X6862143Y-25783839D01*
X6833571Y-25783839D01*
X6805000Y-25769554D01*
X6790714Y-25755268D01*
X6776428Y-25726696D01*
X6762143Y-25669554D01*
X6762143Y-25598125D01*
X6776428Y-25540982D01*
X6790714Y-25512411D01*
X6805000Y-25498125D01*
X6833571Y-25483839D01*
X7190714Y-25483839D02*
X7133571Y-25483839D01*
X7105000Y-25498125D01*
X7090714Y-25512411D01*
X7062143Y-25555268D01*
X7047857Y-25612411D01*
X7047857Y-25726696D01*
X7062143Y-25755268D01*
X7076428Y-25769554D01*
X7105000Y-25783839D01*
X7162143Y-25783839D01*
X7190714Y-25769554D01*
X7205000Y-25755268D01*
X7219286Y-25726696D01*
X7219286Y-25655268D01*
X7205000Y-25626696D01*
X7190714Y-25612411D01*
X7162143Y-25598125D01*
X7105000Y-25598125D01*
X7076428Y-25612411D01*
X7062143Y-25626696D01*
X7047857Y-25655268D01*
X7362143Y-25783839D02*
X7419286Y-25783839D01*
X7447857Y-25769554D01*
X7462143Y-25755268D01*
X7490714Y-25712411D01*
X7505000Y-25655268D01*
X7505000Y-25540982D01*
X7490714Y-25512411D01*
X7476428Y-25498125D01*
X7447857Y-25483839D01*
X7390714Y-25483839D01*
X7362143Y-25498125D01*
X7347857Y-25512411D01*
X7333571Y-25540982D01*
X7333571Y-25612411D01*
X7347857Y-25640982D01*
X7362143Y-25655268D01*
X7390714Y-25669554D01*
X7447857Y-25669554D01*
X7476428Y-25655268D01*
X7490714Y-25640982D01*
X7505000Y-25612411D01*
X7619286Y-25483839D02*
X7619286Y-25540982D01*
X7733571Y-25483839D02*
X7733571Y-25540982D01*
X8176428Y-25898125D02*
X8162143Y-25883839D01*
X8133571Y-25840982D01*
X8119286Y-25812411D01*
X8105000Y-25769554D01*
X8090714Y-25698125D01*
X8090714Y-25640982D01*
X8105000Y-25569554D01*
X8119286Y-25526696D01*
X8133571Y-25498125D01*
X8162143Y-25455268D01*
X8176428Y-25440982D01*
X8447857Y-25783839D02*
X8276428Y-25783839D01*
X8362143Y-25783839D02*
X8362143Y-25483839D01*
X8333571Y-25526696D01*
X8305000Y-25555268D01*
X8276428Y-25569554D01*
X8719286Y-25483839D02*
X8576428Y-25483839D01*
X8562143Y-25626696D01*
X8576428Y-25612411D01*
X8605000Y-25598125D01*
X8676428Y-25598125D01*
X8705000Y-25612411D01*
X8719286Y-25626696D01*
X8733571Y-25655268D01*
X8733571Y-25726696D01*
X8719286Y-25755268D01*
X8705000Y-25769554D01*
X8676428Y-25783839D01*
X8605000Y-25783839D01*
X8576428Y-25769554D01*
X8562143Y-25755268D01*
X8990714Y-25583839D02*
X8990714Y-25783839D01*
X8919286Y-25469554D02*
X8847857Y-25683839D01*
X9033571Y-25683839D01*
X9376428Y-25783839D02*
X9376428Y-25483839D01*
X9505000Y-25783839D02*
X9505000Y-25626696D01*
X9490714Y-25598125D01*
X9462143Y-25583839D01*
X9419286Y-25583839D01*
X9390714Y-25598125D01*
X9376428Y-25612411D01*
X9690714Y-25783839D02*
X9662143Y-25769554D01*
X9647857Y-25755268D01*
X9633571Y-25726696D01*
X9633571Y-25640982D01*
X9647857Y-25612411D01*
X9662143Y-25598125D01*
X9690714Y-25583839D01*
X9733571Y-25583839D01*
X9762143Y-25598125D01*
X9776428Y-25612411D01*
X9790714Y-25640982D01*
X9790714Y-25726696D01*
X9776428Y-25755268D01*
X9762143Y-25769554D01*
X9733571Y-25783839D01*
X9690714Y-25783839D01*
X9962143Y-25783839D02*
X9933571Y-25769554D01*
X9919286Y-25740982D01*
X9919286Y-25483839D01*
X10190714Y-25769554D02*
X10162143Y-25783839D01*
X10105000Y-25783839D01*
X10076428Y-25769554D01*
X10062143Y-25740982D01*
X10062143Y-25626696D01*
X10076428Y-25598125D01*
X10105000Y-25583839D01*
X10162143Y-25583839D01*
X10190714Y-25598125D01*
X10205000Y-25626696D01*
X10205000Y-25655268D01*
X10062143Y-25683839D01*
X10319286Y-25769554D02*
X10347857Y-25783839D01*
X10405000Y-25783839D01*
X10433571Y-25769554D01*
X10447857Y-25740982D01*
X10447857Y-25726696D01*
X10433571Y-25698125D01*
X10405000Y-25683839D01*
X10362143Y-25683839D01*
X10333571Y-25669554D01*
X10319286Y-25640982D01*
X10319286Y-25626696D01*
X10333571Y-25598125D01*
X10362143Y-25583839D01*
X10405000Y-25583839D01*
X10433571Y-25598125D01*
X10547857Y-25898125D02*
X10562143Y-25883839D01*
X10590714Y-25840982D01*
X10605000Y-25812411D01*
X10619286Y-25769554D01*
X10633571Y-25698125D01*
X10633571Y-25640982D01*
X10619286Y-25569554D01*
X10605000Y-25526696D01*
X10590714Y-25498125D01*
X10562143Y-25455268D01*
X10547857Y-25440982D01*
X11090714Y-25898125D02*
X11076428Y-25883839D01*
X11047857Y-25840982D01*
X11033571Y-25812411D01*
X11019286Y-25769554D01*
X11005000Y-25698125D01*
X11005000Y-25640982D01*
X11019286Y-25569554D01*
X11033571Y-25526696D01*
X11047857Y-25498125D01*
X11076428Y-25455268D01*
X11090714Y-25440982D01*
X11205000Y-25583839D02*
X11205000Y-25783839D01*
X11205000Y-25612411D02*
X11219286Y-25598125D01*
X11247857Y-25583839D01*
X11290714Y-25583839D01*
X11319286Y-25598125D01*
X11333571Y-25626696D01*
X11333571Y-25783839D01*
X11519286Y-25783839D02*
X11490714Y-25769554D01*
X11476428Y-25755268D01*
X11462143Y-25726696D01*
X11462143Y-25640982D01*
X11476428Y-25612411D01*
X11490714Y-25598125D01*
X11519286Y-25583839D01*
X11562143Y-25583839D01*
X11590714Y-25598125D01*
X11605000Y-25612411D01*
X11619286Y-25640982D01*
X11619286Y-25726696D01*
X11605000Y-25755268D01*
X11590714Y-25769554D01*
X11562143Y-25783839D01*
X11519286Y-25783839D01*
X11705000Y-25583839D02*
X11819286Y-25583839D01*
X11747857Y-25483839D02*
X11747857Y-25740982D01*
X11762143Y-25769554D01*
X11790714Y-25783839D01*
X11819286Y-25783839D01*
X12147857Y-25583839D02*
X12147857Y-25883839D01*
X12147857Y-25598125D02*
X12176428Y-25583839D01*
X12233571Y-25583839D01*
X12262143Y-25598125D01*
X12276428Y-25612411D01*
X12290714Y-25640982D01*
X12290714Y-25726696D01*
X12276428Y-25755268D01*
X12262143Y-25769554D01*
X12233571Y-25783839D01*
X12176428Y-25783839D01*
X12147857Y-25769554D01*
X12462143Y-25783839D02*
X12433571Y-25769554D01*
X12419286Y-25740982D01*
X12419286Y-25483839D01*
X12705000Y-25783839D02*
X12705000Y-25626696D01*
X12690714Y-25598125D01*
X12662143Y-25583839D01*
X12605000Y-25583839D01*
X12576428Y-25598125D01*
X12705000Y-25769554D02*
X12676428Y-25783839D01*
X12605000Y-25783839D01*
X12576428Y-25769554D01*
X12562143Y-25740982D01*
X12562143Y-25712411D01*
X12576428Y-25683839D01*
X12605000Y-25669554D01*
X12676428Y-25669554D01*
X12705000Y-25655268D01*
X12805000Y-25583839D02*
X12919286Y-25583839D01*
X12847857Y-25483839D02*
X12847857Y-25740982D01*
X12862143Y-25769554D01*
X12890714Y-25783839D01*
X12919286Y-25783839D01*
X13133571Y-25769554D02*
X13105000Y-25783839D01*
X13047857Y-25783839D01*
X13019286Y-25769554D01*
X13005000Y-25740982D01*
X13005000Y-25626696D01*
X13019286Y-25598125D01*
X13047857Y-25583839D01*
X13105000Y-25583839D01*
X13133571Y-25598125D01*
X13147857Y-25626696D01*
X13147857Y-25655268D01*
X13005000Y-25683839D01*
X13405000Y-25783839D02*
X13405000Y-25483839D01*
X13405000Y-25769554D02*
X13376428Y-25783839D01*
X13319286Y-25783839D01*
X13290714Y-25769554D01*
X13276428Y-25755268D01*
X13262143Y-25726696D01*
X13262143Y-25640982D01*
X13276428Y-25612411D01*
X13290714Y-25598125D01*
X13319286Y-25583839D01*
X13376428Y-25583839D01*
X13405000Y-25598125D01*
X13519286Y-25898125D02*
X13533571Y-25883839D01*
X13562143Y-25840982D01*
X13576428Y-25812411D01*
X13590714Y-25769554D01*
X13605000Y-25698125D01*
X13605000Y-25640982D01*
X13590714Y-25569554D01*
X13576428Y-25526696D01*
X13562143Y-25498125D01*
X13533571Y-25455268D01*
X13519286Y-25440982D01*
X3490000Y-26044125D02*
G75*
G03*
X3490000Y-26044125I-110000J0D01*
G01*
X3762143Y-25908411D02*
X3776428Y-25894125D01*
X3805000Y-25879839D01*
X3876428Y-25879839D01*
X3905000Y-25894125D01*
X3919286Y-25908411D01*
X3933571Y-25936982D01*
X3933571Y-25965554D01*
X3919286Y-26008411D01*
X3747857Y-26179839D01*
X3933571Y-26179839D01*
X4062143Y-26151268D02*
X4076428Y-26165554D01*
X4062143Y-26179839D01*
X4047857Y-26165554D01*
X4062143Y-26151268D01*
X4062143Y-26179839D01*
X4190714Y-25908411D02*
X4205000Y-25894125D01*
X4233571Y-25879839D01*
X4305000Y-25879839D01*
X4333571Y-25894125D01*
X4347857Y-25908411D01*
X4362143Y-25936982D01*
X4362143Y-25965554D01*
X4347857Y-26008411D01*
X4176428Y-26179839D01*
X4362143Y-26179839D01*
X4547857Y-25879839D02*
X4576428Y-25879839D01*
X4605000Y-25894125D01*
X4619286Y-25908411D01*
X4633571Y-25936982D01*
X4647857Y-25994125D01*
X4647857Y-26065554D01*
X4633571Y-26122696D01*
X4619286Y-26151268D01*
X4605000Y-26165554D01*
X4576428Y-26179839D01*
X4547857Y-26179839D01*
X4519286Y-26165554D01*
X4505000Y-26151268D01*
X4490714Y-26122696D01*
X4476428Y-26065554D01*
X4476428Y-25994125D01*
X4490714Y-25936982D01*
X4505000Y-25908411D01*
X4519286Y-25894125D01*
X4547857Y-25879839D01*
X4776428Y-26179839D02*
X4776428Y-25979839D01*
X4776428Y-26008411D02*
X4790714Y-25994125D01*
X4819286Y-25979839D01*
X4862143Y-25979839D01*
X4890714Y-25994125D01*
X4905000Y-26022696D01*
X4905000Y-26179839D01*
X4905000Y-26022696D02*
X4919286Y-25994125D01*
X4947857Y-25979839D01*
X4990714Y-25979839D01*
X5019286Y-25994125D01*
X5033571Y-26022696D01*
X5033571Y-26179839D01*
X5176428Y-26179839D02*
X5176428Y-25979839D01*
X5176428Y-26008411D02*
X5190714Y-25994125D01*
X5219286Y-25979839D01*
X5262143Y-25979839D01*
X5290714Y-25994125D01*
X5305000Y-26022696D01*
X5305000Y-26179839D01*
X5305000Y-26022696D02*
X5319286Y-25994125D01*
X5347857Y-25979839D01*
X5390714Y-25979839D01*
X5419286Y-25994125D01*
X5433571Y-26022696D01*
X5433571Y-26179839D01*
X6019286Y-25865554D02*
X5762143Y-26251268D01*
X6405000Y-25879839D02*
X6433571Y-25879839D01*
X6462143Y-25894125D01*
X6476428Y-25908411D01*
X6490714Y-25936982D01*
X6505000Y-25994125D01*
X6505000Y-26065554D01*
X6490714Y-26122696D01*
X6476428Y-26151268D01*
X6462143Y-26165554D01*
X6433571Y-26179839D01*
X6405000Y-26179839D01*
X6376428Y-26165554D01*
X6362143Y-26151268D01*
X6347857Y-26122696D01*
X6333571Y-26065554D01*
X6333571Y-25994125D01*
X6347857Y-25936982D01*
X6362143Y-25908411D01*
X6376428Y-25894125D01*
X6405000Y-25879839D01*
X6633571Y-26151268D02*
X6647857Y-26165554D01*
X6633571Y-26179839D01*
X6619286Y-26165554D01*
X6633571Y-26151268D01*
X6633571Y-26179839D01*
X6833571Y-25879839D02*
X6862143Y-25879839D01*
X6890714Y-25894125D01*
X6905000Y-25908411D01*
X6919286Y-25936982D01*
X6933571Y-25994125D01*
X6933571Y-26065554D01*
X6919286Y-26122696D01*
X6905000Y-26151268D01*
X6890714Y-26165554D01*
X6862143Y-26179839D01*
X6833571Y-26179839D01*
X6805000Y-26165554D01*
X6790714Y-26151268D01*
X6776428Y-26122696D01*
X6762143Y-26065554D01*
X6762143Y-25994125D01*
X6776428Y-25936982D01*
X6790714Y-25908411D01*
X6805000Y-25894125D01*
X6833571Y-25879839D01*
X7105000Y-26008411D02*
X7076428Y-25994125D01*
X7062143Y-25979839D01*
X7047857Y-25951268D01*
X7047857Y-25936982D01*
X7062143Y-25908411D01*
X7076428Y-25894125D01*
X7105000Y-25879839D01*
X7162143Y-25879839D01*
X7190714Y-25894125D01*
X7205000Y-25908411D01*
X7219286Y-25936982D01*
X7219286Y-25951268D01*
X7205000Y-25979839D01*
X7190714Y-25994125D01*
X7162143Y-26008411D01*
X7105000Y-26008411D01*
X7076428Y-26022696D01*
X7062143Y-26036982D01*
X7047857Y-26065554D01*
X7047857Y-26122696D01*
X7062143Y-26151268D01*
X7076428Y-26165554D01*
X7105000Y-26179839D01*
X7162143Y-26179839D01*
X7190714Y-26165554D01*
X7205000Y-26151268D01*
X7219286Y-26122696D01*
X7219286Y-26065554D01*
X7205000Y-26036982D01*
X7190714Y-26022696D01*
X7162143Y-26008411D01*
X7319286Y-25879839D02*
X7519286Y-25879839D01*
X7390714Y-26179839D01*
X7619286Y-25879839D02*
X7619286Y-25936982D01*
X7733571Y-25879839D02*
X7733571Y-25936982D01*
X8176428Y-26294125D02*
X8162143Y-26279839D01*
X8133571Y-26236982D01*
X8119286Y-26208411D01*
X8105000Y-26165554D01*
X8090714Y-26094125D01*
X8090714Y-26036982D01*
X8105000Y-25965554D01*
X8119286Y-25922696D01*
X8133571Y-25894125D01*
X8162143Y-25851268D01*
X8176428Y-25836982D01*
X8419286Y-25979839D02*
X8419286Y-26179839D01*
X8347857Y-25865554D02*
X8276428Y-26079839D01*
X8462143Y-26079839D01*
X8805000Y-26179839D02*
X8805000Y-25879839D01*
X8933571Y-26179839D02*
X8933571Y-26022696D01*
X8919286Y-25994125D01*
X8890714Y-25979839D01*
X8847857Y-25979839D01*
X8819286Y-25994125D01*
X8805000Y-26008411D01*
X9119286Y-26179839D02*
X9090714Y-26165554D01*
X9076428Y-26151268D01*
X9062143Y-26122696D01*
X9062143Y-26036982D01*
X9076428Y-26008411D01*
X9090714Y-25994125D01*
X9119286Y-25979839D01*
X9162143Y-25979839D01*
X9190714Y-25994125D01*
X9205000Y-26008411D01*
X9219286Y-26036982D01*
X9219286Y-26122696D01*
X9205000Y-26151268D01*
X9190714Y-26165554D01*
X9162143Y-26179839D01*
X9119286Y-26179839D01*
X9390714Y-26179839D02*
X9362143Y-26165554D01*
X9347857Y-26136982D01*
X9347857Y-25879839D01*
X9619286Y-26165554D02*
X9590714Y-26179839D01*
X9533571Y-26179839D01*
X9505000Y-26165554D01*
X9490714Y-26136982D01*
X9490714Y-26022696D01*
X9505000Y-25994125D01*
X9533571Y-25979839D01*
X9590714Y-25979839D01*
X9619286Y-25994125D01*
X9633571Y-26022696D01*
X9633571Y-26051268D01*
X9490714Y-26079839D01*
X9747857Y-26165554D02*
X9776428Y-26179839D01*
X9833571Y-26179839D01*
X9862143Y-26165554D01*
X9876428Y-26136982D01*
X9876428Y-26122696D01*
X9862143Y-26094125D01*
X9833571Y-26079839D01*
X9790714Y-26079839D01*
X9762143Y-26065554D01*
X9747857Y-26036982D01*
X9747857Y-26022696D01*
X9762143Y-25994125D01*
X9790714Y-25979839D01*
X9833571Y-25979839D01*
X9862143Y-25994125D01*
X9976428Y-26294125D02*
X9990714Y-26279839D01*
X10019286Y-26236982D01*
X10033571Y-26208411D01*
X10047857Y-26165554D01*
X10062143Y-26094125D01*
X10062143Y-26036982D01*
X10047857Y-25965554D01*
X10033571Y-25922696D01*
X10019286Y-25894125D01*
X9990714Y-25851268D01*
X9976428Y-25836982D01*
X10519286Y-26294125D02*
X10505000Y-26279839D01*
X10476428Y-26236982D01*
X10462143Y-26208411D01*
X10447857Y-26165554D01*
X10433571Y-26094125D01*
X10433571Y-26036982D01*
X10447857Y-25965554D01*
X10462143Y-25922696D01*
X10476428Y-25894125D01*
X10505000Y-25851268D01*
X10519286Y-25836982D01*
X10633571Y-25979839D02*
X10633571Y-26179839D01*
X10633571Y-26008411D02*
X10647857Y-25994125D01*
X10676428Y-25979839D01*
X10719286Y-25979839D01*
X10747857Y-25994125D01*
X10762143Y-26022696D01*
X10762143Y-26179839D01*
X10947857Y-26179839D02*
X10919286Y-26165554D01*
X10905000Y-26151268D01*
X10890714Y-26122696D01*
X10890714Y-26036982D01*
X10905000Y-26008411D01*
X10919286Y-25994125D01*
X10947857Y-25979839D01*
X10990714Y-25979839D01*
X11019286Y-25994125D01*
X11033571Y-26008411D01*
X11047857Y-26036982D01*
X11047857Y-26122696D01*
X11033571Y-26151268D01*
X11019286Y-26165554D01*
X10990714Y-26179839D01*
X10947857Y-26179839D01*
X11133571Y-25979839D02*
X11247857Y-25979839D01*
X11176428Y-25879839D02*
X11176428Y-26136982D01*
X11190714Y-26165554D01*
X11219286Y-26179839D01*
X11247857Y-26179839D01*
X11576428Y-25979839D02*
X11576428Y-26279839D01*
X11576428Y-25994125D02*
X11605000Y-25979839D01*
X11662143Y-25979839D01*
X11690714Y-25994125D01*
X11705000Y-26008411D01*
X11719286Y-26036982D01*
X11719286Y-26122696D01*
X11705000Y-26151268D01*
X11690714Y-26165554D01*
X11662143Y-26179839D01*
X11605000Y-26179839D01*
X11576428Y-26165554D01*
X11890714Y-26179839D02*
X11862143Y-26165554D01*
X11847857Y-26136982D01*
X11847857Y-25879839D01*
X12133571Y-26179839D02*
X12133571Y-26022696D01*
X12119286Y-25994125D01*
X12090714Y-25979839D01*
X12033571Y-25979839D01*
X12005000Y-25994125D01*
X12133571Y-26165554D02*
X12105000Y-26179839D01*
X12033571Y-26179839D01*
X12005000Y-26165554D01*
X11990714Y-26136982D01*
X11990714Y-26108411D01*
X12005000Y-26079839D01*
X12033571Y-26065554D01*
X12105000Y-26065554D01*
X12133571Y-26051268D01*
X12233571Y-25979839D02*
X12347857Y-25979839D01*
X12276428Y-25879839D02*
X12276428Y-26136982D01*
X12290714Y-26165554D01*
X12319286Y-26179839D01*
X12347857Y-26179839D01*
X12562143Y-26165554D02*
X12533571Y-26179839D01*
X12476428Y-26179839D01*
X12447857Y-26165554D01*
X12433571Y-26136982D01*
X12433571Y-26022696D01*
X12447857Y-25994125D01*
X12476428Y-25979839D01*
X12533571Y-25979839D01*
X12562143Y-25994125D01*
X12576428Y-26022696D01*
X12576428Y-26051268D01*
X12433571Y-26079839D01*
X12833571Y-26179839D02*
X12833571Y-25879839D01*
X12833571Y-26165554D02*
X12805000Y-26179839D01*
X12747857Y-26179839D01*
X12719286Y-26165554D01*
X12705000Y-26151268D01*
X12690714Y-26122696D01*
X12690714Y-26036982D01*
X12705000Y-26008411D01*
X12719286Y-25994125D01*
X12747857Y-25979839D01*
X12805000Y-25979839D01*
X12833571Y-25994125D01*
X12947857Y-26294125D02*
X12962143Y-26279839D01*
X12990714Y-26236982D01*
X13005000Y-26208411D01*
X13019286Y-26165554D01*
X13033571Y-26094125D01*
X13033571Y-26036982D01*
X13019286Y-25965554D01*
X13005000Y-25922696D01*
X12990714Y-25894125D01*
X12962143Y-25851268D01*
X12947857Y-25836982D01*
X3337600Y-26287725D02*
X3337600Y-26592525D01*
X3185200Y-26440125D02*
X3490000Y-26440125D01*
X3747857Y-26275839D02*
X3933571Y-26275839D01*
X3833571Y-26390125D01*
X3876428Y-26390125D01*
X3905000Y-26404411D01*
X3919286Y-26418696D01*
X3933571Y-26447268D01*
X3933571Y-26518696D01*
X3919286Y-26547268D01*
X3905000Y-26561554D01*
X3876428Y-26575839D01*
X3790714Y-26575839D01*
X3762143Y-26561554D01*
X3747857Y-26547268D01*
X4062143Y-26547268D02*
X4076428Y-26561554D01*
X4062143Y-26575839D01*
X4047857Y-26561554D01*
X4062143Y-26547268D01*
X4062143Y-26575839D01*
X4262143Y-26275839D02*
X4290714Y-26275839D01*
X4319286Y-26290125D01*
X4333571Y-26304411D01*
X4347857Y-26332982D01*
X4362143Y-26390125D01*
X4362143Y-26461554D01*
X4347857Y-26518696D01*
X4333571Y-26547268D01*
X4319286Y-26561554D01*
X4290714Y-26575839D01*
X4262143Y-26575839D01*
X4233571Y-26561554D01*
X4219286Y-26547268D01*
X4205000Y-26518696D01*
X4190714Y-26461554D01*
X4190714Y-26390125D01*
X4205000Y-26332982D01*
X4219286Y-26304411D01*
X4233571Y-26290125D01*
X4262143Y-26275839D01*
X4633571Y-26275839D02*
X4490714Y-26275839D01*
X4476428Y-26418696D01*
X4490714Y-26404411D01*
X4519286Y-26390125D01*
X4590714Y-26390125D01*
X4619286Y-26404411D01*
X4633571Y-26418696D01*
X4647857Y-26447268D01*
X4647857Y-26518696D01*
X4633571Y-26547268D01*
X4619286Y-26561554D01*
X4590714Y-26575839D01*
X4519286Y-26575839D01*
X4490714Y-26561554D01*
X4476428Y-26547268D01*
X4776428Y-26575839D02*
X4776428Y-26375839D01*
X4776428Y-26404411D02*
X4790714Y-26390125D01*
X4819286Y-26375839D01*
X4862143Y-26375839D01*
X4890714Y-26390125D01*
X4905000Y-26418696D01*
X4905000Y-26575839D01*
X4905000Y-26418696D02*
X4919286Y-26390125D01*
X4947857Y-26375839D01*
X4990714Y-26375839D01*
X5019286Y-26390125D01*
X5033571Y-26418696D01*
X5033571Y-26575839D01*
X5176428Y-26575839D02*
X5176428Y-26375839D01*
X5176428Y-26404411D02*
X5190714Y-26390125D01*
X5219286Y-26375839D01*
X5262143Y-26375839D01*
X5290714Y-26390125D01*
X5305000Y-26418696D01*
X5305000Y-26575839D01*
X5305000Y-26418696D02*
X5319286Y-26390125D01*
X5347857Y-26375839D01*
X5390714Y-26375839D01*
X5419286Y-26390125D01*
X5433571Y-26418696D01*
X5433571Y-26575839D01*
X6019286Y-26261554D02*
X5762143Y-26647268D01*
X6405000Y-26275839D02*
X6433571Y-26275839D01*
X6462143Y-26290125D01*
X6476428Y-26304411D01*
X6490714Y-26332982D01*
X6505000Y-26390125D01*
X6505000Y-26461554D01*
X6490714Y-26518696D01*
X6476428Y-26547268D01*
X6462143Y-26561554D01*
X6433571Y-26575839D01*
X6405000Y-26575839D01*
X6376428Y-26561554D01*
X6362143Y-26547268D01*
X6347857Y-26518696D01*
X6333571Y-26461554D01*
X6333571Y-26390125D01*
X6347857Y-26332982D01*
X6362143Y-26304411D01*
X6376428Y-26290125D01*
X6405000Y-26275839D01*
X6633571Y-26547268D02*
X6647857Y-26561554D01*
X6633571Y-26575839D01*
X6619286Y-26561554D01*
X6633571Y-26547268D01*
X6633571Y-26575839D01*
X6933571Y-26575839D02*
X6762143Y-26575839D01*
X6847857Y-26575839D02*
X6847857Y-26275839D01*
X6819286Y-26318696D01*
X6790714Y-26347268D01*
X6762143Y-26361554D01*
X7047857Y-26304411D02*
X7062143Y-26290125D01*
X7090714Y-26275839D01*
X7162143Y-26275839D01*
X7190714Y-26290125D01*
X7205000Y-26304411D01*
X7219286Y-26332982D01*
X7219286Y-26361554D01*
X7205000Y-26404411D01*
X7033571Y-26575839D01*
X7219286Y-26575839D01*
X7405000Y-26275839D02*
X7433571Y-26275839D01*
X7462143Y-26290125D01*
X7476428Y-26304411D01*
X7490714Y-26332982D01*
X7505000Y-26390125D01*
X7505000Y-26461554D01*
X7490714Y-26518696D01*
X7476428Y-26547268D01*
X7462143Y-26561554D01*
X7433571Y-26575839D01*
X7405000Y-26575839D01*
X7376428Y-26561554D01*
X7362143Y-26547268D01*
X7347857Y-26518696D01*
X7333571Y-26461554D01*
X7333571Y-26390125D01*
X7347857Y-26332982D01*
X7362143Y-26304411D01*
X7376428Y-26290125D01*
X7405000Y-26275839D01*
X7619286Y-26275839D02*
X7619286Y-26332982D01*
X7733571Y-26275839D02*
X7733571Y-26332982D01*
X8176428Y-26690125D02*
X8162143Y-26675839D01*
X8133571Y-26632982D01*
X8119286Y-26604411D01*
X8105000Y-26561554D01*
X8090714Y-26490125D01*
X8090714Y-26432982D01*
X8105000Y-26361554D01*
X8119286Y-26318696D01*
X8133571Y-26290125D01*
X8162143Y-26247268D01*
X8176428Y-26232982D01*
X8447857Y-26575839D02*
X8276428Y-26575839D01*
X8362143Y-26575839D02*
X8362143Y-26275839D01*
X8333571Y-26318696D01*
X8305000Y-26347268D01*
X8276428Y-26361554D01*
X8705000Y-26375839D02*
X8705000Y-26575839D01*
X8633571Y-26261554D02*
X8562143Y-26475839D01*
X8747857Y-26475839D01*
X9090714Y-26575839D02*
X9090714Y-26275839D01*
X9219286Y-26575839D02*
X9219286Y-26418696D01*
X9205000Y-26390125D01*
X9176428Y-26375839D01*
X9133571Y-26375839D01*
X9105000Y-26390125D01*
X9090714Y-26404411D01*
X9405000Y-26575839D02*
X9376428Y-26561554D01*
X9362143Y-26547268D01*
X9347857Y-26518696D01*
X9347857Y-26432982D01*
X9362143Y-26404411D01*
X9376428Y-26390125D01*
X9405000Y-26375839D01*
X9447857Y-26375839D01*
X9476428Y-26390125D01*
X9490714Y-26404411D01*
X9505000Y-26432982D01*
X9505000Y-26518696D01*
X9490714Y-26547268D01*
X9476428Y-26561554D01*
X9447857Y-26575839D01*
X9405000Y-26575839D01*
X9676428Y-26575839D02*
X9647857Y-26561554D01*
X9633571Y-26532982D01*
X9633571Y-26275839D01*
X9905000Y-26561554D02*
X9876428Y-26575839D01*
X9819286Y-26575839D01*
X9790714Y-26561554D01*
X9776428Y-26532982D01*
X9776428Y-26418696D01*
X9790714Y-26390125D01*
X9819286Y-26375839D01*
X9876428Y-26375839D01*
X9905000Y-26390125D01*
X9919286Y-26418696D01*
X9919286Y-26447268D01*
X9776428Y-26475839D01*
X10033571Y-26561554D02*
X10062143Y-26575839D01*
X10119286Y-26575839D01*
X10147857Y-26561554D01*
X10162143Y-26532982D01*
X10162143Y-26518696D01*
X10147857Y-26490125D01*
X10119286Y-26475839D01*
X10076428Y-26475839D01*
X10047857Y-26461554D01*
X10033571Y-26432982D01*
X10033571Y-26418696D01*
X10047857Y-26390125D01*
X10076428Y-26375839D01*
X10119286Y-26375839D01*
X10147857Y-26390125D01*
X10262143Y-26690125D02*
X10276428Y-26675839D01*
X10305000Y-26632982D01*
X10319286Y-26604411D01*
X10333571Y-26561554D01*
X10347857Y-26490125D01*
X10347857Y-26432982D01*
X10333571Y-26361554D01*
X10319286Y-26318696D01*
X10305000Y-26290125D01*
X10276428Y-26247268D01*
X10262143Y-26232982D01*
X10805000Y-26690125D02*
X10790714Y-26675839D01*
X10762143Y-26632982D01*
X10747857Y-26604411D01*
X10733571Y-26561554D01*
X10719286Y-26490125D01*
X10719286Y-26432982D01*
X10733571Y-26361554D01*
X10747857Y-26318696D01*
X10762143Y-26290125D01*
X10790714Y-26247268D01*
X10805000Y-26232982D01*
X10919286Y-26375839D02*
X10919286Y-26575839D01*
X10919286Y-26404411D02*
X10933571Y-26390125D01*
X10962143Y-26375839D01*
X11005000Y-26375839D01*
X11033571Y-26390125D01*
X11047857Y-26418696D01*
X11047857Y-26575839D01*
X11233571Y-26575839D02*
X11205000Y-26561554D01*
X11190714Y-26547268D01*
X11176428Y-26518696D01*
X11176428Y-26432982D01*
X11190714Y-26404411D01*
X11205000Y-26390125D01*
X11233571Y-26375839D01*
X11276428Y-26375839D01*
X11305000Y-26390125D01*
X11319286Y-26404411D01*
X11333571Y-26432982D01*
X11333571Y-26518696D01*
X11319286Y-26547268D01*
X11305000Y-26561554D01*
X11276428Y-26575839D01*
X11233571Y-26575839D01*
X11419286Y-26375839D02*
X11533571Y-26375839D01*
X11462143Y-26275839D02*
X11462143Y-26532982D01*
X11476428Y-26561554D01*
X11505000Y-26575839D01*
X11533571Y-26575839D01*
X11862143Y-26375839D02*
X11862143Y-26675839D01*
X11862143Y-26390125D02*
X11890714Y-26375839D01*
X11947857Y-26375839D01*
X11976428Y-26390125D01*
X11990714Y-26404411D01*
X12005000Y-26432982D01*
X12005000Y-26518696D01*
X11990714Y-26547268D01*
X11976428Y-26561554D01*
X11947857Y-26575839D01*
X11890714Y-26575839D01*
X11862143Y-26561554D01*
X12176428Y-26575839D02*
X12147857Y-26561554D01*
X12133571Y-26532982D01*
X12133571Y-26275839D01*
X12419286Y-26575839D02*
X12419286Y-26418696D01*
X12405000Y-26390125D01*
X12376428Y-26375839D01*
X12319286Y-26375839D01*
X12290714Y-26390125D01*
X12419286Y-26561554D02*
X12390714Y-26575839D01*
X12319286Y-26575839D01*
X12290714Y-26561554D01*
X12276428Y-26532982D01*
X12276428Y-26504411D01*
X12290714Y-26475839D01*
X12319286Y-26461554D01*
X12390714Y-26461554D01*
X12419286Y-26447268D01*
X12519286Y-26375839D02*
X12633571Y-26375839D01*
X12562143Y-26275839D02*
X12562143Y-26532982D01*
X12576428Y-26561554D01*
X12605000Y-26575839D01*
X12633571Y-26575839D01*
X12847857Y-26561554D02*
X12819286Y-26575839D01*
X12762143Y-26575839D01*
X12733571Y-26561554D01*
X12719286Y-26532982D01*
X12719286Y-26418696D01*
X12733571Y-26390125D01*
X12762143Y-26375839D01*
X12819286Y-26375839D01*
X12847857Y-26390125D01*
X12862143Y-26418696D01*
X12862143Y-26447268D01*
X12719286Y-26475839D01*
X13119286Y-26575839D02*
X13119286Y-26275839D01*
X13119286Y-26561554D02*
X13090714Y-26575839D01*
X13033571Y-26575839D01*
X13005000Y-26561554D01*
X12990714Y-26547268D01*
X12976428Y-26518696D01*
X12976428Y-26432982D01*
X12990714Y-26404411D01*
X13005000Y-26390125D01*
X13033571Y-26375839D01*
X13090714Y-26375839D01*
X13119286Y-26390125D01*
X13233571Y-26690125D02*
X13247857Y-26675839D01*
X13276428Y-26632982D01*
X13290714Y-26604411D01*
X13305000Y-26561554D01*
X13319286Y-26490125D01*
X13319286Y-26432982D01*
X13305000Y-26361554D01*
X13290714Y-26318696D01*
X13276428Y-26290125D01*
X13247857Y-26247268D01*
X13233571Y-26232982D01*
X3431601Y-27015916D02*
X3431601Y-26733934D01*
X3149618Y-26733934D01*
X3149618Y-27015916D01*
X3431601Y-27015916D01*
X3747857Y-26710639D02*
X3933571Y-26710639D01*
X3833571Y-26824925D01*
X3876428Y-26824925D01*
X3905000Y-26839211D01*
X3919286Y-26853496D01*
X3933571Y-26882068D01*
X3933571Y-26953496D01*
X3919286Y-26982068D01*
X3905000Y-26996354D01*
X3876428Y-27010639D01*
X3790714Y-27010639D01*
X3762143Y-26996354D01*
X3747857Y-26982068D01*
X4062143Y-26982068D02*
X4076428Y-26996354D01*
X4062143Y-27010639D01*
X4047857Y-26996354D01*
X4062143Y-26982068D01*
X4062143Y-27010639D01*
X4219286Y-27010639D02*
X4276428Y-27010639D01*
X4305000Y-26996354D01*
X4319286Y-26982068D01*
X4347857Y-26939211D01*
X4362143Y-26882068D01*
X4362143Y-26767782D01*
X4347857Y-26739211D01*
X4333571Y-26724925D01*
X4305000Y-26710639D01*
X4247857Y-26710639D01*
X4219286Y-26724925D01*
X4205000Y-26739211D01*
X4190714Y-26767782D01*
X4190714Y-26839211D01*
X4205000Y-26867782D01*
X4219286Y-26882068D01*
X4247857Y-26896354D01*
X4305000Y-26896354D01*
X4333571Y-26882068D01*
X4347857Y-26867782D01*
X4362143Y-26839211D01*
X4505000Y-27010639D02*
X4562143Y-27010639D01*
X4590714Y-26996354D01*
X4605000Y-26982068D01*
X4633571Y-26939211D01*
X4647857Y-26882068D01*
X4647857Y-26767782D01*
X4633571Y-26739211D01*
X4619286Y-26724925D01*
X4590714Y-26710639D01*
X4533571Y-26710639D01*
X4505000Y-26724925D01*
X4490714Y-26739211D01*
X4476428Y-26767782D01*
X4476428Y-26839211D01*
X4490714Y-26867782D01*
X4505000Y-26882068D01*
X4533571Y-26896354D01*
X4590714Y-26896354D01*
X4619286Y-26882068D01*
X4633571Y-26867782D01*
X4647857Y-26839211D01*
X4776428Y-27010639D02*
X4776428Y-26810639D01*
X4776428Y-26839211D02*
X4790714Y-26824925D01*
X4819286Y-26810639D01*
X4862143Y-26810639D01*
X4890714Y-26824925D01*
X4905000Y-26853496D01*
X4905000Y-27010639D01*
X4905000Y-26853496D02*
X4919286Y-26824925D01*
X4947857Y-26810639D01*
X4990714Y-26810639D01*
X5019286Y-26824925D01*
X5033571Y-26853496D01*
X5033571Y-27010639D01*
X5176428Y-27010639D02*
X5176428Y-26810639D01*
X5176428Y-26839211D02*
X5190714Y-26824925D01*
X5219286Y-26810639D01*
X5262143Y-26810639D01*
X5290714Y-26824925D01*
X5305000Y-26853496D01*
X5305000Y-27010639D01*
X5305000Y-26853496D02*
X5319286Y-26824925D01*
X5347857Y-26810639D01*
X5390714Y-26810639D01*
X5419286Y-26824925D01*
X5433571Y-26853496D01*
X5433571Y-27010639D01*
X6019286Y-26696354D02*
X5762143Y-27082068D01*
X6405000Y-26710639D02*
X6433571Y-26710639D01*
X6462143Y-26724925D01*
X6476428Y-26739211D01*
X6490714Y-26767782D01*
X6505000Y-26824925D01*
X6505000Y-26896354D01*
X6490714Y-26953496D01*
X6476428Y-26982068D01*
X6462143Y-26996354D01*
X6433571Y-27010639D01*
X6405000Y-27010639D01*
X6376428Y-26996354D01*
X6362143Y-26982068D01*
X6347857Y-26953496D01*
X6333571Y-26896354D01*
X6333571Y-26824925D01*
X6347857Y-26767782D01*
X6362143Y-26739211D01*
X6376428Y-26724925D01*
X6405000Y-26710639D01*
X6633571Y-26982068D02*
X6647857Y-26996354D01*
X6633571Y-27010639D01*
X6619286Y-26996354D01*
X6633571Y-26982068D01*
X6633571Y-27010639D01*
X6933571Y-27010639D02*
X6762143Y-27010639D01*
X6847857Y-27010639D02*
X6847857Y-26710639D01*
X6819286Y-26753496D01*
X6790714Y-26782068D01*
X6762143Y-26796354D01*
X7205000Y-26710639D02*
X7062143Y-26710639D01*
X7047857Y-26853496D01*
X7062143Y-26839211D01*
X7090714Y-26824925D01*
X7162143Y-26824925D01*
X7190714Y-26839211D01*
X7205000Y-26853496D01*
X7219286Y-26882068D01*
X7219286Y-26953496D01*
X7205000Y-26982068D01*
X7190714Y-26996354D01*
X7162143Y-27010639D01*
X7090714Y-27010639D01*
X7062143Y-26996354D01*
X7047857Y-26982068D01*
X7319286Y-26710639D02*
X7519286Y-26710639D01*
X7390714Y-27010639D01*
X7619286Y-26710639D02*
X7619286Y-26767782D01*
X7733571Y-26710639D02*
X7733571Y-26767782D01*
X8176428Y-27124925D02*
X8162143Y-27110639D01*
X8133571Y-27067782D01*
X8119286Y-27039211D01*
X8105000Y-26996354D01*
X8090714Y-26924925D01*
X8090714Y-26867782D01*
X8105000Y-26796354D01*
X8119286Y-26753496D01*
X8133571Y-26724925D01*
X8162143Y-26682068D01*
X8176428Y-26667782D01*
X8305000Y-27010639D02*
X8362143Y-27010639D01*
X8390714Y-26996354D01*
X8405000Y-26982068D01*
X8433571Y-26939211D01*
X8447857Y-26882068D01*
X8447857Y-26767782D01*
X8433571Y-26739211D01*
X8419286Y-26724925D01*
X8390714Y-26710639D01*
X8333571Y-26710639D01*
X8305000Y-26724925D01*
X8290714Y-26739211D01*
X8276428Y-26767782D01*
X8276428Y-26839211D01*
X8290714Y-26867782D01*
X8305000Y-26882068D01*
X8333571Y-26896354D01*
X8390714Y-26896354D01*
X8419286Y-26882068D01*
X8433571Y-26867782D01*
X8447857Y-26839211D01*
X8733571Y-27010639D02*
X8562143Y-27010639D01*
X8647857Y-27010639D02*
X8647857Y-26710639D01*
X8619286Y-26753496D01*
X8590714Y-26782068D01*
X8562143Y-26796354D01*
X9090714Y-27010639D02*
X9090714Y-26710639D01*
X9219286Y-27010639D02*
X9219286Y-26853496D01*
X9205000Y-26824925D01*
X9176428Y-26810639D01*
X9133571Y-26810639D01*
X9105000Y-26824925D01*
X9090714Y-26839211D01*
X9405000Y-27010639D02*
X9376428Y-26996354D01*
X9362143Y-26982068D01*
X9347857Y-26953496D01*
X9347857Y-26867782D01*
X9362143Y-26839211D01*
X9376428Y-26824925D01*
X9405000Y-26810639D01*
X9447857Y-26810639D01*
X9476428Y-26824925D01*
X9490714Y-26839211D01*
X9505000Y-26867782D01*
X9505000Y-26953496D01*
X9490714Y-26982068D01*
X9476428Y-26996354D01*
X9447857Y-27010639D01*
X9405000Y-27010639D01*
X9676428Y-27010639D02*
X9647857Y-26996354D01*
X9633571Y-26967782D01*
X9633571Y-26710639D01*
X9905000Y-26996354D02*
X9876428Y-27010639D01*
X9819286Y-27010639D01*
X9790714Y-26996354D01*
X9776428Y-26967782D01*
X9776428Y-26853496D01*
X9790714Y-26824925D01*
X9819286Y-26810639D01*
X9876428Y-26810639D01*
X9905000Y-26824925D01*
X9919286Y-26853496D01*
X9919286Y-26882068D01*
X9776428Y-26910639D01*
X10033571Y-26996354D02*
X10062143Y-27010639D01*
X10119286Y-27010639D01*
X10147857Y-26996354D01*
X10162143Y-26967782D01*
X10162143Y-26953496D01*
X10147857Y-26924925D01*
X10119286Y-26910639D01*
X10076428Y-26910639D01*
X10047857Y-26896354D01*
X10033571Y-26867782D01*
X10033571Y-26853496D01*
X10047857Y-26824925D01*
X10076428Y-26810639D01*
X10119286Y-26810639D01*
X10147857Y-26824925D01*
X10262143Y-27124925D02*
X10276428Y-27110639D01*
X10305000Y-27067782D01*
X10319286Y-27039211D01*
X10333571Y-26996354D01*
X10347857Y-26924925D01*
X10347857Y-26867782D01*
X10333571Y-26796354D01*
X10319286Y-26753496D01*
X10305000Y-26724925D01*
X10276428Y-26682068D01*
X10262143Y-26667782D01*
X10805000Y-27124925D02*
X10790714Y-27110639D01*
X10762143Y-27067782D01*
X10747857Y-27039211D01*
X10733571Y-26996354D01*
X10719286Y-26924925D01*
X10719286Y-26867782D01*
X10733571Y-26796354D01*
X10747857Y-26753496D01*
X10762143Y-26724925D01*
X10790714Y-26682068D01*
X10805000Y-26667782D01*
X10919286Y-26810639D02*
X10919286Y-27010639D01*
X10919286Y-26839211D02*
X10933571Y-26824925D01*
X10962143Y-26810639D01*
X11005000Y-26810639D01*
X11033571Y-26824925D01*
X11047857Y-26853496D01*
X11047857Y-27010639D01*
X11233571Y-27010639D02*
X11205000Y-26996354D01*
X11190714Y-26982068D01*
X11176428Y-26953496D01*
X11176428Y-26867782D01*
X11190714Y-26839211D01*
X11205000Y-26824925D01*
X11233571Y-26810639D01*
X11276428Y-26810639D01*
X11305000Y-26824925D01*
X11319286Y-26839211D01*
X11333571Y-26867782D01*
X11333571Y-26953496D01*
X11319286Y-26982068D01*
X11305000Y-26996354D01*
X11276428Y-27010639D01*
X11233571Y-27010639D01*
X11419286Y-26810639D02*
X11533571Y-26810639D01*
X11462143Y-26710639D02*
X11462143Y-26967782D01*
X11476428Y-26996354D01*
X11505000Y-27010639D01*
X11533571Y-27010639D01*
X11862143Y-26810639D02*
X11862143Y-27110639D01*
X11862143Y-26824925D02*
X11890714Y-26810639D01*
X11947857Y-26810639D01*
X11976428Y-26824925D01*
X11990714Y-26839211D01*
X12005000Y-26867782D01*
X12005000Y-26953496D01*
X11990714Y-26982068D01*
X11976428Y-26996354D01*
X11947857Y-27010639D01*
X11890714Y-27010639D01*
X11862143Y-26996354D01*
X12176428Y-27010639D02*
X12147857Y-26996354D01*
X12133571Y-26967782D01*
X12133571Y-26710639D01*
X12419286Y-27010639D02*
X12419286Y-26853496D01*
X12405000Y-26824925D01*
X12376428Y-26810639D01*
X12319286Y-26810639D01*
X12290714Y-26824925D01*
X12419286Y-26996354D02*
X12390714Y-27010639D01*
X12319286Y-27010639D01*
X12290714Y-26996354D01*
X12276428Y-26967782D01*
X12276428Y-26939211D01*
X12290714Y-26910639D01*
X12319286Y-26896354D01*
X12390714Y-26896354D01*
X12419286Y-26882068D01*
X12519286Y-26810639D02*
X12633571Y-26810639D01*
X12562143Y-26710639D02*
X12562143Y-26967782D01*
X12576428Y-26996354D01*
X12605000Y-27010639D01*
X12633571Y-27010639D01*
X12847857Y-26996354D02*
X12819286Y-27010639D01*
X12762143Y-27010639D01*
X12733571Y-26996354D01*
X12719286Y-26967782D01*
X12719286Y-26853496D01*
X12733571Y-26824925D01*
X12762143Y-26810639D01*
X12819286Y-26810639D01*
X12847857Y-26824925D01*
X12862143Y-26853496D01*
X12862143Y-26882068D01*
X12719286Y-26910639D01*
X13119286Y-27010639D02*
X13119286Y-26710639D01*
X13119286Y-26996354D02*
X13090714Y-27010639D01*
X13033571Y-27010639D01*
X13005000Y-26996354D01*
X12990714Y-26982068D01*
X12976428Y-26953496D01*
X12976428Y-26867782D01*
X12990714Y-26839211D01*
X13005000Y-26824925D01*
X13033571Y-26810639D01*
X13090714Y-26810639D01*
X13119286Y-26824925D01*
X13233571Y-27124925D02*
X13247857Y-27110639D01*
X13276428Y-27067782D01*
X13290714Y-27039211D01*
X13305000Y-26996354D01*
X13319286Y-26924925D01*
X13319286Y-26867782D01*
X13305000Y-26796354D01*
X13290714Y-26753496D01*
X13276428Y-26724925D01*
X13247857Y-26682068D01*
X13233571Y-26667782D01*
M02*
